<?xml version="1.0" encoding="utf-8"?>
<!-- Generator: Adobe Illustrator 16.0.4, SVG Export Plug-In . SVG Version: 6.00 Build 0)  -->
<!DOCTYPE svg PUBLIC "-//W3C//DTD SVG 1.1//EN" "http://www.w3.org/Graphics/SVG/1.1/DTD/svg11.dtd">
<svg version="1.1" id="Layer_1" xmlns="http://www.w3.org/2000/svg" xmlns:xlink="http://www.w3.org/1999/xlink" x="0px" y="0px"
	 width="109.687px" height="106.861px" viewBox="-6.732 -8.223 109.687 106.861"
	 enable-background="new -6.732 -8.223 109.687 106.861" xml:space="preserve">
<g>
	<path fill="#FFF096" d="M25.195,33.409c0,0,1.834-2.323,4.237-2.671c2.405-0.35,4.295-3.709,10.686,0.692
		c6.388,4.4,8.01,8.803,8.01,8.803s-12.504-1.63-14.457,2.771l-1.388,3.461l-1.923-2.123L25.195,33.409z"/>
	<path fill="#FFC906" d="M33.435,31.619c0,0,1.753-1.011,4.847,0.459c3.092,1.47,3.844,2.929,3.844,2.929s-6.662,1.024-9.618,10.436
		C32.507,45.442,29.555,37.684,33.435,31.619z"/>
	<path fill="#FFF096" d="M32.507,45.442c0,0-16.282-36.401-18.698-41.234C11.393-0.627,9.287-10.936,0.963-6.526
		C-7.362-2.119-7.204,7.975-3.151,18.498C0.834,28.858,7.664,50.37,12.493,57.458c4.74,6.969,14.444,12.727,24.533,3.125
		C47.114,50.985,32.507,45.442,32.507,45.442z"/>
	<path fill="#FFE000" d="M66.945,65.33c0,0,2.877,4.012-2.762,3.422c-5.641-0.594-24.079-17.041-24.079-17.041
		s2.091-2.895,5.548-1.556c3.458,1.333,11.248,7.339,11.248,7.339L66.945,65.33z"/>
	<path fill="#FFE000" d="M41.021,49.931c0,0,10.705,12.364,21.516,16.815c10.811,4.449,16.33,7.691,20.363,11.576
		c4.035,3.879,8.152,0.369,10.756-0.523c0,0,3.914-2.971,7.219-1.213c3.303,1.756,0.029,6.949,0.029,6.949s-2.227,3.244-5.035,3.217
		c-2.807-0.025-3.918,0.049-3.918,0.049s-8.502,1.314-12.477,3.861c-3.977,2.549-20.395,9.895-43.448-3.781
		c0,0-19.637-10.906-21.407-21.639c-1.774-10.735,8.165-8.903,11.703-5.295c3.54,3.611,4.125,2.326,4.125,2.326
		s-2.014-9.499,1.86-11.775C36.181,48.225,38.12,47.087,41.021,49.931z"/>
	<path fill="#FFC906" d="M46.293,90.561c-1.816,0.846-7.688-2.133-13.108-4.643c-15.256-7.072-24.257-16.42-19.604-23.445
		c0,0,5.788-8.907,13.21-1.732C31.018,64.822,47.099,85.652,46.293,90.561z"/>
	<path fill="#FFC906" d="M41.574,46.244c0,0-17.407,3.714-6.664,15.385c10.741,11.672,16.439,14.717,28.245,19.713
		c11.803,4.988,17.633,2.691,21.674,0.562c4.033-2.123-0.229-2.029-1.928-3.582c-1.699-1.561-13.039-8.684-16.191-10.119
		C63.555,66.773,47.018,55.246,41.574,46.244z"/>
	<path fill="#FFF096" d="M36.659,67.057C22.176,50.631,43.042,45.156,53.74,54.965c10.695,9.812,23.711,17.558,29.865,16.921
		c6.15-0.641,13.322-1.922-12.109-23.676c-25.432-21.755-34.097-11.375-36.211-8.6c-2.116,2.775-2.139,7.468-5.24,10.379
		c-3.102,2.917-1.236,8.819-1.236,8.819l0.284,1.859c0,0-5.735-5.441-9.216-5.542c-3.486-0.099-6.635,0.358-8.717-1.922
		c-2.086-2.272-2.76-5.325-2.76-5.325S1.869,54.46,1.414,60.965c-0.457,6.506-4.489,10.092,3.034,16.992
		c7.521,6.9,19.799,12.514,23.265,14.418c3.465,1.906,11.683,5.613,15.355,5.342c3.677-0.273,5.612-2.873-0.391-6.559
		C36.67,87.477,15.001,73.43,16.12,65.713c1.122-7.716,7.425-6.307,11.238-2.996"/>
	<path fill="#FFC906" d="M9.234,50.65l5.15,8.188c0,0-5.748-0.717-10.538,2.723C3.846,61.561,5.012,52.978,9.234,50.65z"/>
	<g>
		<path fill="#FFF096" d="M45.223,71.816c0,0,0.525,0.295,1.444,0.814c0.453,0.256,1.005,0.566,1.638,0.924
			c0.631,0.348,1.343,0.74,2.119,1.168c0.788,0.406,1.607,0.891,2.507,1.344c0.887,0.473,1.836,0.938,2.807,1.434
			c0.969,0.502,2,0.949,3.02,1.459c1.051,0.439,2.092,0.953,3.166,1.373c1.082,0.398,2.135,0.887,3.221,1.217
			c1.07,0.381,2.125,0.76,3.176,1.006c0.523,0.141,1.033,0.303,1.535,0.449c0.504,0.145,1.006,0.221,1.492,0.33
			c0.975,0.186,1.893,0.477,2.762,0.549c0.865,0.109,1.662,0.264,2.377,0.373c0.717,0.059,1.342,0.107,1.857,0.148
			c1.039,0.094,1.648,0.174,1.648,0.174s-0.578,0.148-1.615,0.363c-0.52,0.094-1.152,0.246-1.889,0.354
			c-0.732,0.045-1.568,0.127-2.484,0.156c-0.92,0.072-1.906-0.002-2.955-0.074c-0.523-0.049-1.07-0.061-1.615-0.143
			c-0.543-0.088-1.104-0.166-1.668-0.271c-1.141-0.176-2.283-0.486-3.449-0.799c-1.176-0.285-2.311-0.742-3.461-1.158
			c-1.15-0.42-2.24-0.971-3.338-1.459c-1.053-0.574-2.111-1.102-3.074-1.715c-0.965-0.605-1.895-1.195-2.721-1.836
			c-0.847-0.609-1.62-1.221-2.306-1.818c-1.383-1.18-2.446-2.262-3.142-3.066C45.566,72.322,45.223,71.816,45.223,71.816z"/>
	</g>
	<g>
		<path fill="#FFE000" d="M83.605,71.887c0,0,0.295-0.053,0.848-0.152c0.549-0.107,1.363-0.262,2.342-0.572
			c0.48-0.168,1.01-0.385,1.465-0.742c0.451-0.355,0.791-0.865,0.805-1.494c0.021-1.275-0.832-2.723-1.836-4.121
			c-2.074-2.824-5.078-5.734-8.328-8.776c-1.652-1.498-3.363-3.045-5.133-4.587c-0.891-0.766-1.787-1.537-2.688-2.312
			c-0.914-0.751-1.832-1.504-2.752-2.257c-1.826-1.576-3.758-2.897-5.627-4.274c-0.93-0.692-1.934-1.264-2.883-1.893
			c-0.48-0.305-0.953-0.619-1.432-0.909c-0.494-0.264-0.984-0.524-1.471-0.784c-0.975-0.513-1.908-1.076-2.895-1.453
			c-0.975-0.399-1.902-0.891-2.873-1.141c-0.958-0.284-1.877-0.646-2.807-0.776c-0.461-0.092-0.915-0.181-1.36-0.269
			c-0.447-0.068-0.891-0.066-1.323-0.103c-1.739-0.153-3.326,0.109-4.695,0.471c-1.337,0.458-2.473,1.011-3.286,1.65
			c-0.84,0.601-1.427,1.178-1.816,1.579c-0.376,0.416-0.576,0.639-0.576,0.639s0.175-0.244,0.502-0.702
			c0.349-0.438,0.855-1.107,1.669-1.794c0.205-0.171,0.421-0.351,0.647-0.539c0.241-0.169,0.505-0.331,0.774-0.508
			c0.524-0.389,1.187-0.627,1.86-0.962c1.403-0.494,3.088-0.957,4.945-0.891c0.462,0.01,0.94-0.019,1.419,0.024
			c0.476,0.063,0.961,0.128,1.454,0.193c1.004,0.081,1.979,0.397,3.002,0.66c1.042,0.226,2.016,0.685,3.057,1.06
			c1.049,0.358,2.045,0.877,3.066,1.388c0.51,0.256,1.025,0.515,1.545,0.774c0.502,0.285,0.994,0.595,1.498,0.894
			c0.992,0.62,2.041,1.183,3.02,1.87c1.953,1.383,3.973,2.771,5.791,4.306c0.938,0.763,1.854,1.471,2.805,2.276
			c0.898,0.789,1.795,1.576,2.684,2.356c1.773,1.565,3.48,3.152,5.094,4.732c1.607,1.586,3.139,3.15,4.504,4.721
			c1.371,1.565,2.613,3.106,3.586,4.678c0.941,1.553,1.816,3.156,1.627,4.857c-0.098,0.85-0.67,1.529-1.242,1.881
			c-0.584,0.367-1.17,0.533-1.688,0.662c-1.047,0.234-1.877,0.26-2.438,0.299C83.904,71.873,83.605,71.887,83.605,71.887z"/>
	</g>
	<g>
		<path fill="#FFE000" d="M36.659,67.057c0,0-0.197-0.209-0.566-0.6c-0.37-0.391-0.923-0.949-1.539-1.756
			c-0.64-0.785-1.338-1.799-2.033-3.045c-0.645-1.264-1.298-2.808-1.351-4.667c0.014-0.917,0.111-1.921,0.558-2.855
			c0.415-0.938,1.077-1.81,1.911-2.498c0.84-0.681,1.812-1.206,2.848-1.602c1.042-0.38,2.146-0.6,3.272-0.73
			c2.253-0.198,4.607-0.007,6.875,0.66c2.274,0.64,4.459,1.724,6.396,3.162c0.982,0.741,1.811,1.537,2.654,2.29
			c0.842,0.779,1.699,1.479,2.541,2.211c1.721,1.418,3.418,2.82,5.127,4.087c1.695,1.283,3.383,2.461,4.998,3.551
			c1.629,1.07,3.195,2.041,4.676,2.877c0.746,0.404,1.455,0.812,2.152,1.143c0.688,0.359,1.348,0.684,1.984,0.949
			c0.627,0.295,1.23,0.518,1.793,0.719c0.557,0.225,1.088,0.354,1.564,0.488c0.477,0.152,0.912,0.207,1.291,0.281
			c0.381,0.082,0.705,0.129,0.973,0.125c0.535,0.025,0.822,0.039,0.822,0.039s-0.287,0.023-0.822,0.068
			c-0.271,0.037-0.605,0.035-0.996,0.002c-0.393-0.02-0.852-0.033-1.346-0.141c-0.498-0.09-1.059-0.17-1.643-0.342
			c-0.594-0.15-1.234-0.318-1.898-0.555c-1.352-0.42-2.822-1.035-4.393-1.775c-0.789-0.361-1.582-0.791-2.42-1.209
			c-0.814-0.459-1.664-0.92-2.516-1.432c-1.701-1.02-3.479-2.133-5.234-3.398c-1.771-1.242-3.559-2.588-5.316-4.034
			c-0.867-0.736-1.775-1.467-2.613-2.228c-0.859-0.762-1.711-1.527-2.547-2.174c-1.725-1.307-3.693-2.313-5.754-2.912
			c-2.05-0.631-4.178-0.891-6.203-0.766c-1.007,0.09-1.986,0.259-2.905,0.536c-0.91,0.298-1.751,0.704-2.47,1.229
			c-1.426,1.066-2.205,2.656-2.261,4.248c-0.051,1.593,0.389,3.086,0.893,4.346c0.551,1.248,1.142,2.309,1.692,3.131
			c0.536,0.834,0.992,1.482,1.319,1.908C36.49,66.824,36.659,67.057,36.659,67.057z"/>
	</g>
	<g>
		<path fill="#FFE000" d="M35.285,39.611c0,0-0.132,0.306-0.363,0.842c-0.14,0.257-0.243,0.597-0.356,0.97
			c-0.125,0.37-0.249,0.78-0.371,1.262c-0.264,0.938-0.518,2.061-0.919,3.265c-0.175,0.602-0.481,1.21-0.73,1.838
			c-0.147,0.309-0.349,0.6-0.524,0.902c-0.183,0.3-0.35,0.61-0.603,0.871l-0.703,0.812l-0.636,0.687
			c-0.273,0.404-0.572,0.873-0.761,1.402c-0.215,0.51-0.312,1.057-0.424,1.575c-0.09,0.525-0.129,1.035-0.163,1.513
			c-0.047,0.956-0.014,1.773,0.014,2.35c0.032,0.575,0.063,0.911,0.063,0.911s-0.168-0.292-0.381-0.842
			c-0.215-0.549-0.474-1.356-0.621-2.374c-0.08-0.509-0.11-1.069-0.098-1.671c0.021-0.603,0.094-1.246,0.296-1.899
			c0.161-0.658,0.504-1.308,0.974-1.962c0.42-0.474,0.847-0.954,1.272-1.435c0.22-0.206,0.369-0.477,0.533-0.732
			c0.164-0.259,0.327-0.516,0.489-0.771c0.267-0.56,0.585-1.071,0.799-1.644c0.241-0.551,0.485-1.086,0.695-1.615
			c0.208-0.521,0.448-1.014,0.658-1.47c0.191-0.455,0.449-0.866,0.659-1.225c0.2-0.367,0.404-0.654,0.601-0.868
			C35.067,39.862,35.285,39.611,35.285,39.611z"/>
	</g>
	<g>
		<path fill="#FFE000" d="M32.005,45.725c-0.009,0.013,0.111-0.166,0.338-0.438c0.219-0.278,0.573-0.645,1.052-1.083
			c0.945-0.875,2.523-1.978,4.738-2.564c1.107-0.27,2.352-0.379,3.649-0.273c0.639,0.103,1.309,0.156,1.95,0.367
			c0.334,0.103,0.633,0.155,1.003,0.304c0.297,0.116,0.597,0.234,0.899,0.353c0.604,0.234,1.252,0.585,1.884,0.88
			c0.597,0.339,1.213,0.664,1.807,1.023c1.189,0.721,2.364,1.49,3.51,2.291c2.301,1.59,4.496,3.299,6.541,4.907
			c2.047,1.6,3.957,3.093,5.594,4.373s3.045,2.284,4.035,2.984c1.004,0.682,1.578,1.071,1.578,1.071s-0.611-0.332-1.68-0.912
			c-1.049-0.612-2.539-1.508-4.281-2.652c-1.752-1.13-3.74-2.53-5.883-4c-2.143-1.468-4.426-3.033-6.738-4.518
			c-1.159-0.739-2.335-1.44-3.508-2.086c-0.587-0.322-1.182-0.604-1.762-0.902c-0.591-0.241-1.114-0.514-1.731-0.724
			c-0.308-0.106-0.611-0.212-0.913-0.315c-0.226-0.084-0.556-0.137-0.822-0.206c-0.558-0.161-1.115-0.197-1.652-0.276
			c-1.08-0.052-2.1,0.008-3.018,0.222c-1.84,0.428-3.237,1.279-4.154,1.933c-0.458,0.331-0.79,0.63-1.014,0.826
			c-0.224,0.197-0.313,0.296-0.324,0.307L32.005,45.725z"/>
	</g>
	<g>
		<path fill="#FFE000" d="M31.821,46.621c0.001,0-0.564-0.993-1.014-2.593c-0.117-0.401-0.204-0.845-0.317-1.31
			c-0.068-0.475-0.168-0.971-0.22-1.493c-0.037-0.524-0.09-1.063-0.084-1.62c-0.009-0.553,0.028-1.117,0.086-1.682
			c0.022-0.563,0.167-1.126,0.268-1.673c0.124-0.546,0.308-1.076,0.473-1.58c0.24-0.487,0.438-0.965,0.688-1.387
			c0.292-0.403,0.541-0.792,0.812-1.116c0.308-0.291,0.591-0.558,0.841-0.794c0.246-0.232,0.528-0.36,0.723-0.499
			c0.411-0.244,0.646-0.383,0.646-0.383s-0.179,0.206-0.49,0.567c-0.148,0.183-0.37,0.358-0.54,0.636
			c-0.168,0.27-0.357,0.574-0.563,0.906c-0.182,0.342-0.33,0.739-0.51,1.133c-0.153,0.409-0.259,0.865-0.398,1.313
			c-0.062,0.48-0.188,0.952-0.232,1.453c-0.021,0.506-0.101,1.005-0.086,1.522c-0.013,0.512-0.006,1.024,0.04,1.532
			c0.006,0.506,0.069,1.005,0.115,1.488c0.088,0.967,0.212,1.872,0.32,2.651c0.22,1.568,0.367,2.613,0.367,2.613L31.821,46.621z"/>
	</g>
	<g>
		<path fill="#FFE000" d="M42.677,91.158c0,0-0.733-0.391-2.018-1.074c-1.273-0.703-3.08-1.73-5.2-3.047
			c-2.124-1.311-4.558-2.916-7.089-4.758c-2.523-1.854-5.155-3.932-7.576-6.299c-1.207-1.186-2.38-2.43-3.392-3.812
			c-1.002-1.383-1.906-2.895-2.308-4.691c-0.057-0.467-0.153-0.92-0.104-1.41l0.02-0.361c0.01-0.084-0.006-0.062,0.025-0.234
			l0.027-0.141l0.107-0.553l0.111-0.547c0.04-0.184,0.126-0.406,0.188-0.605c0.144-0.404,0.251-0.822,0.468-1.178
			c0.683-1.492,2.083-2.711,3.561-3.078c1.481-0.356,2.8-0.083,3.806,0.322c1.016,0.408,1.81,0.896,2.395,1.375
			c0.308,0.217,0.542,0.465,0.756,0.66c0.217,0.189,0.382,0.373,0.509,0.529c0.257,0.301,0.395,0.461,0.395,0.461
			s-0.186-0.1-0.533-0.285c-0.345-0.184-0.853-0.445-1.511-0.711c-0.644-0.291-1.47-0.531-2.382-0.717
			c-0.913-0.148-1.967-0.211-2.88,0.178c-0.923,0.338-1.646,1.109-2.137,2.211c-0.148,0.262-0.212,0.553-0.312,0.836
			c-0.044,0.15-0.104,0.27-0.141,0.445l-0.108,0.549l-0.113,0.551l-0.029,0.139c0.013-0.078,0.002,0.039,0.004,0.049l-0.011,0.209
			c-0.045,0.273,0.031,0.586,0.054,0.889c0.263,1.252,0.985,2.592,1.886,3.846c0.914,1.252,1.966,2.479,3.088,3.648
			c2.266,2.328,4.741,4.498,7.118,6.465c1.199,0.971,2.355,1.92,3.476,2.791c1.127,0.865,2.192,1.684,3.176,2.438
			C39.971,89.225,42.677,91.158,42.677,91.158z"/>
	</g>
	<g>
		<path fill="#FFE000" d="M7.669,48.074c0,0-0.51,0.819-1.303,2.269c-0.781,1.449-1.879,3.537-2.751,6.108
			c-0.409,1.289-0.777,2.695-0.869,4.159c-0.027,0.402-0.054,0.809-0.081,1.221c-0.04,0.469-0.09,0.912-0.155,1.359
			c-0.126,0.896-0.327,1.783-0.515,2.65c-0.402,1.736-0.778,3.365-0.611,4.881c0.148,1.52,0.944,3.014,2.032,4.396
			c0.545,0.689,1.161,1.348,1.802,1.986c0.648,0.6,1.363,1.303,2.039,1.857c1.351,1.186,2.816,2.287,4.229,3.318
			c2.865,2.029,5.638,3.826,8.067,5.285c2.435,1.449,4.479,2.648,5.917,3.475c1.438,0.828,2.241,1.336,2.241,1.336
			s-0.865-0.387-2.379-1.066c-1.511-0.684-3.69-1.623-6.247-2.887c-2.555-1.266-5.527-2.785-8.573-4.689
			c-1.522-0.965-3.067-1.969-4.604-3.145c-0.803-0.582-1.467-1.158-2.246-1.791c-0.741-0.643-1.462-1.33-2.14-2.088
			c-1.34-1.488-2.562-3.393-2.894-5.604c-0.359-2.209,0.181-4.232,0.593-5.928c0.228-0.859,0.422-1.672,0.591-2.461
			c0.085-0.393,0.154-0.787,0.21-1.148c0.057-0.4,0.095-0.781,0.175-1.238c0.268-1.774,0.829-3.333,1.483-4.672
			c0.634-1.352,1.402-2.469,2.088-3.434c0.706-0.955,1.376-1.735,1.962-2.346C6.892,48.65,7.669,48.074,7.669,48.074z"/>
	</g>
	<g>
		<path fill="#FFE000" d="M-0.633,64.555c0,0,0.041-0.047,0.117-0.135c0.089-0.102,0.206-0.225,0.354-0.377
			c0.302-0.297,0.731-0.713,1.284-1.148c0.547-0.445,1.212-0.92,1.955-1.369c0.739-0.457,1.562-0.877,2.404-1.236
			c0.413-0.193,0.854-0.326,1.271-0.488c0.421-0.15,0.851-0.256,1.255-0.379c0.407-0.116,0.814-0.183,1.189-0.27
			c0.375-0.093,0.741-0.123,1.073-0.174c0.334-0.038,0.634-0.102,0.907-0.107c0.271-0.016,0.508-0.029,0.702-0.041
			c0.387-0.022,0.608-0.035,0.608-0.035s-0.217,0.049-0.595,0.135c-0.188,0.043-0.417,0.096-0.68,0.155
			c-0.263,0.05-0.549,0.161-0.864,0.252c-0.313,0.103-0.658,0.189-1.004,0.339c-0.348,0.145-0.722,0.271-1.09,0.445
			c-0.365,0.184-0.751,0.348-1.122,0.557c-0.366,0.219-0.753,0.406-1.106,0.652c-0.723,0.463-1.41,0.971-2.008,1.494
			c-0.603,0.518-1.123,1.041-1.536,1.512c-0.421,0.463-0.726,0.879-0.932,1.162c-0.1,0.145-0.176,0.256-0.212,0.318
			c-0.048,0.078-0.074,0.119-0.074,0.119L-0.633,64.555z"/>
	</g>
	<g>
		<path fill="#FFE000" d="M14.657,58.486c0,0-0.538,0.458-1.41,1.297c-0.431,0.426-0.949,0.939-1.499,1.562
			c-0.551,0.619-1.139,1.344-1.688,2.17c-0.585,0.807-1.021,1.775-1.401,2.779c-0.303,1.031-0.402,2.127-0.233,3.23
			c0.068,0.271,0.17,0.539,0.25,0.812l0.125,0.412l0.21,0.391l0.411,0.795l0.025,0.051c-0.05-0.07,0.008,0.01,0.006,0.008
			l0.075,0.104l0.15,0.207l0.301,0.412c0.394,0.584,0.826,1.053,1.255,1.533c0.404,0.49,0.915,0.957,1.391,1.432
			c0.959,0.953,1.98,1.863,3.023,2.719c0.511,0.439,1.041,0.85,1.562,1.26c0.518,0.414,1.03,0.824,1.551,1.207
			c1.024,0.787,2.051,1.502,3.008,2.209c0.968,0.689,1.893,1.328,2.751,1.916c1.714,1.178,3.16,2.141,4.177,2.809
			c1.019,0.67,1.601,1.053,1.601,1.053s-2.586-1.061-6.261-3.074c-1.836-1.006-3.955-2.23-6.139-3.695
			c-1.097-0.725-2.22-1.494-3.312-2.352c-1.104-0.84-2.198-1.738-3.246-2.705c-0.513-0.502-1.038-0.965-1.525-1.535
			c-0.499-0.547-1-1.096-1.379-1.645l-0.306-0.41l-0.153-0.205L7.9,73.131l-0.067-0.096l-0.034-0.062
			c-0.18-0.332-0.357-0.662-0.535-0.99l-0.259-0.496l-0.161-0.543c-0.101-0.361-0.217-0.717-0.293-1.078
			c-0.228-1.482-0.011-2.936,0.476-4.162c0.519-1.203,1.175-2.238,1.914-3.045c0.697-0.848,1.472-1.473,2.136-2.031
			c0.696-0.523,1.317-0.949,1.853-1.262c0.535-0.312,0.965-0.535,1.267-0.673C14.496,58.558,14.657,58.486,14.657,58.486z"/>
	</g>
	<g>
		<path fill="#FFE000" d="M29.747,60.758c0,0-0.216-0.137-0.593-0.377c-0.364-0.238-0.888-0.555-1.479-0.921
			c-0.303-0.175-0.623-0.363-0.965-0.542c-0.329-0.199-0.697-0.358-1.053-0.548c-0.369-0.163-0.742-0.336-1.124-0.482
			c-0.389-0.126-0.766-0.298-1.165-0.374c-0.198-0.045-0.388-0.128-0.587-0.159c-0.2-0.023-0.397-0.062-0.594-0.101
			c-0.393-0.105-0.791-0.072-1.181-0.132c-0.391-0.058-0.774,0.007-1.151-0.016c-0.38-0.032-0.734,0.047-1.081,0.058
			c-0.338,0.042-0.677,0.021-0.958,0.085c-0.282,0.053-0.546,0.077-0.764,0.103c-0.437,0.048-0.713,0.054-0.713,0.054
			s0.155-0.207,0.473-0.529c0.159-0.16,0.354-0.36,0.597-0.566c0.229-0.232,0.54-0.402,0.88-0.602
			c0.345-0.189,0.708-0.45,1.154-0.57c0.44-0.127,0.903-0.33,1.415-0.376c0.509-0.041,1.048-0.157,1.59-0.075
			c0.548,0.028,1.101,0.105,1.63,0.272c0.543,0.128,1.041,0.364,1.526,0.598c0.475,0.247,0.915,0.538,1.311,0.845
			c0.387,0.32,0.751,0.636,1.044,0.981c0.313,0.324,0.552,0.684,0.772,1.003C29.599,59.688,29.747,60.758,29.747,60.758z"/>
	</g>
	<g>
		<path fill="#FFE000" d="M25.601,30.961c-0.014,0.009,0.24-0.115,0.646-0.28c0.412-0.164,0.996-0.39,1.742-0.6
			c0.191-0.046,0.391-0.095,0.598-0.145c0.191-0.033,0.505-0.089,0.617-0.099c0.182-0.038,0.442-0.073,0.562-0.118
			c0.138-0.033,0.316-0.09,0.517-0.167c0.769-0.286,1.73-0.722,2.76-0.868c0.515-0.078,1.035-0.072,1.534-0.03
			c0.497,0.071,0.971,0.173,1.407,0.325c0.438,0.144,0.841,0.328,1.213,0.506c0.359,0.204,0.713,0.367,1.008,0.569
			c0.604,0.381,1.081,0.723,1.401,0.983c0.326,0.249,0.513,0.392,0.513,0.392s-0.207-0.11-0.568-0.305
			c-0.354-0.204-0.879-0.464-1.519-0.735c-0.314-0.148-0.679-0.248-1.045-0.385c-0.376-0.109-0.774-0.22-1.187-0.283
			c-0.413-0.073-0.838-0.092-1.261-0.086c-0.422,0.035-0.838,0.098-1.237,0.229c-0.808,0.255-1.511,0.719-2.321,1.185
			c-0.195,0.113-0.412,0.229-0.671,0.339c-0.268,0.126-0.418,0.162-0.621,0.241c-0.275,0.093-0.342,0.133-0.515,0.199
			c-0.15,0.074-0.296,0.146-0.436,0.215c-0.562,0.3-1.021,0.604-1.336,0.817c-0.305,0.22-0.479,0.345-0.479,0.345L25.601,30.961z"/>
	</g>
	<path fill="#231F20" d="M9.407,26.307c1.028,1.354,1.365,2.831,0.754,3.298c-0.612,0.467-1.952-0.255-2.98-1.609
		c-1.034-1.36-1.371-2.836-0.756-3.304C7.04,24.228,8.372,24.949,9.407,26.307z"/>
	<path fill="#231F20" d="M15.328,23.159c0.812,1.9,0.78,3.739-0.085,4.107c-0.858,0.365-2.214-0.876-3.028-2.775
		c-0.813-1.902-0.777-3.74,0.083-4.108C13.158,20.011,14.516,21.254,15.328,23.159z"/>
	<g>
		<path fill="#231F20" d="M7.719,32.664c0.531-0.272,1.159-0.298,1.78-0.299c0.622,0.011,1.267,0.02,1.848-0.034
			c0.283-0.021,0.567-0.085,0.819-0.13c0.263-0.073,0.492-0.131,0.709-0.216c0.44-0.162,0.747-0.352,1.112-0.519
			c0.351-0.194,0.68-0.341,1.067-0.603c0.194-0.126,0.376-0.282,0.588-0.451c0.188-0.175,0.401-0.372,0.581-0.596
			c0.386-0.435,0.75-0.966,1.106-1.475c0.358-0.507,0.746-1.001,1.279-1.273c0.525-0.273,1.168-0.289,1.878,0.11
			c0.7,0.399,1.435,1.248,1.85,2.558c0.213,0.647,0.314,1.401,0.302,2.229c-0.037,0.822-0.183,1.713-0.537,2.603
			c-0.35,0.884-0.861,1.784-1.573,2.577c-0.711,0.791-1.594,1.489-2.59,2.013c-1.004,0.507-2.088,0.818-3.142,0.932
			c-1.062,0.121-2.089,0.009-3.013-0.22c-0.927-0.229-1.742-0.631-2.43-1.077c-0.677-0.472-1.23-0.994-1.637-1.545
			c-0.82-1.099-1.082-2.191-1-2.991C6.805,33.447,7.192,32.931,7.719,32.664z"/>
	</g>
	<g>
		<defs>
			<path id="SVGID_1_" d="M7.719,32.664c0.531-0.272,1.159-0.298,1.78-0.299c0.622,0.011,1.267,0.02,1.848-0.034
				c0.283-0.021,0.567-0.085,0.819-0.13c0.263-0.073,0.492-0.131,0.709-0.216c0.44-0.162,0.747-0.352,1.112-0.519
				c0.351-0.194,0.68-0.341,1.067-0.603c0.194-0.126,0.376-0.282,0.588-0.451c0.188-0.175,0.401-0.372,0.581-0.596
				c0.386-0.435,0.75-0.966,1.106-1.475c0.358-0.507,0.746-1.001,1.279-1.273c0.525-0.273,1.168-0.289,1.878,0.11
				c0.7,0.399,1.435,1.248,1.85,2.558c0.213,0.647,0.314,1.401,0.302,2.229c-0.037,0.822-0.183,1.713-0.537,2.603
				c-0.35,0.884-0.861,1.784-1.573,2.577c-0.711,0.791-1.594,1.489-2.59,2.013c-1.004,0.507-2.088,0.818-3.142,0.932
				c-1.062,0.121-2.089,0.009-3.013-0.22c-0.927-0.229-1.742-0.631-2.43-1.077c-0.677-0.472-1.23-0.994-1.637-1.545
				c-0.82-1.099-1.082-2.191-1-2.991C6.805,33.447,7.192,32.931,7.719,32.664z"/>
		</defs>
		<clipPath id="SVGID_2_">
			<use xlink:href="#SVGID_1_"  overflow="visible"/>
		</clipPath>
		<path clip-path="url(#SVGID_2_)" fill="#FFFFFF" d="M18.129,32.199c0.143,0.41-0.119,0.877-0.594,1.045l-5.833,2.053
			c-0.469,0.165-0.972-0.034-1.116-0.446l-1.019-2.9c-0.146-0.409,0.12-0.878,0.591-1.044l5.833-2.053
			c0.475-0.166,0.972,0.032,1.118,0.441L18.129,32.199z"/>
	</g>
	<path fill="#EA2227" d="M19.427,35.507c0.34,1.048-0.936,2.358-2.789,2.905c-1.856,0.554-3.589,0.137-3.925-0.91
		c-0.558-1.717,2.248-1.646,3.084-1.883C16.634,35.384,18.797,33.579,19.427,35.507z"/>
	<path fill="#FFFFFF" d="M6.221,5.151c-1.903,3.015-0.873,5.851,2.523,6.937c-3.396-1.086-7.058,0.241-8.964,3.259
		c1.906-3.018,0.878-5.851-2.521-6.945C0.659,9.496,4.318,8.166,6.221,5.151z"/>
	<path fill="#FFFFFF" d="M10.165,60.605c-1.902,3.014-0.873,5.85,2.522,6.936c-3.396-1.086-7.059,0.242-8.964,3.26
		c1.905-3.018,0.878-5.852-2.519-6.945C4.601,64.949,8.262,63.619,10.165,60.605z"/>
	<path fill="#FFFFFF" d="M53.787,34.49c-1.904,3.013-0.873,5.848,2.521,6.935c-3.395-1.087-7.058,0.24-8.963,3.255
		c1.905-3.015,0.88-5.848-2.52-6.94C48.225,38.832,51.883,37.502,53.787,34.49z"/>
	<path fill="#8A4324" d="M99.148,84.301c0,0,3.287-3.906,1.869-5.936s-2.721-1.582-2.721-1.582l-2.109,1.16l-0.932,2.971
		l0.748,1.779l-0.846,1.41l0.73,0.668C95.889,84.771,96.645,86.379,99.148,84.301z"/>
</g>
</svg>
