<?xml version="1.0" encoding="utf-8"?>
<!-- Generator: Adobe Illustrator 16.0.4, SVG Export Plug-In . SVG Version: 6.00 Build 0)  -->
<!DOCTYPE svg PUBLIC "-//W3C//DTD SVG 1.1//EN" "http://www.w3.org/Graphics/SVG/1.1/DTD/svg11.dtd">
<svg version="1.1" id="Layer_1" xmlns="http://www.w3.org/2000/svg" xmlns:xlink="http://www.w3.org/1999/xlink" x="0px" y="0px"
	 width="72.333px" height="73px" viewBox="0.343 7.91 72.333 73" enable-background="new 0.343 7.91 72.333 73"
	 xml:space="preserve">
<g>
	<g>
		<path fill="#1B75BB" d="M19.075,52.594c-4.674,0-8.625-3.107-11.125-8.75c-3.086-6.976-2.814-15.512,4.75-18.86
			c1.866-0.826,3.84-1.245,5.868-1.245c1.024,0,2.044,0.108,3.045,0.323c1.08-2.46,2.995-4.349,5.602-5.504
			c1.869-0.828,3.846-1.247,5.875-1.247c1.382,0,2.743,0.194,4.063,0.578c0.986-2.883,3.012-5.062,5.93-6.355
			c1.877-0.83,3.86-1.25,5.896-1.25c5.729,0,10.918,3.364,13.221,8.571c3.218,7.275-0.115,15.831-7.432,19.071
			c-1.819,0.805-3.601,1.212-5.294,1.212c-0.001,0-0.001,0-0.001,0c-1.257,0-2.468-0.223-3.615-0.663
			c-1.523,2.872-3.951,5.142-6.958,6.474c-1.812,0.803-3.591,1.21-5.285,1.21c-0.95,0-1.878-0.128-2.774-0.381
			c-1.535,2.453-3.79,4.417-6.456,5.599C22.561,52.185,20.774,52.594,19.075,52.594z"/>
		<g>
			<path fill="#00ADEE" d="M48.98,11.685c5.017,0,9.791,2.881,11.938,7.736c2.911,6.581-0.095,14.29-6.717,17.223
				c-1.682,0.744-3.26,1.093-4.728,1.093c-1.558,0-2.991-0.394-4.289-1.125c-1.24,3.036-3.605,5.617-6.852,7.056
				c-1.678,0.743-3.253,1.09-4.718,1.09c-1.215,0-2.354-0.238-3.414-0.688c-1.324,2.584-3.514,4.753-6.384,6.025
				c-1.687,0.747-3.27,1.098-4.743,1.098c-4.313,0-7.671-3.013-9.843-7.916c-2.913-6.582-2.587-14.08,4.036-17.011
				c1.728-0.765,3.529-1.125,5.301-1.125c1.338,0,2.66,0.206,3.919,0.597c0.761-2.522,2.439-4.633,5.296-5.899
				c1.73-0.766,3.534-1.126,5.307-1.126c1.735,0,3.442,0.346,5.022,0.995c0.593-2.954,2.316-5.465,5.538-6.892
				C45.387,12.049,47.199,11.685,48.98,11.685 M48.98,8.882c-2.231,0-4.405,0.461-6.462,1.37c-2.878,1.275-4.986,3.316-6.214,5.983
				c-1.053-0.217-2.126-0.326-3.212-0.326c-2.226,0-4.393,0.459-6.442,1.366c-2.578,1.143-4.556,2.924-5.826,5.222
				c-0.747-0.107-1.5-0.16-2.255-0.16c-2.225,0-4.39,0.459-6.436,1.364C4.817,26.94,2.621,35.262,6.669,44.411
				c2.738,6.181,7.144,9.584,12.406,9.584c1.895,0,3.873-0.449,5.877-1.337c2.611-1.158,4.863-3,6.513-5.296
				c0.703,0.132,1.421,0.198,2.15,0.198c1.891,0,3.86-0.448,5.853-1.33c2.932-1.299,5.36-3.41,7.036-6.075
				c0.959,0.255,1.951,0.384,2.97,0.384c1.892,0,3.863-0.448,5.861-1.333c8.023-3.554,11.678-12.938,8.146-20.92
				C60.956,12.573,55.263,8.882,48.98,8.882L48.98,8.882z"/>
		</g>
	</g>
	<g>
		<path fill="#00ADEE" d="M17.063,59.858c-5.235,0-10.368-3.652-12.773-9.088c-3.219-7.275-0.727-15.458,5.557-18.242
			c1.144-0.507,2.323-0.764,3.507-0.764c4.663,0,9.2,3.962,12.137,10.597c1.625,3.666,2.183,6.936,1.661,9.719
			c-0.583,3.104-2.527,5.468-5.624,6.838C20.123,59.541,18.621,59.858,17.063,59.858z"/>
		<path fill="#00ADEE" d="M13.354,33.166c4.454,0,8.46,4.351,10.855,9.763c2.915,6.579,2.34,12.235-3.248,14.708
			c-1.253,0.556-2.573,0.819-3.898,0.819c-4.581,0-9.233-3.149-11.492-8.253c-2.913-6.582-0.746-13.917,4.843-16.394
			C11.407,33.369,12.391,33.166,13.354,33.166 M13.354,30.363L13.354,30.363c-1.381,0-2.751,0.297-4.075,0.883
			c-6.99,3.097-9.803,12.109-6.271,20.091c2.667,6.027,8.184,9.922,14.055,9.922c1.754,0,3.448-0.356,5.035-1.061
			c3.535-1.564,5.76-4.282,6.431-7.859c0.576-3.067-0.015-6.615-1.757-10.546C23.604,34.636,18.588,30.363,13.354,30.363
			L13.354,30.363z"/>
	</g>
	<path fill="#1B75BB" d="M22.048,52.389c-5.588,2.472-12.481-0.854-15.394-7.436c-0.874-1.975-1.282-4.014-1.286-5.977
		c-1.456,3.249-1.509,7.366,0.203,11.226c2.912,6.58,9.803,9.912,15.39,7.434c3.717-1.641,5.205-4.7,4.935-8.494
		C25.082,50.496,23.823,51.603,22.048,52.389z"/>
	<g>
		<path fill="#00ADEE" d="M27.492,70.95c-4.424,0-8.594-2.959-10.623-7.536c-1.411-3.184-1.554-6.733-0.392-9.74
			c0.962-2.488,2.753-4.417,5.044-5.429c0.961-0.427,1.957-0.644,2.957-0.644c3.897,0,7.672,3.276,10.097,8.764
			c2.852,6.448,1.601,11.607-3.348,13.8C30.05,70.686,28.794,70.95,27.492,70.95z"/>
		<path fill="#00ADEE" d="M24.478,49.004c3.618-0.001,6.873,3.532,8.815,7.928c2.367,5.35,1.907,9.94-2.634,11.952
			c-1.019,0.45-2.091,0.664-3.167,0.664c-3.725,0-7.504-2.557-9.342-6.702c-2.37-5.346-0.604-11.312,3.938-13.318
			C22.895,49.169,23.695,49.004,24.478,49.004 M24.479,46.2L24.479,46.2c-1.198,0-2.384,0.258-3.528,0.765
			c-2.63,1.162-4.685,3.365-5.782,6.204c-1.295,3.351-1.143,7.292,0.418,10.812c2.253,5.085,6.926,8.37,11.905,8.37
			c1.498,0,2.945-0.305,4.301-0.904c2.156-0.955,8.817-4.905,4.064-15.649C33.201,49.788,28.948,46.2,24.479,46.2L24.479,46.2z"/>
	</g>
	<g>
		<path fill="#1B75BB" d="M30.409,65.249c-4.542,2.01-10.141-0.695-12.506-6.043c-0.336-0.755-0.578-1.52-0.75-2.285
			c-0.183,1.908,0.125,3.957,0.997,5.925c2.368,5.344,7.965,8.048,12.509,6.038c3.61-1.6,4.636-4.838,3.715-8.785
			C34.083,62.363,32.832,64.175,30.409,65.249z"/>
	</g>
	<g>
		<path fill="#00ADEE" d="M39.088,76.724c-3.943,0-7.655-2.63-9.458-6.7c-2.377-5.377-0.51-11.435,4.16-13.506
			c0.866-0.383,1.759-0.577,2.658-0.577c3.479,0,6.842,2.905,8.997,7.772c2.542,5.744,1.413,10.346-3.021,12.311
			C41.372,76.489,40.25,76.724,39.088,76.724z"/>
		<path fill="#00ADEE" d="M36.447,57.342c3.166,0,6.013,3.093,7.716,6.938c2.071,4.681,1.663,8.702-2.308,10.462
			c-0.89,0.394-1.827,0.58-2.768,0.58c-3.26,0-6.569-2.237-8.177-5.866c-2.069-4.68-0.529-9.895,3.447-11.657
			C35.063,57.487,35.762,57.342,36.447,57.342 M36.447,54.539L36.447,54.539c-1.095,0-2.18,0.234-3.224,0.696
			c-5.378,2.385-7.565,9.272-4.876,15.354c2.028,4.578,6.244,7.535,10.741,7.535c1.358,0,2.671-0.275,3.9-0.818
			c6.168-2.733,5.975-9.107,3.738-14.161C44.34,57.756,40.497,54.539,36.447,54.539L36.447,54.539z"/>
	</g>
	<g>
		<path fill="#1B75BB" d="M41.511,70.127c-3.972,1.754-8.869-0.612-10.943-5.289c-0.177-0.403-0.317-0.804-0.445-1.214
			c-0.302,1.849-0.075,3.886,0.788,5.832c2.071,4.676,6.971,7.042,10.944,5.286c3.414-1.511,4.188-4.698,3.023-8.532
			C44.496,67.913,43.418,69.284,41.511,70.127z"/>
	</g>
	<g>
		<path fill="#00ADEE" d="M58.1,41.829c-4.345,0-8.173-3.244-10.779-9.134c-1.621-3.664-2.346-7.364-2.038-10.419
			c0.375-3.721,2.2-6.408,5.278-7.771c1.404-0.622,2.906-0.937,4.462-0.937c5.233,0,10.368,3.65,12.777,9.083
			c3.219,7.274,0.726,15.458-5.558,18.244C60.846,41.516,59.453,41.829,58.1,41.829L58.1,41.829z"/>
		<path fill="#00ADEE" d="M55.023,14.97c4.58,0,9.234,3.148,11.496,8.25c2.912,6.582,0.744,13.917-4.845,16.395
			c-1.244,0.551-2.438,0.812-3.574,0.812c-3.967,0-7.233-3.183-9.497-8.299c-2.914-6.583-3.062-13.868,2.525-16.341
			C52.382,15.233,53.699,14.97,55.023,14.97 M55.023,12.167c-1.753,0-3.444,0.356-5.029,1.057c-3.516,1.556-5.684,4.721-6.105,8.912
			c-0.331,3.292,0.433,7.245,2.151,11.127c2.844,6.428,7.128,9.968,12.061,9.968c1.549,0,3.134-0.354,4.71-1.053
			c6.989-3.099,9.804-12.112,6.272-20.092C66.411,16.06,60.892,12.167,55.023,12.167L55.023,12.167z"/>
	</g>
	<g>
		<path fill="#1B75BB" d="M57.064,15.188c2.395,1.418,4.463,3.69,5.756,6.605c2.915,6.579,0.745,13.918-4.844,16.39
			c-1.516,0.672-2.949,0.897-4.301,0.762c2.309,1.629,5.007,1.995,7.999,0.671c5.589-2.478,7.757-9.813,4.845-16.395
			C64.597,18.877,60.938,15.963,57.064,15.188z"/>
	</g>
	<g>
		<path fill="#00ADEE" d="M60.77,55.306c-3.645,0-6.84-2.691-8.996-7.579c-1.336-3.014-1.933-6.066-1.68-8.594
			c0.313-3.124,1.85-5.381,4.443-6.53c1.176-0.52,2.431-0.783,3.731-0.783c4.358,0,8.628,3.03,10.623,7.54
			c2.675,6.038,0.591,12.843-4.648,15.167C63.074,55.044,61.906,55.306,60.77,55.306L60.77,55.306z"/>
		<path fill="#00ADEE" d="M58.269,33.221c3.723,0,7.505,2.556,9.341,6.706c2.368,5.344,0.604,11.305-3.935,13.319
			c-1.012,0.447-1.981,0.659-2.905,0.659c-3.225,0-5.878-2.584-7.714-6.743c-2.369-5.344-2.492-11.266,2.049-13.277
			C56.123,33.434,57.193,33.221,58.269,33.221 M58.269,30.418c-1.497,0-2.943,0.304-4.298,0.903c-3.038,1.346-4.91,4.07-5.271,7.673
			c-0.355,3.544,0.779,7.016,1.794,9.304c2.393,5.423,6.043,8.411,10.276,8.411c1.332,0,2.691-0.303,4.039-0.899
			c5.948-2.639,8.353-10.272,5.363-17.018C67.924,33.705,63.251,30.418,58.269,30.418L58.269,30.418z"/>
	</g>
	<g>
		<path fill="#1B75BB" d="M59.101,33.276c2.053,1.14,3.842,3.033,4.938,5.507c2.369,5.345,0.604,11.306-3.934,13.32
			c-1,0.443-1.951,0.641-2.865,0.644c1.861,1.282,4.029,1.563,6.436,0.499c4.538-2.014,6.303-7.975,3.935-13.319
			C65.912,36.089,62.543,33.624,59.101,33.276z"/>
	</g>
	<g>
		<path fill="#00ADEE" d="M59.519,69.477c-3.258,0-6.11-2.391-8.031-6.73c-1.183-2.665-1.709-5.368-1.483-7.612
			c0.277-2.76,1.693-4.84,3.988-5.857c1.053-0.465,2.175-0.7,3.337-0.7c3.941,0,7.654,2.63,9.459,6.7
			c2.377,5.381,0.51,11.438-4.161,13.503C61.584,69.242,60.538,69.477,59.519,69.477C59.519,69.477,59.519,69.477,59.519,69.477z"/>
		<path fill="#00ADEE" d="M57.33,49.978c3.259,0,6.568,2.237,8.178,5.867c2.066,4.678,0.529,9.895-3.446,11.652
			c-0.885,0.393-1.733,0.578-2.542,0.578c-2.819,0-5.141-2.263-6.75-5.896c-2.074-4.677-2.178-9.861,1.792-11.621
			C55.452,50.164,56.388,49.978,57.33,49.978 M57.33,47.175c-1.358,0-2.671,0.275-3.901,0.818c-2.778,1.232-4.489,3.718-4.819,7.001
			c-0.319,3.181,0.692,6.28,1.598,8.321c2.159,4.876,5.467,7.562,9.312,7.562c1.216,0,2.453-0.275,3.678-0.818
			c5.375-2.376,7.563-9.262,4.875-15.348C66.041,50.132,61.825,47.175,57.33,47.175L57.33,47.175z"/>
	</g>
	<g>
		<path fill="#1B75BB" d="M60.951,50.901c0.8,0.848,1.482,1.856,1.994,3.013c2.074,4.678,0.529,9.895-3.443,11.648
			c-1.656,0.736-3.184,0.736-4.557,0.162c1.912,2.192,4.335,3.002,7.116,1.773c3.976-1.758,5.513-6.975,3.446-11.652
			C64.505,53.591,62.845,51.876,60.951,50.901z"/>
	</g>
	<g>
		<path fill="#00ADEE" d="M48.728,64.466c-3.905,0-7.76-2.782-9.592-6.923c-1.166-2.632-1.41-5.493-0.688-8.056
			c0.74-2.625,2.401-4.625,4.677-5.632c1.013-0.449,2.098-0.677,3.223-0.677c3.902,0,7.757,2.783,9.592,6.926
			c2.43,5.498,0.64,11.637-3.99,13.687C50.936,64.239,49.853,64.466,48.728,64.466z"/>
		<path fill="#00ADEE" d="M46.348,44.114c3.454-0.001,6.995,2.438,8.737,6.37c2.225,5.033,0.653,10.608-3.514,12.453
			c-0.913,0.403-1.875,0.595-2.844,0.595c-3.454,0-6.998-2.434-8.737-6.366c-2.229-5.033-0.655-10.611,3.513-12.455
			C44.417,44.306,45.38,44.114,46.348,44.114 M46.349,42.244L46.349,42.244c-1.258,0-2.47,0.255-3.603,0.757
			c-2.533,1.121-4.38,3.334-5.197,6.233c-0.781,2.771-0.521,5.856,0.732,8.688c1.979,4.473,6.177,7.479,10.446,7.479
			c1.256,0,2.467-0.254,3.599-0.755c5.103-2.258,7.105-8.95,4.468-14.918C54.812,45.251,50.614,42.244,46.349,42.244L46.349,42.244z
			"/>
	</g>
	<g>
		<path fill="#00ADEE" d="M50.808,77.992c-3.915,0-7.743-2.715-9.526-6.756c-2.397-5.417-0.517-11.522,4.193-13.607
			c1.061-0.469,2.191-0.706,3.364-0.706c3.973,0,7.713,2.648,9.529,6.748c2.395,5.419,0.514,11.525-4.192,13.613
			C53.115,77.754,51.982,77.992,50.808,77.992z"/>
		<path fill="#00ADEE" d="M48.84,58.324c3.289,0,6.628,2.256,8.248,5.914c2.088,4.726,0.531,9.985-3.479,11.765
			c-0.9,0.398-1.849,0.587-2.8,0.587c-3.289,0-6.628-2.256-8.244-5.919c-2.089-4.721-0.531-9.985,3.479-11.761
			C46.942,58.513,47.888,58.324,48.84,58.324 M48.84,55.521L48.84,55.521c-1.369,0-2.691,0.278-3.931,0.826
			c-5.417,2.398-7.619,9.333-4.908,15.459c2.033,4.608,6.276,7.588,10.808,7.588c1.37,0,2.693-0.278,3.934-0.827
			c5.414-2.401,7.615-9.337,4.91-15.461C57.61,58.497,53.366,55.521,48.84,55.521L48.84,55.521z"/>
	</g>
	<g>
		<path fill="#1B75BB" d="M51.718,71.73c-3.386,1.498-7.423,0.029-9.86-3.303c0.15,0.754,0.379,1.507,0.707,2.244
			c2.084,4.723,7.031,7.107,11.044,5.332c4.011-1.779,5.567-7.039,3.479-11.765c-0.329-0.737-0.73-1.41-1.184-2.027
			C56.725,66.249,55.101,70.227,51.718,71.73z"/>
	</g>
	<g>
		<path fill="#00ADEE" d="M27.323,57.729c-4.8,0-9.652-3.678-12.074-9.151c-3.13-7.062-1.205-14.791,4.292-17.228
			c1.118-0.495,2.319-0.746,3.571-0.746c4.798,0,9.65,3.678,12.074,9.152c3.125,7.064,1.198,14.793-4.296,17.229
			C29.773,57.479,28.573,57.729,27.323,57.729z"/>
		<path fill="#00ADEE" d="M23.112,31.538c4.311,0,8.885,3.323,11.22,8.596c2.922,6.605,1.214,13.764-3.82,15.996
			c-1.019,0.45-2.096,0.665-3.189,0.665c-4.312,0-8.887-3.325-11.219-8.596c-2.927-6.604-1.214-13.766,3.816-15.995
			C20.939,31.753,22.017,31.539,23.112,31.538 M23.113,29.67L23.113,29.67c-1.383,0-2.712,0.278-3.95,0.826
			c-5.969,2.646-8.107,10.927-4.769,18.461c2.568,5.806,7.764,9.707,12.928,9.707c1.381,0,2.708-0.277,3.945-0.824
			c5.966-2.645,8.106-10.926,4.773-18.46C33.47,33.571,28.275,29.67,23.113,29.67L23.113,29.67z"/>
	</g>
	<g>
		<path fill="#00ADEE" d="M48.966,43.291c-4.149,0-8.379-3.252-10.524-8.094c-1.31-2.957-1.687-6.128-1.06-8.93
			c0.65-2.904,2.292-5.071,4.624-6.102c0.938-0.416,1.949-0.627,3.002-0.627c4.15,0,8.378,3.253,10.521,8.096
			c1.311,2.957,1.688,6.127,1.062,8.927c-0.649,2.902-2.291,5.069-4.623,6.103C51.027,43.08,50.018,43.291,48.966,43.291z"/>
		<path fill="#00ADEE" d="M45.008,20.473c3.677,0,7.625,2.928,9.666,7.54c2.544,5.739,1.161,11.916-3.086,13.798
			c-0.836,0.37-1.721,0.546-2.622,0.546c-3.677,0-7.627-2.927-9.67-7.538c-2.542-5.738-1.159-11.921,3.088-13.799
			C43.22,20.65,44.106,20.473,45.008,20.473 M45.009,18.604L45.009,18.604c-1.186,0-2.323,0.238-3.382,0.708
			c-2.608,1.153-4.44,3.551-5.156,6.752c-0.671,2.995-0.274,6.374,1.116,9.512c2.293,5.174,6.866,8.65,11.379,8.65
			c1.184,0,2.32-0.237,3.379-0.706c2.609-1.157,4.441-3.555,5.156-6.753c0.67-2.994,0.272-6.372-1.118-9.511
			C54.093,22.081,49.522,18.604,45.009,18.604L45.009,18.604z"/>
	</g>
	<g>
		<path fill="#00ADEE" d="M53.719,57.877c-4.15,0-8.379-3.253-10.524-8.094c-1.31-2.958-1.686-6.129-1.059-8.929
			c0.649-2.903,2.291-5.07,4.623-6.102c0.939-0.416,1.95-0.627,3.004-0.627c4.148,0,8.377,3.251,10.522,8.091
			c2.744,6.205,1.143,12.949-3.569,15.035C55.779,57.666,54.77,57.877,53.719,57.877z"/>
		<path fill="#00ADEE" d="M49.762,35.059c3.677,0,7.625,2.926,9.668,7.536c2.54,5.743,1.158,11.92-3.093,13.802
			c-0.835,0.37-1.719,0.546-2.619,0.546c-3.676,0-7.627-2.928-9.67-7.538c-2.541-5.738-1.158-11.919,3.088-13.798
			C47.973,35.236,48.86,35.059,49.762,35.059 M49.763,33.191L49.763,33.191c-1.186,0-2.324,0.238-3.384,0.707
			c-2.608,1.155-4.44,3.553-5.156,6.752c-0.67,2.995-0.273,6.373,1.116,9.511c2.293,5.174,6.865,8.65,11.379,8.65
			c1.183,0,2.318-0.238,3.376-0.706c5.183-2.295,6.997-9.592,4.045-16.267C58.846,36.666,54.275,33.191,49.763,33.191L49.763,33.191
			z"/>
	</g>
	<g>
		<path fill="#1B75BB" d="M53.177,55.413c-1.033,0.484-2.169,0.617-3.302,0.508c2.138,1.115,4.44,1.369,6.462,0.476
			c4.251-1.882,5.633-8.059,3.093-13.802c-1.141-2.577-3.017-3.276-3.16-3.189C56.213,39.441,62.899,50.857,53.177,55.413z"/>
	</g>
	<g>
		<path fill="#00ADEE" d="M41.686,67.633c-4.152,0-8.382-3.253-10.524-8.094c-1.575-3.557-1.792-7.37-0.597-10.463
			c0.833-2.153,2.272-3.733,4.163-4.567c0.938-0.416,1.949-0.627,3.004-0.627c4.151,0,8.38,3.251,10.521,8.09
			c1.312,2.957,1.688,6.129,1.062,8.931c-0.649,2.904-2.291,5.072-4.624,6.104C43.751,67.422,42.74,67.633,41.686,67.633z"/>
		<path fill="#00ADEE" d="M37.732,44.816c3.675,0,7.626,2.923,9.666,7.534c2.545,5.74,1.162,11.923-3.086,13.802
			c-0.837,0.37-1.724,0.547-2.626,0.547c-3.678,0-7.629-2.926-9.669-7.537c-2.542-5.738-1.16-11.922,3.089-13.798
			C35.942,44.992,36.829,44.816,37.732,44.816 M37.732,42.947L37.732,42.947c-1.187,0-2.325,0.238-3.384,0.708
			c-2.12,0.936-3.73,2.694-4.654,5.084c-1.285,3.322-1.061,7.396,0.614,11.179c2.289,5.173,6.861,8.648,11.378,8.648
			c1.186,0,2.323-0.237,3.382-0.706c2.61-1.154,4.442-3.553,5.158-6.754c0.67-2.996,0.272-6.375-1.12-9.515
			C46.819,46.422,42.248,42.947,37.732,42.947L37.732,42.947z"/>
	</g>
	<g>
		<path fill="#1B75BB" d="M46.478,50.603c0.791,4.566,1.046,10.199-3.335,12.143c-5.569,2.463-9.394-2.49-12.188-7.09
			c0.202,1.163,0.547,2.34,1.061,3.506c2.541,5.742,8.045,8.871,12.295,6.99c4.248-1.879,5.631-8.062,3.086-13.802
			C47.125,51.737,46.812,51.156,46.478,50.603z"/>
	</g>
	<g>
		<path fill="#00ADEE" d="M38.828,53.917c-4.152-0.001-7.829-3.145-10.354-8.854c-1.589-3.591-2.3-7.208-2.002-10.183
			c0.355-3.546,2.084-6.102,5.001-7.392c1.346-0.596,2.785-0.898,4.277-0.898c5.055,0,10.018,3.541,12.35,8.81
			c3.114,7.041,0.727,14.949-5.32,17.627C41.441,53.618,40.113,53.917,38.828,53.917C38.828,53.917,38.828,53.917,38.828,53.917z"/>
		<path fill="#00ADEE" d="M35.749,27.524c4.583,0,9.236,3.149,11.495,8.254c2.91,6.581,0.744,13.919-4.845,16.395
			c-1.243,0.55-2.436,0.81-3.571,0.81c-3.969,0-7.236-3.181-9.5-8.297c-2.913-6.581-3.067-13.871,2.522-16.343
			C33.104,27.787,34.423,27.524,35.749,27.524 M35.749,25.656c-1.623,0-3.189,0.329-4.656,0.979
			c-3.241,1.434-5.161,4.253-5.552,8.153c-0.314,3.134,0.424,6.918,2.078,10.654c2.685,6.068,6.665,9.41,11.209,9.41
			c1.416,0,2.872-0.326,4.327-0.97c6.52-2.888,9.12-11.348,5.798-18.86C46.474,29.42,41.168,25.656,35.749,25.656L35.749,25.656z"/>
	</g>
	<path fill="#FFFFFF" d="M37.445,27.835c-1.637,2.751-0.643,5.265,2.427,6.158c-3.069-0.893-6.32,0.385-7.955,3.135
		c1.634-2.75,0.642-5.261-2.426-6.159C32.559,31.867,35.808,30.586,37.445,27.835z"/>
	<path fill="#FFFFFF" d="M11.722,43.183c-1.079-1.68-2.769-1.827-4.123-0.356c1.354-1.471,1.547-3.647,0.462-5.331
		c1.085,1.684,2.766,1.831,4.125,0.364C10.828,39.327,10.643,41.503,11.722,43.183z"/>
	<path fill="#FFFFFF" d="M60.455,19.322c-2.936,0.088-4.395,2.099-3.572,4.917c-0.822-2.818-3.416-4.707-6.352-4.612
		c2.936-0.094,4.395-2.099,3.57-4.919C54.926,17.528,57.519,19.41,60.455,19.322z"/>
	<g>
		<g>
			<g>
				<path fill="#3F3B3C" d="M25.957,47.033c0.224-0.101,0.658,0.292,1.275,0.979c0.656,0.654,1.572,1.574,2.895,2.164
					c1.301,0.623,3.066,0.767,5.086,0.44c2.026-0.335,4.275-1.122,6.599-2.142c2.318-1.024,4.457-2.114,6.046-3.382
					c0.806-0.623,1.477-1.283,1.958-1.972c0.277-0.331,0.435-0.694,0.643-1.029c0.128-0.358,0.324-0.691,0.393-1.045
					c0.395-1.39,0.288-2.701,0.229-3.629c-0.105-0.923-0.108-1.508,0.115-1.607c0.212-0.095,0.637,0.305,1.171,1.206
					c0.476,0.909,1.07,2.411,0.895,4.458c-0.137,2.046-1.43,4.371-3.324,6.037c-1.878,1.737-4.24,3.026-6.738,4.135
					c-2.507,1.097-5.078,1.913-7.604,2.137c-2.504,0.228-5.031-0.271-6.691-1.488c-1.682-1.176-2.452-2.621-2.821-3.583
					C25.759,47.71,25.745,47.126,25.957,47.033z"/>
			</g>
		</g>
	</g>
	<g>
		<g>
			<g>
				<path fill="#3F3B3C" d="M28.251,42.47c-0.464,0.213-1.141-0.335-2.093-0.688c-0.244-0.084-0.482-0.188-0.766-0.222
					c-0.259-0.09-0.558-0.07-0.84-0.111c-0.586,0.013-1.175,0.117-1.767,0.368c-0.569,0.299-1.024,0.688-1.406,1.133
					c-0.147,0.245-0.352,0.462-0.447,0.719c-0.153,0.241-0.226,0.491-0.315,0.732c-0.331,0.958-0.336,1.83-0.795,2.054
					c-0.215,0.103-0.494,0.005-0.832-0.33c-0.172-0.167-0.36-0.391-0.479-0.693c-0.123-0.3-0.311-0.657-0.34-1.077
					c-0.064-0.421-0.11-0.896-0.018-1.401c0.034-0.519,0.235-1.034,0.455-1.582c0.518-1.052,1.451-2.07,2.698-2.684
					c1.265-0.576,2.646-0.65,3.787-0.382c0.563,0.178,1.088,0.349,1.511,0.652c0.448,0.248,0.786,0.586,1.071,0.902
					c0.306,0.289,0.463,0.661,0.617,0.946c0.159,0.284,0.212,0.572,0.232,0.811C28.568,42.092,28.467,42.369,28.251,42.47z"/>
			</g>
		</g>
	</g>
	<g>
		<g>
			<g>
				<path fill="#3F3B3C" d="M54.374,30.553c-0.459,0.223-1.146-0.313-2.105-0.645c-0.245-0.08-0.485-0.177-0.771-0.206
					c-0.261-0.084-0.559-0.059-0.843-0.094c-0.587,0.024-1.178,0.141-1.763,0.4c-0.56,0.31-1.009,0.708-1.382,1.16
					c-0.143,0.248-0.344,0.47-0.433,0.729c-0.149,0.244-0.217,0.495-0.301,0.739c-0.312,0.965-0.301,1.836-0.755,2.068
					c-0.214,0.107-0.494,0.015-0.839-0.313c-0.175-0.163-0.367-0.383-0.493-0.684c-0.128-0.297-0.322-0.651-0.36-1.07
					c-0.072-0.419-0.128-0.894-0.045-1.4c0.023-0.52,0.215-1.039,0.424-1.591c0.497-1.062,1.408-2.098,2.646-2.737
					c1.258-0.599,2.632-0.698,3.777-0.453c0.566,0.167,1.095,0.327,1.523,0.622c0.454,0.238,0.799,0.57,1.09,0.88
					c0.312,0.283,0.477,0.652,0.636,0.934c0.165,0.281,0.225,0.567,0.249,0.806C54.683,30.169,54.588,30.448,54.374,30.553z"/>
			</g>
		</g>
	</g>
</g>
</svg>
