<?xml version="1.0" encoding="utf-8"?>
<!-- Generator: Adobe Illustrator 16.0.4, SVG Export Plug-In . SVG Version: 6.00 Build 0)  -->
<!DOCTYPE svg PUBLIC "-//W3C//DTD SVG 1.1//EN" "http://www.w3.org/Graphics/SVG/1.1/DTD/svg11.dtd">
<svg version="1.1" id="Layer_1" xmlns="http://www.w3.org/2000/svg" xmlns:xlink="http://www.w3.org/1999/xlink" x="0px" y="0px"
	 width="83.229px" height="87.852px" viewBox="7.396 1.025 83.229 87.852" enable-background="new 7.396 1.025 83.229 87.852"
	 xml:space="preserve">
<g>
	<g>
		<path fill="#EA2227" d="M26.979,80.139c-9.101,0-15.275-5.042-16.94-13.832c-0.697-3.675,0.079-7.402,2.185-10.494
			c2.106-3.092,5.29-5.179,8.964-5.875c0.845-0.163,1.714-0.245,2.58-0.245c1.017,0,2.04,0.113,3.05,0.337
			c1.09-0.521,2.248-0.899,3.452-1.129c0.867-0.165,1.75-0.248,2.624-0.248c6.713,0,12.494,4.794,13.746,11.4
			c0.935,4.943,0.099,9.537-2.354,12.936c-2.694,3.732-7.197,6.046-13.384,6.876C29.543,80.047,28.224,80.139,26.979,80.139
			C26.979,80.139,26.979,80.139,26.979,80.139z"/>
		<path fill="#EA2227" d="M32.893,50.167c5.881,0,11.122,4.176,12.257,10.167c1.381,7.3-0.9,16.21-14.451,18.028
			c-1.319,0.177-2.557,0.261-3.72,0.261c-9.771,0-14.189-5.932-15.452-12.6c-1.285-6.776,3.167-13.314,9.942-14.599
			c0.772-0.148,1.541-0.219,2.297-0.219c1.108,0,2.193,0.15,3.234,0.426c1.088-0.577,2.277-1.001,3.552-1.244
			C31.339,50.239,32.121,50.167,32.893,50.167 M32.893,47.138c-0.969,0-1.946,0.092-2.905,0.274
			c-1.161,0.222-2.283,0.568-3.351,1.035c-0.952-0.179-1.914-0.269-2.87-0.269c-0.961,0-1.927,0.092-2.87,0.273
			c-4.064,0.771-7.592,3.083-9.926,6.51c-2.333,3.426-3.193,7.556-2.421,11.628c1.813,9.573,8.53,15.064,18.428,15.064
			c1.312,0,2.699-0.097,4.123-0.287c6.616-0.888,11.465-3.408,14.412-7.492c2.698-3.738,3.626-8.746,2.613-14.103
			C46.74,52.451,40.333,47.138,32.893,47.138L32.893,47.138z"/>
	</g>
	<path fill="#BE202E" d="M35.812,50.53c0.536,1.039,0.94,2.176,1.169,3.386c1.386,7.295-0.897,16.206-14.447,18.027
		c-3.582,0.482-6.577,0.274-9.06-0.441c2.715,4.816,8.037,8.091,17.225,6.861C44.25,76.545,46.531,67.635,45.15,60.335
		C44.206,55.359,40.433,51.647,35.812,50.53z"/>
	<g>
		<path fill="#EA2227" d="M70.094,53.632c-4.58,0-8.269-2.351-10.557-4.324c-5.611-4.842-6.24-13.348-1.402-18.961
			c0.759-0.879,1.623-1.654,2.577-2.309c0.552-1.748,1.432-3.329,2.621-4.707c2.557-2.966,6.271-4.667,10.189-4.667
			c3.218,0,6.333,1.159,8.771,3.263c3.546,3.059,10.767,11.505,1.249,23.832C79.51,50.983,74.985,53.632,70.094,53.632z"/>
		<path fill="#EA2227" d="M73.522,20.18c2.759,0,5.53,0.952,7.782,2.895c5.498,4.743,8.342,12.301,1.039,21.759
			c-4.118,5.335-8.365,7.284-12.25,7.284c-3.644,0-6.967-1.714-9.567-3.956c-4.99-4.306-5.543-11.837-1.244-16.825
			c0.809-0.938,1.731-1.716,2.727-2.337c0.452-1.676,1.263-3.278,2.471-4.678C66.84,21.584,70.172,20.18,73.522,20.18 M73.523,17.15
			L73.523,17.15c-4.36,0-8.493,1.893-11.338,5.194c-1.212,1.403-2.136,2.997-2.754,4.748c-0.896,0.661-1.714,1.42-2.443,2.267
			c-5.384,6.247-4.685,15.71,1.559,21.097c2.483,2.141,6.501,4.692,11.547,4.692c5.386,0,10.313-2.848,14.648-8.463
			c7.151-9.263,6.606-18.947-1.459-25.904C80.57,18.439,77.104,17.15,73.523,17.15L73.523,17.15z"/>
	</g>
	<path fill="#BE202E" d="M56.882,35.751c0.605,0.943,1.35,1.822,2.242,2.59c5.372,4.629,13.833,7.006,21.818-3.33
		c2.11-2.735,3.368-5.306,3.963-7.703c2.685,4.548,2.851,10.516-2.562,17.526c-7.981,10.34-16.445,7.96-21.817,3.328
		C56.864,45.004,55.6,40.108,56.882,35.751z"/>
	<g>
		<path fill="#EA2227" d="M57.152,86.642c-5.153,0-10.038-2.338-14.126-6.761c-2.957-3.199-4.49-7.358-4.319-11.713
			c0.171-4.355,2.028-8.382,5.229-11.338c1.652-1.526,3.57-2.672,5.708-3.413c0.764-1.22,1.692-2.337,2.766-3.328
			c3.022-2.792,6.952-4.33,11.066-4.33c4.539,0,8.907,1.911,11.983,5.241c3.99,4.316,6.009,9.378,5.686,14.254
			c-0.355,5.364-3.392,10.452-9.024,15.123c-5.018,4.157-10.054,6.265-14.966,6.265C57.153,86.642,57.153,86.642,57.152,86.642z"/>
		<path fill="#EA2227" d="M63.476,47.273c3.983,0,7.956,1.599,10.871,4.754c5.971,6.459,9.275,16.845-3.193,27.184
			c-5.092,4.219-9.802,5.916-14,5.916c-5.211,0-9.633-2.616-13.015-6.274c-5.544-5.999-5.179-15.364,0.825-20.91
			c1.685-1.556,3.634-2.629,5.688-3.262c0.729-1.266,1.66-2.441,2.785-3.479C56.282,48.572,59.883,47.273,63.476,47.273
			 M63.476,44.244c-4.496,0-8.792,1.681-12.095,4.732c-1.04,0.96-1.956,2.03-2.732,3.19c-2.137,0.81-4.063,2.001-5.741,3.551
			c-3.498,3.231-5.527,7.631-5.714,12.391c-0.187,4.759,1.489,9.304,4.72,12.8c4.383,4.742,9.652,7.248,15.24,7.248
			c5.275,0,10.637-2.225,15.933-6.612c5.967-4.947,9.187-10.395,9.57-16.189c0.352-5.296-1.81-10.759-6.085-15.384
			C73.209,46.332,68.436,44.244,63.476,44.244L63.476,44.244z"/>
	</g>
	<path fill="#BE202E" d="M52.395,54.64c0,0,0.186-3.31,1.482-4.536c0,0,1.022,3.472,2.113,2.442L52.395,54.64z"/>
	<path fill="#BE202E" d="M62.607,30.315c0,0-0.793-3.223,0.091-4.777c0,0,1.992,3.028,2.735,1.716l-1.131,2.251L62.607,30.315z"/>
	<path fill="#BE202E" d="M61.353,29.985c0,0-3.078,1.246-3.817,2.866c0,0,3.618-0.149,2.993,1.216l1.158-2.235L61.353,29.985z"/>
	<path fill="#BE202E" d="M50.819,55.031c0,0-1.669-0.84-4.361,0.504c0,0,3.607,2.11,2.713,3.314L50.819,55.031z"/>
	<path fill="#BE202E" d="M26.542,52.634c0,0,2.068-2.596,3.831-2.845c0,0-1.17,3.426,0.313,3.209L26.542,52.634z"/>
	<path fill="#BE202E" d="M26.006,53.012c0,0-1.051-1.971-4.609-2.52c0,0,2.066,4.555,0.358,5.116L26.006,53.012z"/>
	<path fill="#BE202E" d="M68.933,70.17c-11.409,9.455-20.909,6.252-27.016-0.362c-0.629-0.681-1.165-1.405-1.644-2.159
		c-0.313,3.967,0.951,8.051,3.865,11.204c6.106,6.606,15.062,9.116,27.015,0.358c3.846-2.821,12.536-12.005,6.254-23.038
		C77.097,60.588,74.708,65.385,68.933,70.17z"/>
	<g>
		<path fill="#39B24A" d="M24.74,6.672c0,0,1.333,3.286,3.643,8.09c1.154,2.399,2.538,5.18,4.108,8.108
			c0.765,1.475,1.628,2.959,2.464,4.488c0.872,1.508,1.761,3.038,2.671,4.552c0.945,1.494,1.838,3.018,2.807,4.458
			c0.971,1.438,1.872,2.89,2.852,4.216c0.968,1.333,1.851,2.661,2.796,3.833c0.934,1.181,1.766,2.338,2.619,3.33
			c0.846,0.996,1.621,1.91,2.309,2.719c0.691,0.803,1.35,1.446,1.862,2.004c1.04,1.1,1.634,1.729,1.634,1.729l-3.541,3.317
			c0,0-0.584-0.707-1.606-1.944c-0.501-0.625-1.149-1.354-1.817-2.242c-0.66-0.893-1.404-1.899-2.217-2.998
			c-0.817-1.093-1.597-2.344-2.478-3.629c-0.892-1.277-1.708-2.699-2.607-4.133c-0.911-1.428-1.731-2.971-2.621-4.503
			c-0.888-1.534-1.691-3.145-2.547-4.725c-0.819-1.599-1.615-3.208-2.394-4.792c-0.741-1.603-1.512-3.159-2.182-4.7
			c-1.385-3.06-2.588-5.953-3.586-8.443c-1.994-4.979-3.115-8.385-3.115-8.385L24.74,6.672z"/>
	</g>
	<g>
		<path fill="#39B24A" d="M25.351,7.234c0,0,2.439,1.976,6.338,4.681c1.949,1.342,4.238,2.89,6.759,4.433
			c1.244,0.799,2.576,1.545,3.906,2.341c1.343,0.772,2.727,1.521,4.105,2.275c1.404,0.703,2.786,1.452,4.185,2.104
			c1.406,0.63,2.758,1.33,4.122,1.862c1.361,0.537,2.645,1.147,3.916,1.561c1.265,0.433,2.441,0.902,3.556,1.229
			c1.114,0.324,2.136,0.621,3.04,0.884c0.904,0.261,1.712,0.389,2.365,0.546c1.312,0.286,2.062,0.45,2.062,0.45l-0.766,3.815
			c0,0-0.795-0.208-2.186-0.571c-0.69-0.196-1.55-0.374-2.493-0.689c-0.942-0.317-2.006-0.675-3.165-1.066
			c-1.157-0.394-2.362-0.931-3.661-1.439c-1.308-0.49-2.606-1.172-3.991-1.788c-1.388-0.612-2.746-1.387-4.164-2.096
			c-1.408-0.73-2.79-1.555-4.195-2.334c-1.376-0.83-2.755-1.653-4.09-2.497c-1.319-0.866-2.642-1.683-3.87-2.546
			c-2.494-1.675-4.747-3.34-6.665-4.783C26.64,10.71,24.222,8.58,24.222,8.58L25.351,7.234z"/>
	</g>
	<g>
		<path fill="#39B24A" d="M25.812,59.514c0,0-0.059-0.197-0.169-0.568c-0.116-0.39-0.272-0.948-0.455-1.64
			c-0.373-1.395-0.86-3.383-1.351-5.783c-0.246-1.2-0.502-2.5-0.729-3.884c-0.257-1.377-0.448-2.843-0.668-4.354
			c-0.207-1.513-0.362-3.085-0.534-4.677c-0.104-1.602-0.28-3.219-0.325-4.848c-0.048-1.629-0.146-3.251-0.1-4.857
			c0.009-1.603,0.019-3.178,0.142-4.702c0.046-0.761,0.091-1.51,0.136-2.242c0.044-0.732,0.158-1.446,0.23-2.141
			c0.178-1.388,0.276-2.705,0.534-3.903c0.221-1.199,0.423-2.299,0.602-3.273c0.229-0.965,0.461-1.799,0.635-2.488
			c0.358-1.375,0.562-2.161,0.562-2.161l1.607,0.429c0,0-0.147,0.775-0.404,2.133c-0.124,0.679-0.295,1.498-0.453,2.444
			c-0.109,0.955-0.233,2.031-0.369,3.206c-0.173,1.167-0.181,2.456-0.263,3.805c-0.024,0.677-0.09,1.368-0.085,2.079
			c0.005,0.711,0.01,1.438,0.016,2.176c-0.021,1.475,0.072,3,0.168,4.547c0.056,1.547,0.259,3.115,0.41,4.68
			c0.146,1.566,0.426,3.122,0.627,4.656c0.27,1.527,0.521,3.03,0.817,4.475c0.311,1.443,0.587,2.84,0.924,4.15
			c0.308,1.315,0.637,2.549,0.951,3.684c0.624,2.27,1.217,4.136,1.655,5.421c0.218,0.65,0.393,1.142,0.513,1.463
			c0.126,0.341,0.193,0.523,0.193,0.523L25.812,59.514z"/>
	</g>
	<path fill="#EA2227" d="M21.377,52.574c0,0,4.485-2.321,9.004-0.344c3.654,1.6,1.305,7.598,1.305,7.598l-6.846,1.707
		c0,0-3.609-3.552-3.631-3.891C21.186,57.312,21.377,52.574,21.377,52.574z"/>
	<path fill="#EA2227" d="M47.793,57.075c0,0,3.985-4.761,8.913-4.666c3.994,0.079,1.995,7.353,1.995,7.353l-3.221,4.689
		c0,0-4.697-1.902-4.846-2.201C50.484,61.943,47.793,57.075,47.793,57.075z"/>
	<path fill="#EA2227" d="M60.019,33.769c0,0,0.864-4.974,5.176-7.375c3.487-1.938,5.228,3.346,5.228,3.346l-1.074,4.666
		c0,0-5.112,2.754-5.396,2.572C63.674,36.786,60.019,33.769,60.019,33.769z"/>
	<path fill="#39B24A" d="M24.362,10.46c0,0-0.613-1.81-1.847-3.449c-1.237-1.642,0.756-5.3,1.654-4.343
		c0.9,0.967,0.555,2.264,1.617,4.413c1.063,2.15,2.525,3.679,2.525,3.679s-2.247-2.548-2.542,0.269
		C25.771,11.028,24.652,8.767,24.362,10.46z"/>
	<path fill="#231F20" d="M63.765,54.28c-0.697-0.06-1.337,0.732-1.434,1.773c-0.047,0.545,0.061,1.049,0.276,1.411
		c0.19-0.857,0.763-1.469,1.372-1.407c0.331,0.026,0.613,0.249,0.81,0.589c0.027-0.122,0.046-0.239,0.059-0.365
		C64.943,55.242,64.458,54.348,63.765,54.28z"/>
	<path fill="#231F20" d="M47.515,63.885c0.37-0.592,1.392-0.621,2.277-0.068c0.461,0.295,0.794,0.687,0.955,1.081
		c-0.8-0.37-1.628-0.289-1.956,0.231c-0.176,0.281-0.169,0.639-0.022,0.994c-0.104-0.043-0.21-0.098-0.315-0.169
		C47.562,65.402,47.146,64.471,47.515,63.885z"/>
	<g>
		<g>
			<g>
				<path fill="#3F3B3C" d="M52.333,65.031c0.826-0.508,2.006-0.215,3.095-0.304c0.279-0.022,0.532-0.02,0.807-0.096
					c0.253-0.005,0.513-0.136,0.747-0.169c0.479-0.187,0.868-0.376,1.304-0.616c0.398-0.296,0.73-0.571,1.099-0.931
					c0.127-0.199,0.353-0.382,0.462-0.61c0.183-0.218,0.285-0.449,0.421-0.694c0.53-0.954,0.75-2.149,1.554-2.692
					c0.393-0.256,0.891-0.274,1.51,0.043c0.312,0.157,0.653,0.395,0.924,0.758c0.272,0.359,0.631,0.798,0.799,1.355
					c0.209,0.554,0.396,1.196,0.399,1.911c0.077,0.723-0.066,1.483-0.256,2.294c-0.475,1.578-1.584,3.212-3.224,4.292
					c-1.661,1.044-3.606,1.38-5.239,1.16c-0.815-0.162-1.568-0.345-2.195-0.714c-0.648-0.299-1.157-0.735-1.574-1.154
					c-0.438-0.383-0.69-0.89-0.904-1.287c-0.22-0.396-0.295-0.805-0.309-1.154C51.716,65.729,51.938,65.284,52.333,65.031z"/>
			</g>
		</g>
	</g>
	<g>
		<defs>
			<path id="SVGID_1_" d="M52.336,65.029c0.827-0.512,2.006-0.214,3.093-0.304c0.278-0.021,0.533-0.021,0.808-0.095
				c0.252-0.006,0.512-0.138,0.747-0.167c0.476-0.188,0.87-0.38,1.302-0.614c0.392-0.3,0.73-0.572,1.093-0.933
				c0.132-0.205,0.354-0.382,0.466-0.609c0.183-0.219,0.282-0.452,0.419-0.696c0.53-0.953,0.751-2.146,1.555-2.691
				c0.393-0.257,0.891-0.279,1.512,0.043c0.312,0.156,0.654,0.395,0.924,0.759c0.272,0.357,0.631,0.796,0.802,1.355
				c0.207,0.553,0.395,1.197,0.398,1.912c0.079,0.721-0.067,1.48-0.256,2.295c-0.474,1.576-1.584,3.211-3.224,4.293
				c-1.664,1.047-3.607,1.383-5.243,1.157c-0.816-0.157-1.568-0.347-2.195-0.714c-0.649-0.299-1.157-0.737-1.574-1.162
				c-0.438-0.381-0.69-0.887-0.904-1.285c-0.219-0.398-0.292-0.809-0.307-1.158C51.717,65.721,51.941,65.279,52.336,65.029z"/>
		</defs>
		<clipPath id="SVGID_2_">
			<use xlink:href="#SVGID_1_"  overflow="visible"/>
		</clipPath>
		<path clip-path="url(#SVGID_2_)" fill="#FFFFFF" d="M61.659,63.051c0.188,0.306,0.086,0.71-0.223,0.897l-4.429,2.659
			c-0.31,0.191-0.711,0.092-0.901-0.215l-1.136-1.894c-0.19-0.312-0.087-0.712,0.223-0.901l4.428-2.666
			c0.311-0.186,0.708-0.083,0.899,0.224L61.659,63.051z"/>
		<polygon clip-path="url(#SVGID_2_)" fill="#231F20" points="60.407,65.64 58.964,66.343 56.155,61.681 57.754,61.229 		"/>
	</g>
	<path fill="#EA2227" d="M62.908,65.426c0.549,0.775-0.175,2.19-1.571,3.119c-1.394,0.931-2.938,1.025-3.487,0.24
		c-0.896-1.277,1.445-1.934,2.082-2.342C60.562,66.033,61.894,63.984,62.908,65.426z"/>
	<g>
		<g>
			<g>
				<path fill="#3F3B3C" d="M60.75,67.562c-0.392,0.26-1.02,0.01-1.4-0.56c-0.38-0.638-0.337-1.325,0.087-1.528
					c0.424-0.204,1.024,0.062,1.339,0.598C61.152,66.635,61.142,67.302,60.75,67.562z"/>
			</g>
		</g>
	</g>
	<path fill="#231F20" d="M35.433,57.706c-0.525-0.337-1.361,0.034-1.866,0.822c-0.266,0.411-0.383,0.857-0.359,1.237
		c0.504-0.604,1.211-0.852,1.673-0.561c0.25,0.159,0.386,0.452,0.402,0.8c0.067-0.077,0.13-0.165,0.19-0.259
		C35.978,58.958,35.96,58.042,35.433,57.706z"/>
	<path fill="#231F20" d="M18.657,58.9c0.52-0.345,1.361,0.004,1.883,0.788c0.272,0.407,0.402,0.844,0.386,1.226
		c-0.518-0.593-1.226-0.83-1.683-0.523c-0.248,0.167-0.374,0.463-0.382,0.807c-0.072-0.08-0.141-0.161-0.2-0.257
		C18.14,60.166,18.136,59.248,18.657,58.9z"/>
	<g>
		<g>
			<g>
				<path fill="#3F3B3C" d="M21.912,61.567c0.278-0.032,0.479,0.855,1.266,1.855c0.205,0.245,0.416,0.513,0.717,0.729
					c0.255,0.264,0.612,0.43,0.95,0.643c0.729,0.338,1.588,0.536,2.502,0.478c0.909-0.117,1.714-0.477,2.366-0.946
					c0.292-0.273,0.609-0.505,0.81-0.812c0.255-0.27,0.41-0.573,0.565-0.852c0.583-1.133,0.613-2.042,0.892-2.062
					c0.116-0.012,0.228,0.201,0.328,0.633c0.053,0.215,0.105,0.484,0.067,0.796c-0.033,0.31-0.013,0.688-0.162,1.063
					c-0.114,0.388-0.252,0.815-0.522,1.216c-0.216,0.438-0.581,0.808-0.957,1.209c-0.815,0.729-1.943,1.3-3.223,1.449
					c-1.286,0.098-2.501-0.248-3.441-0.809c-0.444-0.322-0.874-0.614-1.169-1.004c-0.342-0.342-0.559-0.735-0.745-1.094
					c-0.217-0.34-0.27-0.717-0.361-1.014c-0.097-0.299-0.096-0.573-0.085-0.795C21.726,61.809,21.795,61.578,21.912,61.567z"/>
			</g>
		</g>
	</g>
	<path fill="#231F20" d="M71.938,25.015c-0.549,0.211-0.747,1.049-0.434,1.877c0.163,0.432,0.434,0.772,0.732,0.97
		c-0.171-0.721,0.036-1.396,0.521-1.575c0.263-0.105,0.558-0.045,0.832,0.144c-0.024-0.099-0.052-0.195-0.09-0.292
		C73.189,25.31,72.49,24.81,71.938,25.015z"/>
	<path fill="#231F20" d="M63.132,38.331c0.062-0.587,0.828-0.985,1.705-0.89c0.46,0.046,0.86,0.223,1.13,0.464
		c-0.745,0.018-1.347,0.386-1.401,0.903c-0.032,0.279,0.107,0.55,0.354,0.767c-0.104,0.004-0.203,0-0.31-0.01
		C63.733,39.467,63.067,38.916,63.132,38.331z"/>
	<g>
		<g>
			<g>
				<path fill="#3F3B3C" d="M67.221,37.416c0.139-0.239,0.929,0.098,2.12,0.059c0.299-0.02,0.617-0.028,0.947-0.136
					c0.339-0.045,0.662-0.221,1.009-0.356c0.658-0.36,1.282-0.891,1.748-1.61c0.424-0.746,0.606-1.543,0.622-2.294
					c-0.04-0.371-0.033-0.737-0.149-1.06c-0.057-0.342-0.196-0.628-0.315-0.903c-0.515-1.076-1.176-1.624-1.027-1.857
					c0.062-0.101,0.289-0.07,0.675,0.095c0.195,0.08,0.432,0.191,0.648,0.396c0.218,0.199,0.52,0.398,0.722,0.723
					c0.23,0.306,0.48,0.653,0.633,1.087c0.212,0.413,0.287,0.901,0.38,1.416c0.094,1.036-0.115,2.224-0.732,3.281
					c-0.653,1.035-1.61,1.769-2.573,2.164c-0.5,0.155-0.968,0.313-1.432,0.316c-0.456,0.064-0.879,0.002-1.257-0.062
					c-0.382-0.03-0.697-0.207-0.975-0.308c-0.281-0.099-0.488-0.258-0.648-0.395C67.291,37.704,67.159,37.516,67.221,37.416z"/>
			</g>
		</g>
	</g>
	<path fill="#FFFFFF" d="M19.541,51.382c-0.534,2.072,0.578,3.503,2.719,3.497c-2.141,0.006-3.986,1.439-4.521,3.511
		c0.534-2.072-0.579-3.505-2.719-3.5C17.16,54.885,19.007,53.454,19.541,51.382z"/>
	<path fill="#FFFFFF" d="M66.118,47.379c-2.342,2.146-2.119,4.821,0.546,6.544c-2.665-1.723-6.116-1.436-8.456,0.708
		c2.34-2.144,2.116-4.817-0.546-6.544C60.324,49.815,63.776,49.525,66.118,47.379z"/>
	<path fill="#FFFFFF" d="M70.812,19.868c-0.569,1.787,0.33,3.091,2.2,3.197c-1.87-0.106-3.559,1.058-4.126,2.844
		c0.567-1.786-0.33-3.089-2.203-3.199C68.556,22.819,70.242,21.655,70.812,19.868z"/>
</g>
</svg>
