<?xml version="1.0" encoding="utf-8"?>
<!-- Generator: Adobe Illustrator 16.0.4, SVG Export Plug-In . SVG Version: 6.00 Build 0)  -->
<!DOCTYPE svg PUBLIC "-//W3C//DTD SVG 1.1//EN" "http://www.w3.org/Graphics/SVG/1.1/DTD/svg11.dtd">
<svg version="1.1" id="Layer_1" xmlns="http://www.w3.org/2000/svg" xmlns:xlink="http://www.w3.org/1999/xlink" x="0px" y="0px"
	 width="93.503px" height="107.889px" viewBox="2.259 -7.966 93.503 107.889" enable-background="new 2.259 -7.966 93.503 107.889"
	 xml:space="preserve">
<g>
	<g>
		<path fill="#A87D50" d="M49.168,97.679c-11.458,0-23.153-5.486-31.285-14.677C9.591,73.63,5.845,61.775,7.335,49.621
			C11.273,17.513,24.957,1.905,49.168,1.905c22.176,0,37.029,16.93,41.824,47.67c1.825,11.704-1.577,23.298-9.581,32.648
			C73.126,91.901,61.072,97.679,49.168,97.679z"/>
		<path fill="#A87D50" d="M49.168,3.326c22.324,0,35.889,17.418,40.42,46.468c3.955,25.354-18.096,46.464-40.42,46.464
			c-22.327,0-43.546-20.993-40.422-46.464C12.789,16.835,26.841,3.326,49.168,3.326 M49.168,0.484
			C24.111,0.484,9.966,16.5,5.925,49.448C4.384,62.012,8.253,74.263,16.819,83.943c8.398,9.491,20.491,15.157,32.349,15.157
			c12.313,0,24.771-5.964,33.322-15.953c8.279-9.671,11.797-21.671,9.906-33.792C87.48,17.84,72.128,0.484,49.168,0.484
			L49.168,0.484z"/>
	</g>
	<path fill="#231F20" d="M46.774,36.033c0.032,3.29-1.138,5.961-2.627,5.979c-1.484,0.014-2.716-2.632-2.75-5.916
		c-0.042-3.286,1.134-5.96,2.616-5.979C45.505,30.102,46.74,32.75,46.774,36.033z"/>
	<path fill="#231F20" d="M56.354,36.619c0.035,3.287-1.135,5.963-2.625,5.977c-1.481,0.016-2.719-2.629-2.753-5.913
		c-0.037-3.285,1.134-5.959,2.616-5.977C55.088,30.689,56.32,33.337,56.354,36.619z"/>
	<g>
		<path fill="#A87D50" d="M15.134,84.713c0,0,0.632,0.641,1.736,1.36c1.088,0.733,2.659,1.506,4.284,1.897
			c0.399,0.118,0.812,0.174,1.21,0.24c0.394,0.085,0.798,0.076,1.172,0.114c0.374,0.047,0.747-0.004,1.087,0
			c0.341,0.007,0.665-0.045,0.96-0.084c0.295-0.045,0.562-0.054,0.798-0.116c0.234-0.055,0.438-0.104,0.607-0.143
			c0.332-0.077,0.522-0.12,0.522-0.12L28,91.519c0,0-0.251-0.007-0.691-0.02c-0.217-0.008-0.482-0.017-0.785-0.027
			c-0.301-0.006-0.644-0.074-1.012-0.117c-0.369-0.051-0.765-0.097-1.177-0.21c-0.411-0.11-0.848-0.175-1.278-0.343
			c-0.431-0.159-0.884-0.277-1.312-0.491c-0.433-0.195-0.872-0.382-1.281-0.629c-1.675-0.912-3.074-2.149-3.972-3.174
			C15.578,85.494,15.134,84.713,15.134,84.713z"/>
	</g>
	<g>
		<path fill="#895D3B" d="M89.588,49.794C86.444,29.631,78.941,15.077,67.184,8.056c7.377,8.002,12.283,20.084,14.673,35.41
			C85.812,68.823,63.761,89.93,41.435,89.93c-7.455,0-14.784-2.354-21.125-6.42c7.639,7.882,18.118,12.748,28.858,12.748
			C71.492,96.258,93.543,75.147,89.588,49.794z"/>
	</g>
	<path fill="#754D29" d="M54.116,8.823c0,1.215-2.092,2.202-4.675,2.202c-2.582,0-4.675-0.987-4.675-2.202
		c0-1.213,2.093-2.199,4.675-2.199C52.024,6.624,54.116,7.61,54.116,8.823z"/>
	<path fill="#895D3B" d="M49.441,7.415c2.295,0,4.192,0.779,4.59,1.808c0.051-0.131,0.085-0.261,0.085-0.399
		c0-1.213-2.092-2.199-4.675-2.199c-2.582,0-4.675,0.986-4.675,2.199c0,0.139,0.035,0.269,0.086,0.399
		C45.25,8.194,47.146,7.415,49.441,7.415z"/>
	<ellipse fill="#754D29" cx="41.127" cy="14.875" rx="4.675" ry="2.199"/>
	<path fill="#895D3B" d="M41.127,13.468c2.292,0,4.192,0.774,4.587,1.803c0.053-0.128,0.087-0.262,0.087-0.396
		c0-1.213-2.092-2.203-4.674-2.203s-4.675,0.99-4.675,2.203c0,0.134,0.034,0.268,0.083,0.396
		C36.933,14.242,38.833,13.468,41.127,13.468z"/>
	<ellipse fill="#754D29" cx="56.199" cy="14.875" rx="4.676" ry="2.199"/>
	<path fill="#895D3B" d="M56.2,13.468c2.292,0,4.192,0.774,4.589,1.803c0.051-0.128,0.086-0.262,0.086-0.396
		c0-1.213-2.095-2.203-4.675-2.203c-2.583,0-4.677,0.99-4.677,2.203c0,0.134,0.034,0.268,0.087,0.396
		C52.008,14.242,53.905,13.468,56.2,13.468z"/>
	<g>
		<g>
			<g>
				<path fill="#3F3B3C" d="M34.088,43.811c1.022,0.002,1.985,0.657,2.957,1.522c0.977,0.873,2.059,1.941,3.276,2.917
					c0.592,0.5,1.28,0.943,1.943,1.383c0.718,0.395,1.415,0.799,2.184,1.092c0.769,0.283,1.532,0.558,2.342,0.704
					c0.809,0.146,1.628,0.232,2.496,0.255c0.869-0.023,1.688-0.109,2.498-0.255c0.811-0.146,1.574-0.421,2.342-0.704
					c0.769-0.292,1.466-0.696,2.184-1.091c0.663-0.439,1.351-0.882,1.943-1.382c1.216-0.976,2.298-2.044,3.274-2.917
					c0.972-0.865,1.935-1.52,2.957-1.522c0.994-0.005,1.982,0.683,2.703,2.218c0.703,1.519,1.029,3.919,0.345,6.828
					c-0.326,1.457-0.972,2.984-1.876,4.539c-0.957,1.508-2.178,3.053-3.771,4.378c-1.589,1.313-3.476,2.506-5.635,3.297
					c-2.152,0.794-4.531,1.245-6.962,1.266c-2.432-0.02-4.811-0.471-6.964-1.265c-2.16-0.792-4.046-1.984-5.636-3.299
					c-1.593-1.324-2.813-2.869-3.771-4.377c-0.904-1.555-1.55-3.082-1.876-4.539c-0.685-2.908-0.359-5.309,0.344-6.828
					C32.106,44.494,33.094,43.806,34.088,43.811z"/>
			</g>
		</g>
	</g>
	<g>
		<defs>
			<path id="SVGID_1_" d="M34.088,43.811c2.07,0.041,3.757,2.534,6.237,4.442c1.204,0.988,2.616,1.857,4.125,2.47
				c1.52,0.618,3.111,0.927,4.835,0.96c1.725-0.033,3.318-0.342,4.838-0.96c1.514-0.612,2.923-1.481,4.125-2.47
				c2.483-1.908,4.17-4.401,6.236-4.442c0.996,0,1.985,0.687,2.704,2.222c0.702,1.519,1.026,3.919,0.343,6.826
				c-0.326,1.458-0.973,2.983-1.875,4.537c-0.957,1.509-2.181,3.053-3.771,4.377c-1.592,1.315-3.473,2.507-5.637,3.298
				c-2.15,0.793-4.529,1.248-6.958,1.267c-2.433-0.019-4.81-0.474-6.965-1.267c-2.157-0.791-4.042-1.982-5.633-3.298
				c-1.596-1.324-2.815-2.868-3.772-4.377c-0.906-1.554-1.547-3.079-1.878-4.537c-0.683-2.907-0.357-5.308,0.345-6.826
				C32.106,44.497,33.097,43.811,34.088,43.811z"/>
		</defs>
		<clipPath id="SVGID_2_">
			<use xlink:href="#SVGID_1_"  overflow="visible"/>
		</clipPath>
		<path clip-path="url(#SVGID_2_)" fill="#FFFFFF" d="M59.093,54.093c0,0.769-0.62,1.391-1.39,1.391H41.369
			c-0.768,0-1.389-0.622-1.389-1.391v-7.256c0-0.77,0.621-1.389,1.389-1.389h16.334c0.77,0,1.39,0.619,1.39,1.389V54.093z"/>
	</g>
	<path fill="#EA2227" d="M56.034,59.916c0.052,1.928-2.745,3.49-6.133,3.49c-3.387,0-6.09-1.562-6.137-3.49
		c-0.077-3.163,4.597-1.644,6.119-1.625C51.403,58.316,55.941,56.361,56.034,59.916z"/>
	<g>
		<g>
			<g>
				<path fill="#3F3B3C" d="M50.01,61.094c-0.871,0.001-1.582-1.119-1.587-2.503c0.072-1.481,0.846-2.59,1.708-2.473
					c0.864,0.117,1.516,1.234,1.447,2.5C51.584,59.983,50.881,61.093,50.01,61.094z"/>
			</g>
		</g>
	</g>
	<path fill="#FFFFFF" d="M39.925,24.44c-5.078,0.411-7.427,4.021-5.753,8.83c-1.674-4.81-6.331-7.852-11.408-7.44
		c5.077-0.411,7.429-4.015,5.76-8.826C30.193,21.815,34.847,24.852,39.925,24.44z"/>
	<g>
		<path fill="#895D3B" d="M18.749,64.455c0,0-0.317,0.601-0.557,1.565c-0.128,0.479-0.22,1.049-0.27,1.655
			c-0.037,0.608-0.037,1.254,0.061,1.884c0.023,0.316,0.119,0.624,0.176,0.926c0.064,0.302,0.182,0.587,0.264,0.864
			c0.091,0.276,0.227,0.529,0.327,0.773c0.094,0.247,0.243,0.458,0.353,0.66c0.121,0.198,0.206,0.389,0.328,0.537
			c0.11,0.152,0.206,0.285,0.286,0.395c0.156,0.218,0.246,0.342,0.246,0.342l-1.686,1.09c0,0-0.078-0.165-0.214-0.454
			c-0.067-0.145-0.148-0.319-0.242-0.52c-0.102-0.194-0.167-0.442-0.262-0.696c-0.083-0.26-0.2-0.528-0.26-0.837
			c-0.065-0.306-0.16-0.617-0.205-0.953c-0.036-0.337-0.104-0.677-0.112-1.029c-0.002-0.354-0.039-0.706,0-1.061
			c0.025-0.707,0.156-1.4,0.316-2.028c0.173-0.627,0.378-1.192,0.601-1.653C18.325,64.983,18.749,64.455,18.749,64.455z"/>
	</g>
	<g>
		<path fill="#895D3B" d="M21.497,57.759c0,0-0.275,0.522-0.483,1.363c-0.112,0.416-0.191,0.913-0.234,1.441
			c-0.032,0.529-0.031,1.092,0.054,1.64c0.069,0.549,0.216,1.079,0.383,1.559c0.08,0.241,0.198,0.461,0.285,0.673
			c0.082,0.215,0.211,0.399,0.307,0.575c0.105,0.173,0.179,0.339,0.285,0.468c0.096,0.133,0.18,0.249,0.249,0.344
			c0.136,0.189,0.213,0.298,0.213,0.298l-1.467,0.947c0,0-0.068-0.144-0.187-0.396c-0.058-0.126-0.129-0.277-0.21-0.452
			c-0.089-0.169-0.146-0.385-0.228-0.606c-0.072-0.227-0.174-0.459-0.226-0.729c-0.057-0.266-0.139-0.537-0.178-0.829
			c-0.087-0.581-0.137-1.203-0.099-1.819c0.022-0.615,0.135-1.219,0.274-1.766c0.15-0.545,0.329-1.037,0.521-1.439
			C21.128,58.22,21.497,57.759,21.497,57.759z"/>
	</g>
	<g>
		<path fill="#895D3B" d="M29.701,71.196c0,0-0.317,0.601-0.557,1.566c-0.128,0.479-0.22,1.049-0.27,1.655
			c-0.038,0.608-0.036,1.255,0.061,1.885c0.023,0.316,0.119,0.624,0.176,0.926c0.064,0.302,0.182,0.587,0.264,0.865
			c0.091,0.276,0.227,0.529,0.327,0.774c0.094,0.246,0.243,0.458,0.352,0.66c0.121,0.198,0.206,0.39,0.327,0.538
			c0.11,0.152,0.207,0.286,0.286,0.396c0.156,0.217,0.245,0.342,0.245,0.342l-1.687,1.088c0,0-0.078-0.165-0.214-0.455
			c-0.067-0.144-0.148-0.318-0.242-0.52c-0.102-0.194-0.167-0.442-0.262-0.696c-0.083-0.26-0.2-0.528-0.259-0.837
			c-0.065-0.306-0.159-0.618-0.205-0.953c-0.036-0.338-0.103-0.678-0.112-1.03c-0.002-0.354-0.039-0.706,0-1.061
			c0.026-0.708,0.156-1.4,0.316-2.029c0.173-0.627,0.378-1.192,0.601-1.654C29.277,71.726,29.701,71.196,29.701,71.196z"/>
	</g>
	<g>
		<path fill="#895D3B" d="M34.235,65.148c0,0-0.317,0.601-0.556,1.566c-0.128,0.479-0.22,1.05-0.27,1.655
			c-0.037,0.608-0.036,1.255,0.061,1.885c0.023,0.316,0.119,0.624,0.177,0.926c0.064,0.302,0.182,0.587,0.264,0.865
			c0.091,0.276,0.227,0.529,0.328,0.773c0.094,0.247,0.243,0.458,0.352,0.66c0.121,0.199,0.206,0.39,0.328,0.538
			c0.11,0.152,0.207,0.285,0.286,0.395c0.156,0.218,0.245,0.342,0.245,0.342l-1.686,1.09c0,0-0.078-0.166-0.214-0.455
			c-0.067-0.145-0.148-0.319-0.242-0.52c-0.103-0.194-0.168-0.442-0.262-0.696c-0.083-0.26-0.2-0.528-0.259-0.837
			c-0.065-0.306-0.16-0.618-0.205-0.953c-0.036-0.338-0.103-0.678-0.112-1.03c-0.002-0.354-0.039-0.706-0.001-1.061
			c0.026-0.707,0.156-1.4,0.316-2.029c0.173-0.627,0.378-1.192,0.601-1.654C33.812,65.678,34.235,65.148,34.235,65.148z"/>
	</g>
	<g>
		<path fill="#895D3B" d="M17.422,52.832c0,0-0.276,0.522-0.483,1.363c-0.112,0.416-0.191,0.913-0.234,1.44
			c-0.032,0.529-0.031,1.092,0.054,1.64c0.069,0.549,0.217,1.079,0.384,1.559c0.08,0.241,0.197,0.461,0.285,0.673
			c0.082,0.215,0.212,0.399,0.307,0.575c0.105,0.173,0.179,0.339,0.285,0.468c0.096,0.133,0.179,0.249,0.248,0.344
			c0.136,0.189,0.214,0.298,0.214,0.298l-1.468,0.947c0,0-0.067-0.144-0.186-0.396c-0.058-0.126-0.129-0.278-0.21-0.452
			c-0.089-0.169-0.146-0.385-0.228-0.606c-0.072-0.227-0.174-0.459-0.226-0.729c-0.057-0.266-0.139-0.537-0.178-0.829
			c-0.088-0.581-0.137-1.203-0.099-1.818c0.022-0.616,0.135-1.219,0.274-1.766c0.15-0.546,0.329-1.038,0.522-1.439
			C17.053,53.292,17.422,52.832,17.422,52.832z"/>
	</g>
	<g>
		<path fill="#895D3B" d="M15.84,40.991c0,0-0.317,0.601-0.557,1.566c-0.129,0.479-0.221,1.05-0.271,1.656
			c-0.038,0.608-0.037,1.255,0.06,1.885c0.023,0.316,0.119,0.624,0.176,0.927c0.064,0.302,0.182,0.587,0.264,0.865
			c0.091,0.276,0.227,0.529,0.328,0.773c0.094,0.247,0.243,0.458,0.352,0.661c0.121,0.198,0.206,0.39,0.327,0.538
			c0.11,0.152,0.207,0.285,0.286,0.395c0.156,0.218,0.246,0.342,0.246,0.342l-1.687,1.09c0,0-0.078-0.166-0.214-0.455
			c-0.067-0.145-0.148-0.319-0.242-0.521c-0.103-0.193-0.167-0.442-0.262-0.696c-0.083-0.26-0.2-0.528-0.259-0.838
			c-0.065-0.306-0.16-0.617-0.205-0.953c-0.036-0.337-0.103-0.678-0.112-1.03c-0.002-0.353-0.039-0.706,0-1.061
			c0.026-0.707,0.157-1.4,0.317-2.029c0.173-0.627,0.378-1.192,0.601-1.654C15.417,41.521,15.84,40.991,15.84,40.991z"/>
	</g>
	<g>
		<path fill="#A87D50" d="M10.489,23.626c0,0-0.292,0.617-0.489,1.591c-0.107,0.482-0.172,1.055-0.194,1.656
			c-0.009,0.604,0.022,1.239,0.147,1.852c0.037,0.308,0.146,0.604,0.216,0.896c0.077,0.29,0.207,0.562,0.299,0.827
			c0.102,0.264,0.247,0.502,0.355,0.732c0.102,0.232,0.258,0.431,0.374,0.62c0.127,0.186,0.216,0.363,0.342,0.502
			c0.114,0.141,0.214,0.265,0.295,0.366c0.161,0.2,0.253,0.315,0.253,0.315l-2.461,1.59c0,0-0.075-0.175-0.207-0.481
			c-0.064-0.151-0.142-0.336-0.232-0.548c-0.098-0.205-0.158-0.466-0.247-0.733c-0.078-0.273-0.187-0.555-0.238-0.878
			c-0.057-0.319-0.142-0.646-0.176-0.994C8.5,30.587,8.445,30.234,8.449,29.87c0.01-0.365-0.013-0.729,0.04-1.092
			c0.054-0.725,0.215-1.429,0.403-2.062c0.201-0.631,0.433-1.195,0.677-1.653C10.041,24.139,10.489,23.626,10.489,23.626z"/>
	</g>
	<g>
		<path fill="#A87D50" d="M14.564,13.1c0,0-0.293,0.616-0.489,1.59c-0.107,0.482-0.173,1.055-0.194,1.656
			c-0.009,0.604,0.022,1.238,0.147,1.851c0.037,0.308,0.146,0.604,0.216,0.896c0.077,0.29,0.207,0.562,0.299,0.826
			c0.102,0.263,0.247,0.502,0.355,0.732c0.103,0.232,0.259,0.431,0.374,0.62c0.127,0.185,0.216,0.362,0.342,0.501
			c0.114,0.141,0.214,0.265,0.296,0.365c0.161,0.201,0.252,0.315,0.252,0.315l-2.46,1.592c0,0-0.075-0.176-0.207-0.481
			c-0.064-0.151-0.143-0.336-0.232-0.548c-0.098-0.205-0.159-0.466-0.247-0.732c-0.077-0.273-0.187-0.555-0.238-0.878
			c-0.057-0.32-0.142-0.646-0.177-0.994c-0.026-0.351-0.081-0.704-0.078-1.068c0.01-0.364-0.013-0.728,0.039-1.091
			c0.054-0.726,0.215-1.43,0.403-2.062c0.202-0.631,0.433-1.195,0.677-1.653C14.116,13.612,14.564,13.1,14.564,13.1z"/>
	</g>
	<g>
		<path fill="#A87D50" d="M20.119,7.342c0,0-0.505,0.745-0.995,1.969c-0.507,1.21-0.958,2.902-1.024,4.572
			c-0.038,0.415-0.011,0.832,0.001,1.234c-0.006,0.402,0.082,0.797,0.118,1.172c0.027,0.376,0.15,0.731,0.213,1.066
			c0.061,0.336,0.175,0.644,0.271,0.926c0.102,0.28,0.163,0.54,0.271,0.76c0.1,0.22,0.187,0.41,0.259,0.567
			c0.14,0.311,0.22,0.488,0.22,0.488l-3.49,1.197c0,0-0.042-0.248-0.116-0.682c-0.035-0.215-0.078-0.477-0.127-0.775
			c-0.054-0.296-0.053-0.646-0.083-1.016c-0.023-0.371-0.056-0.77-0.025-1.195c0.028-0.425,0.005-0.866,0.085-1.321
			c0.072-0.454,0.1-0.921,0.225-1.383c0.107-0.464,0.205-0.931,0.366-1.381c0.567-1.821,1.507-3.436,2.336-4.517
			C19.439,7.93,20.119,7.342,20.119,7.342z"/>
	</g>
	<g>
		<path fill="#A87D50" d="M33.289-1.827c0,0-0.643,0.63-1.365,1.732c-0.737,1.086-1.515,2.655-1.911,4.278
			c-0.119,0.399-0.177,0.812-0.244,1.21c-0.085,0.394-0.078,0.798-0.117,1.172c-0.048,0.374,0.002,0.747-0.003,1.087
			c-0.007,0.342,0.044,0.666,0.082,0.961c0.044,0.296,0.053,0.562,0.114,0.799c0.055,0.234,0.103,0.438,0.142,0.607
			c0.076,0.332,0.119,0.522,0.119,0.522l-3.658,0.48c0,0,0.008-0.251,0.021-0.69c0.008-0.218,0.018-0.482,0.03-0.785
			c0.006-0.302,0.076-0.645,0.12-1.013c0.051-0.368,0.098-0.765,0.212-1.177c0.112-0.41,0.177-0.848,0.346-1.277
			c0.16-0.431,0.28-0.884,0.494-1.312c0.197-0.433,0.385-0.871,0.633-1.279c0.917-1.674,2.158-3.068,3.186-3.964
			C32.506-1.386,33.289-1.827,33.289-1.827z"/>
	</g>
	<g>
		<path fill="#A87D50" d="M42.247-6.668c0,0-0.643,0.63-1.366,1.732c-0.737,1.085-1.514,2.654-1.91,4.278
			c-0.119,0.398-0.176,0.812-0.244,1.209c-0.086,0.394-0.078,0.798-0.118,1.172c-0.047,0.374,0.002,0.747-0.002,1.088
			c-0.007,0.341,0.044,0.665,0.082,0.96c0.044,0.296,0.053,0.562,0.114,0.799c0.055,0.235,0.102,0.439,0.141,0.607
			C39.02,5.511,39.063,5.7,39.063,5.7l-3.658,0.48c0,0,0.008-0.251,0.021-0.691c0.008-0.217,0.019-0.481,0.03-0.785
			c0.006-0.301,0.076-0.644,0.12-1.012c0.051-0.368,0.098-0.765,0.212-1.176c0.112-0.411,0.177-0.849,0.346-1.278
			c0.161-0.431,0.28-0.883,0.495-1.311c0.197-0.433,0.385-0.871,0.633-1.28c0.917-1.673,2.158-3.068,3.185-3.963
			C41.464-6.227,42.247-6.668,42.247-6.668z"/>
	</g>
	<g>
		<path fill="#A87D50" d="M5.7,36.677c0,0-0.125,0.892-0.026,2.205c0.078,1.311,0.418,3.028,1.094,4.557
			c0.148,0.389,0.355,0.752,0.544,1.108c0.172,0.363,0.424,0.68,0.622,1c0.19,0.326,0.457,0.591,0.661,0.864
			c0.202,0.274,0.44,0.501,0.65,0.712c0.215,0.207,0.385,0.413,0.578,0.563c0.186,0.152,0.349,0.285,0.482,0.396
			c0.263,0.217,0.413,0.341,0.413,0.341l-2.607,2.611c0,0-0.147-0.204-0.404-0.562c-0.126-0.178-0.279-0.393-0.455-0.641
			c-0.179-0.242-0.333-0.557-0.522-0.875c-0.185-0.323-0.388-0.666-0.549-1.062c-0.162-0.394-0.376-0.78-0.504-1.224
			C5.54,46.231,5.359,45.8,5.268,45.33c-0.108-0.463-0.226-0.925-0.278-1.4c-0.293-1.885-0.16-3.748,0.109-5.083
			C5.349,37.504,5.7,36.677,5.7,36.677z"/>
	</g>
	<g>
		<path fill="#A87D50" d="M4.474,67.981c0,0,0.366,0.822,1.146,1.884c0.76,1.069,1.958,2.345,3.341,3.282
			c0.332,0.251,0.699,0.448,1.048,0.65c0.338,0.218,0.719,0.352,1.056,0.52c0.333,0.175,0.7,0.259,1.018,0.383
			c0.317,0.126,0.638,0.191,0.928,0.259c0.292,0.062,0.545,0.147,0.788,0.173c0.239,0.03,0.447,0.058,0.618,0.08
			c0.338,0.045,0.531,0.07,0.531,0.07l-0.83,3.596c0,0-0.232-0.096-0.639-0.263c-0.201-0.083-0.445-0.186-0.725-0.302
			c-0.279-0.111-0.576-0.297-0.905-0.466c-0.327-0.177-0.682-0.359-1.027-0.61c-0.345-0.248-0.732-0.463-1.076-0.771
			c-0.347-0.301-0.729-0.571-1.055-0.921c-0.336-0.336-0.681-0.665-0.978-1.04c-1.246-1.443-2.12-3.093-2.599-4.367
			C4.614,68.869,4.474,67.981,4.474,67.981z"/>
	</g>
	<g>
		<path fill="#A87D50" d="M83.789,84.713c0,0-0.23,0.78-0.906,1.824c-0.16,0.269-0.369,0.531-0.584,0.823
			c-0.234,0.27-0.471,0.577-0.76,0.85c-0.281,0.285-0.586,0.568-0.926,0.824c-0.324,0.283-0.698,0.501-1.066,0.745
			c-0.371,0.236-0.774,0.413-1.166,0.619c-0.4,0.167-0.807,0.315-1.203,0.466c-0.407,0.107-0.801,0.212-1.173,0.311
			c-0.378,0.097-0.736,0.125-1.071,0.183c-0.676,0.124-1.229,0.109-1.625,0.137c-0.396,0.016-0.623,0.024-0.623,0.024l0.49-3.656
			c0,0,0.17,0.042,0.468,0.116c0.299,0.065,0.735,0.215,1.256,0.267c0.261,0.029,0.552,0.098,0.854,0.107
			c0.306,0.01,0.628,0.021,0.962,0.032c0.334-0.026,0.68-0.054,1.031-0.081c0.342-0.072,0.709-0.113,1.059-0.213
			c0.346-0.108,0.712-0.192,1.042-0.347c0.345-0.128,0.67-0.289,0.981-0.46c0.32-0.159,0.598-0.364,0.879-0.542
			c0.262-0.2,0.524-0.382,0.738-0.581C83.341,85.396,83.789,84.713,83.789,84.713z"/>
	</g>
	<g>
		<path fill="#A87D50" d="M88.434,23.626c0,0,0.447,0.513,0.92,1.437c0.244,0.458,0.475,1.022,0.677,1.653
			c0.188,0.634,0.35,1.338,0.403,2.062c0.053,0.363,0.029,0.727,0.04,1.092c0.004,0.364-0.052,0.717-0.077,1.068
			c-0.035,0.349-0.119,0.675-0.177,0.994c-0.051,0.323-0.161,0.604-0.237,0.878c-0.089,0.268-0.15,0.528-0.248,0.733
			c-0.09,0.212-0.168,0.396-0.231,0.549c-0.132,0.306-0.207,0.48-0.207,0.48l-2.461-1.59c0,0,0.092-0.115,0.253-0.315
			c0.082-0.102,0.182-0.226,0.295-0.366c0.127-0.139,0.216-0.316,0.343-0.502c0.115-0.189,0.271-0.388,0.374-0.62
			c0.108-0.23,0.254-0.469,0.355-0.732c0.092-0.265,0.222-0.537,0.299-0.827c0.069-0.291,0.179-0.588,0.216-0.896
			c0.125-0.612,0.155-1.247,0.147-1.852c-0.022-0.602-0.088-1.174-0.195-1.656C88.726,24.243,88.434,23.626,88.434,23.626z"/>
	</g>
	<g>
		<path fill="#A87D50" d="M84.358,13.1c0,0,0.448,0.513,0.92,1.436c0.244,0.458,0.476,1.022,0.677,1.653
			c0.188,0.633,0.35,1.337,0.403,2.062c0.052,0.363,0.028,0.727,0.039,1.091c0.003,0.364-0.052,0.718-0.077,1.068
			c-0.035,0.349-0.12,0.674-0.178,0.994c-0.051,0.323-0.16,0.604-0.238,0.878c-0.088,0.267-0.148,0.527-0.246,0.732
			c-0.09,0.212-0.168,0.396-0.232,0.548c-0.133,0.306-0.207,0.481-0.207,0.481l-2.461-1.592c0,0,0.092-0.114,0.253-0.315
			c0.082-0.101,0.182-0.225,0.296-0.365c0.126-0.139,0.215-0.316,0.342-0.501c0.115-0.189,0.271-0.388,0.375-0.62
			c0.107-0.23,0.254-0.47,0.355-0.732c0.092-0.265,0.223-0.536,0.299-0.826c0.07-0.291,0.18-0.588,0.217-0.896
			c0.125-0.612,0.156-1.247,0.146-1.851c-0.021-0.602-0.086-1.174-0.193-1.656C84.651,13.716,84.358,13.1,84.358,13.1z"/>
	</g>
	<g>
		<path fill="#A87D50" d="M78.803,7.342c0,0,0.68,0.588,1.496,1.683c0.829,1.081,1.77,2.694,2.336,4.517
			c0.162,0.45,0.26,0.917,0.367,1.38c0.125,0.462,0.152,0.93,0.225,1.383c0.08,0.456,0.057,0.897,0.085,1.322
			c0.03,0.426-0.002,0.824-0.025,1.195c-0.03,0.369-0.029,0.719-0.083,1.016c-0.049,0.299-0.092,0.561-0.127,0.775
			c-0.074,0.434-0.115,0.682-0.115,0.682l-3.49-1.197c0,0,0.08-0.178,0.22-0.488c0.071-0.157,0.159-0.348,0.259-0.567
			c0.107-0.22,0.169-0.479,0.271-0.76c0.096-0.282,0.209-0.59,0.27-0.926c0.062-0.335,0.186-0.69,0.213-1.066
			c0.037-0.375,0.124-0.77,0.118-1.172c0.013-0.403,0.038-0.819,0.001-1.234c-0.066-1.67-0.518-3.362-1.024-4.572
			C79.309,8.087,78.803,7.342,78.803,7.342z"/>
	</g>
	<g>
		<path fill="#A87D50" d="M56.168-5.771c0,0,0.816,0.376,1.904,1.2c1.098,0.808,2.449,2.097,3.5,3.688
			c0.281,0.388,0.505,0.809,0.736,1.225c0.249,0.408,0.405,0.85,0.601,1.266c0.204,0.415,0.305,0.846,0.45,1.245
			c0.147,0.401,0.227,0.793,0.308,1.155c0.074,0.363,0.172,0.699,0.202,0.999c0.037,0.302,0.068,0.564,0.094,0.78
			c0.051,0.438,0.079,0.688,0.079,0.688l-3.686-0.18c0,0,0.028-0.192,0.076-0.53c0.024-0.171,0.056-0.378,0.091-0.616
			c0.042-0.241,0.028-0.508,0.049-0.806c0.013-0.298,0.037-0.625,0.002-0.965c-0.033-0.339-0.014-0.715-0.092-1.083
			c-0.07-0.37-0.096-0.773-0.213-1.158c-0.101-0.391-0.191-0.799-0.343-1.186c-0.528-1.586-1.433-3.087-2.256-4.108
			C56.86-5.195,56.168-5.771,56.168-5.771z"/>
	</g>
	<g>
		<path fill="#A87D50" d="M93.226,36.677c0,0,0.487,0.75,0.95,2.028c0.12,0.318,0.236,0.669,0.34,1.049
			c0.121,0.376,0.188,0.786,0.287,1.211c0.062,0.428,0.146,0.876,0.173,1.339c0.027,0.462,0.062,0.938,0.027,1.416
			c-0.003,0.482-0.061,0.961-0.138,1.436c-0.05,0.482-0.193,0.936-0.307,1.388c-0.099,0.46-0.295,0.863-0.443,1.27
			c-0.145,0.412-0.339,0.768-0.52,1.099c-0.186,0.327-0.333,0.654-0.512,0.9c-0.176,0.252-0.33,0.471-0.457,0.651
			c-0.258,0.363-0.406,0.571-0.406,0.571l-2.606-2.611c0,0,0.145-0.121,0.398-0.333c0.13-0.106,0.287-0.236,0.468-0.386
			c0.188-0.146,0.342-0.351,0.549-0.555c0.2-0.208,0.424-0.434,0.605-0.708c0.188-0.271,0.434-0.54,0.595-0.867
			c0.176-0.32,0.394-0.646,0.528-1.014c0.163-0.358,0.317-0.733,0.422-1.127c0.139-0.388,0.213-0.792,0.297-1.194
			c0.085-0.402,0.111-0.81,0.161-1.205c0.011-0.396,0.052-0.786,0.031-1.153c-0.001-0.371-0.022-0.722-0.055-1.047
			C93.501,37.53,93.226,36.677,93.226,36.677z"/>
	</g>
	<g>
		<path fill="#A87D50" d="M94.449,67.981c0,0-0.061,0.874-0.462,2.145c-0.188,0.641-0.485,1.365-0.86,2.129
			c-0.207,0.369-0.4,0.772-0.659,1.143c-0.237,0.388-0.508,0.763-0.806,1.123c-0.275,0.38-0.613,0.705-0.932,1.047
			c-0.314,0.35-0.686,0.62-1.021,0.924c-0.337,0.302-0.712,0.52-1.048,0.768c-0.337,0.253-0.688,0.423-1.005,0.604
			c-0.321,0.166-0.61,0.356-0.886,0.459c-0.273,0.115-0.511,0.215-0.707,0.298c-0.396,0.165-0.624,0.259-0.624,0.259l-0.83-3.596
			c0,0,0.188-0.024,0.515-0.067c0.166-0.021,0.368-0.046,0.6-0.075c0.238-0.017,0.479-0.105,0.763-0.163
			c0.278-0.07,0.595-0.123,0.897-0.248c0.305-0.12,0.657-0.206,0.98-0.371c0.32-0.167,0.689-0.298,1.012-0.511
			c0.329-0.205,0.688-0.395,0.998-0.647c0.33-0.231,0.646-0.485,0.939-0.762c0.313-0.258,0.571-0.561,0.848-0.839
			c0.514-0.582,0.969-1.17,1.301-1.713C94.157,68.81,94.449,67.981,94.449,67.981z"/>
	</g>
	<g>
		<path fill="#895D3B" d="M20.994,32.41c0,0-0.317,0.601-0.557,1.566c-0.129,0.479-0.221,1.05-0.271,1.656
			c-0.037,0.608-0.036,1.255,0.061,1.885c0.023,0.316,0.119,0.624,0.176,0.927c0.064,0.302,0.183,0.587,0.264,0.865
			c0.091,0.276,0.227,0.529,0.328,0.773c0.094,0.247,0.243,0.458,0.352,0.661c0.121,0.198,0.206,0.39,0.328,0.538
			c0.11,0.152,0.207,0.285,0.286,0.395c0.156,0.218,0.245,0.342,0.245,0.342l-1.686,1.09c0,0-0.078-0.166-0.214-0.455
			c-0.067-0.145-0.148-0.319-0.242-0.52c-0.102-0.194-0.167-0.442-0.262-0.697c-0.083-0.26-0.201-0.528-0.26-0.837
			c-0.065-0.306-0.159-0.618-0.205-0.954c-0.036-0.337-0.104-0.677-0.112-1.03c-0.002-0.353-0.039-0.706-0.001-1.061
			c0.026-0.707,0.156-1.4,0.316-2.029c0.173-0.627,0.378-1.192,0.601-1.654C20.57,32.939,20.994,32.41,20.994,32.41z"/>
	</g>
	<g>
		<path fill="#895D3B" d="M12.255,47.818c0,0-0.259,0.49-0.454,1.279c-0.21,0.781-0.317,1.861-0.171,2.891
			c0.065,0.516,0.203,1.013,0.36,1.463c0.075,0.226,0.186,0.432,0.268,0.632c0.077,0.201,0.199,0.374,0.288,0.539
			c0.174,0.334,0.374,0.583,0.5,0.762c0.128,0.177,0.201,0.278,0.201,0.278l-1.376,0.891c0,0-0.064-0.136-0.175-0.372
			c-0.109-0.236-0.279-0.564-0.412-0.992c-0.068-0.213-0.164-0.432-0.212-0.684c-0.053-0.25-0.13-0.505-0.167-0.778
			c-0.082-0.546-0.128-1.13-0.093-1.708c0.055-1.158,0.386-2.256,0.749-3.008C11.909,48.25,12.255,47.818,12.255,47.818z"/>
	</g>
	<g>
		<path fill="#895D3B" d="M70.018,71.316c0,0,0.424,0.528,0.852,1.46c0.223,0.462,0.428,1.027,0.602,1.653
			c0.16,0.629,0.29,1.322,0.315,2.029c0.038,0.354,0.001,0.707-0.001,1.061c-0.009,0.353-0.076,0.692-0.112,1.029
			c-0.046,0.335-0.14,0.647-0.204,0.953c-0.061,0.31-0.178,0.577-0.26,0.837c-0.095,0.254-0.16,0.502-0.263,0.696
			c-0.093,0.201-0.175,0.376-0.241,0.52c-0.137,0.29-0.215,0.455-0.215,0.455l-1.686-1.09c0,0,0.09-0.124,0.245-0.342
			c0.079-0.109,0.175-0.242,0.286-0.395c0.121-0.148,0.206-0.339,0.327-0.537c0.108-0.203,0.259-0.414,0.353-0.661
			c0.1-0.244,0.236-0.497,0.327-0.773c0.082-0.277,0.2-0.562,0.265-0.864c0.057-0.303,0.152-0.61,0.176-0.926
			c0.098-0.63,0.099-1.276,0.061-1.884c-0.049-0.606-0.141-1.178-0.27-1.656C70.334,71.917,70.018,71.316,70.018,71.316z"/>
	</g>
	<g>
		<path fill="#895D3B" d="M72.441,59.742c0,0,0.314,0.393,0.632,1.085c0.329,0.684,0.63,1.682,0.68,2.734
			c0.032,0.525-0.009,1.057-0.084,1.553c-0.091,0.49-0.2,0.953-0.345,1.329c-0.121,0.39-0.275,0.688-0.375,0.902
			c-0.101,0.216-0.158,0.338-0.158,0.338l-1.252-0.809c0,0,0.066-0.093,0.182-0.254c0.115-0.163,0.297-0.389,0.455-0.692
			c0.184-0.293,0.346-0.66,0.505-1.064c0.143-0.409,0.269-0.862,0.327-1.33c0.134-0.937,0.037-1.918-0.154-2.629
			C72.676,60.188,72.441,59.742,72.441,59.742z"/>
	</g>
	<g>
		<path fill="#895D3B" d="M78.723,44.46c0,0,0.314,0.394,0.633,1.086c0.328,0.684,0.63,1.683,0.68,2.736
			c0.032,0.525-0.01,1.057-0.084,1.553c-0.09,0.491-0.199,0.954-0.345,1.33c-0.12,0.391-0.274,0.688-0.374,0.904
			c-0.102,0.215-0.158,0.338-0.158,0.338l-1.254-0.809c0,0,0.066-0.092,0.184-0.254c0.114-0.163,0.297-0.39,0.455-0.693
			c0.184-0.293,0.346-0.66,0.504-1.065c0.143-0.41,0.269-0.862,0.328-1.331c0.133-0.938,0.036-1.92-0.155-2.631
			C78.959,44.906,78.723,44.46,78.723,44.46z"/>
	</g>
</g>
</svg>
