<?xml version="1.0" encoding="utf-8"?>
<!-- Generator: Adobe Illustrator 16.0.4, SVG Export Plug-In . SVG Version: 6.00 Build 0)  -->
<!DOCTYPE svg PUBLIC "-//W3C//DTD SVG 1.1//EN" "http://www.w3.org/Graphics/SVG/1.1/DTD/svg11.dtd">
<svg version="1.1" id="Layer_1" xmlns="http://www.w3.org/2000/svg" xmlns:xlink="http://www.w3.org/1999/xlink" x="0px" y="0px"
	 width="92.733px" height="92.476px" viewBox="2.001 0.511 92.733 92.476" enable-background="new 2.001 0.511 92.733 92.476"
	 xml:space="preserve">
<g>
	<g>
		<path fill="#652F8E" d="M38.292,57.236c-6.018,0-11.165-2.728-13.769-7.296c-2.135-3.755-2.355-8.278-0.621-12.736
			c1.694-4.355,5.067-8.14,9.498-10.657c3.416-1.941,7.179-2.967,10.884-2.967c6.021,0,11.168,2.728,13.768,7.297
			c4.345,7.647,0.363,18.139-8.876,23.389c-3.414,1.943-7.177,2.971-10.882,2.971C38.292,57.236,38.292,57.236,38.292,57.236z"/>
		<g>
			<path fill="#652F8E" d="M44.284,25.007c5.312,0,10.09,2.293,12.526,6.576c3.963,6.975,0.233,16.568-8.341,21.44
				c-3.305,1.881-6.846,2.784-10.178,2.784c-5.31,0-10.087-2.293-12.527-6.575c-3.965-6.975-0.231-16.574,8.341-21.444
				C37.412,25.909,40.952,25.007,44.284,25.007 M44.284,22.151c-3.952,0-7.96,1.09-11.59,3.153
				c-4.715,2.679-8.311,6.721-10.123,11.381c-1.893,4.866-1.641,9.824,0.71,13.958c2.863,5.023,8.474,8.02,15.011,8.02
				c3.954,0,7.961-1.092,11.591-3.158c9.922-5.638,14.146-17.003,9.411-25.334C56.437,25.148,50.826,22.151,44.284,22.151
				L44.284,22.151z"/>
		</g>
	</g>
	<g>
		<path fill="#8BC541" d="M47.759,46.75c0,0-15.543-8.434-17.698-19.864C27.076,11.046,36.926,3.955,46.405,1.834
			c0,0-5.103,7.578-4.503,21.752C42.173,30.219,43.684,39.901,47.759,46.75z"/>
	</g>
	<g>
		<g>
			<path fill="#52BC61" d="M36.182,15.018c0.042,0.009,0.013,0.458-0.065,1.256c-0.042,0.403-0.093,0.889-0.152,1.45
				c-0.068,0.562-0.018,1.214-0.034,1.925c-0.001,0.355-0.002,0.728-0.003,1.115c0.007,0.387,0.071,0.789,0.105,1.205
				c0.091,0.83,0.133,1.719,0.351,2.634c0.173,0.92,0.347,1.883,0.657,2.854c0.145,0.487,0.263,0.989,0.431,1.485
				c0.179,0.493,0.361,0.993,0.545,1.499c0.342,1.019,0.829,1.958,1.212,2.894c0.475,0.897,0.859,1.798,1.34,2.6
				c0.226,0.408,0.446,0.806,0.66,1.192c0.229,0.378,0.452,0.746,0.667,1.101c0.413,0.722,0.86,1.354,1.228,1.96
				c1.552,2.37,2.591,3.8,2.369,4.019c-0.215,0.218-1.694-0.896-3.51-3.2c-0.434-0.588-0.938-1.217-1.394-1.948
				c-0.233-0.363-0.475-0.738-0.723-1.124c-0.226-0.4-0.458-0.812-0.697-1.234c-0.497-0.833-0.887-1.781-1.352-2.728
				c-0.375-0.989-0.836-1.984-1.142-3.065c-0.163-0.536-0.323-1.066-0.481-1.588c-0.144-0.526-0.237-1.058-0.353-1.573
				c-0.254-1.025-0.365-2.041-0.471-3.003c-0.151-0.957-0.123-1.883-0.145-2.741c0-0.43-0.029-0.843-0.003-1.24
				c0.036-0.396,0.07-0.777,0.103-1.141c0.082-0.724,0.093-1.383,0.218-1.948c0.12-0.56,0.225-1.045,0.311-1.446
				C36.029,15.439,36.141,15.009,36.182,15.018z"/>
		</g>
	</g>
	<path fill="#652F8E" d="M44.464,45.992c7.074-4.02,10.837-11.25,9.72-17.573c1.032,0.891,1.934,1.939,2.627,3.164
		c3.963,6.975,0.233,16.568-8.341,21.44c-8.572,4.879-18.734,3.178-22.706-3.791c-0.697-1.225-1.142-2.529-1.378-3.874
		C29.255,49.55,37.399,50.011,44.464,45.992z"/>
	<g>
		<path fill="#8F4198" d="M65.858,88.659c-0.593,0-1.193-0.02-1.798-0.06c-5.188-0.337-9.989-2.105-13.517-4.98
			c-3.671-2.991-5.55-6.822-5.29-10.787c0.492-7.551,8.62-13.245,18.907-13.245c0.592,0,1.191,0.02,1.796,0.06
			c10.892,0.715,19.327,7.788,18.804,15.769c-0.492,7.551-8.618,13.244-18.9,13.244C65.859,88.659,65.859,88.659,65.858,88.659z"/>
		<g>
			<path fill="#8F4198" d="M64.161,61.054c0.561,0,1.128,0.019,1.7,0.056c10.101,0.663,17.907,7.021,17.437,14.21
				c-0.442,6.779-8.091,11.873-17.439,11.873c-0.562,0-1.13-0.019-1.702-0.056c-10.106-0.656-17.91-7.019-17.438-14.209
				C47.159,66.148,54.81,61.054,64.161,61.054 M64.161,58.121c-11.07,0-19.828,6.284-20.37,14.617
				c-0.292,4.45,1.777,8.719,5.826,12.019c3.763,3.066,8.858,4.951,14.349,5.308c0.629,0.041,1.266,0.062,1.893,0.062
				c11.067,0,19.822-6.283,20.366-14.616c0.575-8.786-8.474-16.559-20.171-17.327C65.424,58.142,64.787,58.121,64.161,58.121
				L64.161,58.121z"/>
		</g>
	</g>
	<path fill="#652F8E" d="M64.632,79.886c8.335,0.542,15.61-2.97,18.171-8.243c0.391,1.186,0.574,2.42,0.495,3.677
		c-0.469,7.187-9.037,12.479-19.142,11.817c-10.106-0.656-17.91-7.019-17.438-14.209c0.081-1.261,0.424-2.456,0.971-3.58
		C49.546,74.915,56.298,79.341,64.632,79.886z"/>
	<g>
		<path fill="#8F4198" d="M28.467,90.836c-4.762-0.001-8.838-2.168-10.903-5.797c-1.696-2.983-1.874-6.571-0.5-10.104
			c1.333-3.426,3.982-6.402,7.461-8.38c2.678-1.524,5.633-2.331,8.544-2.331c4.759,0,8.833,2.168,10.899,5.799
			c3.442,6.046,0.321,14.339-6.958,18.486C34.329,90.031,31.375,90.836,28.467,90.836C28.467,90.836,28.467,90.836,28.467,90.836z"
			/>
		<g>
			<path fill="#8F4198" d="M33.069,65.691c4.08,0,7.751,1.764,9.624,5.057c3.049,5.354,0.178,12.734-6.41,16.487
				c-2.539,1.441-5.258,2.134-7.817,2.134c-4.082,0-7.755-1.763-9.628-5.056c-3.047-5.358-0.178-12.737,6.411-16.482
				C27.789,66.385,30.509,65.691,33.069,65.691 M33.069,62.759c-3.165,0-6.371,0.872-9.271,2.523
				c-3.769,2.143-6.647,5.383-8.101,9.122c-1.537,3.951-1.327,7.985,0.591,11.359c2.33,4.094,6.882,6.538,12.178,6.538
				c3.162,0,6.366-0.87,9.265-2.516c7.986-4.55,11.353-13.74,7.51-20.489C42.914,65.203,38.363,62.759,33.069,62.759L33.069,62.759z
				"/>
		</g>
	</g>
	<path fill="#652F8E" d="M33.208,81.823c5.435-3.089,8.325-8.647,7.471-13.507c0.794,0.685,1.479,1.491,2.015,2.432
		c3.049,5.354,0.178,12.734-6.41,16.487c-6.589,3.741-14.397,2.436-17.445-2.922c-0.539-0.938-0.879-1.941-1.061-2.977
		C21.517,84.559,27.773,84.915,33.208,81.823z"/>
	<g>
		<path fill="#8F4198" d="M21.458,71.39C12.774,71.389,5.746,66.82,4.365,60.278C2.667,52.213,9.973,43.822,20.65,41.572
			c1.783-0.375,3.587-0.565,5.362-0.565c8.687,0,15.716,4.566,17.096,11.104c1.699,8.066-5.608,16.46-16.29,18.712
			C25.036,71.199,23.232,71.39,21.458,71.39L21.458,71.39z"/>
		<g>
			<path fill="#8F4198" d="M26.012,42.474c7.835,0,14.39,3.919,15.661,9.94c1.535,7.286-5.25,14.886-15.158,16.975
				c-1.717,0.361-3.415,0.534-5.057,0.534c-7.829,0-14.386-3.921-15.658-9.947c-1.532-7.28,5.25-14.882,15.153-16.969
				C22.671,42.646,24.369,42.474,26.012,42.474 M26.012,39.541c-1.876,0-3.781,0.201-5.663,0.596
				C8.88,42.554,1.066,51.724,2.93,60.58c1.525,7.229,9.145,12.275,18.528,12.275c1.876,0,3.781-0.2,5.662-0.597
				C38.593,69.84,46.409,60.666,44.543,51.81C43.019,44.585,35.399,39.541,26.012,39.541L26.012,39.541z"/>
		</g>
	</g>
	<path fill="#652F8E" d="M24.97,62.036c8.171-1.724,14.199-7.191,15.208-13.147c0.705,1.073,1.224,2.251,1.495,3.525
		c1.535,7.286-5.25,14.886-15.158,16.975C16.612,71.475,7.338,67.267,5.8,59.976c-0.271-1.276-0.267-2.56-0.058-3.822
		C9.069,61.187,16.8,63.755,24.97,62.036z"/>
	<g>
		<path fill="#8F4198" d="M77.234,62.245c-4.323,0-8.023-1.97-9.898-5.269c-1.328-2.331-1.636-5.156-0.867-7.954
			c0.982-3.575,3.592-6.787,7.16-8.813c2.423-1.377,5.097-2.105,7.73-2.105c4.319,0,8.021,1.969,9.9,5.266
			c1.542,2.712,1.703,5.973,0.455,9.183c-1.208,3.104-3.605,5.799-6.752,7.587C82.541,61.517,79.868,62.245,77.234,62.245
			C77.234,62.245,77.234,62.245,77.234,62.245z"/>
		<g>
			<path fill="#8F4198" d="M81.359,39.571c3.655,0,6.945,1.577,8.626,4.526c2.728,4.796,0.155,11.415-5.747,14.769
				c-2.273,1.293-4.711,1.913-7.004,1.913c-3.657,0-6.948-1.579-8.623-4.526c-2.735-4.8-0.161-11.415,5.741-14.767
				C76.628,40.192,79.065,39.571,81.359,39.571 M81.359,36.638c-2.888,0-5.812,0.794-8.456,2.297
				c-3.902,2.216-6.764,5.751-7.849,9.699c-0.873,3.176-0.515,6.397,1.009,9.07c2.137,3.761,6.313,6.007,11.171,6.007
				c2.888,0,5.811-0.794,8.453-2.296c3.438-1.954,6.064-4.912,7.394-8.33c1.412-3.629,1.218-7.336-0.546-10.438
				C90.39,38.883,86.212,36.638,81.359,36.638L81.359,36.638z"/>
		</g>
	</g>
	<path fill="#652F8E" d="M81.48,54.021c4.872-2.771,7.462-7.748,6.692-12.104c0.717,0.614,1.332,1.337,1.812,2.18
		c2.728,4.796,0.155,11.415-5.747,14.769c-5.9,3.354-12.901,2.183-15.627-2.613c-0.48-0.843-0.788-1.741-0.951-2.671
		C71.013,56.472,76.612,56.789,81.48,54.021z"/>
	<g>
		<path fill="#8F4198" d="M62.082,52.879c-6.034,0-11.192-2.737-13.796-7.322c-2.14-3.759-2.361-8.291-0.622-12.76
			c1.698-4.362,5.076-8.153,9.513-10.677c3.42-1.944,7.189-2.973,10.9-2.973c6.034,0,11.192,2.736,13.8,7.318
			c2.14,3.762,2.361,8.294,0.622,12.763c-1.697,4.363-5.076,8.154-9.514,10.675C69.565,51.851,65.795,52.879,62.082,52.879
			C62.083,52.879,62.083,52.879,62.082,52.879z"/>
		<g>
			<path fill="#8F4198" d="M68.078,20.615c5.311,0,10.088,2.292,12.525,6.577c3.964,6.969,0.23,16.568-8.342,21.438
				c-3.306,1.88-6.848,2.783-10.18,2.783c-5.31,0-10.086-2.294-12.521-6.58c-3.966-6.967-0.229-16.564,8.341-21.438
				C61.207,21.517,64.747,20.615,68.078,20.615 M68.078,17.682c-3.965,0-7.984,1.094-11.625,3.164
				c-4.729,2.689-8.336,6.745-10.155,11.42c-1.902,4.888-1.648,9.867,0.715,14.019c2.867,5.047,8.501,8.062,15.069,8.062
				c3.966,0,7.987-1.095,11.63-3.167c4.729-2.687,8.336-6.742,10.155-11.418c1.901-4.888,1.647-9.867-0.714-14.02
				C80.281,20.694,74.646,17.682,68.078,17.682L68.078,17.682z"/>
		</g>
	</g>
	<path fill="#652F8E" d="M44.311,41.601l2.069,0.932c0,0,9.903-13.883,30.201-22.732c0,0-3.184-2.394-10.569-2.044
		C66.012,17.755,48.952,29.174,44.311,41.601z"/>
	<g>
		<path fill="#8BC541" d="M43.362,47.874c0,0-4.335-22.345,5.272-33.845c13.312-15.942,28.42-11.96,38.296-4.276
			c0,0-11.71,1.139-25.324,13.338C55.237,28.79,46.849,38.219,43.362,47.874z"/>
	</g>
	<g>
		<g>
			<path fill="#52BC61" d="M65.457,10.385c0.025,0.049-0.445,0.387-1.304,0.964c-0.433,0.286-0.958,0.634-1.565,1.036
				c-0.615,0.392-1.223,0.977-1.942,1.542c-0.354,0.29-0.726,0.593-1.112,0.91c-0.38,0.324-0.727,0.717-1.112,1.091
				c-0.751,0.771-1.601,1.54-2.333,2.505c-0.383,0.464-0.776,0.939-1.178,1.425c-0.409,0.478-0.738,1.038-1.123,1.566
				c-0.366,0.542-0.769,1.072-1.125,1.645c-0.344,0.582-0.692,1.171-1.044,1.769c-0.37,0.585-0.685,1.194-0.982,1.8
				c-0.307,0.601-0.608,1.192-0.905,1.774c-0.504,1.207-1.085,2.327-1.49,3.461c-0.221,0.559-0.436,1.104-0.646,1.633
				c-0.189,0.538-0.372,1.06-0.549,1.564c-0.38,1.001-0.643,1.964-0.945,2.826c-1.087,3.484-1.659,5.688-2.058,5.646
				c-0.393-0.035-0.496-2.418,0.31-6.111c0.229-0.914,0.444-1.928,0.797-2.981c0.169-0.529,0.345-1.076,0.526-1.639
				c0.213-0.552,0.432-1.121,0.657-1.704c0.422-1.177,1.045-2.34,1.606-3.577c0.33-0.596,0.666-1.202,1.006-1.817
				c0.335-0.618,0.692-1.234,1.108-1.828c0.4-0.601,0.796-1.193,1.186-1.778c0.406-0.573,0.859-1.102,1.276-1.638
				c0.436-0.523,0.814-1.074,1.274-1.542c0.452-0.472,0.896-0.935,1.327-1.385c0.829-0.934,1.772-1.664,2.607-2.388
				c0.427-0.351,0.814-0.719,1.231-1.018c0.424-0.289,0.83-0.566,1.219-0.832c0.787-0.511,1.451-1.04,2.116-1.377
				c0.657-0.34,1.225-0.634,1.692-0.876C64.913,10.578,65.432,10.336,65.457,10.385z"/>
		</g>
	</g>
	<path fill="#652F8E" d="M68.26,41.598c7.073-4.019,10.834-11.25,9.718-17.569c1.034,0.89,1.93,1.94,2.626,3.163
		c3.964,6.969,0.23,16.568-8.342,21.438c-8.574,4.877-18.738,3.179-22.7-3.797c-0.696-1.22-1.144-2.525-1.379-3.871
		C53.049,45.154,61.19,45.617,68.26,41.598z"/>
	<g>
		<path fill="#8F4198" d="M50.007,75.959c-6.182,0-11.467-2.803-14.136-7.496c-4.458-7.85-0.368-18.624,9.117-24.019
			c3.506-1.992,7.369-3.045,11.171-3.045c6.181,0,11.466,2.801,14.138,7.494c2.191,3.852,2.417,8.494,0.635,13.073
			c-1.74,4.473-5.204,8.359-9.753,10.946C57.675,74.905,53.812,75.959,50.007,75.959C50.008,75.959,50.008,75.959,50.007,75.959z"/>
		<path fill="#8F4198" d="M56.159,42.865c5.452,0,10.358,2.355,12.863,6.753c4.071,7.154,0.232,17.015-8.568,22.02
			c-3.392,1.929-7.026,2.854-10.447,2.854c-5.452,0-10.359-2.354-12.861-6.754c-4.065-7.158-0.232-17.015,8.567-22.02
			C49.106,43.791,52.739,42.865,56.159,42.865 M56.159,39.932c-4.056,0-8.169,1.12-11.896,3.237
			c-10.188,5.795-14.525,17.467-9.668,26.018c2.934,5.159,8.695,8.239,15.412,8.239c4.057,0,8.171-1.12,11.897-3.238
			c4.841-2.753,8.532-6.904,10.395-11.689c1.945-4.999,1.687-10.088-0.728-14.331C68.635,43.01,62.874,39.932,56.159,39.932
			L56.159,39.932z"/>
	</g>
	<path fill="#652F8E" d="M56.348,64.414c7.257-4.13,11.125-11.556,9.975-18.044c1.063,0.915,1.983,1.991,2.7,3.248
		c4.071,7.154,0.232,17.015-8.568,22.02c-8.798,5.003-19.236,3.261-23.308-3.899c-0.706-1.252-1.17-2.588-1.414-3.974
		C40.729,68.066,49.091,68.538,56.348,64.414z"/>
	<path fill="#FFFFFF" d="M41.938,47.625c2.875,0.288,4.169,2.36,3.167,5.078c1.003-2.718,3.686-4.394,6.565-4.099
		c-2.88-0.295-4.176-2.367-3.177-5.074C47.494,46.237,44.812,47.913,41.938,47.625z"/>
	<path fill="#FFFFFF" d="M62.302,30.926c3.45,0.349,5.012,2.838,3.806,6.096c1.206-3.258,4.42-5.27,7.869-4.919
		c-3.449-0.351-5.01-2.84-3.811-6.087C68.967,29.263,65.752,31.274,62.302,30.926z"/>
	<path fill="#FFFFFF" d="M8.939,50.451c4.945,0.497,7.167,4.053,5.444,8.716c1.723-4.663,6.326-7.534,11.263-7.034
		c-4.937-0.5-7.168-4.061-5.449-8.714C18.478,48.072,13.885,50.948,8.939,50.451z"/>
	<path fill="#231F20" d="M44.963,56.979c0.393-0.914,1.819-1.18,3.189-0.602c0.725,0.308,1.282,0.784,1.594,1.305
		c-1.209-0.344-2.363-0.037-2.703,0.771c-0.185,0.434-0.097,0.939,0.197,1.407c-0.167-0.043-0.332-0.095-0.489-0.162
		C45.369,59.11,44.577,57.898,44.963,56.979z"/>
	<path fill="#231F20" d="M54.378,51.252c-0.99,0.013-1.789,1.23-1.766,2.72c0.003,0.78,0.232,1.479,0.596,1.967
		c0.145-1.246,0.861-2.199,1.745-2.211c0.468-0.001,0.905,0.274,1.226,0.719c0.028-0.163,0.033-0.336,0.031-0.515
		C56.197,52.442,55.377,51.237,54.378,51.252z"/>
	<g>
		<g>
			<g>
				<path fill="#3F3B3C" d="M59.051,53.953c0.573-0.319,1.318-0.311,2.16,0.201c0.829,0.509,1.714,1.569,2.23,3.183
					c0.522,1.6,0.591,3.759-0.22,5.985c-0.414,1.1-1.017,2.221-1.871,3.22c-0.849,0.997-1.913,1.886-3.122,2.564
					c-1.218,0.662-2.535,1.091-3.832,1.279c-1.3,0.191-2.571,0.105-3.722-0.129c-2.316-0.498-4.109-1.706-5.185-3.001
					c-1.092-1.298-1.518-2.612-1.506-3.585c0.016-0.986,0.406-1.62,0.982-1.935c1.193-0.623,2.824-0.07,4.4-0.082
					c0.783,0.027,1.56-0.056,2.261-0.223c0.71-0.17,1.307-0.428,1.942-0.756c0.615-0.363,1.151-0.731,1.674-1.243
					c0.515-0.505,0.999-1.12,1.392-1.799C57.485,56.304,57.887,54.63,59.051,53.953z"/>
			</g>
		</g>
	</g>
	<path fill="#EA2227" d="M45.458,85.364c0.007,0.02,0.029,0.019,0.048,0.008l0.061-0.029c0.014-0.01,0.022-0.031,0.01-0.048l0,0
		c-0.011-0.017-0.026-0.023-0.047-0.011l-0.056,0.031C45.456,85.326,45.45,85.343,45.458,85.364L45.458,85.364z"/>
	<g>
		<defs>
			<path id="SVGID_1_" d="M59.055,53.951c-0.588,0.329-0.981,0.938-1.318,1.604c-0.347,0.669-0.693,1.41-1.099,2.084
				c-0.402,0.674-0.88,1.286-1.395,1.791c-0.528,0.513-1.062,0.882-1.675,1.24c-0.639,0.329-1.23,0.587-1.939,0.755
				c-0.7,0.172-1.481,0.254-2.265,0.228c-0.778-0.015-1.596-0.114-2.349-0.184c-0.746-0.058-1.469-0.052-2.054,0.27
				c-0.578,0.314-0.968,0.95-0.985,1.938c-0.008,0.972,0.421,2.288,1.51,3.584c1.079,1.295,2.875,2.502,5.189,2.999
				c1.152,0.232,2.422,0.324,3.726,0.128c1.294-0.183,2.61-0.617,3.83-1.274c1.206-0.683,2.271-1.567,3.121-2.572
				c0.854-0.996,1.461-2.115,1.873-3.216c0.812-2.225,0.745-4.389,0.221-5.992c-0.513-1.614-1.401-2.673-2.234-3.177
				C60.373,53.639,59.622,53.635,59.055,53.951z"/>
		</defs>
		<clipPath id="SVGID_2_">
			<use xlink:href="#SVGID_1_"  overflow="visible"/>
		</clipPath>
		<path clip-path="url(#SVGID_2_)" fill="#FFFFFF" d="M51.402,63.15c0.17,0.3,0.544,0.399,0.843,0.233l4.232-2.411
			c0.299-0.171,0.402-0.545,0.231-0.843l-1.027-1.809c-0.169-0.294-0.544-0.399-0.837-0.23l-4.24,2.407
			c-0.299,0.169-0.4,0.546-0.231,0.843L51.402,63.15z"/>
		<polygon clip-path="url(#SVGID_2_)" fill="#231F20" points="54.104,63.315 55.354,62.454 52.82,57.993 51.708,59.101 		"/>
	</g>
	<path fill="#EA2227" d="M51.655,67.977c0.729,1.372,3.309,1.353,5.684,0.003c2.376-1.348,3.644-3.518,2.911-4.885
		c-1.211-2.246-3.879,0.676-4.936,1.298C54.258,65.013,50.305,65.452,51.655,67.977z"/>
	<g>
		<g>
			<g>
				<path fill="#3F3B3C" d="M56.342,66.404c-0.559,0.322-1.376-0.116-1.824-0.981c-0.429-0.698-0.347-1.588,0.162-1.986
					c0.508-0.397,1.38,0.017,1.92,0.927C57.016,65.167,56.9,66.081,56.342,66.404z"/>
			</g>
		</g>
	</g>
</g>
</svg>
