<?xml version="1.0" encoding="utf-8"?>
<!-- Generator: Adobe Illustrator 16.0.4, SVG Export Plug-In . SVG Version: 6.00 Build 0)  -->
<!DOCTYPE svg PUBLIC "-//W3C//DTD SVG 1.1//EN" "http://www.w3.org/Graphics/SVG/1.1/DTD/svg11.dtd">
<svg version="1.1" id="Layer_1" xmlns="http://www.w3.org/2000/svg" xmlns:xlink="http://www.w3.org/1999/xlink" x="0px" y="0px"
	 width="92.733px" height="92.476px" viewBox="2.001 0.511 92.733 92.476" enable-background="new 2.001 0.511 92.733 92.476"
	 xml:space="preserve">
<g>
	<path fill="#8BC53F" d="M29.664,89.072c0,0,20.21,7.42,39.502,0c19.291-7.418,28.287-36.976,22.848-52.558
		c-5.441-15.573-10.957-22.25-22.334-26.208C58.303,6.35,50.14,8.575,50.14,8.575S36.042,7.833,32.827,9.317
		C29.611,10.802,9,7.832,4.548,34.536C0.097,61.248,14.813,81.746,29.664,89.072z"/>
	<path fill="#B7D333" d="M50.635,87.264c-11.03,0-19.492-4.008-19.576-4.051c-7.457-3.334-24.131-22.439-19.865-48.038
		c3.229-19.362,13.357-20.676,19.409-21.462c1.552-0.201,2.774-0.36,3.854-0.859c0.03-0.01,1.55-0.569,8.231-0.569
		c3.78,0,7.212,0.179,7.246,0.18c0.068,0.005,0.137,0.005,0.205,0.005c0.347,0,0.691-0.045,1.024-0.136l0,0
		c0,0,1.923-0.487,5.105-0.487c3.969,0,8.051,0.719,12.129,2.139c9.797,3.407,13.182,8.933,18.379,23.812
		c2.369,6.788,1.453,16.804-2.396,26.137C80.209,74.053,73.35,81.574,65.561,84.57C60.914,86.359,55.893,87.264,50.635,87.264
		L50.635,87.264z"/>
	<path fill="#D6DE23" d="M39.538,85.561c-7.457-3.336-24.131-22.443-19.865-48.041C22.9,18.159,33.029,16.845,39.081,16.059
		c1.552-0.202,2.775-0.361,3.856-0.86c0.029-0.008,1.549-0.568,8.23-0.568c3.78,0,7.211,0.179,7.247,0.181
		c0.066,0.004,0.137,0.005,0.205,0.005c0.346,0,0.689-0.045,1.025-0.136c0,0,1.922-0.487,5.104-0.487
		c1.779,0,3.584,0.167,5.402,0.455c-0.562-0.229-1.143-0.45-1.752-0.661c-4.078-1.42-8.16-2.139-12.129-2.139
		c-3.182,0-5.105,0.487-5.105,0.487c-0.333,0.091-0.678,0.136-1.024,0.136c-0.068,0-0.137,0-0.205-0.005
		c-0.034-0.001-3.466-0.18-7.246-0.18c-6.682,0-8.201,0.559-8.231,0.569c-1.08,0.499-2.303,0.658-3.854,0.859
		c-6.052,0.786-16.181,2.1-19.409,21.462C6.928,60.773,23.602,79.879,31.059,83.213c0.06,0.029,4.23,2,10.506,3.18
		C40.296,85.916,39.561,85.572,39.538,85.561z"/>
	<path fill="#8A5D3B" d="M41.028,13.866c0,0-1.803-9.381,1.443-12.808c0,0,3.429-1.624,5.952,0.722c0,0,0,1.263-1.623,1.624
		c0,0-2.888,6.314-1.984,10.462C45.718,18.014,41.028,13.866,41.028,13.866z"/>
	<g>
		<path fill="#8BC53F" d="M29.616,19.21c0.007,0.004,0.034-0.111,0.156-0.285c0.112-0.189,0.303-0.453,0.583-0.741
			c0.261-0.331,0.651-0.611,1.091-0.981c0.445-0.356,1.002-0.649,1.6-1.024c0.611-0.316,1.307-0.588,2.036-0.913
			c0.741-0.251,1.537-0.486,2.365-0.717c0.83-0.197,1.697-0.329,2.58-0.47l0.664-0.103l0.084-0.013l0.042-0.007l0.021-0.003
			l0.092-0.008l0.163-0.008l0.328-0.015l1.314-0.062l1.316-0.042c0.454,0.005,0.932,0.066,1.391,0.105
			c0.922,0.094,1.834,0.144,2.667,0.364c0.84,0.207,1.654,0.359,2.394,0.651c0.742,0.269,1.438,0.521,2.046,0.841
			c1.234,0.587,2.174,1.23,2.801,1.696c0.623,0.473,0.979,0.744,0.979,0.744s-0.445-0.098-1.189-0.326
			c-0.365-0.126-0.822-0.244-1.334-0.387c-0.5-0.168-1.09-0.281-1.717-0.427c-0.615-0.18-1.312-0.253-2.029-0.374
			c-0.707-0.164-1.483-0.183-2.267-0.254c-0.786-0.117-1.582-0.088-2.387-0.096c-0.403-0.004-0.811-0.008-1.219-0.012l-1.313,0.102
			l-1.314,0.083l-0.327,0.021l-0.163,0.011c-0.067,0.005,0.079-0.007,0.061-0.006l-0.01,0.002L41.1,16.56l-0.039,0.005l-0.078,0.011
			l-0.625,0.085c-0.827,0.123-1.654,0.189-2.442,0.295c-0.777,0.14-1.534,0.262-2.266,0.351c-0.705,0.145-1.369,0.312-2.007,0.418
			c-0.613,0.171-1.175,0.328-1.673,0.466c-0.477,0.184-0.938,0.303-1.271,0.468c-0.354,0.15-0.625,0.274-0.802,0.383
			C29.708,19.138,29.616,19.21,29.616,19.21z"/>
	</g>
	<g>
		<path fill="#8BC53F" d="M48.312,14.516c-0.015,0.008,0.22-0.091,0.585-0.213c0.367-0.127,0.89-0.288,1.521-0.452
			c1.262-0.32,2.969-0.643,4.692-0.676c0.432,0.008,0.857-0.022,1.281,0.02c0.422,0.031,0.834,0.045,1.232,0.117
			c0.396,0.058,0.777,0.105,1.133,0.204c0.355,0.092,0.693,0.146,0.992,0.265c0.299,0.104,0.572,0.198,0.816,0.282
			c0.23,0.108,0.434,0.203,0.602,0.28c0.328,0.157,0.518,0.246,0.518,0.246s-0.201-0.058-0.551-0.159
			c-0.176-0.049-0.387-0.108-0.629-0.176c-0.248-0.043-0.527-0.091-0.832-0.144c-0.299-0.068-0.639-0.065-0.986-0.098
			c-0.348-0.039-0.721-0.023-1.102-0.017c-0.379-0.007-0.773,0.044-1.17,0.08c-0.396,0.023-0.795,0.12-1.193,0.176
			c-1.592,0.292-3.115,0.85-4.211,1.327c-0.548,0.243-0.993,0.463-1.294,0.626c-0.304,0.161-0.44,0.251-0.456,0.257L48.312,14.516z"
			/>
	</g>
	<g>
		<path fill="#8BC53F" d="M35.453,16.84c0,0-0.034-0.019-0.098-0.055c-0.049-0.028-0.137-0.074-0.264-0.136
			c-0.247-0.117-0.617-0.282-1.083-0.437c-0.925-0.325-2.237-0.609-3.586-0.601c-0.338-0.014-0.673,0.02-1.006,0.047
			c-0.337,0.012-0.656,0.093-0.975,0.141c-0.321,0.04-0.612,0.149-0.901,0.219c-0.292,0.067-0.552,0.173-0.795,0.268
			c-0.496,0.17-0.883,0.375-1.157,0.517c-0.275,0.14-0.434,0.22-0.434,0.22s0.14-0.108,0.384-0.298
			c0.243-0.192,0.591-0.473,1.058-0.743c0.228-0.144,0.475-0.303,0.758-0.43c0.281-0.129,0.568-0.302,0.893-0.409
			c0.32-0.114,0.647-0.265,0.999-0.348c0.348-0.098,0.704-0.203,1.069-0.26c1.456-0.293,2.978-0.267,4.103-0.102
			c0.565,0.074,1.035,0.18,1.368,0.266c0.163,0.042,0.301,0.082,0.404,0.117c0.089,0.028,0.136,0.044,0.136,0.044L35.453,16.84z"/>
	</g>
	<g>
		<path fill="#8BC53F" d="M16.677,31.713c0,0,0.056,0.915,0.154,2.517c0.062,0.793,0.139,1.754,0.226,2.858
			c0.083,1.098,0.24,2.333,0.363,3.671c0.156,1.339,0.35,2.78,0.579,4.293c0.217,1.516,0.513,3.096,0.819,4.722
			c0.352,1.617,0.693,3.287,1.166,4.943c0.433,1.669,0.978,3.323,1.543,4.964c0.611,1.621,1.246,3.234,1.989,4.758
			c0.184,0.383,0.366,0.766,0.548,1.145c0.2,0.369,0.398,0.736,0.596,1.102c0.369,0.75,0.82,1.432,1.231,2.129
			c0.842,1.377,1.746,2.656,2.665,3.828c0.427,0.617,0.942,1.127,1.39,1.674c0.434,0.564,0.925,1.035,1.378,1.516
			c0.45,0.484,0.896,0.936,1.354,1.328c0.443,0.418,0.864,0.814,1.259,1.188c0.853,0.666,1.568,1.316,2.196,1.805
			c1.278,0.932,2.009,1.527,2.009,1.527s-0.886-0.236-2.437-0.756c-0.765-0.281-1.667-0.688-2.71-1.168
			c-0.988-0.559-2.174-1.127-3.305-1.984c-1.192-0.779-2.388-1.768-3.585-2.891c-1.182-1.139-2.351-2.428-3.425-3.867
			c-0.531-0.723-1.074-1.461-1.547-2.254c-0.243-0.393-0.488-0.787-0.733-1.186c-0.22-0.41-0.441-0.822-0.663-1.236
			c-0.902-1.654-1.618-3.426-2.277-5.207c-0.612-1.795-1.148-3.616-1.525-5.434c-0.406-1.812-0.663-3.617-0.854-5.362
			c-0.172-1.748-0.266-3.44-0.264-5.042c-0.028-1.601,0.083-3.112,0.176-4.499c0.103-1.387,0.275-2.652,0.452-3.766
			c0.157-1.114,0.383-2.076,0.552-2.864C16.365,32.586,16.677,31.713,16.677,31.713z"/>
	</g>
	<g>
		<path fill="#D6DE23" d="M29.484,62.199c0,0,0.237,0.426,0.674,1.145c0.218,0.357,0.481,0.791,0.785,1.289
			c0.329,0.482,0.651,1.045,1.055,1.631c0.392,0.59,0.82,1.223,1.287,1.881c0.455,0.666,0.992,1.326,1.494,2.041
			c0.277,0.338,0.559,0.682,0.844,1.029c0.274,0.355,0.548,0.717,0.858,1.053c0.601,0.691,1.211,1.389,1.861,2.049l0.962,1.002
			c0.342,0.311,0.683,0.619,1.021,0.924c0.643,0.654,1.355,1.199,2.033,1.748c0.659,0.574,1.355,1.047,2.013,1.51
			c0.327,0.236,0.646,0.465,0.953,0.686c0.324,0.197,0.638,0.387,0.938,0.568c0.61,0.352,1.143,0.742,1.652,1.014
			c0.516,0.256,0.959,0.506,1.33,0.701c0.738,0.404,1.162,0.652,1.162,0.652s-0.472-0.086-1.303-0.27
			c-0.412-0.098-0.922-0.205-1.498-0.357c-0.57-0.166-1.194-0.412-1.879-0.678c-0.344-0.135-0.701-0.273-1.071-0.42
			c-0.359-0.166-0.72-0.361-1.092-0.562c-0.74-0.404-1.556-0.789-2.298-1.34c-0.761-0.523-1.563-1.051-2.296-1.689
			c-0.369-0.318-0.74-0.637-1.114-0.957l-1.05-1.039c-0.728-0.672-1.334-1.453-1.953-2.199c-0.634-0.734-1.146-1.543-1.671-2.299
			c-0.472-0.791-0.968-1.529-1.326-2.295c-0.392-0.746-0.739-1.461-1.004-2.146c-0.575-1.348-0.916-2.525-1.114-3.354
			c-0.105-0.412-0.161-0.746-0.199-0.973C29.502,62.318,29.484,62.199,29.484,62.199z"/>
	</g>
	<g>
		<path fill="#D6DE23" d="M69.887,21.259c0,0,0.463,0.326,1.209,0.977c0.375,0.325,0.816,0.732,1.311,1.214
			c0.471,0.501,1.047,1.035,1.59,1.688c0.564,0.637,1.162,1.341,1.75,2.121c0.611,0.763,1.164,1.633,1.785,2.503
			c0.543,0.919,1.146,1.847,1.668,2.842c0.525,0.995,1.045,2.013,1.473,3.075l0.672,1.578c0.178,0.542,0.355,1.082,0.531,1.619
			c0.373,1.064,0.65,2.142,0.859,3.198c0.254,1.044,0.404,2.073,0.492,3.056c0.055,0.488,0.105,0.963,0.156,1.422
			c0.025,0.462,0.014,0.911,0.016,1.34c-0.01,0.857,0.018,1.639-0.043,2.33c-0.078,0.692-0.156,1.292-0.23,1.783
			c-0.141,0.982-0.252,1.534-0.252,1.534s-0.1-0.567-0.221-1.541c-0.066-0.487-0.135-1.076-0.199-1.746
			c-0.117-0.665-0.248-1.415-0.391-2.233c-0.068-0.406-0.141-0.829-0.213-1.267c-0.104-0.432-0.211-0.878-0.32-1.337
			c-0.113-0.458-0.225-0.928-0.32-1.409c-0.096-0.482-0.275-0.959-0.41-1.451c-0.146-0.491-0.301-0.987-0.432-1.496
			c-0.137-0.507-0.342-1.002-0.512-1.511c-0.176-0.506-0.354-1.017-0.533-1.529l-0.609-1.516c-0.375-1.027-0.891-1.993-1.322-2.979
			c-0.441-0.984-0.965-1.909-1.432-2.826c-0.516-0.89-0.959-1.789-1.475-2.584c-0.486-0.812-0.945-1.587-1.408-2.275
			c-0.895-1.402-1.697-2.541-2.271-3.336C70.24,21.701,69.887,21.259,69.887,21.259z"/>
	</g>
	<path fill="#FFFFFF" d="M42.302,29.941c-4.323,0.782-6.038,4.078-4.196,8.066c-1.842-3.988-6.1-6.205-10.427-5.425
		c4.327-0.78,6.043-4.073,4.206-8.067C33.722,28.509,37.979,30.723,42.302,29.941z"/>
	<path fill="#FFFFFF" d="M77.039,22.874c-5.934,1.076-8.289,5.601-5.76,11.072c-2.529-5.472-8.375-8.517-14.316-7.443
		c5.941-1.073,8.297-5.595,5.775-11.081C65.26,20.908,71.105,23.95,77.039,22.874z"/>
	<g>
		<g>
			<g>
				<path fill="#3F3B3C" d="M35.944,42.409c0.709-0.085,1.252,2.234,3.349,4.813c0.508,0.65,1.158,1.272,1.865,1.894
					c0.75,0.578,1.561,1.165,2.504,1.612c0.941,0.438,1.957,0.831,3.056,1.027c1.097,0.197,2.249,0.258,3.429,0.16
					c1.177-0.136,2.294-0.424,3.331-0.833c1.039-0.41,1.958-0.994,2.794-1.609c0.836-0.624,1.516-1.359,2.137-2.074
					c0.571-0.748,1.086-1.486,1.456-2.224c1.548-2.942,1.623-5.322,2.335-5.378c0.306-0.033,0.684,0.521,0.956,1.647
					c0.26,1.121,0.325,2.839-0.215,4.895c-0.257,1.031-0.724,2.11-1.336,3.218c-0.662,1.073-1.472,2.185-2.535,3.161
					c-1.063,0.966-2.308,1.876-3.753,2.532c-1.44,0.656-3.039,1.107-4.708,1.292c-1.673,0.149-3.33,0.021-4.872-0.338
					c-1.547-0.357-2.946-1.005-4.178-1.743c-1.236-0.747-2.249-1.678-3.109-2.6c-0.818-0.966-1.489-1.932-1.943-2.892
					c-0.934-1.909-1.209-3.607-1.175-4.757C35.376,43.054,35.637,42.437,35.944,42.409z"/>
			</g>
		</g>
	</g>
	<path fill="#231F20" d="M32.577,43.852c0.259,2.652-0.507,4.898-1.703,5.016c-1.201,0.119-2.389-1.939-2.646-4.589
		c-0.263-2.657,0.499-4.898,1.704-5.018C31.131,39.144,32.313,41.199,32.577,43.852z"/>
	<path fill="#231F20" d="M69.855,40.2c0.258,2.654-0.502,4.899-1.705,5.016c-1.197,0.115-2.381-1.936-2.639-4.589
		c-0.264-2.655,0.498-4.899,1.697-5.018C68.414,35.492,69.598,37.546,69.855,40.2z"/>
</g>
</svg>
