<?xml version="1.0" encoding="utf-8"?>
<!-- Generator: Adobe Illustrator 16.0.4, SVG Export Plug-In . SVG Version: 6.00 Build 0)  -->
<!DOCTYPE svg PUBLIC "-//W3C//DTD SVG 1.1//EN" "http://www.w3.org/Graphics/SVG/1.1/DTD/svg11.dtd">
<svg version="1.1" id="Layer_1" xmlns="http://www.w3.org/2000/svg" xmlns:xlink="http://www.w3.org/1999/xlink" x="0px" y="0px"
	 width="78.604px" height="92.476px" viewBox="10.479 0.511 78.604 92.476" enable-background="new 10.479 0.511 78.604 92.476"
	 xml:space="preserve">
<g>
	<path fill="#BCCD30" d="M48.494,91.303c-1.697,0-2.913-0.143-3.449-0.219c-2.54-0.002-24.226-0.613-30.284-20.279
		c-6.16-19.991-2.468-35.188,3.037-42.744c1.308-1.796,2.899-3.94,4.557-6.178c3.938-5.308,9.885-13.33,10.56-14.853
		c1.446-3.28,5.066-5.757,8.422-5.757c0.231,0,0.464,0.011,0.692,0.032c0.933-0.346,2.451-0.795,4.039-0.795
		c2.114,0,3.863,0.795,5.015,2.231c2.425,0.549,8.125,2.349,8.505,5.58c0.589,1.417,2.896,6.688,5.812,9.701l0.682,0.699
		c4.51,4.608,19.641,15.348,21.096,30.604c1.309,13.706,0.245,26.655-11.721,36.145C67.807,91.541,52.707,91.303,48.494,91.303z"/>
	<path fill="#FFFFFF" d="M45.254,88.209c0,0-21.956,0.549-27.748-18.248c-5.792-18.793-2.436-33.284,2.615-40.21
		c5.05-6.93,14.34-19.11,15.421-21.561s4.232-4.606,6.817-3.913c0,0,5.498-2.635,6.993,1.156c0,0,3.773-0.198,3.968,3.569
		c0,0,2.738,7.059,6.57,11.019c3.829,3.957,13.803,13.344,15.241,28.429c1.439,15.085,1.915,25.482-8.349,33.623
		C56.519,90.213,45.254,88.209,45.254,88.209z"/>
	<path fill="#F075AC" d="M60.017,82.941c-7.481,3.586-14.192,2.451-14.259,2.441c-0.191-0.035-0.383-0.049-0.576-0.045
		c-0.043,0-5.172,0.082-10.83-1.969c-7.251-2.631-11.996-7.428-14.1-14.258c-5.541-17.981-2.283-31.53,2.191-37.668
		c1.297-1.78,2.877-3.912,4.523-6.132c6.389-8.618,10.335-13.993,11.203-15.963c0.349-0.791,1.186-1.611,2.081-2.041
		c0.531-0.252,1.027-0.348,1.367-0.256c0.663,0.177,1.366,0.109,1.986-0.187c1.142-0.531,2.664-0.75,3.003-0.527l0,0
		c0,0-0.037,0.173,0.075,0.149c2.558-0.564,3.852,3.271,3.962,3.559c0.122,0.307,2.998,7.646,7.184,11.973l0.705,0.722
		c4.051,4.137,12.479,12.747,13.741,25.984c1.394,14.598,1.786,23.915-7.272,31.1C63.45,81.051,61.775,82.1,60.017,82.941z"/>
	<path fill="#EC1164" d="M72.272,48.724c-1.263-13.237-9.69-21.848-13.741-25.984l-0.705-0.722
		c-4.187-4.326-7.062-11.666-7.184-11.973c-0.103-0.268-1.227-3.585-3.432-3.61c0.055,0.143,0.093,0.248,0.106,0.284
		c0.123,0.31,3,7.648,7.184,11.975l0.706,0.724c4.053,4.137,12.48,12.745,13.742,25.985c1.393,14.595,1.785,23.91-7.273,31.095
		c-1.549,1.229-3.225,2.275-4.982,3.121c-7.481,3.588-14.194,2.449-14.259,2.439c-0.191-0.033-0.383-0.049-0.576-0.045
		c-0.043,0.002-5.175,0.082-10.83-1.969c-2.711-0.984-5.07-2.271-7.075-3.854c2.526,3.166,5.993,5.578,10.398,7.178
		c5.658,2.051,10.787,1.969,10.83,1.969c0.193-0.004,0.385,0.01,0.576,0.045c0.067,0.01,6.778,1.145,14.259-2.441
		C61.775,82.1,63.45,81.051,65,79.824C74.059,72.639,73.666,63.322,72.272,48.724z"/>
	<g>
		<path fill="#EC1164" d="M59.154,23.614l0.707,0.724c0.994,1.014,2.25,2.299,3.6,3.853c-1.841-2.287-3.615-4.107-4.93-5.45
			l-0.705-0.722c-0.121-0.123-0.234-0.256-0.352-0.386C58.007,22.333,58.567,23.004,59.154,23.614z"/>
		<path fill="#EC1164" d="M21.583,70.709c-5.542-17.983-2.284-31.536,2.191-37.67c1.298-1.782,2.875-3.91,4.523-6.13
			c6.389-8.618,10.335-13.993,11.203-15.965c0.349-0.793,1.185-1.613,2.081-2.041c0.53-0.256,1.027-0.348,1.366-0.256
			c0.663,0.177,1.367,0.111,1.986-0.187c1.142-0.531,2.664-0.75,3.003-0.525c0,0-0.04,0.173,0.075,0.147
			c0.759-0.169,1.402,0.058,1.942,0.455c-0.639-1.119-1.724-2.395-3.273-2.051c-0.112,0.023-0.075-0.149-0.075-0.149
			c-0.339-0.223-1.861-0.004-3.003,0.527c-0.62,0.296-1.323,0.363-1.986,0.187c-0.339-0.092-0.836,0.004-1.367,0.256
			c-0.895,0.43-1.731,1.25-2.081,2.041c-0.867,1.97-4.813,7.345-11.203,15.963c-1.646,2.22-3.226,4.352-4.523,6.132
			c-4.474,6.139-7.732,19.688-2.191,37.668c0.968,3.141,2.52,5.83,4.591,8.098C23.431,75.301,22.333,73.139,21.583,70.709z"/>
	</g>
	<path fill="#FFF100" d="M31.033,38.238c-0.677,1.619-1.826,2.685-2.575,2.372c-0.748-0.312-0.803-1.876-0.133-3.501
		c0.679-1.626,1.833-2.687,2.58-2.375C31.652,35.044,31.711,36.612,31.033,38.238z"/>
	<path fill="#FFF100" d="M66.944,43.426c0.757,1.587,0.774,3.155,0.047,3.503c-0.733,0.348-1.933-0.657-2.695-2.241
		c-0.751-1.59-0.772-3.158-0.044-3.506C64.982,40.838,66.189,41.836,66.944,43.426z"/>
	<path fill="#FFF100" d="M69.486,51.238c-0.639,1.643-1.766,2.73-2.522,2.438c-0.751-0.292-0.851-1.865-0.207-3.499
		c0.639-1.636,1.771-2.73,2.526-2.431C70.034,48.035,70.125,49.604,69.486,51.238z"/>
	<path fill="#FFF100" d="M64.654,34.182c0.582,1.663,0.424,3.225-0.343,3.487c-0.763,0.27-1.852-0.865-2.424-2.526
		c-0.573-1.659-0.42-3.223,0.343-3.485C62.998,31.392,64.084,32.525,64.654,34.182z"/>
	<path fill="#FFF100" d="M61.58,42.021c-0.132,1.759-0.9,3.128-1.703,3.064c-0.811-0.067-1.354-1.538-1.219-3.295
		c0.145-1.753,0.913-3.114,1.711-3.049C61.176,38.802,61.719,40.27,61.58,42.021z"/>
	<path fill="#FFF100" d="M36.794,37.316c-0.132,1.76-0.899,3.129-1.704,3.065c-0.808-0.065-1.353-1.538-1.218-3.294
		c0.144-1.753,0.913-3.116,1.711-3.053C36.391,34.098,36.935,35.567,36.794,37.316z"/>
	<path fill="#FFF100" d="M52.056,40.684c-0.134,1.758-0.901,3.127-1.706,3.065c-0.809-0.067-1.353-1.538-1.219-3.297
		c0.146-1.752,0.913-3.117,1.714-3.05C51.649,37.466,52.193,38.933,52.056,40.684z"/>
	<path fill="#FFF100" d="M28.684,45.212c0.454,1.699,0.184,3.245-0.587,3.454c-0.787,0.21-1.789-1.002-2.24-2.701
		c-0.454-1.699-0.188-3.241,0.595-3.451C27.231,42.305,28.23,43.513,28.684,45.212z"/>
	<path fill="#FFF100" d="M34.494,28.316c0.8,1.562,0.866,3.134,0.14,3.503c-0.716,0.366-1.948-0.606-2.745-2.17
		c-0.801-1.569-0.86-3.134-0.144-3.505C32.464,25.778,33.697,26.75,34.494,28.316z"/>
	<path fill="#FFF100" d="M23.153,48.619c-0.381,1.719-1.326,2.971-2.118,2.794c-0.789-0.175-1.122-1.709-0.739-3.424
		c0.383-1.717,1.327-2.969,2.118-2.792C23.2,45.37,23.532,46.906,23.153,48.619z"/>
	<path fill="#FFF100" d="M24.511,40.844c-0.905,1.509-2.193,2.401-2.889,1.985c-0.694-0.413-0.529-1.977,0.371-3.485
		c0.903-1.51,2.194-2.398,2.886-1.981C25.576,37.773,25.409,39.336,24.511,40.844z"/>
	<g>
		<path fill="#231F20" d="M34.442,47.923c1.371-1.28,4.038-0.662,5.969,1.381c1.013,1.077,1.617,2.322,1.759,3.461
			c-1.826-1.512-4.052-1.857-5.251-0.719c-0.653,0.612-0.881,1.55-0.728,2.585c-0.256-0.202-0.499-0.419-0.72-0.655
			C33.531,51.917,33.082,49.216,34.442,47.923z"/>
		<path fill="#231F20" d="M55.045,45.163c-1.719-0.728-4.019,0.771-5.107,3.36c-0.589,1.352-0.723,2.732-0.465,3.848
			c1.195-2.039,3.159-3.146,4.693-2.494c0.809,0.35,1.353,1.158,1.571,2.17c0.174-0.263,0.313-0.553,0.446-0.868
			C57.287,48.598,56.782,45.896,55.045,45.163z"/>
		<g>
			<g>
				<g>
					<path fill="#3F3B3C" d="M61.074,53.368c1.231-0.117,2.513,0.461,3.579,1.985c1.046,1.506,1.771,4.004,1.44,7.184
						c-0.15,1.59-0.635,3.297-1.409,5.062c-0.83,1.723-1.953,3.514-3.504,5.109c-1.548,1.586-3.439,3.066-5.671,4.145
						c-2.223,1.08-4.733,1.809-7.336,2.066c-2.606,0.221-5.207-0.037-7.589-0.693c-2.391-0.652-4.521-1.764-6.333-3.041
						c-1.816-1.287-3.248-2.844-4.378-4.389c-1.083-1.596-1.871-3.188-2.308-4.723c-0.903-3.07-0.643-5.664,0.114-7.334
						c0.774-1.688,1.93-2.488,3.162-2.594c1.261-0.112,2.512,0.426,3.752,1.098c1.245,0.682,2.572,1.465,3.913,2.087
						c0.656,0.326,1.373,0.574,2.031,0.818c0.708,0.197,1.362,0.404,2.043,0.512c0.68,0.096,1.319,0.201,1.969,0.211
						c0.649,0.008,1.28-0.008,1.959-0.047c0.675-0.084,1.298-0.186,1.935-0.312c0.638-0.125,1.247-0.348,1.898-0.566
						c0.651-0.23,1.257-0.553,1.918-0.876c0.604-0.362,1.264-0.736,1.851-1.173c1.206-0.857,2.369-1.873,3.47-2.77
						C58.68,54.24,59.813,53.485,61.074,53.368z"/>
				</g>
			</g>
		</g>
		<g>
			<defs>
				<path id="SVGID_1_" d="M61.082,53.368c-1.265,0.123-2.408,0.882-3.493,1.772c-1.106,0.895-2.267,1.912-3.479,2.766
					c-1.204,0.859-2.492,1.557-3.764,2.038c-1.299,0.484-2.5,0.715-3.832,0.875c-1.353,0.078-2.569,0.078-3.924-0.168
					c-1.341-0.232-2.753-0.684-4.084-1.323c-1.333-0.617-2.672-1.404-3.918-2.095c-1.243-0.664-2.502-1.2-3.754-1.087
					c-1.237,0.109-2.391,0.91-3.167,2.594c-0.749,1.676-1.008,4.272-0.108,7.34c0.883,3.053,3.068,6.5,6.693,9.111
					c1.81,1.277,3.936,2.395,6.34,3.043c2.368,0.658,4.978,0.91,7.58,0.701c2.599-0.268,5.111-0.986,7.338-2.078
					c2.236-1.074,4.136-2.549,5.673-4.137c3.093-3.23,4.615-7.018,4.922-10.182c0.338-3.184-0.395-5.68-1.451-7.184
					C63.594,53.827,62.301,53.254,61.082,53.368z"/>
			</defs>
			<clipPath id="SVGID_2_">
				<use xlink:href="#SVGID_1_"  overflow="visible"/>
			</clipPath>
			<path clip-path="url(#SVGID_2_)" fill="#FFFFFF" d="M40.895,63.459c0.063,0.648,0.631,1.102,1.274,1.043l9.144-0.963
				c0.641-0.064,1.101-0.633,1.036-1.277l-0.408-3.902c-0.065-0.637-0.633-1.102-1.268-1.032l-9.147,0.947
				c-0.644,0.068-1.107,0.639-1.04,1.278L40.895,63.459z"/>
			<polygon clip-path="url(#SVGID_2_)" fill="#231F20" points="45.434,65.795 48.242,65.25 47.246,55.627 44.485,56.701 			"/>
		</g>
		<path fill="#EA2227" d="M37.672,71.99c0.221,2.924,4.691,4.842,9.816,4.312c5.127-0.533,8.958-3.322,8.73-6.238
			c-0.389-4.797-7.214-1.77-9.511-1.496C44.412,68.842,37.252,66.604,37.672,71.99z"/>
	</g>
	<g>
		<path fill="#EC1164" d="M43.18,11.278c0,0,0.005,0.422,0.013,1.161c-0.004,0.365,0.006,0.81-0.009,1.312
			c-0.004,0.508,0.016,1.081-0.01,1.698c-0.032,0.616-0.01,1.29-0.024,1.996c-0.015,0.704-0.031,1.447-0.048,2.216
			c-0.003,0.767-0.006,1.559-0.009,2.363c-0.007,0.803-0.056,1.618-0.026,2.432c0.018,0.813,0.014,1.627,0.01,2.429
			c-0.033,0.803-0.023,1.59,0.001,2.351c0.016,0.763,0.038,1.5,0.015,2.205c-0.012,0.705-0.032,1.374,0.003,1.985
			c0.053,1.227,0.045,2.268,0.018,3.008c-0.021,0.738-0.066,1.172-0.066,1.172s-0.18-0.383-0.438-1.074
			c-0.265-0.689-0.612-1.689-0.965-2.913c-0.216-0.607-0.31-1.283-0.43-1.997c-0.132-0.714-0.225-1.472-0.329-2.258
			c-0.05-0.393-0.102-0.793-0.153-1.197c-0.014-0.405-0.029-0.816-0.043-1.23c-0.015-0.828-0.028-1.671-0.021-2.513
			c-0.024-0.843,0.077-1.68,0.137-2.505c0.082-0.823,0.163-1.633,0.241-2.416c0.135-0.776,0.265-1.526,0.389-2.238
			c0.113-0.711,0.281-1.375,0.437-1.986c0.304-1.223,0.62-2.229,0.879-2.923C42.999,11.661,43.18,11.278,43.18,11.278z"/>
	</g>
	<g>
		<path fill="#EC1164" d="M49.693,19.256c0,0-0.072,0.429-0.197,1.179c-0.141,0.746-0.25,1.826-0.464,3.092
			c-0.108,0.633-0.206,1.321-0.345,2.039c-0.116,0.725-0.184,1.505-0.301,2.3c-0.218,1.593-0.474,3.286-0.763,4.973
			c-0.143,0.844-0.294,1.687-0.383,2.527c-0.102,0.838-0.215,1.661-0.343,2.455c-0.233,1.592-0.497,3.072-0.749,4.341
			c-0.491,2.537-0.975,4.222-0.975,4.222s-0.085-1.734,0.021-4.326c0.047-1.297,0.132-2.808,0.271-4.422
			c0.059-0.809,0.138-1.643,0.233-2.487c0.046-0.423,0.092-0.849,0.138-1.276l0.228-1.276c0.303-1.704,0.64-3.402,0.978-4.988
			c0.171-0.794,0.338-1.557,0.523-2.279c0.203-0.722,0.429-1.394,0.619-2.017c0.403-1.24,0.723-2.272,1.025-2.966
			C49.518,19.652,49.693,19.256,49.693,19.256z"/>
	</g>
	<g>
		<path fill="#EC1164" d="M23.368,57.155c0,0-0.244,1.3-0.275,3.21c-0.032,0.475,0.026,0.994,0.017,1.533
			c0.048,0.543,0.066,1.111,0.154,1.693c0.036,0.291,0.073,0.586,0.11,0.887c0.06,0.295,0.12,0.594,0.181,0.896
			c0.08,0.609,0.288,1.203,0.432,1.807c0.192,0.594,0.385,1.188,0.575,1.771c0.247,0.562,0.475,1.125,0.689,1.676
			c0.268,0.523,0.526,1.033,0.753,1.529c0.235,0.492,0.53,0.918,0.75,1.348c0.239,0.416,0.438,0.816,0.662,1.139
			c0.217,0.326,0.397,0.623,0.545,0.867c0.297,0.49,0.458,0.785,0.458,0.785s-0.26-0.199-0.7-0.574
			c-0.22-0.189-0.487-0.42-0.783-0.695c-0.316-0.26-0.606-0.609-0.93-0.988c-0.32-0.383-0.7-0.777-1.014-1.258
			c-0.323-0.475-0.658-0.984-0.982-1.523c-0.285-0.562-0.585-1.143-0.853-1.75c-0.213-0.629-0.488-1.25-0.654-1.906
			c-0.142-0.662-0.344-1.311-0.416-1.973c-0.041-0.33-0.082-0.658-0.122-0.982c-0.014-0.324-0.028-0.646-0.042-0.961
			c-0.052-0.631,0.039-1.244,0.057-1.818c0.071-0.572,0.135-1.113,0.254-1.602C22.643,58.292,23.368,57.155,23.368,57.155z"/>
	</g>
	<path fill="#FFFFFF" d="M56.753,20.198c-4.954,0.896-6.919,4.676-4.808,9.247c-2.112-4.571-6.991-7.112-11.948-6.215
		c4.958-0.897,6.926-4.673,4.82-9.254C46.923,18.557,51.799,21.094,56.753,20.198z"/>
</g>
</svg>
