<?xml version="1.0" encoding="utf-8"?>
<!-- Generator: Adobe Illustrator 16.0.4, SVG Export Plug-In . SVG Version: 6.00 Build 0)  -->
<!DOCTYPE svg PUBLIC "-//W3C//DTD SVG 1.1//EN" "http://www.w3.org/Graphics/SVG/1.1/DTD/svg11.dtd">
<svg version="1.1" id="Layer_1" xmlns="http://www.w3.org/2000/svg" xmlns:xlink="http://www.w3.org/1999/xlink" x="0px" y="0px"
	 width="131.5px" height="82.75px" viewBox="-29.824 1.243 131.5 82.75" enable-background="new -29.824 1.243 131.5 82.75"
	 xml:space="preserve">
<g>
	<g>
		<g>
			<path fill="#FAD503" d="M69.723,63.42c-5.757,0-11.68-1.554-17.128-4.492c-14.212-7.665-22.212-23.174-18.887-36.367
				c-2.625-1.986-3.827-4.583-3.229-7.063c0.543-2.251,2.49-3.939,4.844-4.202c0.312-0.034,0.611-0.05,0.901-0.05
				c1.14,0,2.222,0.239,3.228,0.713c5.156-5.545,13.056-8.707,21.831-8.707c6.496,0,13.064,1.688,18.993,4.883
				c13.811,7.456,20.664,21.225,17.228,34.44c2.293,2.16,3.179,4.771,2.431,7.25c-0.709,2.354-2.78,4.053-5.275,4.329
				c-0.346,0.039-0.682,0.058-1.007,0.058l0,0c-0.737,0-1.464-0.096-2.168-0.284C86.175,59.97,78.288,63.42,69.723,63.42z"/>
			<path fill="#FFE500" d="M61.284,4.349c6.136,0,12.571,1.572,18.473,4.752c13.812,7.457,20.124,21.246,16.51,33.843
				c5.158,4.309,2.45,9.657-1.728,10.12c-0.306,0.034-0.601,0.051-0.886,0.051c-0.955,0-1.797-0.181-2.53-0.452
				c-5.201,6.263-12.965,9.66-21.399,9.66c-5.426,0-11.13-1.406-16.607-4.36C39.041,50.37,31.23,35.127,34.967,22.108
				c-5.917-3.914-3.473-9.281,0.479-9.722c0.268-0.029,0.528-0.043,0.78-0.043c1.439,0,2.599,0.451,3.466,0.994
				C44.828,7.377,52.767,4.349,61.284,4.349 M61.284,2.155c-8.786,0-16.738,3.079-22.104,8.504c-0.938-0.339-1.926-0.51-2.955-0.51
				c-0.336,0-0.678,0.019-1.019,0.056c-2.816,0.314-5.143,2.337-5.793,5.036c-0.659,2.731,0.479,5.543,3.067,7.743
				c-1.436,6.434-0.417,13.504,2.925,20.082c3.537,6.963,9.457,12.939,16.669,16.829c5.608,3.024,11.711,4.623,17.649,4.623
				c8.648,0,16.638-3.399,22.146-9.376c0.586,0.112,1.182,0.168,1.784,0.168c0.373,0,0.754-0.021,1.133-0.064
				c2.928-0.324,5.364-2.327,6.2-5.103c0.807-2.675-0.039-5.549-2.268-7.902c3.203-13.526-3.864-27.482-17.919-35.07
				C74.709,3.888,67.962,2.155,61.284,2.155L61.284,2.155z"/>
		</g>
		<g>
			<g>
				<path fill="#F4B619" d="M96.525,43.184c-0.74,1.554-2.271,2.683-4.081,2.88c-1.331,0.148-2.462-0.051-3.418-0.402
					c-8.543,10.287-24.015,12.844-38.007,5.298c-7.704-4.153-13.521-10.604-16.606-17.722c1.631,9.755,8.531,19.237,18.703,24.725
					c13.991,7.546,29.459,4.992,38.007-5.3c0.952,0.353,2.088,0.552,3.416,0.401C98.639,52.609,101.306,47.446,96.525,43.184z"/>
			</g>
		</g>
		<g>
			<g>
				<g>
					<path fill="#3F3B3C" d="M55.288,23.851c0.907,0.509,1.48,1.449,2.098,2.387c0.594,0.946,1.244,1.866,2.031,2.72
						c1.538,1.672,3.546,3.516,6.444,5.155c2.925,1.603,5.551,2.339,7.781,2.768c1.139,0.22,2.264,0.29,3.38,0.297
						c1.122,0.032,2.223,0.024,3.134,0.527c0.446,0.249,0.807,0.611,1.049,1.127c0.231,0.508,0.394,1.207,0.288,1.986
						c-0.125,1.592-1.183,3.769-3.353,5.52c-2.135,1.745-5.301,3.065-8.783,3.228c-3.493,0.228-7.294-0.642-10.697-2.515
						c-3.389-1.907-6.131-4.684-7.775-7.775c-1.696-3.048-2.238-6.435-1.877-9.168c0.348-2.766,1.642-4.811,2.93-5.755
						c0.607-0.5,1.287-0.73,1.84-0.801C54.344,23.487,54.842,23.602,55.288,23.851z"/>
				</g>
			</g>
		</g>
		<path fill="#EA2227" d="M66.948,44.625c-0.851,1.688-3.996,1.737-6.922,0.158c-2.922-1.581-4.528-4.186-3.669-5.87
			c1.403-2.761,4.731,0.723,6.033,1.448C63.697,41.089,68.523,41.512,66.948,44.625z"/>
		<g>
			<defs>
				<path id="SVGID_1_" d="M55.294,23.854c0.908,0.51,1.48,1.446,2.103,2.384c0.592,0.944,1.241,1.865,2.028,2.721
					c0.8,0.85,1.62,1.703,2.711,2.579c1.046,0.885,2.301,1.74,3.73,2.569c1.454,0.779,2.845,1.397,4.151,1.823
					c1.314,0.464,2.475,0.715,3.624,0.944c1.136,0.217,2.261,0.292,3.374,0.298c1.124,0.034,2.223,0.028,3.135,0.53
					c0.447,0.247,0.809,0.61,1.051,1.129c0.232,0.506,0.394,1.206,0.289,1.984c-0.126,1.591-1.18,3.772-3.349,5.527
					c-2.131,1.743-5.3,3.065-8.783,3.229c-1.753,0.126-3.562-0.064-5.389-0.464c-1.819-0.416-3.605-1.138-5.315-2.055
					c-1.685-0.974-3.233-2.111-4.543-3.441c-1.298-1.336-2.418-2.777-3.229-4.332c-1.695-3.052-2.238-6.439-1.875-9.172
					c0.348-2.769,1.645-4.809,2.936-5.755c0.607-0.497,1.285-0.723,1.841-0.8C54.349,23.488,54.847,23.605,55.294,23.854z"/>
			</defs>
			<clipPath id="SVGID_2_">
				<use xlink:href="#SVGID_1_"  overflow="visible"/>
			</clipPath>
			<path clip-path="url(#SVGID_2_)" fill="#FFFFFF" d="M57.834,25.647c0,0,6.458,11.858,19.343,10.432l-0.626,2.586
				c0,0-0.373,1.24-1.068,1.155c-0.691-0.084-12.688,0.054-19.079-10.423c0,0-0.863-1.134-0.462-1.88
				C56.345,26.772,57.834,25.647,57.834,25.647z"/>
			<g clip-path="url(#SVGID_2_)">
				<g>
					<g>
						<path fill="#3F3B3C" d="M65.061,35.121c0.547,0.297,0.558,1.371,0.024,2.398c-0.534,1.027-1.421,1.638-1.98,1.365
							c-0.559-0.273-0.568-1.346-0.022-2.396C63.63,35.436,64.514,34.824,65.061,35.121z"/>
					</g>
				</g>
			</g>
		</g>
		<g>
			<g>
				<g>
					<path fill="#3F3B3C" d="M61.197,42.842c-0.601-0.322-0.569-1.554,0.071-2.75c0.74-1.226,1.801-1.892,2.352-1.492
						c0.552,0.4,0.469,1.6-0.19,2.682C62.797,42.465,61.798,43.164,61.197,42.842z"/>
				</g>
			</g>
		</g>
		<path fill="#FFFFFF" d="M70.561,15.843c0.897,0.487,1.37,1.438,1.289,2.393c0.255-0.203,0.473-0.46,0.642-0.764
			c0.646-1.202,0.195-2.697-1.004-3.348c-1.202-0.646-2.695-0.2-3.349,1.004c-0.165,0.306-0.258,0.631-0.283,0.955
			C68.605,15.488,69.666,15.36,70.561,15.843z"/>
		<path fill="#FFFFFF" d="M70.646,21.353c0.895,0.482,1.369,1.438,1.287,2.392c0.255-0.204,0.476-0.457,0.638-0.761
			c0.649-1.2,0.2-2.703-1.001-3.347c-1.2-0.649-2.7-0.198-3.343,0.999c-0.167,0.306-0.261,0.63-0.29,0.957
			C68.69,20.996,69.749,20.872,70.646,21.353z"/>
		<path fill="#FFFFFF" d="M75.617,12.952c0.896,0.485,1.376,1.443,1.288,2.393c0.255-0.198,0.475-0.453,0.64-0.759
			c0.647-1.202,0.201-2.701-1.003-3.348c-1.201-0.649-2.696-0.205-3.349,0.999c-0.163,0.309-0.254,0.63-0.28,0.96
			C73.658,12.601,74.722,12.472,75.617,12.952z"/>
		<path fill="#FFFFFF" d="M67.411,9.269c0.896,0.481,1.373,1.442,1.287,2.393c0.256-0.202,0.477-0.458,0.64-0.76
			c0.649-1.202,0.201-2.701-1.001-3.346c-1.196-0.652-2.698-0.206-3.348,0.998c-0.161,0.309-0.254,0.629-0.285,0.957
			C65.453,8.912,66.516,8.786,67.411,9.269z"/>
		<path fill="#FFFFFF" d="M64.062,13.469c0.896,0.487,1.367,1.44,1.284,2.393c0.256-0.204,0.478-0.458,0.641-0.761
			c0.647-1.199,0.202-2.699-1.002-3.345c-1.199-0.653-2.7-0.202-3.347,1.001c-0.162,0.3-0.256,0.627-0.287,0.953
			C62.102,13.118,63.164,12.987,64.062,13.469z"/>
		<path fill="#FFFFFF" d="M46.56,24.39c0.896,0.489,1.369,1.442,1.287,2.393c0.256-0.2,0.476-0.453,0.641-0.759
			c0.646-1.202,0.196-2.703-1.005-3.348c-1.199-0.648-2.697-0.2-3.344,1c-0.165,0.306-0.259,0.632-0.286,0.953
			C44.604,24.037,45.664,23.909,46.56,24.39z"/>
		<path fill="#FFFFFF" d="M43.904,18.084c0.898,0.483,1.371,1.44,1.286,2.397c0.258-0.205,0.479-0.462,0.641-0.766
			c0.648-1.199,0.198-2.696-1.001-3.348c-1.201-0.648-2.701-0.197-3.346,1.006c-0.163,0.298-0.256,0.627-0.285,0.953
			C41.947,17.731,43.008,17.602,43.904,18.084z"/>
		<path fill="#FFFFFF" d="M39.299,22.248c0.896,0.482,1.374,1.44,1.288,2.39c0.253-0.2,0.474-0.455,0.64-0.761
			c0.648-1.202,0.199-2.699-1.003-3.347c-1.198-0.649-2.697-0.2-3.344,1.003c-0.166,0.305-0.259,0.632-0.289,0.953
			C37.344,21.891,38.402,21.763,39.299,22.248z"/>
		<path fill="#FFFFFF" d="M91.191,48.458c0.896,0.482,1.373,1.439,1.288,2.395c0.256-0.204,0.477-0.457,0.643-0.768
			c0.645-1.195,0.196-2.699-1.003-3.344c-1.2-0.648-2.702-0.197-3.347,0.998c-0.168,0.309-0.255,0.636-0.289,0.957
			C89.233,48.103,90.294,47.978,91.191,48.458z"/>
		<path fill="#FFFFFF" d="M88.541,42.154c0.892,0.481,1.367,1.436,1.282,2.393c0.255-0.204,0.474-0.46,0.642-0.763
			c0.645-1.204,0.198-2.704-1.006-3.351c-1.199-0.644-2.7-0.197-3.345,1.004c-0.163,0.302-0.253,0.625-0.287,0.953
			C86.584,41.795,87.639,41.665,88.541,42.154z"/>
		<path fill="#FFFFFF" d="M83.926,46.314c0.896,0.48,1.374,1.438,1.289,2.396c0.255-0.204,0.476-0.46,0.642-0.766
			c0.647-1.198,0.2-2.698-0.998-3.348c-1.205-0.648-2.705-0.198-3.348,1.002c-0.166,0.308-0.261,0.632-0.29,0.952
			C81.971,45.957,83.033,45.829,83.926,46.314z"/>
		<g>
			<g>
				<g>
					<path fill="#3F3B3C" d="M59.499,21.56c-0.265-0.143-0.146-0.77-0.293-1.569c-0.062-0.402-0.232-0.84-0.479-1.261
						c-0.279-0.406-0.647-0.777-1.124-1.057c-0.494-0.244-1.006-0.347-1.499-0.356c-0.486,0.025-0.946,0.125-1.316,0.295
						c-0.749,0.317-1.208,0.76-1.473,0.618c-0.212-0.089-0.203-0.885,0.667-1.757c0.428-0.429,1.092-0.795,1.908-0.961
						c0.817-0.134,1.779-0.025,2.65,0.425c0.853,0.48,1.474,1.222,1.812,1.979c0.312,0.773,0.372,1.529,0.248,2.123
						C60.349,21.244,59.689,21.688,59.499,21.56z"/>
				</g>
			</g>
		</g>
		<g>
			<g>
				<g>
					<path fill="#3F3B3C" d="M85.671,35.672c-0.264-0.143-0.146-0.769-0.294-1.569c-0.061-0.402-0.232-0.84-0.478-1.261
						c-0.279-0.407-0.647-0.778-1.124-1.058c-0.493-0.244-1.005-0.347-1.498-0.356c-0.486,0.026-0.947,0.125-1.316,0.294
						c-0.749,0.317-1.207,0.76-1.472,0.618c-0.212-0.088-0.204-0.885,0.666-1.757c0.427-0.43,1.092-0.795,1.908-0.961
						c0.816-0.134,1.779-0.026,2.649,0.425c0.854,0.48,1.474,1.223,1.812,1.979c0.31,0.773,0.372,1.529,0.247,2.123
						C86.522,35.356,85.861,35.8,85.671,35.672z"/>
				</g>
			</g>
		</g>
	</g>
	<g>
		<g>
			<g>
				<path fill="#39B24A" d="M28.054,74.45c-2.851,2.217-6.099,4.01-9.651,5.329c-7.192,2.673-15.05,3.147-22.126,1.338
					c-6.875-1.759-12.588-5.569-16.167-10.771c-3.102,0.639-5.74-0.14-7.152-2.146c-1.285-1.822-1.269-4.301,0.036-6.168
					c0.443-0.637,0.966-1.191,1.553-1.647c0.473-0.369,0.992-0.677,1.546-0.919c-0.947-9.324,3.853-19.262,12.677-26.126
					c3.159-2.457,6.686-4.417,10.481-5.826c7.091-2.637,14.313-3.054,20.887-1.207c6.282,1.765,11.441,5.429,14.96,10.617
					c3.016-0.292,5.464,0.724,6.781,2.837c1.254,2.008,1.169,4.588-0.215,6.57c-0.487,0.699-1.063,1.309-1.711,1.813l0,0
					c-0.151,0.118-0.308,0.229-0.467,0.337C40.759,58.203,36.523,67.865,28.054,74.45z"/>
				<path fill="#8BC541" d="M-10.582,34.174c3.001-2.334,6.441-4.275,10.201-5.672c14.159-5.262,28.142-1.066,34.959,9.55
					c6.388-1.001,8.534,4.358,6.221,7.674c-0.459,0.658-0.968,1.176-1.494,1.585c-0.317,0.247-0.642,0.454-0.963,0.63
					c1.518,9.587-2.644,19.229-10.936,25.676c-2.702,2.102-5.843,3.863-9.37,5.176c-14.425,5.359-30.41,1.33-37.457-9.643
					c-6.58,1.795-8.91-3.379-6.72-6.514c0.41-0.587,0.865-1.051,1.336-1.418c0.679-0.527,1.391-0.853,2.047-1.051
					C-24.094,50.623-19.114,40.809-10.582,34.174 M-11.878,32.507c-4.516,3.512-8.111,7.889-10.397,12.661
					c-2.131,4.449-3.07,9.143-2.747,13.672c-0.377,0.209-0.738,0.445-1.081,0.713c-0.671,0.521-1.267,1.152-1.771,1.877
					c-1.558,2.23-1.572,5.195-0.032,7.379c1.557,2.211,4.31,3.172,7.541,2.695c3.743,5.125,9.503,8.879,16.382,10.637
					c7.282,1.863,15.363,1.377,22.755-1.369c3.654-1.358,6.996-3.205,9.931-5.487c4.36-3.392,7.749-7.712,9.794-12.497
					c1.883-4.411,2.605-9.158,2.111-13.813c0.729-0.567,1.375-1.253,1.923-2.038c1.627-2.33,1.723-5.365,0.245-7.732
					c-1.423-2.28-4.036-3.492-7.152-3.373c-3.622-5.07-8.971-8.79-15.201-10.539c-6.791-1.908-14.239-1.48-21.539,1.233
					C-5.014,27.971-8.635,29.984-11.878,32.507L-11.878,32.507z"/>
			</g>
			<g>
				<path fill="#009247" d="M34.914,38.016c0.657,1.522,0.495,3.343-0.508,4.781c-0.737,1.052-1.603,1.748-2.461,2.215
					c2.015,12.71-5.963,25.521-20.304,30.849c-7.897,2.934-16.255,3.049-23.363,0.761c8.091,5.011,19.331,6.043,29.757,2.171
					c14.342-5.331,22.319-18.14,20.306-30.852c0.857-0.467,1.723-1.161,2.457-2.215C43.07,42.472,41.033,37.262,34.914,38.016z"/>
			</g>
			<g>
				<path fill="#231F20" d="M-5.252,55.56c0.934-0.327,1.979-0.147,3.047,0.006c1.074,0.165,2.151,0.275,3.263,0.254
					c1.108-0.018,2.278-0.102,3.591-0.311c1.31-0.211,2.734-0.549,4.235-1.08c1.5-0.535,2.818-1.178,3.963-1.841
					c1.153-0.667,2.112-1.341,2.98-2.028c0.876-0.685,1.642-1.451,2.37-2.258c0.73-0.793,1.426-1.592,2.358-1.93
					c0.462-0.166,0.958-0.196,1.493-0.045c0.271,0.073,0.537,0.197,0.809,0.371c0.28,0.174,0.545,0.4,0.812,0.683
					c0.522,0.565,1.019,1.36,1.364,2.372c0.346,1.008,0.536,2.227,0.49,3.561c-0.075,2.672-1.16,5.766-3.241,8.409
					c-2.062,2.655-5.093,4.88-8.619,6.132c-3.522,1.259-7.281,1.452-10.556,0.693c-3.284-0.731-6.08-2.445-7.826-4.468
					c-0.878-1.005-1.5-2.07-1.871-3.069c-0.372-1.002-0.49-1.934-0.441-2.699c0.029-0.39,0.091-0.732,0.197-1.043
					c0.1-0.307,0.229-0.57,0.393-0.801C-6.12,56.015-5.717,55.725-5.252,55.56z"/>
			</g>
			<path fill="#EA2227" d="M17.177,60.322c0.68,1.688-1.283,3.992-4.283,5.105c-2.999,1.113-5.901,0.618-6.577-1.071
				c-1.106-2.774,3.528-2.968,4.881-3.448C12.553,60.427,15.926,57.203,17.177,60.322z"/>
			<g>
				<defs>
					<path id="SVGID_3_" d="M-5.246,55.558c0.944-0.332,1.988-0.152,3.057-0.004c1.063,0.171,2.14,0.283,3.257,0.256
						c1.122-0.038,2.26-0.086,3.586-0.318c1.305-0.195,2.721-0.561,4.226-1.068c1.489-0.559,2.818-1.172,3.954-1.846
						c1.175-0.657,2.091-1.338,2.984-2.021c0.884-0.682,1.648-1.448,2.361-2.253c0.737-0.789,1.429-1.589,2.371-1.928
						c0.465-0.164,0.958-0.195,1.484-0.045c0.515,0.155,1.124,0.48,1.621,1.053c1.072,1.1,1.977,3.248,1.868,5.929
						c-0.093,2.65-1.147,5.78-3.241,8.403c-1.021,1.352-2.31,2.535-3.758,3.601c-1.454,1.054-3.108,1.89-4.858,2.542
						c-1.772,0.601-3.579,0.998-5.373,1.102c-1.795,0.088-3.542-0.015-5.187-0.418c-3.281-0.71-6.076-2.47-7.822-4.469
						c-1.779-2.006-2.434-4.242-2.299-5.772c0.025-0.758,0.291-1.396,0.593-1.84C-6.111,56.011-5.711,55.724-5.246,55.558z"/>
				</defs>
				<clipPath id="SVGID_4_">
					<use xlink:href="#SVGID_3_"  overflow="visible"/>
				</clipPath>
				<path clip-path="url(#SVGID_4_)" fill="#FFFFFF" d="M-2.335,54.862c0,0,12.673,2.859,19.825-7.366l1.471,2.096
					c0,0,0.66,1.059,0.16,1.506c-0.505,0.446-8.02,9.209-19.652,7.184c0,0-1.371-0.1-1.657-0.865
					C-2.472,56.65-2.335,54.862-2.335,54.862z"/>
				<g clip-path="url(#SVGID_4_)">
					<path fill="#231F20" d="M9.102,55.648c0.562-0.207,1.346,0.467,1.751,1.507c0.404,1.038,0.284,2.07-0.268,2.302
						c-0.554,0.229-1.336-0.445-1.75-1.508C8.424,56.882,8.541,55.855,9.102,55.648z"/>
				</g>
			</g>
			<g>
				<path fill="#231F20" d="M12.231,63.345c-0.617,0.223-1.48-0.552-1.943-1.799c-0.218-0.641-0.3-1.258-0.203-1.754
					c0.085-0.49,0.301-0.818,0.619-0.895c0.32-0.078,0.678,0.1,0.994,0.43c0.302,0.331,0.624,0.821,0.823,1.412
					C12.961,61.928,12.85,63.123,12.231,63.345z"/>
			</g>
			<path fill="#FFFFFF" d="M-1.346,39.431c0.919-0.342,1.914-0.08,2.547,0.588c0.019-0.314-0.027-0.636-0.143-0.947
				c-0.458-1.233-1.828-1.858-3.058-1.401c-1.23,0.458-1.859,1.825-1.4,3.056c0.115,0.312,0.292,0.586,0.507,0.812
				C-2.845,40.62-2.264,39.772-1.346,39.431z"/>
			<path fill="#FFFFFF" d="M2.691,42.868c0.92-0.341,1.913-0.078,2.549,0.589c0.016-0.314-0.029-0.636-0.145-0.949
				c-0.458-1.231-1.827-1.856-3.057-1.398c-1.231,0.457-1.857,1.826-1.401,3.055c0.116,0.312,0.293,0.585,0.508,0.812
				C1.194,44.059,1.775,43.208,2.691,42.868z"/>
			<path fill="#FFFFFF" d="M-0.226,33.941c0.919-0.343,1.914-0.078,2.548,0.587c0.018-0.31-0.027-0.632-0.144-0.946
				c-0.458-1.231-1.825-1.856-3.056-1.4c-1.231,0.458-1.859,1.825-1.402,3.057c0.117,0.312,0.294,0.585,0.509,0.812
				C-1.723,35.131-1.143,34.28-0.226,33.941z"/>
			<path fill="#FFFFFF" d="M-8.099,37.535c0.917-0.34,1.912-0.078,2.547,0.588c0.018-0.313-0.03-0.634-0.145-0.948
				c-0.459-1.229-1.826-1.858-3.058-1.399c-1.23,0.457-1.858,1.826-1.399,3.056c0.115,0.314,0.292,0.584,0.509,0.812
				C-9.599,38.724-9.016,37.876-8.099,37.535z"/>
			<path fill="#FFFFFF" d="M-7.191,42.626c0.917-0.342,1.913-0.077,2.549,0.59c0.015-0.314-0.029-0.635-0.146-0.95
				c-0.456-1.228-1.825-1.856-3.056-1.401c-1.23,0.459-1.857,1.828-1.401,3.06c0.116,0.312,0.292,0.585,0.509,0.812
				C-8.688,43.815-8.108,42.966-7.191,42.626z"/>
			<path fill="#FFFFFF" d="M-10.406,62.218c0.919-0.344,1.914-0.076,2.549,0.588c0.017-0.314-0.028-0.633-0.145-0.947
				c-0.457-1.229-1.827-1.858-3.056-1.4c-1.23,0.457-1.859,1.826-1.4,3.057c0.116,0.312,0.292,0.584,0.507,0.812
				C-11.903,63.407-11.322,62.56-10.406,62.218z"/>
			<path fill="#FFFFFF" d="M-16.651,60.134c0.918-0.343,1.912-0.079,2.547,0.589c0.018-0.314-0.027-0.636-0.144-0.948
				c-0.458-1.229-1.827-1.857-3.058-1.399c-1.23,0.456-1.856,1.824-1.4,3.056c0.117,0.312,0.292,0.585,0.509,0.812
				C-18.152,61.323-17.57,60.476-16.651,60.134z"/>
			<path fill="#FFFFFF" d="M-16.567,66.109c0.918-0.342,1.914-0.077,2.551,0.588c0.012-0.312-0.03-0.633-0.147-0.947
				c-0.457-1.23-1.824-1.857-3.057-1.398c-1.231,0.455-1.857,1.824-1.4,3.055c0.117,0.314,0.293,0.586,0.509,0.812
				C-18.066,67.298-17.483,66.45-16.567,66.109z"/>
			<path fill="#FFFFFF" d="M35.344,45.222c0.917-0.342,1.912-0.078,2.548,0.586c0.015-0.313-0.029-0.635-0.146-0.946
				c-0.459-1.231-1.827-1.859-3.059-1.4c-1.23,0.456-1.857,1.827-1.401,3.057c0.117,0.313,0.292,0.585,0.507,0.813
				C33.843,46.41,34.422,45.562,35.344,45.222z"/>
			<path fill="#FFFFFF" d="M29.095,43.136c0.917-0.34,1.912-0.078,2.548,0.589c0.014-0.312-0.029-0.634-0.147-0.947
				c-0.457-1.231-1.826-1.858-3.056-1.399c-1.229,0.458-1.859,1.826-1.401,3.057c0.118,0.312,0.292,0.584,0.507,0.812
				C27.594,44.327,28.175,43.479,29.095,43.136z"/>
			<path fill="#FFFFFF" d="M29.178,49.113c0.916-0.341,1.913-0.078,2.547,0.588c0.018-0.314-0.027-0.633-0.143-0.947
				c-0.458-1.23-1.826-1.857-3.058-1.4c-1.232,0.457-1.858,1.826-1.401,3.057c0.116,0.312,0.292,0.586,0.508,0.812
				C27.679,50.303,28.261,49.452,29.178,49.113z"/>
			<g>
				<path fill="#231F20" d="M-4.236,51.062c-0.261,0.098-0.635-0.39-1.315-0.791c-0.659-0.416-1.698-0.682-2.7-0.307
					c-1.001,0.367-1.614,1.249-1.842,1.996c-0.252,0.746-0.217,1.358-0.478,1.456c-0.118,0.045-0.293-0.051-0.478-0.313
					c-0.181-0.26-0.352-0.701-0.381-1.284c-0.017-0.29,0.02-0.613,0.095-0.955c0.091-0.336,0.221-0.694,0.433-1.036
					c0.208-0.338,0.475-0.674,0.816-0.957c0.339-0.283,0.738-0.52,1.175-0.686c0.44-0.159,0.896-0.24,1.338-0.248
					c0.442-0.01,0.865,0.07,1.244,0.191c0.383,0.12,0.715,0.306,1.004,0.501c0.279,0.209,0.517,0.431,0.693,0.663
					c0.361,0.461,0.519,0.904,0.552,1.221C-4.049,50.833-4.116,51.02-4.236,51.062z"/>
			</g>
			<g>
				<path fill="#231F20" d="M22.588,41.096c-0.259,0.096-0.633-0.392-1.312-0.792c-0.66-0.416-1.699-0.684-2.699-0.307
					c-1.003,0.369-1.616,1.248-1.845,1.995c-0.252,0.746-0.218,1.359-0.477,1.457c-0.12,0.045-0.292-0.054-0.479-0.313
					c-0.18-0.261-0.351-0.701-0.379-1.285c-0.018-0.292,0.018-0.613,0.095-0.956c0.088-0.335,0.221-0.694,0.431-1.035
					c0.211-0.339,0.479-0.675,0.818-0.958c0.338-0.281,0.737-0.518,1.174-0.686c0.44-0.158,0.897-0.24,1.338-0.246
					c0.442-0.01,0.864,0.071,1.244,0.188c0.382,0.125,0.714,0.309,1.003,0.505c0.28,0.208,0.518,0.43,0.694,0.662
					c0.36,0.46,0.518,0.905,0.552,1.221C22.776,40.866,22.709,41.053,22.588,41.096z"/>
			</g>
		</g>
	</g>
</g>
</svg>
