<?xml version="1.0" encoding="utf-8"?>
<!-- Generator: Adobe Illustrator 16.0.4, SVG Export Plug-In . SVG Version: 6.00 Build 0)  -->
<!DOCTYPE svg PUBLIC "-//W3C//DTD SVG 1.1//EN" "http://www.w3.org/Graphics/SVG/1.1/DTD/svg11.dtd">
<svg version="1.1" id="Layer_1" xmlns="http://www.w3.org/2000/svg" xmlns:xlink="http://www.w3.org/1999/xlink" x="0px" y="0px"
	 width="306px" height="102.39px" viewBox="-102.667 -8.223 306 102.39" enable-background="new -102.667 -8.223 306 102.39"
	 xml:space="preserve">
<g>
	<path fill="#26A9E0" d="M196.98,26.339c-1.818,0-3.436,1.203-3.436,3.265c0,2.065,1.617,3.266,3.436,3.266
		c1.805,0,3.422-1.201,3.422-3.266C200.402,27.542,198.785,26.339,196.98,26.339z M196.98,32.12V32.11
		c-1.355,0.009-2.453-1.001-2.453-2.506c0-1.501,1.098-2.5,2.453-2.5c1.318,0,2.438,0.999,2.438,2.5
		C199.418,31.109,198.299,32.12,196.98,32.12z M198.502,28.904c0-0.801-0.561-1.06-1.506-1.06h-1.371v3.517h0.783v-1.479h0.371
		l0.85,1.479h0.928l-0.938-1.54C198.105,29.785,198.502,29.555,198.502,28.904z M197.1,29.286h-0.691V28.44h0.549
		c0.301,0,0.707,0.026,0.707,0.39C197.664,29.217,197.457,29.286,197.1,29.286z"/>
	<g>
		<g>
			<path fill="#26A9E0" d="M-83.399,66.275c-2.347,0-4.646-0.529-6.65-1.537c-3.373-1.691-5.615-4.545-6.154-7.83l-0.02-0.123
				c-0.073-0.458-0.113-0.913-0.117-1.354c-0.139-9.958-1.487-28.427-3.713-43.027c-0.857-5.615,3.44-10.771,9.997-11.992
				c0.162-0.03,4.304-0.799,31.133-5.38c0.873-0.146,1.74-0.219,2.589-0.219c2.602,0,5.112,0.645,7.257,1.862
				c3.028,1.72,5.051,4.459,5.547,7.517c0.081,0.48,0.152,0.913,0.282,4.016c0.056,0,0.114,0,0.172,0
				c2.453,0,5.219,0.018,8.226,0.05c3.541,0.037,6.932,1.301,9.324,3.472l0.307,0.023c1.669-4.106,6.148-7.055,11.497-7.307
				c2.353-0.111,7.799-0.228,16.633-0.356c2.019-3.049,5.746-5.167,9.937-5.54c1.896-0.168,4.409-0.25,7.688-0.25h0.798
				c4.148,0,6.296-0.168,7.368-0.307c0.463-0.058,0.915-0.095,1.354-0.114c1.632-1.027,3.547-1.717,5.588-2.006
				c10.768-1.529,18.667-2.272,24.149-2.272c7.512,0,13.473,1.086,18.221,3.321c6.439,3.029,10.371,8.08,11.074,14.223
				c0.043,0.336,0.064,0.694,0.064,1.054c0,1.366-0.113,2.717-0.332,4.041c0.971,0.099,1.922,0.224,2.857,0.375
				c-0.033-0.273-0.064-0.55-0.1-0.83c-0.68-5.677,4.025-10.864,10.707-11.805C113.678,2.377,122,1.542,127.729,1.426
				c0.65-0.011,1.242-0.018,1.816-0.018c6.996,0,12.867,0.947,17.482,2.819c0.207-0.112,0.416-0.221,0.625-0.328
				c6.471-3.323,14.125-5.009,22.75-5.009c1.16,0,2.365,0.031,3.584,0.091c2.682,0.139,5.488,0.43,8.352,0.861
				c6.766,1.021,11.385,6.319,10.52,12.062c-0.416,2.765-0.998,6.987-1.682,12.208c-0.24,1.808-1.02,3.534-2.236,5.01
				c0.113,0.231,0.217,0.463,0.318,0.694c0.969,2.213,1.391,4.525,1.258,6.875c-0.447,7.678-6.336,14.1-17.502,19.094
				c-6.113,2.763-12.33,4.665-18.465,5.645c-0.816,0.127-1.635,0.19-2.436,0.19c-5.854,0-10.988-3.315-12.484-8.062
				c-0.488-1.552-1.102-3.58-1.834-6.055c0.211,4.936-3.52,9.351-9.139,10.785c-2.371,0.608-8.197,1.848-17.809,3.795
				c-0.994,0.203-2.023,0.305-3.051,0.305c-2.129,0-4.26-0.455-6.137-1.299c-1.48,0.736-3.045,1.402-4.672,1.979
				c-5.049,1.808-10.311,2.722-15.639,2.722c-7.533,0-14.383-1.525-20.375-4.533c-0.465,0.182-0.938,0.34-1.422,0.471l-0.023,0.008
				c-0.85,0.233-3.432,0.939-16.77,3.801c-1.056,0.225-2.138,0.338-3.221,0.338c-2.746,0-5.474-0.75-7.682-2.115
				c-2.61-1.611-4.381-4.003-4.999-6.65C6.899,58.72,6.68,58.72,5.905,58.72c-2.945,0-5.76-0.824-8.035-2.336
				c-6.047,0.365-10.232,0.65-12.127,0.833c-0.476,0.042-0.969,0.066-1.466,0.066c-0.238,0-0.477-0.005-0.716-0.016
				c-2.155,1.701-4.695,3.113-7.563,4.214c-4.293,1.658-8.958,2.5-13.859,2.5c-1.495,0-3.037-0.082-4.585-0.242
				c-6.104-0.631-11.283-2.354-15.438-5.125c-1.459,1.26-3.281,2.211-5.309,2.759l-16.233,4.38
				C-80.722,66.1-82.058,66.275-83.399,66.275z"/>
		</g>
	</g>
	
		<path fill="#262261" stroke="#262261" stroke-width="6.9705" stroke-linecap="round" stroke-linejoin="round" stroke-miterlimit="10" d="
		M-86.016,11.52c2.415,15.82,3.688,34.83,3.818,44.305l0.018,0.1l16.232-4.38c-0.83-6.13-1.346-16.606-1.547-18.686l11.411-2.498
		l-0.585-8.645c-3.831,0.878-8,1.69-12.51,2.431l-0.731-4.477c0.92-0.289,2.104-0.556,3.551-0.794
		c4.509-0.739,8.412-1.06,11.712-0.961c-0.216-7.25-0.372-11.157-0.467-11.734C-82.109,10.79-86.016,11.52-86.016,11.52z
		 M-30.894,22.88c-0.234,1.456-0.514,3.521-0.841,6.186c-0.326,2.665-0.582,4.573-0.768,5.728c-0.483,3.004-1.114,5.47-1.892,7.397
		c-0.45,1.155-1.043,2.105-1.778,2.846c-0.734,0.746-1.391,1.084-1.967,1.026c-1.037-0.11-1.405-1.382-1.101-3.816
		c3.461-14.05,5.274-21.592,5.441-22.624c-7.313-0.079-12.811-0.06-16.49,0.052l-2.34,15.08c-0.49,3.226-0.668,5.799-0.54,7.728
		c0.239,2.895,1.156,5.121,2.75,6.673c2.46,2.386,6.054,3.823,10.781,4.315c4.18,0.431,8.003-0.022,11.475-1.361
		c3.809-1.455,6.295-3.716,7.462-6.779c2.182-5.733,4.109-12.898,5.787-21.491l-15.854-1.179L-30.894,22.88z M21.757,9.667
		c-2.787,0-4.893,0.062-6.319,0.19l-1.436,21.395c-0.035,0.096-1.378-4.966-3.14-15.887c-12.371,0.162-19.916,0.305-22.635,0.431
		l-0.25,2.876c0,8.625-0.824,18.041-2.479,28.26c2.351-0.224,7.586-0.574,15.699-1.054l0.83-15.176
		c0.83,3.833,5.09,17.667,5.09,17.667c0,0.032,21.108-1.67,21.108-1.67c0-8.557,1.225-21.042,3.679-37.464
		c-2.222,0.29-5.34,0.433-9.351,0.433H21.757z M167.787,22.717c1.98-0.206,3.643-0.276,4.986-0.206
		c2.143,0.11,4.398,0.414,6.777,0.909c0.719-5.481,1.289-9.611,1.707-12.38c-2.387-0.362-4.666-0.599-6.844-0.709
		c-7.441-0.382-13.695,0.731-18.77,3.334c-4.203,2.171-6.412,5.025-6.617,8.56c-0.139,2.342,0.9,4.511,3.113,6.496
		c1.211,1.084,3.311,2.468,6.301,4.156c2.25,1.305,3.363,2.232,3.336,2.774c-0.076,1.221-1.857,2.207-5.361,2.948
		c-1.984,0.409-4.182,0.689-6.588,0.838c1.514,5.259,2.684,9.203,3.514,11.834c4.854-0.774,9.787-2.292,14.797-4.561
		c6.914-3.095,10.482-6.436,10.688-10.036c0.053-0.886-0.113-1.765-0.5-2.635c-0.797-1.917-3.039-3.751-6.729-5.506
		c-1.455-0.654-2.893-1.29-4.314-1.908c-2.371-1.177-3.539-2.039-3.506-2.582C163.809,23.431,165.152,22.99,167.787,22.717z
		 M129.262,12.792c-5.07,0.104-12.943,0.908-23.602,2.409c1.016,8.54,1.664,14.157,1.938,16.854
		c0.514,5.682,1.264,13.811,1.422,19.988c9.338-1.893,15.033-3.105,17.078-3.63l-0.68-10.69c14.754-4.35,22.008-10.43,21.764-18.246
		C146.393,14.794,140.418,12.566,129.262,12.792z M125.555,30.766c-0.174-5.555-0.34-8.74-0.51-10.459
		c0.941-0.263,1.891-0.398,2.842-0.419c1.789-0.036,3.301,0.365,4.529,1.2c1.234,0.838,1.867,1.955,1.918,3.343
		C134.424,27.487,127.76,30.281,125.555,30.766z M75.855,11.429c-0.594-5.157-6.072-7.736-16.436-7.736
		c-4.709,0-12.036,0.707-21.979,2.119c0.7,9.401,1.135,15.584,1.311,18.553c0.314,6.253,0.453,23.104,0.417,29.889
		c8.722-1.873,14.04-3.079,15.959-3.604V30.987C68.947,26.539,75.855,20.019,75.855,11.429z M55.445,23.405
		c0-6.108-0.053-9.661-0.156-11.556c0.881-0.265,1.766-0.394,2.65-0.394c1.66,0,3.051,0.473,4.168,1.419
		c1.119,0.947,1.678,2.186,1.678,3.712C63.785,19.943,57.504,22.92,55.445,23.405z M96.678,29.575
		c-3.373-1.5-7.508-2.252-12.391-2.252c-5.732,0-10.873,1.283-15.426,3.846c-5.125,2.856-7.689,6.482-7.689,10.884
		c0,4.185,2.336,7.533,7.01,10.052c4.133,2.226,8.928,3.334,14.387,3.334c3.588,0,7.109-0.615,10.561-1.849
		c3.455-1.231,6.27-2.903,8.438-5.007c2.416-2.392,3.623-5.016,3.623-7.874c0-1.085-0.227-2.211-0.68-3.372
		C103.152,33.877,100.543,31.289,96.678,29.575z M88.287,45.816c-1.311,1.601-3.074,2.403-5.293,2.403
		c-1.678,0-3.072-0.535-4.182-1.604c-1.25-1.174-1.879-2.778-1.879-4.805c0-2.1,0.783-3.913,2.35-5.446
		c1.451-1.423,3.043-2.136,4.779-2.136c1.932,0,3.438,0.657,4.523,1.977c0.992,1.213,1.49,2.704,1.49,4.483
		C90.076,42.682,89.48,44.392,88.287,45.816z"/>
	
		<path fill="#262261" stroke="#262261" stroke-width="6.9705" stroke-linecap="round" stroke-linejoin="round" stroke-miterlimit="10" d="
		M20.535,9.159c-2.784,0-4.889,0.063-6.315,0.189l-1.44,21.396c-0.032,0.097-1.375-4.967-3.138-15.887
		c-12.369,0.161-19.916,0.302-22.635,0.432l-0.25,2.875c0,8.624-0.825,18.038-2.479,28.258c2.351-0.224,7.587-0.572,15.702-1.052
		l0.828-15.176c0.832,3.833,5.091,17.666,5.091,17.666c0,0.033,21.105-1.666,21.105-1.666c0-8.561,1.228-21.045,3.68-37.466
		c-2.222,0.287-5.338,0.432-9.351,0.432H20.535z M-87.235,11.009c2.412,15.82,3.687,34.833,3.82,44.305l0.014,0.103l16.235-4.381
		c-0.83-6.132-1.345-16.606-1.548-18.685l11.412-2.498l-0.585-8.646c-3.831,0.881-8.001,1.689-12.51,2.431l-0.732-4.476
		c0.921-0.291,2.103-0.555,3.552-0.792c4.509-0.74,8.413-1.06,11.712-0.961c-0.217-7.25-0.373-11.162-0.468-11.735
		C-83.33,10.283-87.235,11.009-87.235,11.009z M-32.114,22.37c-0.233,1.459-0.514,3.519-0.839,6.189
		c-0.326,2.665-0.583,4.572-0.77,5.726c-0.482,3.006-1.112,5.473-1.893,7.399c-0.449,1.159-1.042,2.104-1.776,2.846
		c-0.736,0.741-1.392,1.083-1.968,1.023c-1.037-0.108-1.403-1.379-1.099-3.815c3.46-14.047,5.274-21.59,5.441-22.622
		c-7.315-0.081-12.812-0.062-16.493,0.052l-2.338,15.082c-0.49,3.223-0.67,5.795-0.54,7.725c0.239,2.896,1.155,5.117,2.751,6.671
		c2.458,2.39,6.051,3.826,10.779,4.314c4.179,0.433,8.002-0.017,11.47-1.355c3.811-1.459,6.299-3.721,7.465-6.782
		c2.182-5.735,4.112-12.896,5.787-21.491l-15.855-1.18L-32.114,22.37z M166.566,22.207c1.98-0.205,3.643-0.275,4.986-0.205
		c2.143,0.108,4.402,0.412,6.777,0.909c0.723-5.48,1.289-9.61,1.707-12.384c-2.383-0.356-4.664-0.593-6.842-0.703
		c-7.441-0.383-13.701,0.729-18.77,3.333c-4.205,2.17-6.414,5.023-6.621,8.554c-0.133,2.35,0.902,4.515,3.115,6.499
		c1.211,1.087,3.309,2.471,6.307,4.156c2.244,1.308,3.357,2.233,3.326,2.779c-0.07,1.219-1.854,2.204-5.354,2.943
		c-1.986,0.41-4.188,0.689-6.592,0.842c1.514,5.257,2.682,9.202,3.514,11.835c4.852-0.776,9.781-2.297,14.799-4.559
		c6.918-3.094,10.48-6.438,10.689-10.044c0.049-0.883-0.115-1.758-0.504-2.629c-0.799-1.917-3.041-3.754-6.727-5.506
		c-1.453-0.654-2.896-1.29-4.316-1.908c-2.369-1.176-3.541-2.041-3.51-2.581C162.59,22.922,163.928,22.479,166.566,22.207z
		 M95.461,29.062c-3.377-1.497-7.512-2.246-12.395-2.246c-5.729,0-10.873,1.281-15.424,3.844c-5.131,2.853-7.688,6.48-7.688,10.885
		c0,4.185,2.334,7.536,7.006,10.05c4.133,2.224,8.928,3.338,14.389,3.338c3.586,0,7.107-0.62,10.559-1.852
		c3.455-1.232,6.268-2.904,8.438-5.007c2.414-2.395,3.623-5.021,3.623-7.871c0-1.09-0.227-2.214-0.678-3.378
		C101.93,33.369,99.324,30.783,95.461,29.062z M87.064,45.305c-1.307,1.606-3.072,2.406-5.289,2.406
		c-1.682,0-3.072-0.535-4.186-1.604c-1.252-1.174-1.871-2.777-1.871-4.805c0-2.101,0.781-3.92,2.346-5.448
		c1.447-1.423,3.041-2.132,4.777-2.132c1.934,0,3.441,0.654,4.52,1.975c0.998,1.21,1.494,2.705,1.494,4.482
		C88.855,42.175,88.26,43.882,87.064,45.305z M77.82,13.477c-0.594-5.16-6.072-7.738-16.436-7.738
		c-4.711,0-12.037,0.706-21.979,2.118c0.697,9.399,1.136,15.582,1.311,18.551c0.313,6.256,0.453,23.105,0.417,29.888
		c8.719-1.87,14.039-3.074,15.961-3.602V33.032C70.91,28.581,77.82,22.063,77.82,13.477z M57.408,25.45
		c0-6.106-0.051-9.661-0.156-11.556c0.883-0.266,1.768-0.394,2.652-0.394c1.662,0,3.053,0.473,4.168,1.42
		c1.119,0.948,1.676,2.185,1.676,3.712C65.748,21.989,59.469,24.963,57.408,25.45z M128.041,12.284
		c-5.068,0.103-12.941,0.907-23.602,2.405c1.021,8.543,1.668,14.159,1.939,16.857c0.514,5.682,1.266,13.81,1.418,19.985
		c9.342-1.892,15.035-3.103,17.08-3.627l-0.676-10.689c14.75-4.351,22-10.433,21.758-18.25
		C145.17,14.284,139.199,12.057,128.041,12.284z M124.338,30.254c-0.176-5.552-0.344-8.736-0.512-10.457
		c0.941-0.26,1.889-0.401,2.84-0.417c1.791-0.037,3.299,0.364,4.529,1.201s1.867,1.952,1.914,3.341
		C133.201,26.979,126.539,29.774,124.338,30.254z"/>
	<path fill="#F6921E" d="M-32.114,22.37c-0.233,1.459-0.514,3.519-0.839,6.189c-0.326,2.665-0.583,4.572-0.77,5.726
		c-0.482,3.006-1.112,5.473-1.893,7.399c-0.449,1.159-1.042,2.104-1.776,2.846c-0.736,0.741-1.392,1.083-1.968,1.023
		c-1.037-0.108-1.403-1.379-1.099-3.815c3.46-14.047,5.274-21.59,5.441-22.622c-7.315-0.081-12.812-0.062-16.493,0.052
		l-2.338,15.082c-0.49,3.223-0.67,5.795-0.54,7.725c0.239,2.896,1.155,5.117,2.751,6.671c2.458,2.39,6.051,3.826,10.779,4.314
		c4.179,0.433,8.002-0.017,11.47-1.355c3.811-1.459,6.299-3.721,7.465-6.782c2.182-5.735,4.112-12.896,5.787-21.491l-15.855-1.18
		L-32.114,22.37z"/>
	<path fill="#FFFFFF" d="M-48.956,21.355c1.943-0.039,4.276-0.061,6.94-0.061c1.517,0,3.179,0.009,4.95,0.02h0.098l0.024-0.096
		c0.07-0.303,0.136-0.594,0.191-0.841l0.032-0.146h-0.149c-2.278-0.023-4.364-0.034-6.208-0.034c-2.744,0-5.114,0.023-7.051,0.067
		l-0.101,0.004l-2.188,14.116c-0.477,3.141-0.655,5.67-0.533,7.516c0.217,2.644,1.036,4.676,2.432,6.035
		c0.37,0.357,0.805,0.71,1.332,1.088l1.584,1.125l-1.431-1.317c-0.038-0.034-0.08-0.067-0.122-0.106
		c-0.045-0.035-0.089-0.073-0.131-0.112c-1.352-1.319-2.143-3.295-2.356-5.88c-0.125-1.825,0.053-4.335,0.527-7.464L-48.956,21.355z
		 M-30.702,23.383l-0.114-0.008l-0.018,0.113c-0.197,1.342-0.429,3.082-0.684,5.178c-0.321,2.633-0.581,4.572-0.773,5.757
		c-0.49,3.058-1.144,5.607-1.943,7.591c-0.501,1.284-1.181,2.365-2.021,3.21c-0.978,0.988-1.949,1.47-2.975,1.47
		c-0.107,0-0.212-0.004-0.318-0.018c-0.312-0.033-0.595-0.101-0.867-0.216l-0.381-0.162l0.234,0.346
		c0.45,0.652,1.14,1.037,2.051,1.127c0.114,0.013,0.228,0.016,0.343,0.016c1.093,0,2.124-0.501,3.15-1.54
		c0.861-0.87,1.557-1.975,2.07-3.293c0.805-1.991,1.464-4.562,1.959-7.638c0.186-1.169,0.448-3.108,0.773-5.771
		c0.243-1.984,0.466-3.688,0.667-5.056l11.436,0.85l0.106,0.009l0.091-0.433c0.031-0.141,0.061-0.29,0.091-0.434l0.028-0.137
		L-30.702,23.383z"/>
	<path fill="#FFDD00" d="M20.535,9.159c-2.784,0-4.889,0.063-6.315,0.189l-1.44,21.396c-0.032,0.097-1.375-4.967-3.138-15.887
		c-12.369,0.161-19.916,0.302-22.635,0.432l-0.25,2.875c0,8.624-0.825,18.038-2.479,28.258c2.351-0.224,7.587-0.572,15.702-1.052
		l0.828-15.176c0.832,3.833,5.091,17.666,5.091,17.666c0,0.033,21.105-1.666,21.105-1.666c0-8.561,1.228-21.045,3.68-37.466
		c-2.222,0.287-5.338,0.432-9.351,0.432H20.535z"/>
	<g>
		<path fill="#FFFFFF" d="M28.885,10.05c-2.033,0.16-4.573,0.241-7.551,0.241h-0.798c-1.937,0-3.562,0.031-4.833,0.096l-0.109,0.006
			l-1.379,20.532l-0.334,0.955h-1.102c-0.129,0-0.253-0.011-0.388-0.036l-0.226-0.039l0.093,0.208
			c0.299,0.665,0.786,0.958,1.584,0.958h1.274l0.397-1.132l1.373-20.363c1.255-0.058,2.842-0.089,4.713-0.089h0.797
			c2.409,0,4.551-0.055,6.373-0.159l0.098-0.007l0.171-1.182L28.885,10.05z"/>
		<path fill="#FFFFFF" d="M8.269,16.007C-1.833,16.142-8.31,16.26-11.533,16.368l-0.106,0.005l-0.159,1.833
			c-0.004,8.17-0.758,17.179-2.242,26.782l-0.022,0.155l0.466-0.039c0.28-0.018,0.576-0.041,0.884-0.064l0.098-0.005l0.015-0.098
			c1.396-9.295,2.103-18,2.104-25.869l0.14-1.609c3.236-0.106,9.379-0.215,18.77-0.343l0.143-0.003l-0.186-1.106H8.269z"/>
		<path fill="#FFFFFF" d="M3.53,30.803l-0.022-0.101l-1.101,0.055l0.036,0.142c0.963,3.895,3.718,12.962,4.538,15.651l0.028,0.094
			l0.097-0.009c0.233-0.017,0.501-0.038,0.786-0.059l0.152-0.016L8,46.416C6.867,42.687,4.158,33.695,3.53,30.803z"/>
	</g>
	<path fill="#EB0029" d="M-87.235,11.009c2.412,15.82,3.687,34.833,3.82,44.305l0.014,0.103l16.235-4.381
		c-0.83-6.132-1.345-16.606-1.548-18.685l11.412-2.498l-0.585-8.646c-3.831,0.881-8.001,1.689-12.51,2.431l-0.732-4.476
		c0.921-0.291,2.103-0.555,3.552-0.792c4.509-0.74,8.413-1.06,11.712-0.961c-0.217-7.25-0.373-11.162-0.468-11.735
		C-83.33,10.283-87.235,11.009-87.235,11.009z"/>
	<path fill="#FFFFFF" d="M-59.372,22.718c-3.315,0.72-6.928,1.404-10.732,2.03l-0.87,0.141l0.204,1.24l1.766-0.291
		c3.365-0.553,6.647-1.167,9.756-1.824l0.104-0.023l-0.089-1.304L-59.372,22.718z M-57.623,8.226
		c-0.017-0.383-0.034-0.716-0.046-0.992l-0.009-0.172l-0.134,0.024c-17.96,3.068-25.078,4.31-27.722,4.782l-0.117,0.023l0.018,0.116
		c2.156,14.604,3.393,31.842,3.626,41.677l0.004,0.158l1.274-0.349l-0.002-0.096c-0.3-10.071-1.522-26.469-3.582-40.461
		c2.726-0.481,9.75-1.708,26.588-4.584l0.105-0.019L-57.623,8.226z"/>
	<path fill="#EB0029" d="M166.566,22.207c1.98-0.205,3.643-0.275,4.986-0.205c2.143,0.108,4.402,0.412,6.777,0.909
		c0.723-5.48,1.289-9.61,1.707-12.384c-2.383-0.356-4.664-0.593-6.842-0.703c-7.441-0.383-13.701,0.729-18.77,3.333
		c-4.205,2.17-6.414,5.023-6.621,8.554c-0.133,2.35,0.902,4.515,3.115,6.499c1.211,1.087,3.309,2.471,6.307,4.156
		c2.244,1.308,3.357,2.233,3.326,2.779c-0.07,1.219-1.854,2.204-5.354,2.943c-1.986,0.41-4.188,0.689-6.592,0.842
		c1.514,5.257,2.682,9.202,3.514,11.835c4.852-0.776,9.781-2.297,14.799-4.559c6.918-3.094,10.48-6.438,10.689-10.044
		c0.049-0.883-0.115-1.758-0.504-2.629c-0.799-1.917-3.041-3.754-6.727-5.506c-1.453-0.654-2.896-1.29-4.316-1.908
		c-2.369-1.176-3.541-2.041-3.51-2.581C162.59,22.922,163.928,22.479,166.566,22.207z"/>
	<g>
		<path fill="#FFFFFF" d="M178.322,11.44c-1.795-0.239-3.555-0.4-5.221-0.487c-0.918-0.048-1.828-0.07-2.699-0.07
			c-5.914,0-11.023,1.083-15.186,3.221c-3.832,1.976-5.783,4.484-5.965,7.66c-0.127,2.062,0.775,3.925,2.754,5.702
			c0.139,0.123,0.293,0.252,0.461,0.392l-0.057-0.019l0.652,0.479l0.578,0.422l-0.182-0.278l0.416,0.144l-0.631-0.461l-0.035-0.027
			c-1.902-1.715-2.771-3.511-2.654-5.487c0.176-3.084,2.088-5.525,5.836-7.456c4.125-2.124,9.195-3.196,15.068-3.196
			c0.877,0,1.779,0.025,2.691,0.07c1.164,0.059,2.484,0.173,4.045,0.354l0.115,0.016l0.016-0.121c0.031-0.245,0.07-0.489,0.102-0.72
			l0.016-0.122L178.322,11.44z M161.266,33.358l-1.416-1.002l1.258,1.192c0.635,0.599,0.918,1.124,0.887,1.65
			c-0.154,2.656-4.875,3.657-6.434,3.989c-1.551,0.319-3.24,0.562-5.037,0.73l-0.146,0.013l0.041,0.141
			c1.078,3.745,2,6.853,2.738,9.24l0.027,0.104l0.109-0.016c0.141-0.026,0.287-0.063,0.432-0.093
			c0.111-0.02,0.213-0.046,0.324-0.067l0.133-0.025l-0.041-0.129c-0.654-2.149-1.457-4.87-2.387-8.084
			c1.746-0.167,3.4-0.41,4.922-0.728c1.598-0.334,6.457-1.365,6.625-4.216C163.352,35.213,162.742,34.407,161.266,33.358z"/>
	</g>
	<path fill="#00ADEE" d="M103.291,36.825c-1.361-3.456-3.967-6.042-7.83-7.763c-3.377-1.497-7.512-2.246-12.395-2.246
		c-5.729,0-10.873,1.281-15.424,3.844c-5.131,2.853-7.688,6.48-7.688,10.885c0,4.185,2.334,7.536,7.006,10.05
		c4.133,2.224,8.928,3.338,14.389,3.338c3.586,0,7.107-0.62,10.559-1.852c3.455-1.232,6.268-2.904,8.438-5.007
		c2.414-2.395,3.623-5.021,3.623-7.871C103.969,39.113,103.742,37.989,103.291,36.825z M87.064,45.305
		c-1.307,1.606-3.072,2.406-5.289,2.406c-1.682,0-3.072-0.535-4.186-1.604c-1.252-1.174-1.871-2.777-1.871-4.805
		c0-2.101,0.781-3.92,2.346-5.448c1.447-1.423,3.041-2.132,4.777-2.132c1.934,0,3.441,0.654,4.52,1.975
		c0.998,1.21,1.494,2.705,1.494,4.482C88.855,42.175,88.26,43.882,87.064,45.305z"/>
	<g>
		<path fill="#FFFFFF" stroke="#FFFFFF" stroke-width="0.2443" stroke-miterlimit="20" d="M62.578,42.394
			c0-4.002,2.297-7.222,7.016-9.853c4.271-2.4,9.16-3.616,14.531-3.616c4.598,0,8.514,0.702,11.641,2.092
			c1.062,0.47,2.004,1.018,2.854,1.631c-1.088-0.971-2.383-1.803-3.916-2.484c-3.127-1.389-7.045-2.094-11.637-2.094
			c-5.373,0-10.262,1.217-14.531,3.62c-4.723,2.63-7.02,5.855-7.02,9.854c0,3.109,1.41,5.654,4.285,7.739
			C63.643,47.369,62.578,45.094,62.578,42.394z"/>
		<path fill="#FFFFFF" stroke="#FFFFFF" stroke-width="0.2443" stroke-miterlimit="20" d="M82.838,49.816
			c2.73,0,5.014-1.024,6.598-2.971c1.355-1.614,2.049-3.577,2.049-5.817c0-2.02-0.59-3.76-1.752-5.174
			c-0.438-0.536-0.955-0.982-1.527-1.351c0.164,0.159,0.32,0.321,0.465,0.5c1.16,1.412,1.75,3.155,1.75,5.174
			c0,2.242-0.688,4.2-2.047,5.817c-1.584,1.94-3.867,2.97-6.598,2.97c-1.66,0-3.115-0.414-4.336-1.218
			c0.008,0.008,0.016,0.018,0.025,0.026C78.869,49.125,80.682,49.816,82.838,49.816z"/>
	</g>
	<path fill="#BC1A8C" d="M145.959,18.965c-0.789-4.681-6.76-6.908-17.918-6.682c-5.068,0.103-12.941,0.907-23.602,2.405
		c1.021,8.543,1.668,14.159,1.939,16.857c0.514,5.682,1.266,13.81,1.418,19.985c9.342-1.892,15.035-3.103,17.08-3.627l-0.676-10.689
		C138.951,32.864,146.201,26.782,145.959,18.965z M124.338,30.254c-0.176-5.552-0.344-8.736-0.512-10.457
		c0.941-0.26,1.889-0.401,2.84-0.417c1.791-0.037,3.299,0.364,4.529,1.201s1.867,1.952,1.914,3.341
		C133.201,26.979,126.539,29.774,124.338,30.254z"/>
	<g>
		<path fill="#FFFFFF" d="M143.24,16.643c-2.113-2.153-6.719-3.242-13.695-3.242c-0.482,0-0.971,0.004-1.469,0.013
			c-4.736,0.096-12.125,0.836-21.957,2.195L106,15.625l0.016,0.115c0.93,7.841,1.537,13.129,1.801,15.724l0.045,0.514
			c0.469,5.145,1.111,12.196,1.332,17.954l0.004,0.141l1.258-0.253l-0.006-0.104c-0.252-5.564-0.852-12.151-1.289-16.965
			l-0.043-0.458c-0.25-2.502-0.82-7.463-1.789-15.607c9.771-1.348,17.109-2.081,21.814-2.174c0.496-0.011,0.984-0.016,1.463-0.016
			c5.906,0,10.107,0.786,12.48,2.334l0.941,0.616L143.24,16.643z M133.338,20.373c-0.025-0.017-0.055-0.035-0.09-0.054l-0.936-0.575
			l0.746,0.743c0.949,0.94,1.451,2.087,1.492,3.408c0.125,3.992-7.625,6.967-9.83,7.453l-0.996,0.221l0.041,1.322l2.07-0.456
			c2.248-0.49,10.152-3.547,10.018-7.697C135.799,22.941,134.955,21.473,133.338,20.373z"/>
	</g>
	<path fill="#8BC53F" d="M59.793,4.459c-4.711,0-12.037,0.71-21.98,2.123c0.698,9.397,1.135,15.581,1.311,18.55
		c0.312,6.252,0.454,23.103,0.416,29.89c8.724-1.874,14.041-3.077,15.961-3.606V31.756c13.82-4.451,20.73-10.97,20.73-19.557
		C75.635,7.039,70.156,4.459,59.793,4.459z M55.814,24.172c0-6.107-0.049-9.663-0.152-11.555c0.881-0.265,1.766-0.396,2.648-0.396
		c1.662,0,3.055,0.478,4.17,1.423c1.119,0.945,1.678,2.181,1.678,3.708C64.158,20.714,57.875,23.686,55.814,24.172z"/>
	<g>
		<path fill="#FFFFFF" d="M65.371,13.444c-0.631-0.534-1.361-0.963-2.166-1.281l-1.854-0.729l1.621,1.156
			c0.168,0.117,0.33,0.24,0.486,0.375c1.34,1.135,2.02,2.613,2.02,4.386c0,2.229-2.105,4.093-3.871,5.267
			c-2.02,1.336-4.375,2.281-5.406,2.523l-0.416,0.096l-0.189,0.045v1.728l0.303-0.07l2.008-0.472
			c0.99-0.231,3.381-1.142,5.562-2.591c1.867-1.236,4.09-3.226,4.09-5.672C67.559,16.279,66.824,14.675,65.371,13.444z M72.26,7.97
			c-2.48-1.655-6.676-2.496-12.467-2.496c-4.383,0-11.233,0.642-20.366,1.909l-0.228,0.029l0.019,0.229
			c0.656,8.885,1.059,14.595,1.229,17.453c0.288,5.762,0.432,20.381,0.423,28.282l-0.002,0.304l0.296-0.062l0.961-0.206l0.63-0.136
			l0.194-0.042v-0.199c-0.005-7.651-0.145-21.561-0.423-27.115c-0.164-2.778-0.56-8.417-1.209-17.23
			c8.977-1.247,15.727-1.874,20.068-1.874c4.596,0,8.178,0.531,10.641,1.582l2.414,1.029L72.26,7.97z"/>
	</g>
	<path fill="#FFFFFF" d="M26.226,38.28c2.46-3.043,1.864-5.23-2.117-7.756c3.98,2.526,6.512,2.322,8.971-0.718
		c-2.459,3.04-1.864,5.228,2.118,7.756C31.216,35.033,28.686,35.236,26.226,38.28z"/>
	<path fill="#FFFFFF" d="M-54.43,23.375c1.298-3.688,0-5.546-4.596-6.583c4.596,1.038,6.913-0.003,8.209-3.689
		c-1.296,3.687,0,5.547,4.596,6.59C-50.817,18.648-53.132,19.687-54.43,23.375z"/>
	<path fill="#FFFFFF" d="M71.607,28.361c2.309-3.155,1.605-5.308-2.494-7.631c4.1,2.324,6.615,1.997,8.928-1.158
		c-2.312,3.155-1.607,5.31,2.49,7.638C76.434,24.881,73.916,25.206,71.607,28.361z"/>
	<path fill="#FFFFFF" d="M101.771,52.06c0.979-2.771,0.002-4.169-3.451-4.951c3.453,0.782,5.197-0.001,6.17-2.773
		c-0.973,2.772,0,4.168,3.455,4.952C104.49,48.504,102.75,49.288,101.771,52.06z"/>
	<path fill="#FFFFFF" d="M-15.914,24.876c-0.308-2.922-1.788-3.765-5.245-2.989c3.457-0.776,4.696-2.228,4.389-5.149
		c0.307,2.922,1.785,3.766,5.241,2.993C-14.984,20.504-16.222,21.954-15.914,24.876z"/>
	<path fill="#FFFFFF" d="M102.982,22.107c1.873-5.325,0-8.007-6.635-9.507c6.635,1.5,9.977,0,11.846-5.326
		c-1.869,5.325,0,8.006,6.635,9.508C108.193,15.281,104.855,16.783,102.982,22.107z"/>
	<path fill="#FFFFFF" d="M-90.93,16.982c2.808-4.192,1.786-6.933-3.626-9.714c5.413,2.781,8.642,2.227,11.446-1.966
		c-2.804,4.193-1.782,6.933,3.632,9.711C-84.893,12.234-88.122,12.79-90.93,16.982z"/>
	<path fill="#FFFFFF" d="M175.811,43.09c1.385-3.943,0-5.929-4.914-7.044c4.914,1.115,7.389,0.004,8.777-3.939
		c-1.389,3.943-0.002,5.93,4.91,7.041C179.672,38.036,177.195,39.147,175.811,43.09z"/>
</g>
<g>
	<path fill="#26A9E0" d="M-83.218,73.612c0.08,3.917,0.064,7.414-0.046,10.494c-0.111,3.079-0.3,5.772-0.567,8.082l0.001,0.05
		l8.147-1.062c-0.02-3-0.003-5.019,0.05-6.054l5.689-0.465l0.278-4.21c-0.964,0.096-1.962,0.17-2.995,0.225
		c-1.033,0.055-2.106,0.099-3.223,0.131l-0.064-2.199c0.232-0.04,0.494-0.072,0.785-0.098c0.291-0.024,0.62-0.043,0.987-0.054
		c2.232-0.064,4.144,0.03,5.735,0.284c0.183-1.772,0.317-3.131,0.407-4.075c0.089-0.944,0.132-1.484,0.128-1.618
		c-6.68,0.228-11.297,0.39-13.854,0.488C-84.314,73.632-84.8,73.658-83.218,73.612z"/>
	<path fill="#26A9E0" d="M-54.242,83.579c2.784-1.715,4.157-3.279,4.116-4.696c-0.029-0.999-1.116-1.685-3.261-2.057
		c-1.24-0.214-2.66-0.298-4.259-0.252c-2.765,0.08-5.927,0.581-9.485,1.5c0.038,2.483,0.041,4.855,0.005,7.115
		c-0.034,2.261-0.113,4.451-0.235,6.572l6.71-0.619c-0.045-1.565-0.078-2.812-0.096-3.736c-0.019-0.925-0.023-1.529-0.015-1.813
		c0.444,0.354,0.922,0.754,1.436,1.197c0.513,0.444,1.06,0.924,1.643,1.44c0.496,0.453,0.989,0.905,1.478,1.357
		c0.488,0.453,0.98,0.914,1.478,1.384c2.394-2.537,4.393-4.346,5.996-5.426c-0.708-0.297-1.515-0.61-2.416-0.943
		C-52.051,84.27-53.082,83.93-54.242,83.579z M-60.896,83.571l0.077-3.403l0.024-0.025c1.383-0.04,2.312,0.383,2.788,1.27
		C-57.977,82.429-58.94,83.148-60.896,83.571z"/>
	<path fill="#26A9E0" d="M-41.475,82.284c-0.205-0.145-0.216-0.561-0.036-1.249c1.25-0.036,2.483-0.03,3.702,0.018
		s2.43,0.138,3.634,0.27l0.024-0.051c0.006-0.95,0.007-1.775,0.003-2.476c-0.003-0.7-0.012-1.283-0.025-1.75
		c-2.95,0.019-5.518,0.047-7.7,0.085c-2.184,0.038-4.009,0.079-5.474,0.121c0.088,3.032,0.115,5.695,0.081,7.988
		c-0.034,2.294-0.136,4.252-0.305,5.874l12.804-0.921c0.219-1.073,0.394-1.941,0.525-2.604c0.131-0.662,0.208-1.136,0.234-1.42
		c-2.49,0.372-4.494,0.58-6.009,0.624c-0.767,0.022-1.284-0.013-1.554-0.105l-0.032-1.099c4.217-0.022,6.735-0.045,7.551-0.068
		c0.035-1.068,0.062-1.891,0.079-2.466c0.017-0.576,0.023-0.905,0.021-0.989L-41.475,82.284z"/>
	<path fill="#26A9E0" d="M-26.307,81.846c-0.205-0.145-0.216-0.561-0.036-1.25c1.25-0.036,2.483-0.029,3.702,0.019
		s2.43,0.138,3.634,0.27l0.024-0.051c0.006-0.95,0.007-1.775,0.003-2.476c-0.003-0.701-0.012-1.283-0.025-1.75
		c-2.95,0.019-5.518,0.047-7.7,0.085c-2.184,0.038-4.009,0.078-5.474,0.121c0.088,3.032,0.115,5.694,0.081,7.988
		c-0.034,2.294-0.136,4.252-0.305,5.873l12.804-0.92c0.219-1.073,0.394-1.941,0.525-2.604c0.131-0.662,0.208-1.136,0.234-1.42
		c-2.49,0.372-4.494,0.58-6.009,0.624c-0.767,0.022-1.284-0.014-1.554-0.105l-0.032-1.1c4.217-0.021,6.735-0.045,7.551-0.068
		c0.035-1.067,0.062-1.891,0.079-2.466c0.017-0.576,0.023-0.905,0.021-0.988L-26.307,81.846z"/>
	<path fill="#26A9E0" d="M-6.048,74.506c-0.791,0.04-1.479,0.068-2.061,0.085c-1.049,0.03-2.146,0.046-3.288,0.046
		s-2.348-0.016-3.615-0.046c-0.109,0.837-0.246,1.762-0.408,2.775s-0.351,2.123-0.566,3.33c1.243-0.269,2.445-0.487,3.607-0.654
		c1.162-0.167,2.292-0.3,3.39-0.398c-0.091,0.337-1.664,2.157-4.719,5.464c-0.76,0.822-2.312,2.493-4.657,5.012l-0.168,0.229
		c3.16-0.291,8.288-0.539,15.385-0.745l2.638-5.679l-0.002-0.075l-6.258,0.707l-0.026-0.049c1.062-1.349,2.124-2.688,3.186-4.02
		c1.062-1.331,2.124-2.662,3.186-3.993c0.514-0.666,0.92-1.186,1.218-1.562c0.297-0.375,0.487-0.605,0.568-0.691
		c0.016-0.017,0.024-0.033,0.023-0.051c0-0.016,0.007-0.033,0.023-0.051C0.091,74.179-1.5,74.25-3.364,74.354
		C-4.362,74.416-5.257,74.467-6.048,74.506z"/>
	<path fill="#26A9E0" d="M7.953,80.854c-0.204-0.145-0.216-0.561-0.036-1.25c1.25-0.036,2.483-0.029,3.702,0.019
		s2.43,0.138,3.634,0.27l0.024-0.051c0.006-0.95,0.007-1.775,0.003-2.476c-0.003-0.701-0.012-1.283-0.025-1.75
		c-2.95,0.019-5.518,0.047-7.7,0.085c-2.184,0.038-4.009,0.078-5.475,0.121c0.088,3.032,0.115,5.694,0.081,7.988
		c-0.033,2.294-0.135,4.252-0.305,5.873l12.804-0.92c0.219-1.073,0.394-1.941,0.524-2.604c0.131-0.662,0.209-1.136,0.234-1.42
		c-2.49,0.372-4.494,0.58-6.01,0.624c-0.766,0.022-1.284-0.013-1.553-0.105l-0.032-1.1c4.217-0.021,6.735-0.044,7.551-0.068
		c0.036-1.067,0.062-1.891,0.079-2.466c0.017-0.576,0.023-0.905,0.021-0.988L7.953,80.854z"/>
	<path fill="#26A9E0" d="M30.195,81.137c2.785-1.715,4.157-3.28,4.116-4.696c-0.029-1-1.116-1.686-3.261-2.057
		c-1.24-0.214-2.659-0.298-4.259-0.252c-2.766,0.08-5.928,0.58-9.486,1.5c0.038,2.483,0.041,4.854,0.005,7.115
		c-0.034,2.261-0.112,4.451-0.234,6.572l6.71-0.619c-0.045-1.566-0.078-2.812-0.096-3.736c-0.019-0.925-0.023-1.529-0.015-1.813
		c0.444,0.354,0.922,0.753,1.435,1.196c0.513,0.444,1.061,0.924,1.643,1.441c0.497,0.452,0.989,0.905,1.478,1.357
		s0.98,0.914,1.478,1.383c2.394-2.537,4.393-4.346,5.996-5.426c-0.709-0.296-1.515-0.61-2.416-0.942
		C32.387,81.827,31.356,81.486,30.195,81.137z M23.542,81.129l0.077-3.404l0.024-0.025c1.383-0.04,2.312,0.384,2.788,1.27
		C26.461,79.985,25.498,80.705,23.542,81.129z"/>
	<path fill="#26A9E0" d="M64.363,72.619c-0.354-2.424-3.005-3.564-7.952-3.421c-1.134,0.032-2.568,0.157-4.304,0.374
		c-1.736,0.218-3.79,0.527-6.163,0.929c0.23,2.229,0.421,4.064,0.572,5.511c0.15,1.447,0.251,2.52,0.306,3.218
		c0.126,1.48,0.228,2.982,0.305,4.506s0.131,3.094,0.162,4.71c2.086-0.494,3.754-0.9,5.004-1.221
		c1.25-0.319,2.105-0.552,2.568-0.699l-0.127-4.398C61.271,79.837,64.48,76.668,64.363,72.619z M56.04,77.138
		c-0.553,0.482-1.102,0.815-1.646,0.997c-0.027-0.966-0.056-1.765-0.082-2.398c-0.026-0.633-0.053-1.099-0.078-1.398
		c0.298-0.092,0.579-0.142,0.846-0.149c0.533-0.016,0.983,0.122,1.351,0.411c0.366,0.29,0.557,0.676,0.571,1.159
		C56.881,76.229,56.561,76.688,56.04,77.138z"/>
	<path fill="#26A9E0" d="M79.543,73.456c-1.768-1.166-3.885-1.714-6.35-1.642c-2.565,0.074-4.845,0.849-6.836,2.323
		c-2.253,1.666-3.344,3.723-3.272,6.172c0.066,2.315,1.17,4.151,3.31,5.507c1.902,1.179,4.053,1.733,6.452,1.664
		c2.515-0.073,4.752-0.863,6.708-2.37c2.17-1.663,3.22-3.703,3.149-6.118C82.636,76.626,81.582,74.781,79.543,73.456z M75.65,81.547
		c-0.703,0.487-1.42,0.741-2.153,0.763c-0.816,0.023-1.488-0.157-2.017-0.542c-0.612-0.432-0.93-1.032-0.952-1.798
		c-0.022-0.783,0.332-1.478,1.065-2.082c0.7-0.554,1.451-0.843,2.25-0.865c0.85-0.024,1.549,0.201,2.096,0.677
		c0.548,0.476,0.833,1.14,0.857,1.989C76.817,80.388,76.436,81.008,75.65,81.547z"/>
	<path fill="#26A9E0" d="M91.874,71.749c-2.065,0.06-4.757,0.421-8.072,1.084l-0.073,0.052c0.553,5.286,0.918,10.111,1.094,14.475
		c1.556-0.378,2.844-0.695,3.861-0.95c1.019-0.254,1.767-0.455,2.246-0.603l-0.103-3.549c2.327-0.817,4.078-1.701,5.251-2.652
		c1.727-1.4,2.562-3.075,2.506-5.024C98.325,72.571,96.089,71.627,91.874,71.749z M92.445,77.659
		c-0.146,0.188-0.323,0.369-0.535,0.541c-0.212,0.173-0.436,0.334-0.674,0.482c-0.237,0.148-0.464,0.26-0.678,0.332
		c-0.022-0.782-0.046-1.429-0.068-1.936c-0.023-0.509-0.047-0.878-0.069-1.111c0.197-0.072,0.43-0.113,0.696-0.121
		c0.45-0.013,0.828,0.094,1.135,0.318s0.466,0.536,0.478,0.937C92.685,77.286,92.59,77.473,92.445,77.659z"/>
	<path fill="#26A9E0" d="M117.319,72.088c0.895-0.176,1.65-0.272,2.268-0.29c0.482-0.015,0.987-0.004,1.513,0.031
		c0.527,0.034,1.065,0.086,1.618,0.152c0.09-2.67,0.181-4.707,0.273-6.11c-0.552-0.05-1.091-0.08-1.615-0.091
		c-0.526-0.01-1.038-0.007-1.538,0.008c-3.415,0.099-6.228,0.88-8.436,2.344c-1.833,1.221-2.724,2.697-2.673,4.43
		c0.033,1.149,0.596,2.167,1.688,3.053c0.581,0.483,1.599,1.079,3.053,1.787c1.083,0.536,1.628,0.945,1.637,1.229
		c0.017,0.6-0.76,1.147-2.329,1.644c-0.445,0.146-0.917,0.271-1.414,0.378c-0.498,0.106-1.02,0.2-1.568,0.282
		c0.453,1.255,0.853,2.352,1.196,3.292s0.642,1.725,0.894,2.351c2.168-0.562,4.358-1.493,6.572-2.792
		c3.032-1.771,4.524-3.54,4.473-5.306c-0.012-0.416-0.124-0.838-0.336-1.266c-0.443-0.888-1.543-1.698-3.297-2.432l-2.048-0.766
		c-1.132-0.484-1.701-0.859-1.709-1.126C115.532,72.59,116.125,72.322,117.319,72.088z"/>
	<path fill="#26A9E0" d="M132.51,76.751c-0.545,0.199-1.224,0.353-2.038,0.459l0.083-6.655c-1.458,0.343-2.72,0.642-3.788,0.897
		s-1.967,0.461-2.695,0.615c0.235,1.812,0.425,3.614,0.568,5.411s0.242,3.604,0.294,5.419c0.017,0.55,0.028,1.1,0.036,1.649
		c0.007,0.55,0.011,1.101,0.01,1.65c1.322-0.404,2.475-0.75,3.459-1.038c0.984-0.287,1.807-0.531,2.468-0.733
		c-0.148-2.229-0.198-3.379-0.15-3.447c0.481-0.098,0.892-0.172,1.231-0.224c0.341-0.051,0.61-0.088,0.811-0.111l-0.086,4.83
		l6.517-1.238c-0.072-3.066-0.046-5.627,0.078-7.682c-0.001-0.033,0.145-1.93,0.436-5.689l-7.534,1.493L132.51,76.751z"/>
	<path fill="#26A9E0" d="M157.108,71.212c-1.768-1.166-3.884-1.713-6.35-1.642c-2.565,0.074-4.844,0.849-6.835,2.323
		c-2.253,1.666-3.344,3.724-3.273,6.173c0.067,2.315,1.171,4.151,3.311,5.506c1.901,1.18,4.052,1.733,6.451,1.664
		c2.515-0.073,4.752-0.863,6.709-2.37c2.17-1.663,3.22-3.703,3.149-6.118C160.202,74.382,159.148,72.537,157.108,71.212z
		 M153.217,79.303c-0.703,0.487-1.421,0.741-2.154,0.763c-0.816,0.023-1.488-0.157-2.016-0.542
		c-0.613-0.432-0.931-1.031-0.953-1.798c-0.022-0.782,0.333-1.478,1.065-2.082c0.701-0.554,1.451-0.842,2.251-0.865
		c0.85-0.024,1.548,0.201,2.096,0.677c0.547,0.477,0.833,1.14,0.857,1.989C154.384,78.144,154.001,78.764,153.217,79.303z"/>
	<path fill="#26A9E0" d="M169.44,69.505c-2.065,0.06-4.757,0.421-8.072,1.084l-0.073,0.052c0.553,5.286,0.917,10.111,1.094,14.475
		c1.556-0.378,2.844-0.694,3.861-0.949c1.019-0.255,1.767-0.456,2.246-0.604l-0.103-3.548c2.327-0.817,4.078-1.702,5.25-2.653
		c1.728-1.4,2.562-3.075,2.506-5.024C175.892,70.327,173.655,69.383,169.44,69.505z M170.012,75.415
		c-0.146,0.188-0.323,0.369-0.535,0.541c-0.212,0.174-0.437,0.334-0.674,0.483c-0.237,0.147-0.464,0.259-0.679,0.331
		c-0.022-0.782-0.045-1.429-0.067-1.936c-0.023-0.509-0.047-0.878-0.07-1.111c0.198-0.072,0.431-0.112,0.697-0.12
		c0.449-0.014,0.828,0.093,1.135,0.317c0.306,0.225,0.465,0.536,0.477,0.937C170.251,75.042,170.156,75.229,170.012,75.415z"/>
	<path fill="#26A9E0" d="M184.831,63.808c-0.815,0.057-1.56,0.116-2.233,0.177c-0.673,0.062-1.293,0.117-1.858,0.167
		c-1.015,0.096-1.82,0.174-2.419,0.231c-0.599,0.06-0.998,0.101-1.197,0.123l-0.198,0.055c0.494,4.972,0.813,9.973,0.959,15.004
		c0.283-0.008,0.638-0.009,1.062-0.006c0.426,0.005,0.922,0.016,1.489,0.032c1.117,0.018,1.968,0.019,2.552,0.001
		c0.067-1.103,0.17-2.293,0.309-3.572c0.138-1.28,0.302-2.673,0.492-4.179c0.179-1.289,0.354-2.569,0.526-3.842
		s0.347-2.561,0.526-3.867L184.831,63.808z"/>
	<path fill="#26A9E0" d="M182.274,80.913c-0.63-0.465-1.345-0.661-2.143-0.588c-1.247,0.12-2.063,0.443-2.448,0.971
		c-0.24,0.341-0.331,0.952-0.271,1.834c0.071,0.748,0.414,1.347,1.027,1.796c0.613,0.482,1.319,0.662,2.116,0.539
		c1.926-0.272,2.833-1.208,2.72-2.805C183.238,81.961,182.905,81.379,182.274,80.913z"/>
</g>
</svg>
