<?xml version="1.0" encoding="utf-8"?>
<!-- Generator: Adobe Illustrator 16.0.4, SVG Export Plug-In . SVG Version: 6.00 Build 0)  -->
<!DOCTYPE svg PUBLIC "-//W3C//DTD SVG 1.1//EN" "http://www.w3.org/Graphics/SVG/1.1/DTD/svg11.dtd">
<svg version="1.1" id="Layer_1" xmlns="http://www.w3.org/2000/svg" xmlns:xlink="http://www.w3.org/1999/xlink" x="0px" y="0px"
	 width="91.706px" height="95.302px" viewBox="5.855 -3.855 91.706 95.302" enable-background="new 5.855 -3.855 91.706 95.302"
	 xml:space="preserve">
<g>
	<g>
		<path fill="#231F20" d="M46.704,37.387c1.406-0.224,2.839,0.177,4.239,0.636c1.397,0.479,2.84,0.979,4.19,1.278
			c0.653,0.164,1.344,0.238,1.943,0.317c0.647,0.029,1.205,0.071,1.758,0.035c1.11-0.048,1.939-0.236,2.884-0.345
			c0.937-0.184,1.785-0.271,2.852-0.571c0.533-0.14,1.056-0.359,1.661-0.587c0.548-0.261,1.177-0.551,1.748-0.914
			c1.188-0.696,2.401-1.627,3.582-2.512c1.177-0.879,2.417-1.705,3.82-1.933c1.383-0.227,2.846,0.215,4.154,1.64
			c1.276,1.415,2.307,3.867,2.282,7.122c0,1.619-0.324,3.392-0.96,5.249c-0.693,1.82-1.677,3.728-3.129,5.475
			c-1.441,1.733-3.254,3.382-5.447,4.648c-2.184,1.259-4.688,2.182-7.32,2.623c-2.636,0.4-5.304,0.312-7.77-0.209
			c-2.478-0.512-4.713-1.516-6.628-2.712c-1.92-1.206-3.46-2.709-4.682-4.219c-1.181-1.565-2.048-3.15-2.555-4.69
			c-1.035-3.085-0.827-5.736-0.05-7.478C44.069,38.479,45.319,37.603,46.704,37.387z"/>
	</g>
	<path fill="#FFCE01" d="M45.854,0.366c0,0,6.441-3.003,12.017-3.003c5.58,0,22.885,3.003,30.608,13.729
		c7.725,10.729,10.728,28.322,6.436,48.49c-4.29,20.168-26.601,32.467-37.327,30.75c-10.731-1.717-30.042-12.014-33.474-39.907
		C20.68,22.534,38.558,6.802,38.558,6.802S43.279,0.792,45.854,0.366z"/>
	<path fill="#E71E26" d="M29.198,55.252c3.138,6.259,6.84-0.659,8.608-10.798c2.255-12.917,8.069-11.575,14.215-8.354
		c9.813,5.149,20.064-2.427,28.431-13.368c3.87-5.062,10.308,1.135,8.76-2.873c-1.115-2.717-2.457-5.212-4.043-7.412
		C78.291,2.895,63.544-0.321,57.871-0.321c-4.98,0-9.588,1.859-11.625,2.97c-0.942,0.22-3.739,2.882-5.867,5.585
		c-0.087,0.112-0.19,0.218-0.298,0.313c-0.038,0.032-3.896,3.463-7.292,10.087c-4.541,8.856-6.158,18.93-4.803,29.938
		C28.274,50.929,28.688,53.153,29.198,55.252z"/>
	<path fill="#F9EC31" d="M85.924,50.248c-4.201,1.365,0,13.036-10.781,12.067c-3.552-0.314-2.255,5.314-10.941,6.279
		c-6.216,0.689-8.356-3.615-16.093-1.611c-8.691,2.254-10.353-8.917-12.576-5.561c-0.673,1.012-2.126,3.664-4.704-0.773
		c6.343,17.469,20.247,24.471,28.697,25.824c0.618,0.1,1.29,0.15,1.988,0.15c9.749,0,25.938-9.803,29.707-27.524
		c2.59-12.17,2.478-23.87-0.093-33.516C90.521,26.399,92.359,48.156,85.924,50.248z"/>
	<g>
		<path fill="#231F20" d="M46.704,37.387c1.406-0.224,2.839,0.177,4.239,0.636c1.397,0.479,2.84,0.979,4.19,1.278
			c0.653,0.164,1.344,0.238,1.943,0.317c0.647,0.029,1.205,0.071,1.758,0.035c1.11-0.048,1.939-0.236,2.884-0.345
			c0.937-0.184,1.785-0.271,2.852-0.571c0.533-0.14,1.056-0.359,1.661-0.587c0.548-0.261,1.177-0.551,1.748-0.914
			c1.188-0.696,2.401-1.627,3.582-2.512c1.177-0.879,2.417-1.705,3.82-1.933c1.383-0.227,2.846,0.215,4.154,1.64
			c1.276,1.415,2.307,3.867,2.282,7.122c0,1.619-0.324,3.392-0.96,5.249c-0.693,1.82-1.677,3.728-3.129,5.475
			c-1.441,1.733-3.254,3.382-5.447,4.648c-2.184,1.259-4.688,2.182-7.32,2.623c-2.636,0.4-5.304,0.312-7.77-0.209
			c-2.478-0.512-4.713-1.516-6.628-2.712c-1.92-1.206-3.46-2.709-4.682-4.219c-1.181-1.565-2.048-3.15-2.555-4.69
			c-1.035-3.085-0.827-5.736-0.05-7.478C44.069,38.479,45.319,37.603,46.704,37.387z"/>
	</g>
	<g>
		<path fill="#8BC541" d="M44.743,6.045c0,0-25.824,5.867-33.566,21.489C0.45,49.184,11.774,63.396,24.584,70.305
			c0,0-4.28-12.999,2.326-33.209C29.99,27.638,36.1,14.285,44.743,6.045z"/>
	</g>
	<g>
		<g>
			<path fill="#52BC61" d="M15.189,47.151c-0.064-0.004-0.05-0.67,0.017-1.882c0.038-0.611,0.084-1.353,0.138-2.213
				c0.048-0.866,0.299-1.821,0.475-2.899c0.1-0.538,0.205-1.101,0.314-1.688c0.123-0.584,0.333-1.169,0.507-1.789
				c0.379-1.229,0.714-2.576,1.319-3.896c0.278-0.672,0.562-1.36,0.853-2.063c0.283-0.709,0.691-1.372,1.043-2.08
				c0.376-0.695,0.727-1.426,1.147-2.126c0.439-0.689,0.886-1.389,1.337-2.097c0.437-0.72,0.927-1.389,1.427-2.036
				c0.495-0.651,0.983-1.293,1.463-1.923c1.054-1.178,2.001-2.387,3.057-3.388c0.515-0.512,1.018-1.012,1.506-1.498
				c0.515-0.457,1.015-0.9,1.499-1.328c0.956-0.87,1.936-1.573,2.801-2.246c1.784-1.281,3.306-2.203,4.432-2.718
				c1.114-0.529,1.821-0.674,1.93-0.476c0.232,0.406-1.847,2.047-5.047,4.837c-0.777,0.726-1.678,1.457-2.567,2.331
				c-0.454,0.425-0.924,0.865-1.408,1.317c-0.466,0.471-0.945,0.956-1.437,1.453c-1.018,0.962-1.938,2.106-2.987,3.209
				c-0.48,0.588-0.969,1.188-1.465,1.795c-0.506,0.602-1.006,1.222-1.457,1.89c-0.47,0.656-0.935,1.303-1.393,1.941
				c-0.443,0.648-0.818,1.325-1.224,1.969c-0.382,0.657-0.824,1.271-1.141,1.93c-0.329,0.655-0.65,1.297-0.964,1.922
				c-0.685,1.232-1.105,2.498-1.573,3.659c-0.218,0.585-0.473,1.14-0.641,1.695c-0.155,0.56-0.304,1.098-0.447,1.611
				c-0.263,1.032-0.601,1.952-0.73,2.792c-0.143,0.837-0.267,1.56-0.369,2.153C15.393,46.496,15.253,47.155,15.189,47.151z"/>
		</g>
	</g>
	<g>
		<g>
			<g>
				<path fill="#78482E" d="M40.219,2.939c0.446-0.044,0.904,0.433,1.241,1.231c0.17,0.396,0.311,0.867,0.431,1.341
					c0.103,0.449,0.283,1.001,0.27,0.92c0.035-0.012-0.109,0.05,0.067,0.125l0.203,0.06c0.098,0.012,0.193,0.023,0.286,0.034
					c0.183,0.039,0.388,0.049,0.578,0.076c0.763,0.106,1.375,0.301,1.525,0.737c0.144,0.415-0.164,0.988-0.95,1.501
					c-0.197,0.127-0.415,0.259-0.7,0.357c-0.141,0.049-0.286,0.1-0.434,0.152c-0.177,0.037-0.372,0.066-0.569,0.09
					c-0.176,0.035-0.451,0.018-0.722-0.018c-0.272-0.023-0.534-0.106-0.794-0.22c-0.524-0.211-0.967-0.638-1.273-1.156
					C39.063,7.603,38.97,7.124,38.92,6.75c-0.046-0.375-0.045-0.693-0.03-0.99c0.038-0.582,0.137-1.063,0.262-1.467
					C39.407,3.493,39.766,2.984,40.219,2.939z"/>
			</g>
		</g>
	</g>
	<g>
		<defs>
			<path id="SVGID_1_" d="M46.704,37.387c1.406-0.224,2.839,0.177,4.239,0.636c1.397,0.479,2.84,0.979,4.19,1.278
				c0.653,0.164,1.344,0.238,1.943,0.317c0.647,0.029,1.205,0.071,1.758,0.035c1.11-0.048,1.939-0.236,2.884-0.345
				c0.937-0.184,1.785-0.271,2.852-0.571c0.533-0.14,1.056-0.359,1.661-0.587c0.548-0.261,1.177-0.551,1.748-0.914
				c1.188-0.696,2.401-1.627,3.582-2.512c1.177-0.879,2.417-1.705,3.82-1.933c1.383-0.227,2.846,0.215,4.154,1.64
				c1.276,1.415,2.307,3.867,2.282,7.122c0,1.619-0.324,3.392-0.96,5.249c-0.693,1.82-1.677,3.728-3.129,5.475
				c-1.441,1.733-3.254,3.382-5.447,4.648c-2.184,1.259-4.688,2.182-7.32,2.623c-2.636,0.4-5.304,0.312-7.77-0.209
				c-2.478-0.512-4.713-1.516-6.628-2.712c-1.92-1.206-3.46-2.709-4.682-4.219c-1.181-1.565-2.048-3.15-2.555-4.69
				c-1.035-3.085-0.827-5.736-0.05-7.478C44.069,38.479,45.319,37.603,46.704,37.387z"/>
		</defs>
		<clipPath id="SVGID_2_">
			<use xlink:href="#SVGID_1_"  overflow="visible"/>
		</clipPath>
		<path clip-path="url(#SVGID_2_)" fill="#FFFFFF" d="M72.617,40.206c0.248,1.604-0.843,3.115-2.447,3.366l-14.814,2.35
			c-1.604,0.25-3.112-0.839-3.368-2.446l-0.656-4.182c-0.257-1.603,0.834-3.111,2.444-3.359l14.81-2.353
			c1.604-0.254,3.113,0.836,3.364,2.442L72.617,40.206z"/>
	</g>
	<path fill="#EA2227" d="M71.838,50c0.461,2.475-2.826,5.059-7.191,5.75c-4.364,0.695-8.165-0.769-8.617-3.238
		c-0.743-4.063,5.591-3.06,7.551-3.344C65.545,48.886,70.993,45.438,71.838,50z"/>
	<path fill="#231F20" d="M57.515,27.883c0.461,2.899-0.229,5.423-1.543,5.624c-1.307,0.209-2.742-1.97-3.2-4.867
		c-0.459-2.9,0.229-5.421,1.542-5.62C55.627,22.81,57.058,24.987,57.515,27.883z"/>
	<path fill="#231F20" d="M66.572,26.377c0.462,2.9-0.225,5.413-1.537,5.626c-1.318,0.206-2.75-1.977-3.21-4.874
		c-0.458-2.896,0.236-5.411,1.545-5.621C64.682,21.294,66.117,23.478,66.572,26.377z"/>
	<circle fill="#E71E26" cx="38.451" cy="56.202" r="1.448"/>
	<circle fill="#E71E26" cx="41.025" cy="61.996" r="0.965"/>
	<circle fill="#E71E26" cx="40.865" cy="50.087" r="0.965"/>
	<circle fill="#E71E26" cx="82.705" cy="27.238" r="1.771"/>
	<circle fill="#E71E26" cx="87.532" cy="28.204" r="1.126"/>
	<circle fill="#E71E26" cx="86.083" cy="46.387" r="0.965"/>
	<circle fill="#E71E26" cx="78.521" cy="30.133" r="0.805"/>
	<path fill="#FFCE01" d="M52.938,71.811c0,0.711-0.572,1.287-1.287,1.287c-0.712,0-1.288-0.576-1.288-1.287
		c0-0.709,0.576-1.289,1.288-1.289C52.365,70.521,52.938,71.102,52.938,71.811z"/>
	<circle fill="#FFCE01" cx="58.247" cy="78.408" r="1.125"/>
	<path fill="#FFCE01" d="M82.385,67.465c0,0.711-0.578,1.289-1.289,1.289c-0.712,0-1.287-0.578-1.287-1.289
		c0-0.709,0.575-1.285,1.287-1.285C81.807,66.18,82.385,66.756,82.385,67.465z"/>
	<circle fill="#FFCE01" cx="87.722" cy="58.043" r="0.483"/>
	<circle fill="#FFCE01" cx="85.076" cy="61.467" r="1.126"/>
	<circle fill="#FFCE01" cx="75.521" cy="66.021" r="1.126"/>
	<circle fill="#FFCE01" cx="39.095" cy="69.719" r="1.448"/>
	<path fill="#F9EC31" d="M38.128,25.469c0,0.71-0.574,1.286-1.288,1.286c-0.709,0-1.287-0.576-1.287-1.286
		c0-0.712,0.577-1.288,1.287-1.288C37.554,24.181,38.128,24.757,38.128,25.469z"/>
	<circle fill="#F9EC31" cx="52.938" cy="14.043" r="0.644"/>
	<path fill="#F9EC31" d="M56.8,10.342c0,0.533-0.433,0.965-0.968,0.965c-0.53,0-0.965-0.432-0.965-0.965s0.435-0.967,0.965-0.967
		C56.367,9.375,56.8,9.809,56.8,10.342z"/>
	<circle fill="#F9EC31" cx="73.371" cy="15.813" r="1.448"/>
	<circle fill="#F9EC31" cx="76.429" cy="20.478" r="0.644"/>
	<circle fill="#F9EC31" cx="35.306" cy="40.37" r="0.644"/>
	<circle fill="#F9EC31" cx="30.923" cy="40.239" r="1.287"/>
	<circle fill="#F9EC31" cx="56.156" cy="3.261" r="1.125"/>
	<path fill="#F9EC31" d="M55.031,6.96c0,0.979-0.794,1.772-1.771,1.772c-0.978,0-1.772-0.793-1.772-1.772
		c0-0.974,0.794-1.769,1.772-1.769C54.237,5.192,55.031,5.987,55.031,6.96z"/>
	<circle fill="#F9EC31" cx="74.338" cy="24.181" r="0.643"/>
	<circle fill="#F9EC31" cx="32.336" cy="44.295" r="1.287"/>
	<g>
		<path fill="#F9EC31" d="M38.128,15.17c0,0-0.04-0.291,0.006-0.779c0.032-0.493,0.151-1.182,0.41-1.972
			c0.129-0.396,0.293-0.815,0.506-1.241c0.195-0.438,0.468-0.859,0.744-1.304c0.299-0.427,0.626-0.859,0.994-1.271
			c0.389-0.393,0.766-0.81,1.22-1.149c0.425-0.371,0.891-0.692,1.372-0.976c0.464-0.306,0.966-0.534,1.455-0.739
			c0.477-0.225,0.976-0.358,1.444-0.477c0.459-0.143,0.916-0.194,1.334-0.23c0.414-0.047,0.796-0.064,1.131-0.058
			c0.338,0.013,0.636,0.063,0.875,0.087c0.479,0.064,0.745,0.13,0.745,0.13s-0.243,0.158-0.655,0.386
			C49.5,5.683,49.257,5.833,48.976,5.96c-0.281,0.136-0.571,0.364-0.901,0.531c-0.162,0.09-0.33,0.185-0.504,0.281
			c-0.166,0.116-0.333,0.239-0.51,0.351c-0.348,0.232-0.723,0.444-1.073,0.73c-0.362,0.263-0.738,0.517-1.089,0.826l-0.548,0.431
			c-0.17,0.163-0.346,0.32-0.525,0.472c-0.363,0.298-0.688,0.644-1.033,0.957c-0.342,0.317-0.661,0.654-0.99,0.964
			c-0.65,0.659-1.256,1.273-1.776,1.801c-0.541,0.539-1.003,1.007-1.346,1.338C38.329,14.978,38.128,15.17,38.128,15.17z"/>
	</g>
	<path fill="#FFFFFF" d="M48.267,11.875c-4.772,2.402-5.643,6.838-2.115,10.859c-3.528-4.021-9.262-5.143-14.037-2.74
		c4.775-2.402,5.644-6.839,2.128-10.868C37.759,13.156,43.495,14.278,48.267,11.875z"/>
	<g>
		<path fill="#F9EC31" d="M59.533,6.96c0,0,0.41-0.231,1.19-0.485c0.39-0.127,0.87-0.269,1.432-0.382
			c0.561-0.108,1.202-0.236,1.91-0.27c0.709-0.084,1.479-0.063,2.302-0.047c0.811,0.086,1.688,0.134,2.562,0.352
			c0.439,0.105,0.886,0.213,1.338,0.321c0.445,0.133,0.885,0.305,1.331,0.471c0.913,0.287,1.742,0.796,2.606,1.231
			c0.837,0.482,1.602,1.079,2.373,1.629c0.706,0.631,1.378,1.276,2.013,1.905c0.568,0.693,1.099,1.374,1.589,2.021
			c0.479,0.654,0.809,1.358,1.16,1.965c0.35,0.608,0.644,1.176,0.823,1.724c0.209,0.529,0.362,1.002,0.494,1.386
			c0.259,0.77,0.372,1.216,0.372,1.216s-0.337-0.337-0.867-0.939c-0.263-0.302-0.588-0.662-0.928-1.088
			c-0.326-0.437-0.777-0.865-1.231-1.35c-0.472-0.47-0.926-1.02-1.471-1.531c-0.559-0.5-1.135-1.028-1.711-1.587
			c-0.641-0.486-1.289-0.993-1.935-1.52c-0.716-0.426-1.383-0.948-2.12-1.353c-0.745-0.387-1.458-0.844-2.232-1.144
			c-0.38-0.168-0.756-0.336-1.128-0.501c-0.386-0.137-0.766-0.272-1.14-0.405c-0.745-0.289-1.504-0.453-2.214-0.671
			c-0.722-0.147-1.407-0.351-2.057-0.443c-1.295-0.242-2.408-0.352-3.201-0.425C60.003,6.972,59.533,6.96,59.533,6.96z"/>
	</g>
	<g>
		<path fill="#FFCE01" d="M42.955,71.811c0,0,0.305,0.426,0.868,1.111c0.288,0.338,0.633,0.748,1.043,1.197
			c0.429,0.436,0.871,0.947,1.428,1.438c0.515,0.523,1.146,1.012,1.775,1.551c0.697,0.461,1.348,1.043,2.141,1.473
			c0.392,0.219,0.755,0.496,1.167,0.701c0.413,0.203,0.831,0.41,1.251,0.617c0.832,0.432,1.757,0.699,2.64,1.062l1.397,0.338
			c0.469,0.092,0.915,0.287,1.394,0.32c0.944,0.107,1.869,0.307,2.785,0.344c0.921,0.039,1.812,0.076,2.657,0.111
			c0.854-0.045,1.661-0.088,2.406-0.125c0.374-0.023,0.737-0.025,1.082-0.037c0.341-0.047,0.664-0.09,0.968-0.131
			c0.614-0.072,1.149-0.135,1.591-0.188c0.896-0.082,1.409-0.129,1.409-0.129s-0.474,0.197-1.303,0.539
			c-0.423,0.16-0.935,0.355-1.523,0.58c-0.297,0.107-0.613,0.221-0.947,0.34c-0.343,0.082-0.703,0.18-1.084,0.26
			c-0.765,0.166-1.593,0.348-2.469,0.539c-0.901,0.072-1.852,0.146-2.834,0.225c-0.494,0.07-0.998-0.014-1.51-0.033
			c-0.512-0.035-1.03-0.07-1.553-0.105c-1.046-0.084-2.085-0.391-3.135-0.602l-1.521-0.533c-0.507-0.178-1.019-0.344-1.479-0.615
			c-0.47-0.248-0.937-0.494-1.396-0.738c-0.45-0.26-0.86-0.574-1.271-0.865c-0.847-0.553-1.521-1.271-2.194-1.891
			c-0.588-0.711-1.202-1.32-1.622-2.004c-0.923-1.297-1.457-2.514-1.772-3.369C43.026,72.332,42.955,71.811,42.955,71.811z"/>
	</g>
</g>
</svg>
