<?xml version="1.0" encoding="utf-8"?>
<!-- Generator: Adobe Illustrator 16.0.4, SVG Export Plug-In . SVG Version: 6.00 Build 0)  -->
<!DOCTYPE svg PUBLIC "-//W3C//DTD SVG 1.1//EN" "http://www.w3.org/Graphics/SVG/1.1/DTD/svg11.dtd">
<svg version="1.1" id="Layer_1" xmlns="http://www.w3.org/2000/svg" xmlns:xlink="http://www.w3.org/1999/xlink" x="0px" y="0px"
	 width="90.678px" height="98.641px" viewBox="2.259 -3.855 90.678 98.641" enable-background="new 2.259 -3.855 90.678 98.641"
	 xml:space="preserve">
<g>
	<path fill="#8BC53F" d="M39.172,30.451l-1.078-1.609l0.873,0.006c0,0-0.87-2.992-0.658-4.721l0.393,0.094
		c0,0-0.994-4.093-0.251-5.657l0.778,0.187c0,0,0.036-4.699,1.198-6.727l0.431,0.344c0,0,1.592-5.481,3.622-8.315l0.132,0.416
		c0,0,1.599-4.675,3.169-6.141l0.564,0.758l1.649-2.115l1.373,1.881l0.594-0.951c0,0,3.125,1.888,3.921,5.187l0.088-0.988
		c0,0,3.293,2.896,3.258,6.442l-0.023,1.369l0.848-0.934c0,0,2.77,3.885,1.502,7.93l-0.709,2.497l0.959-0.983
		c0,0-0.66,5.056-2.664,7.672l0.553-0.051l-0.812,1.868l-2.457,3.3l-2.408,2.057l-1.836,2.132l-1.125,2.624L38.52,32.178
		L39.172,30.451z"/>
	<path fill="#5FBA46" d="M41.88,33.437l0.653-1.726l-1.081-1.606l0.877,0.004c0,0-0.871-2.993-0.658-4.719l0.389,0.089
		c0,0-0.99-4.092-0.249-5.655l0.78,0.188c0,0,0.031-4.698,1.197-6.727l0.431,0.344c0,0,1.592-5.482,3.621-8.315l0.134,0.414
		c0,0,1.6-4.671,3.168-6.139l0.562,0.758l1.3-1.664c-0.598-0.511-1.042-0.782-1.042-0.782l-0.594,0.951L49.995-3.03l-1.649,2.115
		l-0.564-0.758c-1.57,1.466-3.169,6.141-3.169,6.141L44.48,4.052c-2.03,2.834-3.622,8.315-3.622,8.315l-0.431-0.344
		c-1.162,2.027-1.198,6.727-1.198,6.727l-0.778-0.187c-0.743,1.564,0.251,5.657,0.251,5.657l-0.393-0.094
		c-0.212,1.729,0.658,4.721,0.658,4.721l-0.873-0.006l1.078,1.609l-0.652,1.727l12.535,5.843l0.109-0.258L41.88,33.437z"/>
	<g>
		<path fill="#B7D333" d="M49.516,2.629c0,0,0.471,2.052,1.053,5.146c0.275,1.55,0.637,3.352,0.951,5.293
			c0.158,0.932,0.361,1.971,0.575,2.947c0.201,0.983,0.524,1.965,0.709,3.079c0.097,0.567,0.083,1.145,0.056,1.716
			c-0.086,0.541-0.135,1.105-0.269,1.609c-0.229,1.044-0.495,2.007-0.735,2.964c-0.48,1.9-0.929,3.674-1.313,5.195
			c-0.369,1.524-0.704,2.789-0.892,3.677c-0.079,0.432-0.192,0.812-0.204,1.002c-0.032,0.208-0.049,0.319-0.049,0.319l-0.606,0.086
			c0,0,0-0.151,0-0.433c-0.002-0.303,0.049-0.629,0.102-1.105c0.131-0.918,0.317-2.224,0.625-3.771
			c0.31-1.547,0.67-3.35,1.119-5.274c0.225-0.949,0.457-1.93,0.693-2.927c0.135-0.495,0.172-0.972,0.258-1.46
			c0.022-0.473,0.042-0.945-0.037-1.417c-0.146-0.957-0.429-1.991-0.618-3.035c-0.205-1.044-0.333-2.012-0.454-3.026
			c-0.235-1.952-0.386-3.784-0.551-5.349C49.632,4.73,49.516,2.629,49.516,2.629z"/>
	</g>
	<path fill="#8BC53F" d="M34.305,53.534l-2.428,0.582l0.606-0.955c0,0-3.736-0.155-5.401-1.027l0.365-0.396
		c0,0-4.974-0.433-6.103-1.819l0.73-0.786c0,0-4.903-1.777-6.232-3.8l0.66-0.342c0,0-4.658-3.771-6.23-7.038l0.523,0.013
		c0,0-3.799-3.481-4.26-5.739l1.185-0.333L6.636,29.31l2.914-0.807l-0.589-1c0,0,4.128-2.713,8.139-2.361l-0.978-0.462
		c0,0,5.301-2.524,8.994-1.171l1.419,0.532l-0.394-1.267c0,0,5.978-1.589,9.349,1.295l2.13,1.703l-0.371-1.419
		c0,0,4.846,2.597,6.213,5.757l0.328-0.625l1.398,1.582l1.774,3.901l0.499,3.394l0.978,2.794l1.975,2.204L35.667,54.885
		L34.305,53.534z"/>
	<g>
		<path fill="#009345" d="M8.965,27.512l0.857-0.239l-0.091-0.219c-0.485,0.266-0.771,0.449-0.771,0.449L8.965,27.512z"/>
	</g>
	<path fill="#5FBA46" d="M7.628,31.676c1.379-0.757,4.403-2.173,7.369-1.911l-0.978-0.462c0,0,5.301-2.523,8.996-1.169l1.417,0.532
		l-0.395-1.269c0,0,5.979-1.587,9.349,1.296l2.132,1.702l-0.373-1.416c0,0,4.849,2.597,6.215,5.752l0.327-0.622l1.4,1.58
		l1.772,3.902l0.5,3.394l0.978,2.793l0.403,0.453l3.673-2.871l-1.975-2.204l-0.978-2.794l-0.499-3.394l-1.774-3.901l-1.398-1.582
		l-0.328,0.625c-1.367-3.16-6.213-5.757-6.213-5.757l0.371,1.419l-2.13-1.703c-3.371-2.884-9.349-1.295-9.349-1.295l0.394,1.267
		l-1.419-0.532c-3.693-1.354-8.994,1.171-8.994,1.171l0.978,0.462c-4.011-0.352-8.139,2.361-8.139,2.361l0.589,1L6.636,29.31
		L7.628,31.676z"/>
	<g>
		<path fill="#B7D333" d="M19.151,33.729c0,0,0.335-0.136,0.947-0.295c0.613-0.142,1.496-0.372,2.58-0.476
			c0.541-0.081,1.13-0.094,1.755-0.133c0.624-0.002,1.287-0.026,1.968,0.029c0.683,0.038,1.39,0.089,2.099,0.213
			c0.715,0.087,1.431,0.239,2.143,0.408c0.719,0.142,1.406,0.403,2.101,0.597c0.686,0.222,1.333,0.519,1.973,0.764
			c0.636,0.257,1.209,0.598,1.774,0.872c0.571,0.263,1.053,0.618,1.52,0.902c0.458,0.3,0.893,0.55,1.233,0.838
			c0.349,0.274,0.652,0.513,0.903,0.71c0.491,0.401,0.772,0.631,0.772,0.631l-0.458,0.594c0,0-0.303-0.184-0.832-0.505
			c-0.26-0.165-0.576-0.365-0.938-0.595c-0.351-0.246-0.805-0.431-1.257-0.698c-0.464-0.247-0.95-0.544-1.503-0.781
			c-0.549-0.245-1.111-0.538-1.72-0.778c-0.613-0.227-1.231-0.506-1.887-0.71c-0.658-0.195-1.308-0.46-1.992-0.606
			c-0.678-0.164-1.35-0.361-2.031-0.472c-0.674-0.144-1.345-0.241-1.997-0.335c-0.65-0.103-1.287-0.133-1.889-0.206
			c-0.604-0.025-1.177-0.08-1.707-0.082c-1.061-0.03-1.952-0.009-2.576,0.032C19.51,33.689,19.151,33.729,19.151,33.729z"/>
	</g>
	<path fill="#8BC53F" d="M61.566,54.211l2.494,0.081l-0.785-0.813c0,0,3.629-0.906,5.084-2.096l-0.438-0.31
		c0,0,4.787-1.428,5.611-3.012l-0.873-0.623c0,0,4.447-2.728,5.34-4.977l-0.715-0.205c0,0,3.799-4.627,4.686-8.146l-0.51,0.116
		c0,0,3.02-4.174,3.018-6.479l-1.229-0.088l0.541-2.753l-3.014-0.198l0.373-1.1c0,0-4.592-1.827-8.445-0.677l0.865-0.646
		c0,0-5.703-1.406-9.051,0.665l-1.281,0.809l0.133-1.323c0,0-6.176-0.352-8.898,3.15l-1.74,2.096l0.076-1.462
		c0,0-4.224,3.519-4.928,6.888l-0.448-0.547l-1.048,1.832l-0.954,4.179L45.624,42l-0.395,2.932l-1.49,2.554l16.763,8.321
		L61.566,54.211z"/>
	<path fill="#5FBA46" d="M47.333,49.133l0.393-2.932l-0.191-3.424l0.949-4.181l1.053-1.832l0.446,0.546
		c0.704-3.369,4.928-6.887,4.928-6.887l-0.078,1.461l1.742-2.097c2.723-3.5,8.896-3.148,8.896-3.148l-0.131,1.32l1.283-0.807
		c3.342-2.068,9.049-0.665,9.049-0.665l-0.867,0.648c3.857-1.152,8.449,0.676,8.449,0.676l-0.377,1.099l1.383,0.092
		c0.131-0.447,0.219-0.875,0.219-1.254l-1.229-0.088l0.541-2.753l-3.014-0.198l0.373-1.1c0,0-4.592-1.827-8.445-0.677l0.865-0.646
		c0,0-5.703-1.406-9.051,0.665l-1.281,0.809l0.133-1.323c0,0-6.176-0.352-8.898,3.15l-1.74,2.096l0.076-1.462
		c0,0-4.224,3.519-4.928,6.888l-0.448-0.547l-1.048,1.832l-0.954,4.179L45.624,42l-0.395,2.932l-1.49,2.554l3.53,1.753
		L47.333,49.133z"/>
	<g>
		<path fill="#B7D333" d="M56.569,40.295c0,0,1.091-1.001,2.809-2.395c0.876-0.683,1.935-1.445,3.069-2.256
			c0.572-0.397,1.164-0.808,1.766-1.225c0.68-0.39,1.31-0.686,1.973-1.036c0.64-0.356,1.352-0.627,2.021-0.924
			c0.677-0.288,1.342-0.571,1.985-0.845c1.31-0.465,2.531-0.9,3.579-1.272c0.529-0.169,1.034-0.275,1.47-0.395
			c0.437-0.112,0.817-0.21,1.132-0.291c0.628-0.149,0.986-0.235,0.986-0.235s-0.34,0.147-0.936,0.405
			c-0.596,0.251-1.45,0.589-2.457,1.027c-0.996,0.468-2.159,1.014-3.405,1.598c-0.607,0.311-1.235,0.631-1.873,0.958
			c-0.634,0.337-1.292,0.621-1.93,1.002c-0.626,0.361-1.313,0.731-1.881,1.079c-0.585,0.417-1.161,0.826-1.719,1.222
			c-1.124,0.781-2.186,1.486-3.104,2.092c-1.823,1.252-3.093,2.014-3.093,2.014L56.569,40.295z"/>
	</g>
	<path fill="#F48D80" d="M28.114,50.077"/>
	<path fill="#B9D432" d="M45.297,40.325l-0.524-0.812l0.44,0.012c0,0-0.409-1.502-0.29-2.361l0.196,0.049
		c0,0-0.461-2.051-0.076-2.824l0.387,0.101c0,0,0.061-2.343,0.655-3.345l0.216,0.174c0,0,0.837-2.717,1.876-4.115l0.062,0.21
		c0,0,0.839-2.317,1.634-3.035l0.276,0.382l0.843-1.04l0.666,0.95l0.306-0.468c0,0,1.542,0.968,1.913,2.62l0.049-0.493
		c0,0,1.619,1.474,1.572,3.244l-0.027,0.682l0.432-0.457c0,0,1.35,1.961,0.68,3.969l-0.379,1.238l0.492-0.482
		c0,0-0.375,2.517-1.396,3.804l0.277-0.021l-0.424,0.926l-1.254,1.625L52.68,41.86l-0.934,1.046l-0.585,1.301l-6.2-3.026
		L45.297,40.325z"/>
	<g>
		<path fill="#8BC53F" d="M50.703,26.537c0,0,0.082,0.253,0.199,0.7c0.107,0.448,0.293,1.084,0.457,1.854
			c0.175,0.769,0.358,1.669,0.528,2.637c0.081,0.445,0.191,0.984,0.292,1.455c0.096,0.476,0.259,0.956,0.352,1.554
			c0.048,0.31,0.037,0.626,0.017,0.937c-0.048,0.283-0.081,0.587-0.152,0.84c-0.131,0.539-0.269,0.998-0.4,1.479
			c-0.276,0.945-0.516,1.815-0.751,2.561c-0.438,1.438-0.73,2.397-0.73,2.397l-0.624,0.078c0,0-0.007-0.283,0.026-0.815
			c0.023-0.255,0.067-0.515,0.108-0.841c0.046-0.319,0.084-0.685,0.163-1.072c0.144-0.777,0.324-1.69,0.561-2.638
			c0.116-0.47,0.236-0.956,0.358-1.449c0.118-0.481,0.199-0.902,0.137-1.313c-0.055-0.437-0.177-0.969-0.259-1.508
			c-0.09-0.541-0.125-1.006-0.167-1.533c-0.07-0.979-0.112-1.897-0.129-2.686c-0.029-0.787-0.003-1.449-0.008-1.91
			C50.685,26.803,50.703,26.537,50.703,26.537z"/>
	</g>
	<path fill="#B9D432" d="M44.827,48.775l-0.909,0.327l0.11-0.423c0,0-1.557,0.055-2.364-0.261l0.094-0.178
		c0,0-2.102-0.022-2.766-0.573l0.183-0.354c0,0-2.266-0.591-3.104-1.403l0.216-0.166c0,0-2.452-1.44-3.573-2.771l0.217-0.013
		c0,0-2.063-1.347-2.582-2.288l0.438-0.179l-0.821-1.057l1.076-0.435l-0.389-0.402c0,0,1.298-1.281,2.989-1.264l-0.466-0.161
		c0,0,1.805-1.239,3.515-0.784l0.662,0.178l-0.349-0.523c0,0,2.218-0.863,4.02,0.246l1.119,0.65l-0.358-0.585
		c0,0,2.363,0.938,3.385,2.23l0.045-0.274l0.804,0.622l1.29,1.59l0.703,1.419l0.804,1.148l1.133,0.864l-4.364,5.346L44.827,48.775z"
		/>
	<g>
		<path fill="#8BC53F" d="M32.643,40.364c0,0,0.266-0.022,0.727-0.034c0.46-0.001,1.122-0.038,1.91-0.021
			c0.789,0.005,1.707,0.033,2.687,0.088c0.452,0.023,1.002,0.038,1.484,0.048c0.485,0.016,0.989-0.033,1.593,0.015
			c0.312,0.024,0.618,0.107,0.915,0.198c0.264,0.111,0.552,0.213,0.783,0.339c0.494,0.249,0.912,0.49,1.35,0.727
			c0.857,0.485,1.649,0.917,2.321,1.316c1.3,0.755,2.167,1.259,2.167,1.259l-0.067,0.625c0,0-0.277-0.058-0.787-0.212
			c-0.244-0.081-0.486-0.183-0.794-0.297c-0.3-0.118-0.647-0.239-1.007-0.404c-0.723-0.318-1.571-0.701-2.44-1.149
			c-0.431-0.22-0.875-0.447-1.328-0.679c-0.442-0.225-0.834-0.399-1.249-0.434c-0.438-0.047-0.983-0.05-1.526-0.094
			c-0.546-0.036-1.008-0.108-1.531-0.188c-0.97-0.155-1.872-0.325-2.644-0.488c-0.773-0.152-1.411-0.329-1.861-0.429
			C32.897,40.442,32.643,40.364,32.643,40.364z"/>
	</g>
	<path fill="#B9D432" d="M54.449,37.63l0.693-0.673l0.074,0.431c0,0,1.393-0.695,2.258-0.742l-0.01,0.199
		c0,0,1.92-0.849,2.754-0.625l-0.021,0.401c0,0,2.311-0.401,3.408-0.009l-0.129,0.239c0,0,2.832,0.295,4.402,1.042l-0.195,0.101
		c0,0,2.438,0.372,3.301,1.011l-0.326,0.346l1.188,0.625l-0.801,0.839l0.518,0.207c0,0-0.65,1.702-2.201,2.387l0.496-0.048
		c0,0-1.131,1.876-2.873,2.173l-0.676,0.109l0.531,0.331c0,0-1.658,1.707-3.758,1.443l-1.291-0.127l0.57,0.382
		c0,0-2.539,0.127-4.002-0.625l0.074,0.265l-0.99-0.232l-1.838-0.913l-1.227-1l-1.203-0.711l-1.392-0.321l1.759-6.672L54.449,37.63z
		"/>
	<g>
		<path fill="#8BC53F" d="M69.023,40.239c0,0-0.232,0.13-0.647,0.332c-0.419,0.192-1.006,0.499-1.729,0.81
			c-0.72,0.322-1.566,0.677-2.481,1.033c-0.422,0.166-0.928,0.38-1.371,0.571c-0.448,0.187-0.887,0.439-1.456,0.646
			c-0.294,0.107-0.605,0.158-0.914,0.199c-0.286,0.008-0.591,0.035-0.854,0.015c-0.553-0.022-1.032-0.068-1.529-0.104
			c-0.98-0.087-1.88-0.151-2.657-0.237c-1.495-0.148-2.492-0.248-2.492-0.248l-0.201-0.596c0,0,0.276-0.063,0.806-0.135
			c0.256-0.027,0.519-0.035,0.846-0.058c0.322-0.017,0.688-0.051,1.084-0.05c0.79-0.011,1.72-0.013,2.696,0.035
			c0.483,0.022,0.982,0.045,1.489,0.068c0.496,0.021,0.925,0.019,1.316-0.122c0.418-0.139,0.916-0.362,1.428-0.546
			c0.512-0.194,0.962-0.32,1.471-0.463c0.947-0.261,1.839-0.48,2.608-0.651c0.767-0.182,1.42-0.286,1.871-0.38
			C68.76,40.273,69.023,40.239,69.023,40.239z"/>
	</g>
	<path fill="#B7D333" d="M47.93,94.168c-12.256,0-26.402-7.623-35.056-17.353c-8.1-9.109-10.431-20.4-9.09-31.793
		c0.128-1.089,1.88,0.335,2.972,0.264c1.062-0.069,25.27-0.334,28.761-0.334c0.315,0,0.557,0.011,0.801,0.06
		c0.171,0.017,0.441,0.017,0.78,0.017c0.765,0,1.791-0.027,2.88-0.053c1.263-0.033,2.601-0.07,3.712-0.07
		c0.927,0,1.587,0.024,2.081,0.074c1.101,0.108,3.898,0.227,6.608,0.339c2.252,0.094,4.51,0.188,5.924,0.284
		c0.623,0.044,1.338,0.056,2.104,0.056c1.137,0,2.373-0.03,3.578-0.062c1.188-0.029,2.35-0.059,3.361-0.059
		c0.877,0,1.578,0.023,2.129,0.067c0.428,0.038,0.926,0.052,1.455,0.052c2.352,0,5.482-0.282,6.898-0.46
		c0.789-0.099,1.574-0.326,2.336-0.545c0.648-0.188,1.316-0.383,1.99-0.491c1.254-0.212,4.811-0.839,4.811-0.839
		c0.133-0.024-1.33-0.348-1.199-0.348c0.939,0,3.398-1.343,3.729-0.43c0.195,0.538,6.096,11.931-0.266,22.606l-0.875,1.479
		c-5.785,9.808-15.641,26.441-38.652,27.498C49.114,94.153,48.52,94.168,47.93,94.168z"/>
	<path fill="#FFFFFF" d="M6.038,45.286c0,0,28.997-1.891,29.836-1.681c0.844,0.209,7.568-0.21,9.671,0
		c2.1,0.209,9.456,0.42,12.606,0.629c3.152,0.212,8.615-0.209,11.139,0c2.521,0.212,7.143-0.209,8.822-0.42
		c1.686-0.209,3.154-0.841,4.414-1.05c1.262-0.21,4.836-0.841,4.836-0.841s4.412,12.188-1.471,22.065
		c-5.887,9.877-13.66,25.005-36.565,26.057C26.42,91.097,3.096,70.293,6.038,45.286z"/>
	<path fill="#B7D333" d="M47.658,86.907c-10.979,0-22.196-4.333-29.998-13.109c-6.78-7.623-10.125-16.922-9.535-26.371
		c6.089-0.393,24.591-1.568,27.393-1.568h0.064c0.341,0.056,0.783,0.076,1.517,0.076c0.793,0,1.865-0.026,2.997-0.057
		c1.222-0.031,2.518-0.063,3.595-0.063c0.937,0,1.402,0.025,1.624,0.049c1.236,0.125,3.975,0.237,6.875,0.36
		c2.211,0.092,4.42,0.184,5.809,0.276c0.715,0.047,1.533,0.065,2.408,0.065c1.172,0,2.447-0.033,3.695-0.063
		c1.146-0.029,2.268-0.058,3.244-0.058c0.672,0,1.271,0.012,1.756,0.054c0.537,0.045,1.158,0.065,1.828,0.065
		c2.883,0,6.365-0.36,7.465-0.495c1.139-0.142,2.141-0.433,3.025-0.688c0.551-0.159,1.068-0.307,1.48-0.379
		c0.619-0.102,1.803-0.307,2.846-0.491c0.873,3.547,2.178,11.629-1.805,18.317l-0.887,1.498
		c-5.607,9.498-13.277,21.602-33.834,22.544C48.702,86.893,48.177,86.907,47.658,86.907z"/>
	<g>
		<path fill="#FFFFFF" d="M46.679,45.706c0,0-0.215,2.706-0.603,6.771c-0.192,2.032-0.47,4.396-0.741,6.936
			c-0.249,2.543-0.685,5.234-1.043,7.941c-0.094,0.676-0.188,1.353-0.282,2.025l-0.07,0.505c-0.035,0.223-0.068,0.346-0.103,0.523
			l-0.202,0.984c-0.27,1.295-0.609,2.683-0.97,3.919c-0.352,1.261-0.748,2.468-1.162,3.602c-0.405,1.136-0.843,2.194-1.273,3.163
			c-0.86,1.938-1.726,3.501-2.402,4.579c-0.338,0.541-0.62,0.96-0.833,1.253c-0.2,0.282-0.354,0.472-0.363,0.482l-3.021-2.574
			c0,0,0.083-0.099,0.237-0.285c0.173-0.212,0.431-0.555,0.747-1.005c0.634-0.899,1.491-2.267,2.375-4.005
			c0.442-0.869,0.899-1.827,1.332-2.865c0.442-1.034,0.873-2.146,1.266-3.315c0.413-1.186,0.763-2.336,1.108-3.639
			c0.332-1.281,0.669-2.582,1.006-3.883c0.655-2.622,1.388-5.232,1.96-7.708c0.582-2.473,1.152-4.781,1.596-6.768
			C46.126,48.37,46.679,45.706,46.679,45.706z"/>
	</g>
	<g>
		<path fill="#FFFFFF" d="M48.149,45.706c0,0,1.451,2.242,3.442,5.694c0.991,1.729,2.121,3.759,3.298,5.949l0.054,0.103l0.027,0.052
			l0.014,0.026l0.042,0.093l0.094,0.215l0.189,0.432c0.126,0.289,0.253,0.581,0.381,0.874c0.268,0.574,0.507,1.192,0.719,1.84
			c0.424,1.246,0.854,2.511,1.286,3.776c0.204,0.624,0.475,1.191,0.698,1.79l0.347,0.885l0.087,0.22l0.092,0.197l0.211,0.442
			c0.558,1.18,1.123,2.333,1.635,3.465c0.54,1.11,1.062,2.184,1.556,3.201c0.499,1.006,0.95,2.015,1.374,2.922
			c0.402,0.926,0.799,1.749,1.093,2.524c0.288,0.778,0.539,1.458,0.746,2.017c0.396,1.123,0.623,1.764,0.623,1.764l-2.395,0.789
			c0,0-0.251-0.596-0.689-1.637c-0.211-0.522-0.467-1.157-0.761-1.885c-0.299-0.728-0.723-1.534-1.134-2.423
			c-0.413-0.896-0.835-1.855-1.344-2.894c-0.496-1.034-1.019-2.124-1.56-3.251c-0.521-1.128-1.023-2.31-1.552-3.503l-0.196-0.449
			l-0.108-0.252l-0.087-0.24l-0.346-0.966c-0.222-0.644-0.476-1.297-0.655-1.941c-0.36-1.265-0.721-2.529-1.075-3.774l-0.249-0.906
			c-0.105-0.305-0.211-0.608-0.315-0.91c-0.105-0.302-0.212-0.602-0.316-0.899l-0.157-0.445l-0.077-0.221l-0.005-0.014
			c-0.028-0.064,0.032,0.072,0.023,0.053l-0.012-0.027l-0.023-0.054l-0.047-0.106c-0.982-2.285-1.87-4.433-2.608-6.285
			C49.002,48.238,48.149,45.706,48.149,45.706z"/>
	</g>
	<g>
		<path fill="#FFFFFF" d="M48.361,46.336c0,0,0.607,0.173,1.648,0.541c1.044,0.361,2.523,0.912,4.268,1.657
			c0.874,0.37,1.815,0.783,2.795,1.255c0.993,0.447,2.005,0.989,3.066,1.526c1.05,0.557,2.119,1.164,3.204,1.788
			c1.054,0.672,2.17,1.291,3.208,2.029c1.051,0.719,2.119,1.42,3.103,2.206c0.501,0.382,0.997,0.761,1.487,1.136
			c0.483,0.385,0.936,0.796,1.394,1.185c0.456,0.394,0.904,0.779,1.343,1.158c0.427,0.393,0.822,0.8,1.22,1.186
			c0.785,0.779,1.555,1.493,2.171,2.244c0.64,0.731,1.226,1.401,1.745,1.995c0.473,0.635,0.884,1.189,1.223,1.646
			c0.678,0.917,1.064,1.44,1.064,1.44l-2.418,1.512c0,0-0.327-0.515-0.898-1.415c-0.287-0.451-0.636-0.999-1.035-1.628
			c-0.451-0.597-0.96-1.269-1.515-2.003c-0.53-0.756-1.217-1.485-1.913-2.285c-0.354-0.396-0.704-0.814-1.086-1.221
			c-0.396-0.394-0.8-0.796-1.211-1.205c-0.416-0.406-0.823-0.835-1.264-1.241c-0.449-0.397-0.903-0.798-1.361-1.203
			c-0.9-0.833-1.891-1.588-2.867-2.365c-0.965-0.794-2.015-1.474-3.004-2.207c-1.021-0.686-2.033-1.358-3.03-1.979
			c-1.009-0.602-1.972-1.209-2.923-1.718c-0.938-0.535-1.841-1.01-2.682-1.437c-1.679-0.86-3.113-1.511-4.126-1.942
			C48.954,46.551,48.361,46.336,48.361,46.336z"/>
	</g>
	<g>
		<path fill="#FFFFFF" d="M47.307,45.494c0,0-0.585,0.314-1.572,0.914c-0.493,0.3-1.075,0.696-1.749,1.132
			c-0.68,0.426-1.397,0.99-2.204,1.558c-0.813,0.561-1.644,1.238-2.527,1.945c-0.886,0.702-1.821,1.438-2.728,2.277
			c-0.915,0.827-1.887,1.645-2.821,2.536c-0.916,0.909-1.847,1.833-2.778,2.757c-0.954,0.895-1.794,1.908-2.663,2.857
			c-0.845,0.949-1.741,1.921-2.488,2.789c-0.773,0.97-1.521,1.908-2.23,2.798c-0.696,0.895-1.408,1.721-1.969,2.518
			c-2.227,3.175-3.711,5.291-3.711,5.291l-3.318-2.424c0,0,1.762-2.059,4.404-5.146c0.66-0.766,1.429-1.501,2.213-2.33
			c0.791-0.818,1.625-1.681,2.487-2.573c0.961-0.927,1.893-1.753,2.87-2.661c0.979-0.883,1.927-1.825,2.988-2.646
			c1.036-0.844,2.072-1.688,3.092-2.519c1.035-0.809,2.104-1.543,3.108-2.285c0.996-0.753,2.016-1.405,2.978-2.024
			c0.959-0.624,1.859-1.22,2.734-1.704c0.869-0.491,1.638-0.981,2.364-1.343c0.721-0.371,1.338-0.708,1.861-0.96
			C46.698,45.748,47.307,45.495,47.307,45.494z"/>
	</g>
	<path fill="#FFFFFF" d="M42.263,44.867c0,0-0.206,1.469,1.685,2.102c1.89,0.628,2.313,1.891,3.782,1.68
		c1.472-0.21,2.729-0.63,2.729-0.63l1.73-1.795l1.002-0.729L42.263,44.867z"/>
	<g>
		<path fill="#FFFFFF" d="M39.01,55.688c0,0-0.216,0.364-0.566,0.8c-0.176,0.218-0.377,0.471-0.613,0.708
			c-0.212,0.265-0.488,0.488-0.724,0.751c-0.261,0.238-0.522,0.476-0.767,0.699c-0.238,0.229-0.515,0.407-0.721,0.587
			c-0.421,0.353-0.813,0.551-0.813,0.551s0.025-0.414,0.229-0.979c0.087-0.293,0.274-0.576,0.469-0.889
			c0.104-0.15,0.197-0.321,0.336-0.453l0.394-0.425c0.28-0.269,0.594-0.499,0.896-0.7c0.315-0.186,0.615-0.344,0.898-0.439
			C38.58,55.688,39.01,55.688,39.01,55.688z"/>
	</g>
	<g>
		<path fill="#FFFFFF" d="M19.364,51.17c0,0-0.03,0.141-0.088,0.346c-0.058,0.203-0.144,0.47-0.267,0.754
			c-0.125,0.275-0.275,0.578-0.47,0.843c-0.176,0.287-0.413,0.528-0.642,0.771c-0.232,0.238-0.519,0.428-0.779,0.615
			c-0.262,0.185-0.586,0.309-0.848,0.435c-0.275,0.117-0.544,0.204-0.756,0.257c-0.208,0.055-0.355,0.076-0.355,0.076
			s-0.043-0.132-0.069-0.345c-0.029-0.214-0.038-0.511,0-0.853c0.032-0.347,0.171-0.684,0.342-1.041
			c0.167-0.363,0.436-0.667,0.718-0.961c0.585-0.566,1.355-0.909,2.019-0.983c0.331-0.037,0.628-0.028,0.848,0.006
			C19.231,51.118,19.364,51.17,19.364,51.17z"/>
	</g>
	<g>
		<path fill="#FFFFFF" d="M29.659,67.665c0,0-0.243,0.498-0.688,1.136c-0.222,0.32-0.49,0.683-0.793,1.051
			c-0.304,0.369-0.633,0.752-0.975,1.125c-0.353,0.361-0.684,0.737-1.04,1.056c-0.328,0.336-0.652,0.639-0.954,0.885
			c-0.545,0.523-1.013,0.843-1.013,0.843s0.101-0.535,0.432-1.276c0.179-0.354,0.41-0.758,0.686-1.169
			c0.285-0.399,0.619-0.804,0.964-1.194c0.371-0.366,0.727-0.747,1.113-1.048c0.375-0.312,0.743-0.585,1.082-0.792
			C29.135,67.85,29.659,67.665,29.659,67.665z"/>
	</g>
	<g>
		<path fill="#FFFFFF" d="M30.387,74.543c0,0-0.005,0.168-0.045,0.43c-0.038,0.264-0.113,0.613-0.231,1.01
			c-0.244,0.787-0.697,1.702-1.29,2.498c-0.591,0.8-1.291,1.493-1.953,1.964c-0.315,0.237-0.607,0.432-0.841,0.562
			c-0.229,0.133-0.389,0.202-0.389,0.202s-0.042-0.158-0.062-0.423c-0.022-0.265-0.027-0.645,0.029-1.08
			c0.075-0.417,0.206-0.89,0.402-1.366c0.21-0.457,0.473-0.929,0.786-1.355c0.635-0.849,1.453-1.544,2.203-1.934
			c0.372-0.196,0.717-0.33,0.972-0.407C30.22,74.565,30.387,74.543,30.387,74.543z"/>
	</g>
	<g>
		<path fill="#FFFFFF" d="M58.66,53.796c0,0,0.431,0,0.982,0.213c0.283,0.095,0.583,0.254,0.897,0.439
			c0.302,0.201,0.616,0.431,0.896,0.7l0.395,0.425c0.139,0.131,0.231,0.302,0.336,0.452c0.194,0.313,0.382,0.596,0.469,0.889
			c0.204,0.566,0.229,0.979,0.229,0.979s-0.393-0.198-0.813-0.551c-0.206-0.181-0.483-0.358-0.721-0.587
			c-0.245-0.224-0.506-0.462-0.767-0.7c-0.235-0.263-0.512-0.486-0.724-0.751c-0.235-0.238-0.437-0.491-0.612-0.708
			C58.876,54.16,58.66,53.795,58.66,53.796z"/>
	</g>
	<g>
		<path fill="#FFFFFF" d="M68.012,65.773c0,0,0.523,0.185,1.186,0.615c0.338,0.207,0.706,0.479,1.081,0.791
			c0.387,0.302,0.743,0.683,1.114,1.048c0.345,0.391,0.679,0.795,0.964,1.194c0.276,0.412,0.507,0.815,0.686,1.17
			c0.331,0.741,0.431,1.276,0.431,1.276s-0.468-0.319-1.012-0.843c-0.302-0.247-0.625-0.55-0.953-0.886
			c-0.356-0.318-0.688-0.694-1.039-1.056c-0.342-0.373-0.672-0.755-0.976-1.124s-0.571-0.73-0.793-1.051
			C68.254,66.271,68.012,65.773,68.012,65.773z"/>
	</g>
	<g>
		<path fill="#FFFFFF" d="M64.271,70.727c0,0,0.167,0.022,0.419,0.101c0.256,0.077,0.601,0.211,0.972,0.408
			c0.75,0.389,1.567,1.085,2.202,1.933c0.312,0.427,0.575,0.898,0.785,1.355c0.195,0.477,0.326,0.949,0.401,1.365
			c0.057,0.436,0.051,0.815,0.028,1.08c-0.021,0.265-0.062,0.423-0.062,0.423s-0.16-0.069-0.389-0.202
			c-0.234-0.131-0.526-0.325-0.841-0.562c-0.662-0.471-1.361-1.163-1.952-1.963c-0.593-0.796-1.046-1.712-1.289-2.498
			c-0.117-0.396-0.192-0.746-0.23-1.01C64.276,70.895,64.271,70.727,64.271,70.727z"/>
	</g>
	<g>
		<path fill="#FFFFFF" d="M30.817,50.537c0,0-0.304,0.352-0.768,0.776c-0.236,0.207-0.5,0.456-0.801,0.685
			c-0.157,0.106-0.288,0.256-0.45,0.367c-0.156,0.119-0.32,0.233-0.474,0.359l-0.467,0.358c-0.146,0.126-0.332,0.209-0.463,0.336
			c-0.138,0.121-0.289,0.222-0.431,0.322c-0.133,0.107-0.295,0.182-0.406,0.282c-0.461,0.383-0.891,0.614-0.891,0.614
			s0.059-0.445,0.333-1.076c0.061-0.164,0.168-0.303,0.275-0.462c0.108-0.157,0.221-0.327,0.356-0.486
			c0.256-0.333,0.607-0.597,0.934-0.893c0.363-0.243,0.726-0.488,1.097-0.66c0.373-0.168,0.725-0.312,1.05-0.383
			C30.347,50.5,30.817,50.537,30.817,50.537z"/>
	</g>
	<g>
		<path fill="#FFFFFF" d="M21.989,58.42c0,0-0.318,0.516-0.867,1.177c-0.274,0.333-0.603,0.706-0.966,1.092
			c-0.365,0.384-0.761,0.78-1.162,1.171c-0.422,0.371-0.801,0.774-1.211,1.106c-0.39,0.349-0.744,0.678-1.086,0.939
			c-0.173,0.131-0.298,0.269-0.435,0.379c-0.127,0.116-0.25,0.212-0.349,0.294c-0.202,0.16-0.331,0.25-0.331,0.25
			s0.036-0.143,0.121-0.388c0.044-0.122,0.096-0.273,0.168-0.439c0.074-0.164,0.14-0.373,0.262-0.552
			c0.111-0.189,0.234-0.395,0.378-0.602c0.144-0.206,0.28-0.444,0.463-0.644c0.345-0.419,0.734-0.856,1.149-1.255
			c0.431-0.384,0.854-0.777,1.297-1.089c0.432-0.325,0.855-0.603,1.237-0.814C21.411,58.604,21.989,58.42,21.989,58.42z"/>
	</g>
	<g>
		<path fill="#FFFFFF" d="M47.995,51.818c0,0,0.508,0.512,1.024,1.372c0.541,0.85,1.08,2.048,1.453,3.303
			c0.187,0.628,0.343,1.262,0.438,1.879c0.099,0.613,0.164,1.19,0.153,1.71c0.009,0.254-0.006,0.49-0.016,0.697
			c0.002,0.2-0.062,0.416-0.088,0.562c-0.072,0.306-0.129,0.456-0.129,0.456s-0.093-0.173-0.228-0.432
			c-0.071-0.135-0.128-0.27-0.231-0.452c-0.1-0.179-0.217-0.377-0.318-0.597c-0.445-0.867-0.958-2.057-1.337-3.287
			c-0.385-1.23-0.649-2.503-0.716-3.504C47.905,52.536,47.995,51.818,47.995,51.818z"/>
	</g>
	<g>
		<path fill="#FFFFFF" d="M45.728,77.55c0,0,0.272,0.692,0.393,1.736c0.069,0.521,0.115,1.129,0.103,1.777
			c0.006,0.648-0.082,1.336-0.174,2.021c-0.097,0.686-0.291,1.362-0.49,1.983c-0.107,0.31-0.252,0.604-0.386,0.879
			c-0.135,0.274-0.272,0.529-0.416,0.756c-0.303,0.455-0.628,0.798-0.857,1.021c-0.229,0.226-0.381,0.334-0.381,0.334
			s-0.021-0.202-0.022-0.521c-0.004-0.161,0-0.35,0.014-0.557c-0.001-0.215,0.045-0.43,0.051-0.685
			c0.002-0.518,0.072-1.083,0.164-1.684c0.031-0.309,0.081-0.621,0.139-0.938c0.055-0.316,0.14-0.63,0.196-0.955
			c0.262-1.288,0.623-2.574,0.974-3.545C45.376,78.204,45.729,77.55,45.728,77.55z"/>
	</g>
	<g>
		<path fill="#FFFFFF" d="M57.432,79.942c0,0,0.338,0.345,0.653,0.958c0.174,0.302,0.312,0.675,0.469,1.076
			c0.111,0.411,0.26,0.849,0.314,1.304c0.056,0.455,0.144,0.908,0.09,1.344c-0.041,0.435-0.067,0.835-0.188,1.173
			c-0.219,0.677-0.499,1.077-0.499,1.077s-0.203-0.478-0.306-1.116c-0.048-0.32-0.151-0.692-0.189-1.084
			c-0.032-0.392-0.114-0.81-0.13-1.232c-0.088-0.841-0.164-1.696-0.195-2.36C57.418,80.419,57.432,79.942,57.432,79.942z"/>
	</g>
	<g>
		<path fill="#FFFFFF" d="M72.92,53.426c0,0,0.686,0.223,1.538,0.75c0.871,0.507,1.897,1.326,2.805,2.27
			c0.454,0.473,0.884,0.965,1.251,1.47c0.368,0.5,0.69,0.982,0.919,1.45c0.125,0.222,0.22,0.438,0.306,0.627
			c0.094,0.177,0.136,0.398,0.18,0.54c0.076,0.304,0.094,0.464,0.094,0.464s-0.162-0.11-0.4-0.279
			c-0.124-0.088-0.237-0.181-0.412-0.296c-0.171-0.113-0.365-0.235-0.557-0.385c-0.792-0.566-1.793-1.39-2.694-2.309
			c-0.905-0.917-1.724-1.927-2.241-2.787C73.169,54.104,72.92,53.426,72.92,53.426z"/>
	</g>
	<g>
		<path fill="#FFFFFF" d="M60.936,48.123c0,0,0.439-0.199,1.125-0.286c0.343-0.059,0.74-0.062,1.172-0.072
			c0.424,0.037,0.886,0.047,1.333,0.152c0.446,0.104,0.902,0.177,1.294,0.376c0.394,0.188,0.761,0.35,1.037,0.578
			c0.562,0.438,0.842,0.839,0.842,0.839s-0.519,0.027-1.154-0.096c-0.316-0.065-0.702-0.096-1.083-0.194
			c-0.379-0.104-0.801-0.169-1.203-0.301c-0.82-0.206-1.65-0.427-2.286-0.625C61.379,48.299,60.936,48.123,60.936,48.123z"/>
	</g>
	<path fill="#FFFFFF" d="M79.537,45.726c-3.203,3.632-2.438,7.656,1.883,9.848c-4.32-2.191-9.52-1.203-12.73,2.43
		c3.211-3.633,2.443-7.656-1.877-9.859C71.133,50.347,76.334,49.357,79.537,45.726z"/>
	<path fill="#FFFFFF" d="M50.261,27.8c-1.322,1.501-1.008,3.164,0.778,4.068c-1.786-0.904-3.935-0.494-5.261,1.006
		c1.326-1.5,1.01-3.164-0.775-4.075C46.789,29.71,48.939,29.301,50.261,27.8z"/>
	<path fill="#FFFFFF" d="M57.74,4.998c-1.326,1.5-1.01,3.163,0.777,4.068c-1.787-0.905-3.936-0.495-5.262,1.005
		c1.326-1.5,1.01-3.164-0.775-4.075C54.266,6.907,56.414,6.498,57.74,4.998z"/>
	<g>
		<path fill="#231F20" d="M67.863,55.184c-1.129-0.811-3.031-0.107-4.262,1.575c-0.639,0.884-0.963,1.858-0.965,2.697
			c1.203-1.275,2.803-1.735,3.783-1.009c0.539,0.379,0.793,1.048,0.787,1.832c0.166-0.183,0.32-0.362,0.469-0.563
			C68.9,58.03,68.977,56.004,67.863,55.184z"/>
		<path fill="#231F20" d="M30.272,55.059c1.234-0.635,3.008,0.354,3.961,2.204c0.49,0.974,0.661,1.985,0.537,2.822
			c-0.995-1.447-2.498-2.154-3.583-1.6c-0.592,0.306-0.947,0.922-1.055,1.682c-0.135-0.181-0.267-0.381-0.369-0.612
			C28.801,57.704,29.037,55.688,30.272,55.059z"/>
		<g>
			<g>
				<g>
					<path fill="#3F3B3C" d="M37.343,61.931c0.944-0.032,1.856,0.415,2.753,0.959c0.9,0.553,1.856,1.184,2.825,1.691
						c0.961,0.521,1.981,0.897,2.951,1.122c0.988,0.227,1.868,0.275,2.866,0.268c0.99-0.062,1.864-0.171,2.833-0.467
						c0.952-0.293,1.943-0.739,2.865-1.326c0.93-0.573,1.838-1.27,2.696-1.884c0.855-0.606,1.732-1.118,2.677-1.153
						c0.923-0.037,1.853,0.442,2.584,1.615c0.717,1.159,1.153,3.044,0.777,5.387c-0.176,1.172-0.605,2.417-1.253,3.692
						c-0.687,1.242-1.593,2.522-2.81,3.641c-1.213,1.109-2.677,2.128-4.377,2.833c-1.692,0.706-3.591,1.139-5.521,1.219
						c-1.929,0.055-3.851-0.243-5.588-0.829c-1.745-0.584-3.277-1.496-4.565-2.518c-1.292-1.03-2.287-2.243-3.059-3.434
						c-0.735-1.228-1.251-2.438-1.51-3.595c-0.54-2.31-0.238-4.219,0.394-5.426C35.527,62.506,36.42,61.961,37.343,61.931z"/>
				</g>
			</g>
		</g>
		<path fill="#EA2227" d="M55.041,73.385c0.146,1.885-2.533,3.57-5.874,3.735c-3.333,0.17-6.068-1.236-6.209-3.142
			c-0.23-3.101,4.443-1.835,5.944-1.887C50.404,72.032,54.773,69.882,55.041,73.385z"/>
		<g>
			<defs>
				<path id="SVGID_1_" d="M37.343,61.931c1.931-0.029,3.653,1.674,5.606,2.636c0.502,0.245,0.933,0.51,1.477,0.655
					c0.44,0.249,1.019,0.291,1.45,0.473c1.011,0.174,1.869,0.244,2.859,0.276c0.983-0.101,1.834-0.235,2.828-0.475
					c0.421-0.211,0.995-0.293,1.413-0.572c0.535-0.188,0.945-0.479,1.428-0.761c1.881-1.091,3.477-2.912,5.402-3.024
					c0.936-0.035,1.807,0.439,2.539,1.616c0.375,0.586,0.719,1.339,0.809,2.237c0.1,0.895,0.266,2.008-0.012,3.136
					c-0.209,1.158-0.543,2.449-1.266,3.675c-0.605,1.32-1.627,2.476-2.777,3.666c-2.42,2.218-5.982,3.88-9.89,4.058
					c-3.906,0.095-7.577-1.312-10.15-3.354c-1.229-1.108-2.331-2.189-3.026-3.46c-0.807-1.175-1.229-2.438-1.518-3.578
					c-0.358-1.103-0.272-2.228-0.236-3.122c0.028-0.903,0.317-1.679,0.648-2.293C35.574,62.497,36.411,61.959,37.343,61.931z"/>
			</defs>
			<clipPath id="SVGID_2_">
				<use xlink:href="#SVGID_1_"  overflow="visible"/>
			</clipPath>
			<path clip-path="url(#SVGID_2_)" fill="#FFFFFF" d="M55.316,68.046c0.006,0.714-0.572,1.304-1.287,1.309l-10.291,0.038
				c-0.727,0.011-1.312-0.569-1.321-1.285l-0.021-4.398c-0.005-0.727,0.578-1.308,1.307-1.316l10.289-0.049
				c0.719-0.004,1.297,0.581,1.311,1.298L55.316,68.046z"/>
			<polygon clip-path="url(#SVGID_2_)" fill="#231F20" points="50.541,71.201 47.352,70.932 47.298,60.093 50.496,60.948 			"/>
		</g>
	</g>
</g>
</svg>
