<?xml version="1.0" encoding="utf-8"?>
<!-- Generator: Adobe Illustrator 16.0.4, SVG Export Plug-In . SVG Version: 6.00 Build 0)  -->
<!DOCTYPE svg PUBLIC "-//W3C//DTD SVG 1.1//EN" "http://www.w3.org/Graphics/SVG/1.1/DTD/svg11.dtd">
<svg version="1.1" id="Layer_1" xmlns="http://www.w3.org/2000/svg" xmlns:xlink="http://www.w3.org/1999/xlink" x="0px" y="0px"
	 width="73.667px" height="87.667px" viewBox="-0.991 1.243 73.667 87.667" enable-background="new -0.991 1.243 73.667 87.667"
	 xml:space="preserve">
<g>
	<g>
		<path fill="#F69220" d="M7.278,71.19C0.785,61.066,0.195,48.036,5.737,37.183C9.881,29.068,16.824,23.01,25.29,20.125
			c8.495-2.893,17.551-2.253,25.5,1.807c5.258,2.686,9.185,5.486,11.671,8.321c0.99,1.13,1.899,2.338,2.703,3.591
			c6.305,9.828,6.457,22.767,0.409,34.609c-8.388,16.42-28.825,22.828-45.555,14.281C14.826,80.084,10.422,76.091,7.278,71.19z"/>
		<path fill="#F69220" d="M64.264,34.42c6.327,9.864,5.942,22.608,0.354,33.548c-8.289,16.23-28.193,21.945-44.114,13.814
			c-5.203-2.658-9.368-6.557-12.327-11.168c-6.092-9.499-7.071-22.02-1.487-32.946c8.288-16.235,27.691-22.917,43.613-14.785
			c3.885,1.984,8.464,4.778,11.354,8.075C62.628,32.063,63.496,33.221,64.264,34.42 M66.064,33.267l-1.799,1.154L66.064,33.267
			c-0.833-1.299-1.775-2.55-2.801-3.719c-2.576-2.938-6.608-5.821-11.987-8.569c-8.208-4.191-17.558-4.855-26.332-1.866
			c-8.729,2.976-15.89,9.218-20.159,17.582c-2.866,5.611-4.203,11.87-3.865,18.097c0.33,6.051,2.217,11.922,5.458,16.976
			c3.246,5.06,7.794,9.181,13.154,11.919c8.268,4.224,17.685,5.062,26.515,2.369c8.963-2.734,16.236-8.814,20.477-17.115
			c2.956-5.787,4.522-12.064,4.524-18.148C71.052,44.417,69.33,38.358,66.064,33.267L66.064,33.267z"/>
	</g>
	<path fill="#FFFFFF" d="M21.671,34.836c0.762-3.445-1.145-5.742-4.672-5.617c3.527-0.125,6.492-2.586,7.259-6.033
		c-0.767,3.447,1.142,5.74,4.666,5.621C25.399,28.926,22.432,31.391,21.671,34.836z"/>
	<path fill="#F27123" d="M23.988,21.747c5.737-2.302,12.067-2.958,18.248-1.694l4.489,4.552l-0.572,0.845
		C46.153,25.449,34.67,19.345,23.988,21.747z"/>
	<path fill="#F27123" d="M68.178,43.898c-0.725,2.799-1.772,5.557-3.125,8.211c-8.29,16.23-28.194,21.946-44.116,13.816
		C12.047,61.382,6.198,53.218,4.202,44.068c-4.05,14.719,2.427,30.629,16.302,37.715c15.921,8.131,35.825,2.416,44.114-13.814
		C68.539,60.292,69.898,51.732,68.178,43.898z"/>
	<path fill="#8BC541" d="M51.437,30.602c0,0-2.41-17.982-12.592-24.224c-14.105-8.646-24.5-1.799-29.999,6.511
		c0,0,9.13-2.116,22.512,3.629C37.619,19.208,46.353,24.194,51.437,30.602z"/>
	<g>
		<path fill="#39B24A" d="M25.222,7.908c0.007-0.042,0.461-0.005,1.29,0.092c0.416,0.04,0.909,0.155,1.496,0.256
			c0.291,0.048,0.597,0.131,0.923,0.211c0.325,0.084,0.675,0.158,1.034,0.266c0.355,0.112,0.73,0.229,1.12,0.349
			c0.39,0.126,0.784,0.284,1.199,0.433c0.824,0.32,1.688,0.697,2.578,1.147c0.889,0.444,1.792,0.969,2.711,1.547
			c0.452,0.3,0.914,0.605,1.368,0.931c0.446,0.335,0.913,0.667,1.354,1.034c0.904,0.713,1.731,1.475,2.514,2.227
			c0.768,0.765,1.49,1.522,2.13,2.287c0.648,0.756,1.229,1.505,1.742,2.225c0.518,0.718,0.966,1.411,1.354,2.054
			c1.551,2.582,2.077,4.41,1.787,4.538c-0.289,0.133-1.279-1.389-2.987-3.742c-0.431-0.588-0.903-1.228-1.428-1.901
			c-0.522-0.673-1.092-1.384-1.714-2.112c-0.614-0.734-1.298-1.472-2.014-2.229c-0.729-0.741-1.492-1.506-2.325-2.233
			c-0.407-0.375-0.833-0.713-1.244-1.059c-0.42-0.339-0.84-0.659-1.257-0.977c-0.843-0.61-1.676-1.178-2.501-1.671
			c-0.819-0.498-1.629-0.929-2.399-1.302c-0.389-0.179-0.758-0.366-1.127-0.521c-0.369-0.152-0.722-0.296-1.06-0.435
			c-0.341-0.136-0.673-0.237-0.983-0.352c-0.312-0.108-0.604-0.217-0.886-0.292c-0.56-0.156-1.038-0.322-1.439-0.411
			C25.659,8.074,25.215,7.952,25.222,7.908z"/>
	</g>
	<g>
		<path fill="none" stroke="#231F20" stroke-width="0.3793" stroke-miterlimit="10" d="M42.969,52.2"/>
	</g>
	<g>
		<path fill="none" stroke="#231F20" stroke-width="0.3793" stroke-miterlimit="10" d="M31.803,46.63"/>
	</g>
	<g>
		<path fill="#895D3B" d="M50.999,13.412c0.841-0.447,3.5-0.74,4.107,0.63c0.589,5.205-2.818,9.582-3.53,10.392
			c-0.337,0.43-0.742,0.741-1.097,1.048c-0.374,0.281-0.75,0.5-1.087,0.694c-0.707,0.329-1.293,0.52-1.745,0.54
			c-0.439,0.04-0.716-0.033-0.805-0.216c-0.189-0.389,0.45-1.045,1.302-1.992c0.834-0.97,1.786-2.24,2.188-3.922
			c0.415-1.686,0.321-3.449,0.284-4.778C50.569,14.475,50.138,13.904,50.999,13.412z"/>
	</g>
	<path fill="#F69220" d="M44.705,25.847c0,0,11.826-3.97,17.366,9.582l-12.623-5.312C49.448,30.116,42.182,29.929,44.705,25.847z"/>
	<path fill="#FAAE40" d="M20.542,66.707c0.882,0.45,1.366,1.368,1.305,2.298c0.243-0.203,0.451-0.453,0.606-0.754
		c0.604-1.183,0.134-2.63-1.047-3.233c-1.183-0.603-2.631-0.136-3.234,1.046c-0.153,0.301-0.235,0.619-0.256,0.935
		C18.633,66.406,19.661,66.257,20.542,66.707z"/>
	<path fill="#FAAE40" d="M21.228,72.311c0.885,0.449,1.367,1.372,1.306,2.3c0.243-0.203,0.452-0.455,0.605-0.756
		c0.604-1.181,0.132-2.627-1.048-3.234c-1.183-0.603-2.63-0.133-3.232,1.049c-0.153,0.299-0.234,0.617-0.256,0.935
		C19.319,72.009,20.349,71.859,21.228,72.311z"/>
	<path fill="#FAAE40" d="M17.823,60.632c0.882,0.453,1.365,1.372,1.305,2.299c0.243-0.203,0.453-0.455,0.604-0.755
		c0.604-1.181,0.135-2.63-1.045-3.233c-1.184-0.602-2.629-0.137-3.234,1.048c-0.151,0.302-0.235,0.618-0.257,0.933
		C15.914,60.33,16.943,60.181,17.823,60.632z"/>
	<path fill="#FAAE40" d="M53.224,55.05c0.882,0.449,1.366,1.369,1.304,2.295c0.246-0.2,0.455-0.455,0.608-0.754
		c0.603-1.18,0.133-2.628-1.049-3.233c-1.181-0.603-2.628-0.134-3.233,1.048c-0.15,0.301-0.234,0.617-0.256,0.936
		C51.314,54.745,52.343,54.598,53.224,55.05z"/>
	<path fill="#FAAE40" d="M60.052,56.972c0.882,0.45,1.363,1.371,1.304,2.297c0.242-0.198,0.451-0.451,0.605-0.752
		c0.603-1.182,0.134-2.629-1.048-3.234c-1.18-0.604-2.627-0.135-3.231,1.047c-0.152,0.299-0.235,0.618-0.259,0.935
		C58.14,56.671,59.17,56.525,60.052,56.972z"/>
	<path fill="#FAAE40" d="M56.063,60.616c0.881,0.447,1.365,1.368,1.302,2.297c0.248-0.204,0.453-0.455,0.606-0.756
		c0.605-1.181,0.136-2.627-1.046-3.232c-1.18-0.604-2.63-0.135-3.235,1.046c-0.15,0.302-0.232,0.619-0.253,0.933
		C54.155,60.312,55.178,60.165,56.063,60.616z"/>
	<path fill="#FAAE40" d="M24.004,40.124c-0.88-0.451-1.909-0.304-2.626,0.291c0.021-0.317,0.104-0.633,0.255-0.936
		c0.604-1.178,2.052-1.648,3.233-1.045c1.183,0.605,1.65,2.051,1.046,3.233c-0.15,0.299-0.36,0.552-0.605,0.755
		C25.37,41.493,24.884,40.573,24.004,40.124z"/>
	<path fill="#FAAE40" d="M18.443,35.722c-0.882-0.451-1.908-0.303-2.625,0.29c0.02-0.316,0.102-0.633,0.257-0.933
		c0.603-1.184,2.048-1.651,3.229-1.047c1.182,0.603,1.65,2.05,1.048,3.233c-0.152,0.301-0.359,0.553-0.606,0.755
		C19.809,37.09,19.323,36.171,18.443,35.722z"/>
	<path fill="#FAAE40" d="M17.831,41.089c-0.882-0.451-1.91-0.304-2.626,0.292c0.021-0.32,0.103-0.634,0.259-0.935
		c0.603-1.181,2.051-1.651,3.229-1.047c1.184,0.603,1.651,2.051,1.049,3.232c-0.154,0.3-0.361,0.553-0.606,0.755
		C19.195,42.457,18.713,41.539,17.831,41.089z"/>
	<path fill="#FAAE40" d="M13.435,64.779c0.881,0.451,1.362,1.371,1.301,2.3c0.245-0.201,0.453-0.455,0.607-0.755
		c0.603-1.181,0.135-2.629-1.047-3.232c-1.182-0.603-2.629-0.136-3.234,1.047c-0.15,0.3-0.233,0.617-0.256,0.932
		C11.523,64.476,12.552,64.327,13.435,64.779z"/>
	<g>
		<path fill="#231F20" d="M33.434,35.611c0.08,0.039,0.114,0.174,0.111,0.387c-0.002,0.107-0.014,0.231-0.034,0.376
			c-0.022,0.143-0.058,0.303-0.071,0.488c-0.105,0.724-0.222,1.754-0.117,2.979c0.007,0.31,0.085,0.625,0.129,0.952
			c0.017,0.166,0.072,0.33,0.111,0.498c0.046,0.165,0.08,0.336,0.132,0.506c0.127,0.333,0.217,0.689,0.389,1.025
			c0.08,0.17,0.142,0.351,0.239,0.519c0.091,0.166,0.185,0.338,0.283,0.511c0.415,0.666,0.904,1.335,1.525,1.917
			c0.619,0.58,1.333,1.096,2.13,1.52c0.811,0.398,1.646,0.674,2.481,0.836c0.836,0.161,1.662,0.166,2.448,0.111
			c0.195-0.021,0.39-0.047,0.579-0.068c0.19-0.021,0.374-0.077,0.559-0.109c0.374-0.06,0.715-0.197,1.06-0.289
			c0.168-0.057,0.325-0.13,0.487-0.19c0.157-0.065,0.321-0.118,0.467-0.201c0.292-0.153,0.594-0.277,0.846-0.451
			c1.055-0.634,1.822-1.332,2.348-1.842c0.141-0.121,0.25-0.243,0.354-0.344c0.105-0.101,0.201-0.185,0.285-0.247
			c0.172-0.128,0.3-0.18,0.379-0.141c0.076,0.041,0.1,0.17,0.072,0.389c-0.015,0.111-0.043,0.241-0.085,0.393
			c-0.04,0.152-0.092,0.328-0.183,0.508c-0.313,0.748-0.973,1.77-2.103,2.746c-0.272,0.258-0.604,0.469-0.936,0.707
			c-0.166,0.123-0.354,0.217-0.539,0.322c-0.187,0.102-0.375,0.215-0.575,0.309c-0.408,0.17-0.825,0.378-1.283,0.502
			c-0.229,0.064-0.455,0.151-0.695,0.2c-0.24,0.048-0.482,0.097-0.729,0.146c-0.992,0.147-2.065,0.193-3.157,0.025
			c-1.091-0.17-2.194-0.512-3.242-1.033c-1.034-0.546-1.962-1.236-2.734-2.021c-0.778-0.786-1.37-1.68-1.834-2.573
			c-0.104-0.229-0.206-0.453-0.309-0.678c-0.1-0.223-0.165-0.455-0.245-0.68c-0.17-0.444-0.244-0.902-0.348-1.333
			c-0.038-0.217-0.058-0.435-0.084-0.646c-0.024-0.213-0.059-0.417-0.055-0.624c-0.003-0.412-0.027-0.801,0.023-1.173
			c0.129-1.49,0.57-2.622,0.992-3.313c0.093-0.181,0.205-0.323,0.306-0.448c0.096-0.122,0.188-0.222,0.267-0.299
			C33.236,35.626,33.356,35.57,33.434,35.611z"/>
	</g>
	<path fill="#231F20" d="M31.042,28.165c1.589-0.58,3.587,0.887,4.458,3.276c0.456,1.251,0.503,2.5,0.223,3.495
		c-0.98-1.901-2.698-2.984-4.1-2.472c-0.761,0.274-1.282,0.977-1.535,1.882c-0.131-0.254-0.253-0.52-0.355-0.802
		C28.861,31.155,29.449,28.745,31.042,28.165z"/>
	<path fill="#231F20" d="M57.892,41.88c-0.464-1.627-2.823-2.385-5.267-1.691c-1.279,0.364-2.318,1.056-2.962,1.866
		c2.116-0.318,3.999,0.438,4.408,1.873c0.222,0.777-0.039,1.61-0.628,2.349c0.282-0.043,0.57-0.103,0.859-0.184
		C56.749,45.398,58.355,43.513,57.892,41.88z"/>
</g>
</svg>
