<?xml version="1.0" encoding="utf-8"?>
<!-- Generator: Adobe Illustrator 16.0.4, SVG Export Plug-In . SVG Version: 6.00 Build 0)  -->
<!DOCTYPE svg PUBLIC "-//W3C//DTD SVG 1.1//EN" "http://www.w3.org/Graphics/SVG/1.1/DTD/svg11.dtd">
<svg version="1.1" id="Layer_1" xmlns="http://www.w3.org/2000/svg" xmlns:xlink="http://www.w3.org/1999/xlink" x="0px" y="0px"
	 width="72.183px" height="115.852px" viewBox="13.818 -13.103 72.183 115.852"
	 enable-background="new 13.818 -13.103 72.183 115.852" xml:space="preserve">
<g>
	<path fill="#F6921E" d="M49.208-4.796c0,0-12.823-2.915-15.157,8.354c-2.332,11.267-9.714,21.954-11.464,27.005
		c-1.748,5.05-13.135,29.917-4.589,48.571c8.549,18.65,25.379,23.31,30.235,22.729c4.861-0.584,20.609,0.651,29.387-16.9
		c10.879-21.762,8.74-33.417,0.777-55.179C70.432,8.026,66.885,2.199,63.39-2.27C59.892-6.738,54.063-5.573,49.208-4.796z"/>
	<path fill="#FFCE01" d="M47.371,99.112c-5.106,0-18.025-5.171-25.35-21.146c-5.013-10.934-4.07-26.185,2.795-45.323l0.414-1.166
		c0.517-1.487,1.702-3.753,3.073-6.371c2.893-5.523,6.853-13.089,8.488-20.981c0.331-1.597,1.339-6.462,8.865-6.462
		c1.683,0,2.927,0.271,2.939,0.274c0.2,0.043,0.408,0.064,0.616,0.064c0.146,0,0.294-0.013,0.438-0.036l0.625-0.099
		c1.829-0.296,3.724-0.604,5.466-0.604c2.581,0,4.261,0.678,5.446,2.191c1.817,2.324,2.812,5.366,4.987,12.03
		c1.472,4.5,3.483,10.658,6.634,19.263c7.756,21.191,9.873,31.918-0.653,52.963c-7.097,14.195-16.573,14.83-22.236,15.21
		c-0.764,0.049-1.442,0.098-2.018,0.167c-0.156,0.02-0.334,0.026-0.525,0.026C47.375,99.112,47.375,99.112,47.371,99.112z"/>
	<path fill="#F9D961" d="M72.808,30.746c-3.15-8.604-5.162-14.763-6.634-19.263c-2.176-6.664-3.17-9.706-4.987-12.03
		c-0.87-1.112-2.017-1.763-3.578-2.035c0.949,2.058,1.858,4.828,3.251,9.094c1.47,4.496,3.481,10.655,6.631,19.262
		c7.757,21.193,9.875,31.915-0.652,52.963c-7.097,14.197-16.574,14.83-22.241,15.21c-0.763,0.051-1.439,0.098-2.013,0.167
		c-0.158,0.018-0.333,0.028-0.527,0.028c0,0,0,0-0.002,0c-2.793-0.003-7.931-1.567-13.207-5.589
		c6.856,7.764,14.782,10.56,18.523,10.56c0.004,0,0.004,0,0.004,0c0.19,0,0.369-0.007,0.525-0.026
		c0.576-0.069,1.254-0.118,2.018-0.167c5.663-0.38,15.14-1.015,22.236-15.21C82.681,62.664,80.563,51.938,72.808,30.746z"/>
	<path fill="#8DB836" d="M48.596-2.063c-0.013-0.004-1.265-0.1-2.939-0.274c-8.12-0.84-10.113,7.515-8.865,6.462
		c2.938-2.472,2.792,1.092,1.964,5.255c0.664,2.157,0.314,4.54-1.128,6.055c-0.167,4.311,1.649,7.878,4.002,2.954
		c2.848-5.957,1.296-8.807,2.332-11.397c1.035-2.589,3.369-3.626,6.218-5.441C53.027-0.263,48.596-2.063,48.596-2.063z"/>
	<path fill="#8DB836" d="M69.801,34.836c-2.137-9.713-8.354-27.003-8.354-27.003c-1.695-3.559-2.502-2.203-3.246,0.764
		c0.05,0.078,0.1,0.146,0.144,0.231c1.527,3.201,1.922,7.365-0.216,9.882c0.146,0.147,0.29,0.298,0.445,0.439
		c0.088,0.084,0.123,0.12,0.139,0.144c0.023,0.016,0.042,0.021,0.075,0.041c0.067,0.039,0.104,0.064,0.127,0.084
		c0.037,0.004,0.075,0.008,0.139,0.017c-0.402-0.062,0.478-0.068,0.449-0.063c1.226-0.131,2.257,1.123,2.257,2.254
		c0,1.327-1.031,2.128-2.257,2.257c-1.492,0.156-2.866-0.391-3.958-1.392c-0.625-0.573-1.06-1.088-1.673-1.451
		c0,0.002-0.001,0.002-0.001,0.004c-5.282,4.362-1.492,4.317,2.635,5.398c1.193-0.808,3.304-0.309,3.647,1.474
		c0.399,0.261,0.774,0.556,1.099,0.898c0.425,0.444,0.877,0.97,1.343,1.538c0.144-0.062,0.305-0.101,0.434-0.183
		c1.137-0.727,3.084-0.077,3.313,1.348c0.224,1.379,0.338,2.748,0.32,4.092C69.229,38.879,71.08,40.647,69.801,34.836z"/>
	<path fill="#8DB836" d="M47.846,8.61c0.137,2.602-3.5,4.079-2.527,6.993c0.971,2.915,4.86,1.94,4.86-1.165
		c0-3.108,0.194-4.857,1.941-7.384c1.751-2.525-1.941-4.469-1.941-2.721C50.179,6.084,47.65,4.917,47.846,8.61z"/>
	<g>
		<path fill="#F6921E" d="M22.586,69.808c0,0,0.337,0.555,0.856,1.556c0.248,0.508,0.579,1.112,0.915,1.809
			c0.34,0.697,0.76,1.462,1.198,2.291c0.23,0.41,0.456,0.842,0.712,1.275c0.269,0.426,0.545,0.864,0.81,1.323
			c0.583,0.888,1.185,1.824,1.911,2.716c0.664,0.934,1.479,1.799,2.248,2.715c0.854,0.849,1.66,1.76,2.594,2.557
			c0.458,0.405,0.892,0.835,1.365,1.222c0.477,0.384,0.951,0.766,1.421,1.145l0.695,0.578l0.729,0.524
			c0.48,0.354,0.955,0.704,1.421,1.049c0.923,0.706,1.902,1.273,2.77,1.913c0.866,0.644,1.774,1.111,2.557,1.65
			c0.803,0.501,1.519,1.013,2.191,1.399c0.667,0.394,1.244,0.756,1.717,1.065c0.951,0.605,1.483,0.996,1.483,0.996
			s-0.64-0.111-1.742-0.383c-0.553-0.13-1.223-0.301-1.984-0.519c-0.779-0.18-1.597-0.528-2.513-0.862
			c-0.913-0.346-1.912-0.704-2.907-1.223c-1.002-0.501-2.089-0.986-3.131-1.644c-1.031-0.672-2.154-1.284-3.164-2.11
			c-0.513-0.4-1.029-0.804-1.548-1.209c-0.512-0.415-0.977-0.895-1.467-1.34c-1.001-0.871-1.843-1.916-2.717-2.886
			c-0.79-1.05-1.59-2.062-2.211-3.148c-0.672-1.05-1.175-2.15-1.67-3.168c-0.462-1.037-0.82-2.047-1.119-2.98
			c-0.315-0.928-0.507-1.808-0.696-2.57c-0.187-0.768-0.3-1.443-0.409-1.992C22.701,70.443,22.586,69.808,22.586,69.808z"/>
	</g>
	<g>
		<path fill="#F6921E" d="M75.593,49.213c0,0,0.608,1.562,1.181,3.947c0.124,0.603,0.297,1.25,0.407,1.948
			c0.131,0.696,0.229,1.437,0.316,2.209c0.158,1.544,0.226,3.215,0.1,4.893c-0.054,0.838-0.156,1.677-0.295,2.495
			c-0.154,0.818-0.324,1.618-0.567,2.376c-0.206,0.766-0.508,1.478-0.781,2.148c-0.278,0.669-0.624,1.271-0.928,1.822
			c-0.656,1.087-1.273,1.935-1.793,2.47c-0.492,0.55-0.807,0.832-0.807,0.832s0.057-0.434,0.214-1.136
			c0.067-0.356,0.188-0.768,0.276-1.255c0.079-0.491,0.225-1.015,0.34-1.596c0.086-0.593,0.241-1.205,0.351-1.865
			c0.101-0.663,0.255-1.342,0.343-2.062c0.121-0.71,0.217-1.448,0.312-2.198c0.101-0.749,0.182-1.515,0.26-2.283
			c0.294-3.07,0.379-6.231,0.575-8.662c0.024-0.606,0.104-1.166,0.144-1.664c0.039-0.497,0.114-0.935,0.157-1.292
			C75.503,49.625,75.593,49.213,75.593,49.213z"/>
	</g>
	<g>
		<path fill="#F6921E" d="M32.69,23.959c0,0-0.141,0.462-0.387,1.27c-0.126,0.395-0.28,0.873-0.456,1.423
			c-0.178,0.549-0.348,1.18-0.587,1.838c-0.249,0.653-0.429,1.402-0.683,2.161c-0.233,0.769-0.532,1.553-0.782,2.387
			c-0.245,0.836-0.509,1.692-0.791,2.557c-0.144,0.431-0.29,0.864-0.436,1.301c-0.117,0.444-0.239,0.889-0.37,1.331
			c-0.249,0.888-0.52,1.769-0.793,2.634c-0.314,0.855-0.484,1.73-0.733,2.561c-0.235,0.832-0.479,1.635-0.728,2.396
			c-0.126,0.381-0.249,0.752-0.368,1.11c-0.084,0.364-0.192,0.713-0.284,1.05c-0.365,1.35-0.737,2.479-1.033,3.274
			c-0.286,0.795-0.494,1.252-0.494,1.252s-0.09-0.478-0.169-1.317c-0.09-0.84-0.167-2.046-0.179-3.499
			c-0.003-0.363-0.019-0.745-0.008-1.136c0.027-0.388,0.071-0.787,0.121-1.196c0.095-0.821,0.215-1.686,0.357-2.578
			c0.152-0.89,0.272-1.822,0.551-2.727c0.257-0.911,0.527-1.835,0.817-2.752c0.139-0.46,0.287-0.918,0.438-1.372
			c0.18-0.443,0.359-0.886,0.538-1.324c0.362-0.874,0.732-1.728,1.101-2.548c0.381-0.814,0.816-1.574,1.212-2.297
			c0.401-0.721,0.793-1.394,1.197-1.994c0.384-0.608,0.787-1.139,1.116-1.62c0.331-0.481,0.688-0.867,0.945-1.197
			C32.336,24.291,32.69,23.959,32.69,23.959z"/>
	</g>
	<g>
		<path fill="#F6921E" d="M32.924,32.467c0,0-0.161,0.509-0.441,1.398c-0.13,0.448-0.323,0.972-0.502,1.592
			c-0.174,0.623-0.397,1.313-0.629,2.068c-0.247,0.75-0.461,1.581-0.71,2.45c-0.232,0.875-0.561,1.77-0.785,2.729
			c-0.234,0.958-0.51,1.937-0.772,2.936c-0.134,0.499-0.27,1.002-0.405,1.507l-0.338,1.535c-0.227,1.024-0.445,2.051-0.69,3.057
			c-0.276,1-0.356,2.018-0.545,2.985c-0.173,0.971-0.34,1.91-0.498,2.801c-0.074,0.446-0.183,0.877-0.232,1.299
			c-0.046,0.424-0.09,0.832-0.133,1.225c-0.35,3.14-0.699,5.254-0.699,5.254s-0.114-2.115-0.112-5.319
			c-0.005-0.802-0.005-1.671,0.106-2.58c0.092-0.912,0.189-1.874,0.29-2.87c0.131-0.991,0.18-2.032,0.409-3.059
			c0.188-1.034,0.41-2.079,0.623-3.126c0.208-1.049,0.414-2.098,0.737-3.101c0.296-1.009,0.568-2.008,0.865-2.964
			c0.294-0.956,0.658-1.856,0.98-2.715c0.348-0.851,0.619-1.673,0.981-2.392c0.669-1.456,1.258-2.652,1.741-3.458
			c0.227-0.408,0.416-0.722,0.555-0.93C32.852,32.579,32.924,32.467,32.924,32.467z"/>
	</g>
	<path fill="#AF7E09" d="M45.656-2.338c0,0,1.408-1.682,4.522-1.682c3.11,0,3.37,1.295,3.37,1.295S49.946,0.121,45.656-2.338z"/>
	<path fill="#AF7E09" d="M48.365-3.371l-3.37-7.252c0,0,0-2.203,3.5-1.814c3.499,0.389,1.684,7.771,1.684,8.938L48.365-3.371z"/>
	<g>
		<path fill="#F6921E" d="M70.354,47.288c0,0,0.236,0.695,0.511,1.952c0.142,0.627,0.276,1.395,0.434,2.278
			c0.125,0.886,0.31,1.886,0.383,2.988c0.118,1.1,0.182,2.296,0.21,3.564c0.036,1.268-0.004,2.606-0.061,3.991
			c-0.059,0.69-0.119,1.393-0.18,2.104c-0.048,0.713-0.129,1.431-0.258,2.149c-0.115,0.72-0.23,1.444-0.348,2.173
			c-0.131,0.726-0.321,1.443-0.479,2.167c-0.174,0.72-0.312,1.45-0.542,2.152c-0.226,0.703-0.451,1.403-0.674,2.098
			c-0.393,1.409-1.03,2.705-1.56,3.987c-0.492,1.301-1.207,2.448-1.803,3.569c-0.312,0.553-0.584,1.108-0.906,1.611
			c-0.339,0.493-0.666,0.969-0.98,1.426c-0.637,0.905-1.175,1.765-1.764,2.444c-0.587,0.678-1.1,1.268-1.521,1.755
			c-0.845,0.967-1.343,1.5-1.343,1.5s0.39-0.628,1.098-1.69c0.355-0.529,0.786-1.171,1.28-1.907
			c0.263-0.356,0.463-0.789,0.706-1.222c0.244-0.432,0.5-0.886,0.768-1.359c0.267-0.472,0.545-0.964,0.832-1.473
			c0.282-0.511,0.513-1.073,0.783-1.631c0.502-1.136,1.135-2.282,1.574-3.563c0.465-1.27,1.026-2.547,1.402-3.917
			c0.208-0.677,0.418-1.359,0.629-2.044c0.214-0.685,0.332-1.397,0.518-2.093c0.162-0.701,0.356-1.396,0.492-2.101
			c0.122-0.707,0.243-1.411,0.363-2.11c0.292-1.391,0.378-2.789,0.568-4.13c0.088-1.35,0.24-2.654,0.269-3.897
			c0.034-1.243,0.088-2.421,0.058-3.509c-0.007-2.177-0.111-3.997-0.238-5.266c-0.067-0.635-0.104-1.137-0.152-1.476
			C70.378,47.47,70.354,47.288,70.354,47.288z"/>
	</g>
	<path fill="#8DB836" d="M43.53,23.139c0.538-0.535,1.117-0.917,1.753-1.243c-0.715-1.204-1.779-1.506-3.265,0.312
		c0,0-4.082,3.886-3.885,8.938c0.194,5.051-1.748,9.519,1.748,6.217c0.199-0.188,0.388-0.354,0.582-0.533
		c-0.235-1.627,0.337-3.058,1.732-4.111c0.42-0.315,0.894-0.538,1.329-0.828c0.032-0.021,0.045-0.027,0.064-0.04
		c0.023-0.024,0.046-0.048,0.07-0.071c-0.076,0.038,0.043-0.21,0.018-0.042c0.02-0.071,0.039-0.145,0.052-0.22
		c0.22-1.141,1.5-1.796,2.582-1.606c0.087-0.35,0.155-0.709,0.175-1.097c0.037-0.651,0.025-1.439-0.039-2.259
		C44.387,28.098,41.553,25.105,43.53,23.139z"/>
	<g>
		<path fill="#231F20" d="M35.667,53.531c1.384,0.116,2.65,0.832,3.869,1.596c1.215,0.786,2.465,1.597,3.672,2.199
			c0.587,0.305,1.222,0.538,1.77,0.756c0.611,0.18,1.129,0.351,1.664,0.448c1.064,0.215,1.898,0.229,2.822,0.348
			c0.928,0.047,1.756,0.165,2.837,0.127c0.539-0.007,1.087-0.093,1.716-0.168c0.579-0.118,1.244-0.245,1.872-0.453
			c1.291-0.386,2.661-0.981,3.989-1.548c1.322-0.555,2.691-1.048,4.078-0.935c1.364,0.107,2.649,0.871,3.557,2.529
			c0.879,1.64,1.282,4.211,0.496,7.294c-0.38,1.537-1.105,3.144-2.142,4.756c-1.088,1.567-2.467,3.144-4.256,4.46
			c-1.776,1.308-3.884,2.448-6.258,3.133c-2.372,0.684-4.965,0.972-7.568,0.774c-2.597-0.24-5.104-0.95-7.322-2.022
			c-2.232-1.07-4.12-2.547-5.656-4.132c-1.539-1.592-2.644-3.379-3.452-5.1c-0.751-1.764-1.2-3.474-1.323-5.05
			c-0.259-3.171,0.563-5.639,1.708-7.109C32.908,53.95,34.3,53.413,35.667,53.531z"/>
	</g>
	<g>
		<defs>
			<path id="SVGID_1_" d="M35.667,53.531c1.384,0.116,2.65,0.832,3.869,1.596c1.215,0.786,2.465,1.597,3.672,2.199
				c0.587,0.305,1.222,0.538,1.77,0.756c0.611,0.18,1.129,0.351,1.664,0.448c1.064,0.215,1.898,0.229,2.822,0.348
				c0.928,0.047,1.756,0.165,2.837,0.127c0.539-0.007,1.087-0.093,1.716-0.168c0.579-0.118,1.244-0.245,1.872-0.453
				c1.291-0.386,2.661-0.981,3.989-1.548c1.322-0.555,2.691-1.048,4.078-0.935c1.364,0.107,2.649,0.871,3.557,2.529
				c0.879,1.64,1.282,4.211,0.496,7.294c-0.38,1.537-1.105,3.144-2.142,4.756c-1.088,1.567-2.467,3.144-4.256,4.46
				c-1.776,1.308-3.884,2.448-6.258,3.133c-2.372,0.684-4.965,0.972-7.568,0.774c-2.597-0.24-5.104-0.95-7.322-2.022
				c-2.232-1.07-4.12-2.547-5.656-4.132c-1.539-1.592-2.644-3.379-3.452-5.1c-0.751-1.764-1.2-3.474-1.323-5.05
				c-0.259-3.171,0.563-5.639,1.708-7.109C32.908,53.95,34.3,53.413,35.667,53.531z"/>
		</defs>
		<clipPath id="SVGID_2_">
			<use xlink:href="#SVGID_1_"  overflow="visible"/>
		</clipPath>
		<path clip-path="url(#SVGID_2_)" fill="#FFFFFF" d="M59.594,62.288c-0.14,1.579-1.529,2.755-3.11,2.62L41.87,63.659
			c-1.581-0.142-2.758-1.525-2.621-3.113l0.358-4.118c0.132-1.585,1.521-2.76,3.104-2.617l14.611,1.242
			c1.582,0.137,2.756,1.527,2.618,3.11L59.594,62.288z"/>
	</g>
	<path fill="#EA2227" d="M56.557,71.399c-0.143,2.454-3.871,4.136-8.174,3.77c-4.309-0.364-7.572-2.646-7.419-5.1
		c0.246-4.026,6.023-1.587,7.952-1.398C50.847,68.864,56.823,66.871,56.557,71.399z"/>
	<g>
		<g>
			<g>
				<path fill="#3F3B3C" d="M62.433,51.977c-0.439-0.144-0.434-1.127-0.879-2.299c-0.12-0.293-0.228-0.604-0.437-0.897
					c-0.144-0.32-0.416-0.583-0.639-0.884c-0.535-0.54-1.197-1.002-1.996-1.295c-0.816-0.232-1.621-0.248-2.371-0.125
					c-0.357,0.113-0.732,0.167-1.036,0.342c-0.342,0.115-0.61,0.304-0.88,0.471c-1.049,0.688-1.62,1.488-2.061,1.346
					c-0.2-0.063-0.296-0.347-0.269-0.861c0.01-0.258,0.049-0.575,0.203-0.898c0.147-0.324,0.28-0.745,0.588-1.091
					c0.279-0.373,0.608-0.778,1.069-1.098c0.422-0.38,0.974-0.625,1.56-0.89c1.203-0.43,2.692-0.532,4.14-0.089
					c1.428,0.493,2.572,1.449,3.295,2.502c0.318,0.558,0.622,1.08,0.741,1.635c0.186,0.529,0.215,1.051,0.222,1.517
					c0.046,0.461-0.093,0.879-0.163,1.228c-0.066,0.353-0.221,0.631-0.364,0.847C62.876,51.869,62.632,52.042,62.433,51.977z"/>
			</g>
		</g>
	</g>
	<g>
		<g>
			<g>
				<path fill="#3F3B3C" d="M36.342,50.092c-0.209,0.017-0.406-0.208-0.577-0.694c-0.089-0.243-0.173-0.55-0.154-0.908
					c0.013-0.355-0.023-0.795,0.13-1.232c0.116-0.451,0.268-0.951,0.572-1.421c0.247-0.512,0.665-0.946,1.105-1.414
					c0.949-0.853,2.286-1.513,3.789-1.656c1.508-0.093,2.934,0.357,4.001,1.057c0.507,0.394,0.985,0.763,1.307,1.23
					c0.373,0.418,0.597,0.891,0.78,1.318c0.218,0.408,0.248,0.848,0.315,1.197c0.073,0.351,0.036,0.667-0.014,0.92
					c-0.094,0.506-0.254,0.759-0.463,0.774c-0.461,0.035-0.83-0.875-1.687-1.791c-0.223-0.225-0.439-0.472-0.744-0.664
					c-0.254-0.241-0.606-0.381-0.926-0.575c-0.7-0.295-1.484-0.47-2.333-0.434c-0.846,0.097-1.597,0.39-2.245,0.789
					c-0.287,0.241-0.614,0.432-0.829,0.709c-0.272,0.236-0.45,0.512-0.635,0.769C37.028,49.099,36.803,50.055,36.342,50.092z"/>
			</g>
		</g>
	</g>
	<path fill="#FFFFFF" d="M48.414,8.413c-4.111,0.741-5.741,3.876-3.991,7.668c-1.75-3.792-5.794-5.898-9.911-5.157
		c4.116-0.741,5.747-3.876,4-7.673C40.26,7.048,44.303,9.154,48.414,8.413z"/>
	<path fill="#FFFFFF" d="M74.646,33.1c-4.107,0.744-5.739,3.879-3.988,7.672c-1.751-3.793-5.797-5.902-9.909-5.159
		c4.112-0.743,5.742-3.874,3.997-7.672C66.491,31.738,70.539,33.844,74.646,33.1z"/>
</g>
</svg>
