<?xml version="1.0" encoding="utf-8"?>
<!-- Generator: Adobe Illustrator 16.0.4, SVG Export Plug-In . SVG Version: 6.00 Build 0)  -->
<!DOCTYPE svg PUBLIC "-//W3C//DTD SVG 1.1//EN" "http://www.w3.org/Graphics/SVG/1.1/DTD/svg11.dtd">
<svg version="1.1" id="Layer_1" xmlns="http://www.w3.org/2000/svg" xmlns:xlink="http://www.w3.org/1999/xlink" x="0px" y="0px"
	 width="103px" height="118px" viewBox="0 0 103 118" enable-background="new 0 0 103 118" xml:space="preserve">
<g>
	<g>
		<path fill="#F3A71D" d="M35.701,116.4c-5.833,0-12.167-2.186-18.825-6.492c-17.635-11.412-19.798-28.51-6.255-49.441
			c12.19-18.835,21.149-21.375,28.304-21.375c5.937,0,12.271,2.231,19.365,6.822c9.754,6.313,14.887,14.166,15.256,23.336
			c0.31,7.727-2.638,16.266-9.006,26.105C52.333,114.219,42.235,116.4,35.701,116.4z"/>
		<path fill="#F3A71D" d="M38.925,40.168c5.42,0,11.584,1.992,18.781,6.649c20.35,13.171,17.045,30.783,5.932,47.955
			c-7.586,11.721-16.321,20.551-27.937,20.551c-5.4,0-11.421-1.906-18.241-6.318C-2.32,96.203,0.414,78.223,11.524,61.049
			C19.105,49.337,27.301,40.169,38.925,40.168 M38.926,38.017L38.926,38.017c-13.268,0-22.209,11.052-29.207,21.864
			c-13.926,21.523-11.653,39.135,6.573,50.93c6.836,4.422,13.366,6.664,19.41,6.664c14.167,0,23.758-12.289,29.743-21.533
			c6.494-10.033,9.496-18.777,9.177-26.732c-0.383-9.541-5.68-17.682-15.745-24.196C51.601,40.305,45.076,38.017,38.926,38.017
			L38.926,38.017z"/>
	</g>
	<g>
		<path fill="#39B24A" d="M60.788,43.634c0,0,0.096-0.101,0.272-0.29c0.192-0.206,0.473-0.5,0.813-0.836
			c0.687-0.694,1.687-1.638,2.916-2.725c0.627-0.531,1.286-1.123,2.026-1.701c0.724-0.596,1.504-1.2,2.33-1.801
			c0.805-0.623,1.696-1.198,2.573-1.805c0.89-0.592,1.828-1.147,2.748-1.713c0.963-0.512,1.89-1.066,2.854-1.523
			c0.979-0.435,1.888-0.942,2.853-1.278c0.955-0.349,1.836-0.758,2.74-0.987c0.895-0.245,1.707-0.549,2.502-0.692
			c0.786-0.154,1.506-0.295,2.146-0.42c0.639-0.105,1.21-0.121,1.669-0.172c0.92-0.081,1.445-0.126,1.445-0.126
			s-0.51,0.135-1.402,0.372c-0.441,0.128-0.986,0.237-1.587,0.447c-0.595,0.227-1.263,0.483-1.993,0.763
			c-0.729,0.264-1.468,0.698-2.27,1.072c-0.809,0.358-1.588,0.902-2.422,1.38c-0.842,0.463-1.627,1.104-2.463,1.661
			c-0.826,0.58-1.609,1.257-2.414,1.88c-0.771,0.682-1.55,1.343-2.279,2.037c-0.719,0.709-1.444,1.375-2.092,2.086
			c-0.668,0.687-1.291,1.369-1.861,2.034c-0.588,0.647-1.1,1.301-1.588,1.883c-0.951,1.189-1.709,2.202-2.205,2.916
			c-0.258,0.361-0.436,0.628-0.551,0.806c-0.131,0.196-0.198,0.301-0.198,0.301L60.788,43.634z"/>
	</g>
	<path fill="#EE8122" d="M44.448,41.835c0,0-2.251-1.643-5.955-1.479c0,0,4.231,2.829,6.26,6.129L44.448,41.835z"/>
	<path fill="#EE8122" d="M58.819,47.574C73.12,63.17,67.731,75.736,59.146,89.01c-11.114,17.168-29.47,25.043-50.955,11.141
		c-0.305-0.199-0.583-0.404-0.878-0.596c2.34,3.367,5.657,6.541,10.148,9.449c21.492,13.902,35.064,2.938,46.177-14.232
		C74.54,77.924,77.911,60.658,58.819,47.574z"/>
	<g>
		<path fill="#39B24A" d="M63.688,29.835c0,0,0.109-0.092,0.316-0.264c0.231-0.199,0.563-0.476,0.955-0.778
			c0.795-0.632,1.935-1.478,3.323-2.44c1.397-0.95,3.032-2.029,4.854-3.066c1.805-1.059,3.797-2.071,5.81-3
			c1.034-0.426,2.028-0.895,3.06-1.263c1.039-0.356,2.012-0.77,3.022-1.032c1.001-0.275,1.933-0.6,2.869-0.767
			c0.931-0.179,1.776-0.416,2.596-0.504c0.808-0.1,1.546-0.191,2.202-0.272c0.652-0.062,1.232-0.046,1.7-0.068
			c0.932-0.023,1.464-0.036,1.464-0.036s-0.507,0.164-1.395,0.449c-0.438,0.152-0.976,0.293-1.568,0.533
			c-0.585,0.254-1.244,0.541-1.965,0.854c-0.715,0.295-1.444,0.755-2.229,1.158c-0.789,0.39-1.562,0.948-2.375,1.452
			c-0.82,0.489-1.602,1.136-2.416,1.712c-0.811,0.589-1.582,1.28-2.369,1.912c-1.535,1.349-3.01,2.742-4.31,4.133
			c-1.315,1.367-2.454,2.726-3.407,3.888c-0.941,1.173-1.689,2.169-2.175,2.865c-0.257,0.355-0.42,0.607-0.522,0.771
			c-0.129,0.191-0.195,0.294-0.195,0.294L63.688,29.835z"/>
	</g>
	<g>
		<path fill="#8BC541" d="M55.126,39.755c0,0,0.141-0.101,0.403-0.291c0.238-0.169,0.591-0.419,1.076-0.794
			c0.958-0.717,2.313-1.812,3.914-3.173c0.776-0.702,1.661-1.432,2.53-2.268c0.886-0.822,1.815-1.697,2.734-2.644
			c0.95-0.924,1.863-1.932,2.807-2.957c0.957-1.014,1.815-2.123,2.746-3.199c0.863-1.111,1.727-2.237,2.545-3.367
			c0.752-1.162,1.578-2.281,2.237-3.431c0.634-1.16,1.357-2.255,1.856-3.367c0.501-1.11,1.049-2.151,1.435-3.152
			c0.362-1.016,0.694-1.948,0.989-2.773c0.302-0.832,0.406-1.591,0.574-2.205c0.293-1.245,0.462-1.956,0.462-1.956
			s-0.017,0.73-0.046,2.009c-0.037,0.639,0.016,1.438-0.107,2.327c-0.121,0.896-0.257,1.908-0.404,3.012
			c-0.179,1.104-0.504,2.265-0.781,3.527c-0.277,1.265-0.771,2.521-1.178,3.878c-0.437,1.346-1.033,2.665-1.568,4.058
			c-0.6,1.353-1.248,2.714-1.91,4.075c-0.723,1.315-1.391,2.687-2.161,3.954c-0.756,1.279-1.497,2.551-2.285,3.728
			c-0.758,1.203-1.538,2.331-2.29,3.396c-0.734,1.082-1.498,2.047-2.171,2.972c-1.396,1.809-2.601,3.293-3.495,4.318
			c-0.431,0.508-0.816,0.932-1.082,1.221c-0.242,0.266-0.371,0.408-0.371,0.408L55.126,39.755z"/>
	</g>
	<g>
		<path fill="#39B24A" d="M53.849,40.366c0,0,0.064-0.104,0.188-0.298c0.107-0.162,0.27-0.414,0.489-0.793
			c0.437-0.728,1.038-1.817,1.724-3.157c0.668-1.346,1.441-2.941,2.148-4.702c0.736-1.755,1.402-3.67,2.006-5.623
			c0.254-0.978,0.568-1.964,0.773-2.945c0.191-0.98,0.463-1.957,0.572-2.905c0.125-0.949,0.318-1.882,0.352-2.762
			c0.047-0.88,0.166-1.734,0.144-2.508c-0.009-0.784-0.018-1.503-0.024-2.141c-0.024-0.64-0.116-1.188-0.156-1.65
			c-0.104-0.926-0.161-1.456-0.161-1.456s0.206,0.491,0.565,1.35c0.172,0.435,0.424,0.958,0.635,1.58
			c0.195,0.631,0.414,1.343,0.654,2.12c0.254,0.783,0.385,1.651,0.604,2.574c0.23,0.924,0.316,1.905,0.477,2.932
			c0.176,1.03,0.195,2.087,0.297,3.179c0.086,1.091,0.065,2.191,0.102,3.309c-0.023,2.216-0.131,4.448-0.357,6.527
			c-0.199,2.088-0.516,4.021-0.809,5.686c-0.311,1.662-0.613,3.047-0.863,4.031c-0.117,0.48-0.232,0.896-0.318,1.189
			c-0.073,0.259-0.111,0.397-0.111,0.397L53.849,40.366z"/>
	</g>
	<g>
		<path fill="#39B24A" d="M64.359,31.739c0,0,0.062-0.111,0.173-0.318c0.104-0.188,0.256-0.475,0.454-0.874
			c0.397-0.78,0.94-1.93,1.549-3.335c0.593-1.411,1.272-3.075,1.878-4.901c0.633-1.821,1.186-3.801,1.672-5.807
			c0.194-1.006,0.448-2.016,0.596-3.019c0.133-1.002,0.345-1.996,0.396-2.961c0.068-0.964,0.205-1.907,0.185-2.796
			c-0.008-0.889,0.062-1.745-0.008-2.521c-0.057-0.783-0.107-1.501-0.152-2.137c-0.062-0.636-0.188-1.179-0.254-1.636
			C70.692,0.521,70.604,0,70.604,0s0.176,0.499,0.483,1.372c0.146,0.44,0.364,0.968,0.537,1.594
			c0.156,0.632,0.334,1.346,0.525,2.125c0.208,0.782,0.288,1.646,0.451,2.56c0.179,0.916,0.207,1.887,0.308,2.896
			c0.117,1.013,0.079,2.054,0.12,3.124c0.027,1.068-0.053,2.145-0.077,3.234c-0.141,2.163-0.36,4.331-0.692,6.344
			c-0.303,2.021-0.711,3.886-1.08,5.486c-0.385,1.597-0.75,2.921-1.039,3.854c-0.137,0.459-0.262,0.843-0.353,1.109
			c-0.083,0.246-0.127,0.377-0.127,0.377L64.359,31.739z"/>
	</g>
	<g>
		<path fill="#8BC541" d="M62.179,35.277c0,0,0.107-0.093,0.31-0.266c0.224-0.196,0.546-0.472,0.929-0.777
			c0.775-0.636,1.889-1.49,3.252-2.466c1.371-0.963,2.974-2.06,4.764-3.118c1.771-1.08,3.732-2.116,5.715-3.071
			c1.02-0.439,1.999-0.922,3.016-1.304c1.023-0.37,1.984-0.799,2.983-1.075c0.989-0.29,1.909-0.629,2.839-0.81
			c0.921-0.193,1.759-0.444,2.57-0.545c0.803-0.113,1.537-0.217,2.188-0.309c0.649-0.074,1.228-0.068,1.692-0.098
			c0.929-0.04,1.459-0.062,1.459-0.062s-0.51,0.153-1.399,0.423c-0.438,0.146-0.979,0.275-1.577,0.504
			c-0.588,0.243-1.252,0.518-1.978,0.818c-0.724,0.283-1.459,0.728-2.252,1.118c-0.798,0.376-1.58,0.92-2.405,1.41
			c-0.833,0.474-1.625,1.107-2.453,1.67c-0.824,0.576-1.609,1.253-2.412,1.872c-1.563,1.324-3.07,2.693-4.401,4.062
			c-1.349,1.346-2.517,2.688-3.498,3.836c-0.972,1.16-1.742,2.147-2.247,2.838c-0.266,0.352-0.438,0.605-0.551,0.771
			c-0.133,0.19-0.203,0.292-0.203,0.292L62.179,35.277z"/>
	</g>
	<g>
		<path fill="#39B24A" d="M52.063,52.673c0,0,0.16-0.045,0.461-0.131c0.33-0.098,0.805-0.232,1.361-0.374
			c1.138-0.301,2.742-0.682,4.668-1.09c1.93-0.391,4.17-0.833,6.593-1.175c1.2-0.197,2.463-0.331,3.729-0.49
			c1.27-0.15,2.571-0.243,3.856-0.364c1.303-0.062,2.59-0.157,3.864-0.185c1.281,0.001,2.521-0.061,3.738-0.001
			c1.215,0.064,2.369,0.052,3.478,0.179c1.104,0.117,2.137,0.182,3.088,0.326c0.942,0.156,1.81,0.3,2.576,0.427
			c0.762,0.124,1.415,0.332,1.952,0.451c1.067,0.266,1.678,0.418,1.678,0.418s-0.628,0.028-1.727,0.077
			c-0.547,0.039-1.203,0.024-1.957,0.121c-0.748,0.094-1.594,0.2-2.515,0.315c-0.914,0.127-1.899,0.355-2.932,0.546
			c-1.032,0.18-2.111,0.515-3.218,0.78c-1.108,0.27-2.238,0.67-3.383,1.007c-1.141,0.366-2.285,0.803-3.428,1.2
			c-1.134,0.458-2.266,0.883-3.363,1.357c-1.098,0.483-2.176,0.931-3.201,1.429c-2.062,0.943-3.937,1.933-5.525,2.775
			c-1.582,0.863-2.877,1.609-3.75,2.145c-0.451,0.27-0.764,0.471-0.967,0.604c-0.233,0.148-0.358,0.23-0.358,0.23L52.063,52.673z"/>
	</g>
	<g>
		<path fill="#8BC541" d="M56.454,41.741c0,0,0.303-0.53,0.833-1.457c0.529-0.94,1.257-2.317,2.099-3.989
			c0.406-0.844,0.848-1.758,1.313-2.725c0.431-0.98,0.927-2.005,1.368-3.089c0.45-1.082,0.93-2.199,1.35-3.355
			c0.217-0.577,0.436-1.159,0.654-1.743l0.594-1.776c0.424-1.184,0.733-2.39,1.076-3.577c0.359-1.185,0.559-2.374,0.836-3.521
			c0.24-1.15,0.368-2.274,0.547-3.343c0.122-1.069,0.159-2.086,0.235-3.03c0.045-0.942-0.039-1.802-0.048-2.575
			c0.012-0.778-0.129-1.432-0.217-1.98c-0.178-1.101-0.28-1.73-0.28-1.73s0.19,0.609,0.524,1.675
			c0.164,0.537,0.401,1.186,0.502,1.963c0.121,0.772,0.33,1.646,0.422,2.61c0.062,0.963,0.17,2.017,0.203,3.131
			c-0.025,1.108,0.006,2.293-0.07,3.507c-0.114,1.206-0.149,2.478-0.342,3.738c-0.176,1.264-0.321,2.563-0.58,3.834l-0.35,1.917
			c-0.141,0.632-0.279,1.261-0.418,1.885c-0.263,1.256-0.589,2.469-0.894,3.651c-0.298,1.185-0.653,2.305-0.955,3.385
			c-0.339,1.067-0.658,2.075-0.954,3.006c-0.622,1.854-1.173,3.391-1.591,4.466c-0.214,0.546-0.384,0.976-0.498,1.268
			c-0.115,0.283-0.177,0.434-0.177,0.434L56.454,41.741z"/>
	</g>
	<g>
		<path fill="#39B24A" d="M46.082,45.37c0,0,0.03-0.135,0.087-0.389c0.053-0.217,0.131-0.556,0.223-1.043
			c0.19-0.945,0.427-2.335,0.659-4.023c0.221-1.688,0.449-3.678,0.572-5.822c0.092-1.076,0.09-2.18,0.142-3.316
			c0.01-1.128,0.008-2.281-0.017-3.435c-0.069-1.142-0.076-2.312-0.199-3.438c-0.125-1.125-0.184-2.263-0.38-3.325
			c-0.179-1.069-0.297-2.133-0.544-3.097c-0.236-0.968-0.389-1.926-0.661-2.756c-0.258-0.846-0.494-1.621-0.704-2.308
			c-0.229-0.684-0.49-1.252-0.676-1.739c-0.392-0.971-0.616-1.525-0.616-1.525s0.364,0.474,1.002,1.304
			c0.312,0.422,0.73,0.918,1.143,1.529c0.398,0.624,0.847,1.328,1.336,2.095c0.51,0.768,0.921,1.661,1.437,2.585
			c0.53,0.922,0.944,1.945,1.434,2.996c0.508,1.048,0.887,2.17,1.342,3.305c0.452,1.137,0.791,2.317,1.196,3.497
			c0.356,1.185,0.692,2.38,1.012,3.564c0.276,1.186,0.601,2.359,0.817,3.502c0.496,2.286,0.844,4.445,1.109,6.312
			c0.256,1.868,0.42,3.441,0.506,4.568c0.047,0.549,0.072,1.023,0.086,1.36c0.016,0.3,0.023,0.46,0.023,0.46L46.082,45.37z"/>
	</g>
	<g>
		<path fill="#8BC541" d="M44.841,52.216c0,0,0.105-0.158,0.301-0.455c0.18-0.269,0.448-0.674,0.799-1.247
			c0.702-1.114,1.669-2.765,2.771-4.789c0.531-1.022,1.14-2.119,1.706-3.315c0.291-0.596,0.591-1.208,0.897-1.834
			c0.283-0.636,0.575-1.285,0.87-1.945c0.619-1.316,1.136-2.715,1.718-4.128c0.552-1.42,1.043-2.886,1.56-4.354
			c0.422-1.483,0.93-2.964,1.284-4.447c0.179-0.744,0.354-1.482,0.527-2.212c0.088-0.366,0.174-0.73,0.261-1.092
			c0.062-0.364,0.123-0.726,0.186-1.085c0.217-1.437,0.551-2.834,0.623-4.17c0.101-1.333,0.306-2.61,0.297-3.783
			c0.009-1.181,0.017-2.264,0.022-3.224c-0.016-0.962-0.146-1.791-0.192-2.484c-0.129-1.388-0.202-2.181-0.202-2.181
			s0.209,0.769,0.575,2.113c0.166,0.678,0.442,1.495,0.627,2.455c0.162,0.968,0.346,2.06,0.545,3.252
			c0.217,1.198,0.236,2.507,0.373,3.899c0.16,1.397,0.074,2.858,0.106,4.39c0.001,0.383,0.003,0.769,0.005,1.158
			c-0.023,0.386-0.047,0.775-0.07,1.166c-0.047,0.786-0.096,1.581-0.146,2.382c-0.103,1.607-0.353,3.215-0.526,4.848
			c-0.266,1.608-0.514,3.231-0.828,4.812c-0.346,1.57-0.637,3.141-1.039,4.622c-0.188,0.747-0.375,1.479-0.557,2.199
			c-0.205,0.712-0.406,1.409-0.602,2.086c-0.376,1.364-0.812,2.627-1.186,3.808c-0.791,2.345-1.514,4.285-2.069,5.646
			c-0.267,0.671-0.507,1.231-0.679,1.619c-0.156,0.358-0.239,0.549-0.239,0.549L44.841,52.216z"/>
	</g>
	<g>
		<path fill="#8BC541" d="M41.709,52.256c0,0,0.03-0.136,0.087-0.39c0.054-0.217,0.131-0.556,0.223-1.043
			c0.189-0.945,0.426-2.335,0.658-4.023c0.221-1.688,0.448-3.679,0.571-5.823c0.092-1.076,0.09-2.179,0.141-3.316
			c0.011-1.128,0.008-2.281-0.016-3.435c-0.07-1.142-0.077-2.312-0.2-3.438c-0.125-1.125-0.184-2.263-0.379-3.326
			c-0.179-1.069-0.297-2.133-0.544-3.097c-0.236-0.968-0.388-1.926-0.661-2.756c-0.257-0.845-0.494-1.621-0.703-2.308
			c-0.228-0.683-0.49-1.252-0.676-1.739c-0.392-0.971-0.615-1.526-0.615-1.526s0.364,0.474,1.002,1.304
			c0.312,0.422,0.73,0.918,1.143,1.529c0.397,0.624,0.846,1.328,1.335,2.096c0.51,0.768,0.921,1.661,1.437,2.585
			c0.529,0.923,0.942,1.945,1.432,2.996c0.508,1.048,0.887,2.169,1.341,3.305c0.452,1.137,0.791,2.317,1.197,3.497
			c0.357,1.185,0.695,2.38,1.012,3.564c0.276,1.186,0.601,2.359,0.819,3.502c0.497,2.286,0.844,4.445,1.111,6.312
			c0.256,1.868,0.42,3.441,0.506,4.568c0.047,0.549,0.073,1.023,0.087,1.36c0.016,0.3,0.023,0.46,0.023,0.46L41.709,52.256z"/>
	</g>
	<g>
		<path fill="#39B24A" d="M63.458,45.18c0,0,0.141-0.063,0.406-0.182c0.285-0.128,0.695-0.306,1.191-0.509
			c1.008-0.419,2.441-0.973,4.178-1.58c1.738-0.596,3.771-1.256,5.984-1.841c1.094-0.321,2.256-0.56,3.416-0.85
			c1.172-0.251,2.365-0.492,3.56-0.709c1.207-0.172,2.394-0.407,3.586-0.52c1.192-0.111,2.349-0.285,3.488-0.309
			c1.137-0.042,2.222-0.142,3.265-0.093c1.039,0.037,2.014-0.007,2.914,0.095c0.896,0.083,1.719,0.159,2.445,0.227
			c0.724,0.086,1.349,0.229,1.861,0.312c1.024,0.185,1.609,0.291,1.609,0.291s-0.595-0.009-1.635-0.026
			c-0.52,0.001-1.145-0.039-1.863-0.007c-0.716,0.05-1.523,0.107-2.406,0.17c-0.877,0.042-1.822,0.243-2.816,0.369
			c-0.996,0.114-2.032,0.385-3.104,0.601c-1.072,0.198-2.158,0.55-3.265,0.838c-1.104,0.29-2.205,0.703-3.31,1.048
			c-1.097,0.393-2.185,0.804-3.246,1.22c-1.053,0.456-2.099,0.853-3.08,1.327c-1.982,0.888-3.783,1.819-5.307,2.638
			c-1.518,0.828-2.756,1.555-3.596,2.08c-0.43,0.263-0.74,0.464-0.943,0.6c-0.224,0.146-0.343,0.225-0.343,0.225L63.458,45.18z"/>
	</g>
	<g>
		<path fill="#8BC541" d="M49.638,53.531c0,0,0.066-0.127,0.191-0.365c0.135-0.257,0.332-0.629,0.578-1.061
			c0.491-0.886,1.225-2.11,2.142-3.547c0.478-0.708,0.962-1.49,1.534-2.279c0.555-0.799,1.152-1.632,1.803-2.471
			c0.627-0.853,1.336-1.693,2.039-2.551c0.699-0.86,1.487-1.68,2.229-2.521c0.796-0.804,1.575-1.614,2.382-2.373
			c0.844-0.729,1.612-1.491,2.453-2.132c0.85-0.631,1.602-1.304,2.426-1.814c0.815-0.517,1.545-1.05,2.279-1.451
			c0.736-0.39,1.412-0.747,2.012-1.063c0.596-0.311,1.168-0.486,1.607-0.678c0.893-0.354,1.402-0.557,1.402-0.557
			s-0.467,0.289-1.283,0.794c-0.397,0.265-0.912,0.526-1.438,0.932c-0.521,0.406-1.107,0.864-1.748,1.364
			c-0.63,0.504-1.242,1.146-1.921,1.766c-0.687,0.612-1.294,1.392-1.979,2.117c-0.678,0.735-1.279,1.595-1.939,2.405
			c-0.627,0.843-1.223,1.735-1.826,2.608c-0.556,0.917-1.146,1.796-1.656,2.716c-0.512,0.917-1.026,1.805-1.467,2.703
			c-0.464,0.881-0.879,1.751-1.259,2.58c-0.397,0.818-0.716,1.624-1.037,2.347c-0.604,1.467-1.071,2.698-1.364,3.557
			c-0.154,0.436-0.256,0.753-0.322,0.967c-0.073,0.234-0.113,0.359-0.113,0.359L49.638,53.531z"/>
	</g>
	<g>
		<path fill="#8BC541" d="M49.468,43.184c0,0,0.028-0.151,0.083-0.436c0.049-0.276,0.12-0.682,0.212-1.197
			c0.18-1.057,0.395-2.592,0.615-4.444c0.086-0.927,0.216-1.934,0.287-3.001c0.084-1.067,0.171-2.196,0.212-3.364
			c0.071-1.171,0.082-2.378,0.095-3.609c0.036-1.234-0.044-2.476-0.06-3.731c-0.062-1.248-0.158-2.495-0.252-3.727
			c-0.16-1.216-0.269-2.434-0.464-3.591c-0.225-1.148-0.381-2.286-0.645-3.331c-0.276-1.04-0.506-2.043-0.779-2.949
			c-0.312-0.895-0.599-1.715-0.852-2.441c-0.237-0.74-0.583-1.318-0.798-1.833c-0.471-1.013-0.74-1.592-0.74-1.592
			S46.736,4.47,47.354,5.4c0.292,0.477,0.732,1.016,1.081,1.716c0.368,0.695,0.785,1.479,1.237,2.334
			c0.416,0.874,0.804,1.849,1.249,2.874c0.433,1.029,0.767,2.153,1.181,3.303c0.381,1.158,0.681,2.378,1.036,3.613
			c0.291,1.245,0.586,2.515,0.846,3.792c0.214,1.28,0.492,2.563,0.65,3.834c0.18,1.27,0.357,2.524,0.471,3.741
			c0.142,1.217,0.23,2.396,0.312,3.517c0.096,1.121,0.12,2.182,0.178,3.164c0.065,1.964,0.088,3.607,0.066,4.77
			c-0.014,0.593-0.023,1.059-0.031,1.377c-0.012,0.309-0.018,0.474-0.018,0.474L49.468,43.184z"/>
	</g>
	<g>
		<path fill="#8BC541" d="M50.042,54.759c0,0,0.145-0.154,0.417-0.442c0.297-0.32,0.728-0.773,1.247-1.286
			c1.049-1.062,2.566-2.503,4.434-4.167c0.949-0.815,1.949-1.718,3.068-2.608c0.553-0.45,1.12-0.911,1.7-1.383
			c0.595-0.453,1.203-0.916,1.821-1.387c1.215-0.958,2.561-1.85,3.88-2.79c1.343-0.917,2.752-1.788,4.14-2.667
			c1.446-0.809,2.838-1.674,4.288-2.402c0.724-0.361,1.442-0.72,2.151-1.074c0.354-0.176,0.705-0.351,1.054-0.524
			c0.361-0.152,0.72-0.303,1.075-0.453c1.434-0.574,2.751-1.228,4.109-1.629c1.345-0.422,2.562-0.917,3.756-1.189
			c1.182-0.283,2.264-0.542,3.223-0.772c0.959-0.206,1.824-0.272,2.516-0.382c1.383-0.188,2.174-0.296,2.174-0.296
			s-0.75,0.274-2.062,0.753c-0.647,0.254-1.45,0.493-2.325,0.892c-0.863,0.417-1.839,0.889-2.9,1.403
			c-1.061,0.495-2.127,1.229-3.283,1.888c-1.169,0.638-2.288,1.539-3.486,2.349c-0.297,0.208-0.596,0.418-0.896,0.63
			c-0.289,0.232-0.579,0.466-0.872,0.702c-0.581,0.468-1.17,0.943-1.764,1.421c-1.182,0.954-2.297,2.046-3.447,3.06
			c-1.1,1.092-2.205,2.161-3.245,3.263c-1.021,1.129-2.056,2.19-2.974,3.31c-0.467,0.548-0.924,1.086-1.373,1.614
			c-0.432,0.542-0.854,1.072-1.265,1.589c-0.831,1.018-1.555,2.035-2.243,2.946c-1.344,1.853-2.408,3.424-3.103,4.526
			c-0.363,0.559-0.604,0.965-0.763,1.234c-0.182,0.301-0.277,0.463-0.277,0.463L50.042,54.759z"/>
	</g>
	<g>
		<path fill="#8BC541" d="M50.298,52.607c0,0,0.098-0.087,0.281-0.251c0.167-0.149,0.416-0.37,0.75-0.69
			c0.664-0.619,1.596-1.55,2.686-2.702c0.529-0.59,1.133-1.208,1.717-1.907c0.602-0.687,1.225-1.421,1.838-2.206
			c0.641-0.769,1.238-1.603,1.865-2.446c0.63-0.841,1.189-1.741,1.8-2.623c0.549-0.909,1.118-1.817,1.631-2.735
			c0.47-0.934,1.006-1.835,1.397-2.755c0.382-0.922,0.845-1.797,1.121-2.673c0.287-0.873,0.621-1.694,0.824-2.475
			c0.192-0.789,0.37-1.512,0.527-2.153c0.154-0.646,0.184-1.222,0.262-1.694c0.127-0.952,0.199-1.495,0.199-1.495
			s0.023,0.548,0.066,1.507c0.006,0.48,0.08,1.073,0.039,1.745c-0.043,0.676-0.092,1.438-0.146,2.27
			c-0.063,0.835-0.252,1.718-0.39,2.674c-0.129,0.961-0.436,1.923-0.662,2.956c-0.239,1.03-0.62,2.044-0.939,3.111
			c-0.361,1.046-0.781,2.09-1.188,3.146c-0.465,1.021-0.889,2.076-1.387,3.067c-0.494,0.993-0.971,1.984-1.492,2.904
			c-0.498,0.938-1.014,1.823-1.516,2.657c-0.484,0.847-1,1.608-1.451,2.334c-0.936,1.424-1.752,2.595-2.357,3.406
			c-0.293,0.401-0.553,0.734-0.73,0.962c-0.166,0.211-0.256,0.324-0.256,0.324L50.298,52.607z"/>
	</g>
	<g>
		<path fill="#8BC541" d="M53.619,55.353c0,0,0.171-0.099,0.488-0.286c0.305-0.17,0.753-0.421,1.321-0.739
			c1.135-0.619,2.75-1.467,4.713-2.422C64.064,50,69.39,47.68,74.927,45.961c1.384-0.43,2.772-0.834,4.158-1.175
			c1.379-0.354,2.754-0.646,4.084-0.894c1.334-0.244,2.633-0.424,3.864-0.559c1.235-0.122,2.404-0.192,3.481-0.209
			c1.08-0.003,2.063,0.007,2.935,0.09c0.868,0.045,1.619,0.176,2.233,0.258c0.613,0.088,1.088,0.218,1.41,0.277
			c0.324,0.068,0.496,0.105,0.496,0.105s-0.178-0.001-0.508-0.003c-0.33,0.007-0.812-0.024-1.423,0.013
			c-0.612,0.044-1.351,0.065-2.19,0.193c-0.838,0.09-1.777,0.274-2.789,0.486c-1.012,0.226-2.092,0.518-3.221,0.868
			c-1.127,0.363-2.299,0.78-3.492,1.262c-1.191,0.487-2.408,1.018-3.621,1.611c-1.219,0.58-2.433,1.222-3.631,1.884
			c-4.802,2.65-9.295,5.819-12.535,8.312c-1.621,1.249-2.937,2.327-3.832,3.084c-0.438,0.381-0.783,0.68-1.019,0.883
			c-0.217,0.195-0.332,0.301-0.332,0.301L53.619,55.353z"/>
	</g>
	<g>
		<path fill="#39B24A" d="M50.589,56.98c0,0,0.056-0.085,0.16-0.246c0.119-0.19,0.284-0.432,0.486-0.714
			c0.414-0.575,1.008-1.361,1.772-2.247c0.375-0.448,0.801-0.914,1.256-1.398c0.447-0.491,0.963-0.97,1.468-1.479
			c0.542-0.481,1.069-0.999,1.657-1.474c0.584-0.479,1.164-0.969,1.789-1.408l0.918-0.67c0.317-0.206,0.635-0.41,0.949-0.612
			c0.613-0.417,1.258-0.771,1.875-1.109c0.605-0.357,1.229-0.64,1.812-0.907c0.575-0.281,1.13-0.519,1.659-0.7
			c0.523-0.191,0.994-0.379,1.42-0.518c0.433-0.121,0.81-0.227,1.119-0.313c0.615-0.171,0.967-0.269,0.967-0.269
			s-0.316,0.182-0.871,0.499c-0.273,0.158-0.607,0.349-0.989,0.568c-0.372,0.235-0.774,0.529-1.22,0.832
			c-0.449,0.292-0.911,0.646-1.38,1.044c-0.478,0.384-0.978,0.784-1.45,1.255c-0.486,0.453-0.984,0.916-1.443,1.437
			c-0.236,0.252-0.473,0.507-0.709,0.762l-0.67,0.81c-0.455,0.526-0.859,1.098-1.265,1.647c-0.409,0.544-0.759,1.125-1.122,1.656
			c-0.327,0.562-0.667,1.082-0.943,1.604c-0.285,0.516-0.547,1.005-0.768,1.466c-0.456,0.913-0.779,1.688-0.986,2.219
			c-0.105,0.273-0.176,0.468-0.209,0.583c-0.049,0.144-0.074,0.218-0.074,0.218L50.589,56.98z"/>
	</g>
	<g>
		<path fill="#39B24A" d="M46.451,53.796c0,0,0.044-0.054,0.127-0.154c0.068-0.075,0.18-0.215,0.332-0.416
			c0.295-0.391,0.717-0.979,1.18-1.725c0.238-0.37,0.478-0.782,0.726-1.225c0.259-0.438,0.486-0.922,0.75-1.416
			c0.226-0.506,0.493-1.024,0.706-1.57c0.22-0.544,0.455-1.1,0.635-1.671c0.207-0.567,0.383-1.143,0.529-1.719
			c0.172-0.573,0.287-1.146,0.399-1.707c0.131-0.56,0.195-1.106,0.263-1.629c0.079-0.523,0.13-1.021,0.141-1.483
			c0.021-0.462,0.055-0.89,0.059-1.269c-0.013-0.379-0.022-0.709-0.031-0.981c-0.018-0.55-0.028-0.864-0.028-0.864
			s0.087,0.301,0.24,0.829c0.076,0.267,0.17,0.59,0.275,0.961c0.092,0.375,0.166,0.804,0.264,1.273
			c0.107,0.47,0.184,0.983,0.238,1.532c0.067,0.548,0.143,1.131,0.153,1.736c0.032,0.605,0.063,1.237,0.036,1.875
			c-0.001,0.643-0.031,1.295-0.096,1.946c-0.038,0.657-0.135,1.304-0.223,1.947c-0.082,0.645-0.223,1.266-0.33,1.88
			c-0.145,0.601-0.263,1.195-0.419,1.743c-0.148,0.553-0.299,1.075-0.456,1.553c-0.304,0.959-0.61,1.75-0.845,2.312
			c-0.115,0.275-0.218,0.506-0.303,0.68c-0.07,0.147-0.108,0.228-0.108,0.228L46.451,53.796z"/>
	</g>
	<path fill="#F3A71D" d="M65.864,62.088c2.916-3.024-4.152-7.14-11.006-11.575c-6.855-4.435-12.369-7.976-14.331-4.949
		c-1.963,3.032,2.003,9.082,8.863,13.52C56.244,63.514,63.358,64.684,65.864,62.088z"/>
	<path fill="#FFFFFF" d="M43.643,51.333c-3.291-1.77-6.183-0.482-7.07,3.148c0.887-3.631-0.767-7.363-4.061-9.136
		c3.294,1.773,6.178,0.487,7.067-3.144C38.69,45.833,40.352,49.564,43.643,51.333z"/>
	<g>
		<g>
			<g>
				<path fill="#3F3B3C" d="M35.626,63.684c0.805,0.521,1.344,1.365,1.834,2.227c0.487,0.869,0.984,1.771,1.525,2.525
					c0.528,0.764,1.138,1.387,1.701,1.854c0.576,0.477,1.079,0.76,1.603,1.127c0.556,0.326,1.022,0.668,1.694,0.996
					c0.657,0.32,1.476,0.619,2.39,0.783c0.912,0.182,1.94,0.262,2.932,0.348c0.986,0.09,1.979,0.234,2.785,0.754
					c0.792,0.508,1.327,1.387,1.339,2.689c0.007,1.283-0.588,2.975-2.062,4.594c-1.454,1.615-3.848,3.064-6.878,3.537
					c-1.505,0.219-3.156,0.23-4.822-0.123c-1.663-0.348-3.332-1.014-4.85-1.977c-1.507-0.986-2.803-2.23-3.808-3.604
					c-1.009-1.373-1.682-2.881-2.104-4.342c-0.82-2.955-0.49-5.734,0.382-7.727c0.866-2.012,2.163-3.254,3.335-3.775
					C33.815,63.043,34.837,63.168,35.626,63.684z"/>
			</g>
		</g>
	</g>
	<g>
		<g>
			<defs>
				<path id="SVGID_1_" d="M35.631,63.686c0.805,0.52,1.343,1.365,1.835,2.227c0.487,0.867,0.983,1.766,1.525,2.525
					c0.258,0.377,0.569,0.725,0.833,1.037c0.313,0.307,0.576,0.576,0.87,0.807c0.579,0.479,1.077,0.758,1.602,1.127
					c0.551,0.33,1.015,0.666,1.688,0.996c0.329,0.174,0.688,0.297,1.096,0.453c0.392,0.115,0.838,0.256,1.29,0.332
					c0.908,0.186,1.936,0.262,2.928,0.352c0.983,0.088,1.978,0.232,2.786,0.752c0.794,0.508,1.331,1.387,1.341,2.689
					c0.006,1.285-0.58,2.979-2.058,4.6c-0.731,0.812-1.693,1.559-2.844,2.203c-1.169,0.602-2.522,1.113-4.038,1.332
					c-1.505,0.221-3.156,0.232-4.823-0.119c-1.664-0.352-3.335-1.016-4.856-1.977c-1.503-0.988-2.801-2.236-3.801-3.605
					c-1.012-1.373-1.683-2.885-2.103-4.344c-0.421-1.469-0.516-2.914-0.448-4.225c0.113-1.316,0.392-2.5,0.829-3.504
					c0.869-2.012,2.168-3.25,3.342-3.771C33.818,63.045,34.838,63.17,35.631,63.686z"/>
			</defs>
			<clipPath id="SVGID_2_">
				<use xlink:href="#SVGID_1_"  overflow="visible"/>
			</clipPath>
			<path clip-path="url(#SVGID_2_)" fill="#FFFFFF" d="M47.358,76.764c-0.597,0.916-1.824,1.184-2.742,0.59l-8.492-5.496
				c-0.917-0.598-1.181-1.818-0.585-2.74l1.552-2.396c0.593-0.918,1.819-1.184,2.737-0.584l8.493,5.49
				c0.917,0.594,1.182,1.82,0.587,2.74L47.358,76.764z"/>
		</g>
	</g>
	<path fill="#EA2227" d="M42.56,81.326c-0.884,1.445-3.697,1.262-6.2-0.354c-2.503-1.617-3.75-4.062-2.864-5.508
		c1.456-2.369,4.179,0.982,5.294,1.725C39.903,77.932,44.188,78.656,42.56,81.326z"/>
	<g>
		<g>
			<g>
				<path fill="#3F3B3C" d="M37.544,79.318c-0.42-0.271-0.229-1.322,0.429-2.344c0.744-1.031,1.664-1.6,2.043-1.273
					c0.381,0.326,0.145,1.344-0.53,2.273C38.834,78.988,37.965,79.59,37.544,79.318z"/>
			</g>
		</g>
	</g>
	<path fill="#231F20" d="M35.41,59.25c-1.076,1.662-2.558,2.615-3.306,2.126c-0.751-0.486-0.494-2.224,0.582-3.885
		c1.076-1.66,2.558-2.614,3.305-2.122C36.745,55.855,36.486,57.59,35.41,59.25z"/>
	<path fill="#231F20" d="M58.747,74.352c-1.076,1.664-2.554,2.613-3.307,2.131c-0.752-0.488-0.488-2.229,0.587-3.893
		c1.074-1.656,2.551-2.607,3.304-2.121C60.083,70.953,59.82,72.691,58.747,74.352z"/>
	<g>
		<path fill="#FFD598" d="M28.323,49.019c2.773,1.794,2.583,4.146,1.252,6.486c0.156-0.206,0.309-0.426,0.455-0.651
			c1.646-2.548,2.135-5.159-0.879-7.113c-3.357-2.17-5.2-0.437-6.851,2.113c-0.122,0.188-0.236,0.381-0.346,0.574
			C23.49,48.292,25.289,47.054,28.323,49.019z"/>
	</g>
	<g>
		<path fill="#FFD598" d="M21.007,64.086c2.773,1.795,2.583,4.146,1.257,6.488c0.153-0.209,0.306-0.428,0.455-0.654
			c1.643-2.547,2.138-5.16-0.883-7.107c-3.357-2.174-5.199-0.439-6.849,2.105c-0.119,0.193-0.238,0.387-0.343,0.578
			C16.178,63.361,17.976,62.123,21.007,64.086z"/>
	</g>
	<g>
		<path fill="#FFD598" d="M23.037,74.842c2.771,1.799,2.583,4.146,1.253,6.49c0.154-0.211,0.305-0.426,0.454-0.654
			c1.645-2.543,2.136-5.156-0.879-7.115c-3.358-2.166-5.204-0.432-6.849,2.113c-0.127,0.191-0.239,0.387-0.347,0.574
			C18.203,74.117,19.998,72.881,23.037,74.842z"/>
	</g>
	<g>
		<path fill="#FFD598" d="M13.62,78.805c2.773,1.795,2.583,4.143,1.252,6.486c0.155-0.211,0.305-0.428,0.453-0.654
			c1.65-2.547,2.141-5.156-0.879-7.109c-3.354-2.172-5.197-0.438-6.847,2.111c-0.122,0.189-0.234,0.385-0.346,0.574
			C8.787,78.074,10.586,76.838,13.62,78.805z"/>
	</g>
	<g>
		<path fill="#FFD598" d="M17.875,89.174c2.772,1.789,2.58,4.141,1.255,6.486c0.153-0.207,0.307-0.424,0.453-0.65
			c1.646-2.551,2.133-5.16-0.879-7.111c-3.359-2.174-5.203-0.438-6.85,2.111c-0.124,0.189-0.235,0.377-0.349,0.57
			C13.042,88.445,14.839,87.209,17.875,89.174z"/>
	</g>
	<g>
		<path fill="#FFD598" d="M19.76,99.68c2.768,1.799,2.581,4.146,1.25,6.494c0.154-0.215,0.304-0.43,0.454-0.658
			c1.645-2.547,2.136-5.154-0.882-7.109c-3.357-2.17-5.199-0.434-6.846,2.111c-0.125,0.191-0.24,0.381-0.346,0.576
			C14.923,98.955,16.722,97.721,19.76,99.68z"/>
	</g>
	<g>
		<path fill="#FFD598" d="M27.609,95.32c2.769,1.791,2.581,4.143,1.25,6.486c0.154-0.211,0.306-0.428,0.454-0.654
			c1.65-2.543,2.138-5.156-0.879-7.111c-3.356-2.17-5.198-0.436-6.845,2.109c-0.127,0.195-0.24,0.383-0.346,0.576
			C22.775,94.59,24.571,93.354,27.609,95.32z"/>
	</g>
	<g>
		<path fill="#FFD598" d="M52.23,90.232c2.772,1.791,2.583,4.145,1.256,6.488c0.155-0.207,0.306-0.428,0.453-0.654
			c1.646-2.547,2.138-5.158-0.882-7.111c-3.354-2.168-5.202-0.436-6.852,2.109c-0.117,0.191-0.236,0.383-0.341,0.574
			C47.398,89.498,49.197,88.268,52.23,90.232z"/>
	</g>
	<g>
		<path fill="#FFD598" d="M45.844,95.395c2.776,1.791,2.582,4.141,1.254,6.484c0.155-0.213,0.307-0.43,0.451-0.654
			c1.652-2.545,2.143-5.158-0.88-7.109c-3.356-2.174-5.199-0.436-6.846,2.111c-0.126,0.189-0.239,0.383-0.345,0.57
			C41.009,94.658,42.807,93.428,45.844,95.395z"/>
	</g>
	<g>
		<path fill="#FFD598" d="M61.864,86.41c2.77,1.795,2.582,4.145,1.254,6.488c0.154-0.213,0.307-0.426,0.451-0.656
			c1.648-2.543,2.137-5.154-0.877-7.105c-3.355-2.178-5.2-0.438-6.85,2.104c-0.121,0.195-0.237,0.385-0.344,0.576
			C57.032,85.684,58.827,84.445,61.864,86.41z"/>
	</g>
	<g>
		<path fill="#FFD598" d="M62.845,62.066c2.775,1.791,2.58,4.143,1.252,6.486c0.154-0.211,0.304-0.428,0.451-0.65
			c1.648-2.551,2.141-5.162-0.879-7.117c-3.354-2.167-5.201-0.436-6.848,2.113c-0.12,0.189-0.236,0.381-0.348,0.576
			C58.011,61.332,59.81,60.1,62.845,62.066z"/>
	</g>
</g>
</svg>
