<?xml version="1.0" encoding="utf-8"?>
<!-- Generator: Adobe Illustrator 16.0.4, SVG Export Plug-In . SVG Version: 6.00 Build 0)  -->
<!DOCTYPE svg PUBLIC "-//W3C//DTD SVG 1.1//EN" "http://www.w3.org/Graphics/SVG/1.1/DTD/svg11.dtd">
<svg version="1.1" id="Layer_1" xmlns="http://www.w3.org/2000/svg" xmlns:xlink="http://www.w3.org/1999/xlink" x="0px" y="0px"
	 width="70.351px" height="85.487px" viewBox="0 0 70.351 85.487" enable-background="new 0 0 70.351 85.487" xml:space="preserve">
<g>
	<g>
		<path fill="#E82429" d="M41.903,83.17c-3.507,0-6.88-0.867-10.026-2.579C22.87,75.688,10.918,62.105,7.483,49.699
			c-1.618-5.843-1.254-10.816,1.081-14.782c5.66-9.618,14.047-11.054,18.542-11.054c1.215,0,2.197,0.105,2.827,0.197
			c6.2-4.303,11.898-6.483,16.946-6.483c5.975,0,11.06,3.077,14.705,8.897c7.179,11.462,7.727,32.836,3.139,42.293
			C61.341,75.749,52.193,83.17,41.903,83.17C41.903,83.17,41.904,83.17,41.903,83.17z"/>
		<path fill="#E82429" d="M46.879,19.26c19.798,0,22.197,36.679,16.33,48.773c-3.163,6.529-11.819,13.454-21.307,13.454
			c-3.039,0-6.165-0.711-9.222-2.374C20.086,72.258,2.422,48.666,10.013,35.771c5.2-8.836,12.815-10.225,17.093-10.225
			c1.963,0,3.224,0.293,3.224,0.293C36.843,21.204,42.322,19.26,46.879,19.26 M46.879,15.896c-5.247,0-11.085,2.157-17.369,6.415
			c-0.644-0.071-1.46-0.13-2.405-0.13c-4.854,0-13.907,1.543-19.993,11.883c-2.575,4.374-2.996,9.786-1.252,16.083
			c3.665,13.235,15.94,26.875,25.211,31.921c3.395,1.848,7.039,2.784,10.83,2.784c10.975,0,20.729-7.91,24.335-15.353
			c4.8-9.894,4.431-31.692-3.228-43.918C59.041,19.245,53.463,15.896,46.879,15.896L46.879,15.896z"/>
	</g>
	<path fill="#FFFFFF" d="M29.364,38.372c-3.378,1.7-3.992,4.839-1.497,7.687c-2.495-2.847-6.552-3.639-9.934-1.939
		c3.382-1.7,3.997-4.839,1.506-7.693C21.93,39.28,25.986,40.072,29.364,38.372z"/>
	<path fill="#BD212F" d="M47.055,19.264c10.213,10.021,10.739,34.949,6.104,44.512c-3.429,7.072-13.298,14.603-23.689,13.3
		c1.096,0.781,2.172,1.47,3.211,2.038c12.597,6.854,26.352-2.459,30.528-11.08C69.059,55.979,66.688,19.487,47.055,19.264z"/>
	<g>
		<g>
			<g>
				<path fill="#8AC441" d="M0.616,37.869c-0.149-0.248,0.096-0.736,0.653-1.396c0.56-0.655,1.431-1.478,2.5-2.513
					c0.551-0.504,1.153-1.056,1.798-1.646c0.647-0.588,1.374-1.208,2.177-1.851c0.767-0.655,1.692-1.276,2.641-1.919
					c0.459-0.338,1.005-0.597,1.532-0.888c0.538-0.274,1.067-0.59,1.641-0.829c0.583-0.218,1.159-0.433,1.727-0.645
					c0.285-0.103,0.568-0.204,0.849-0.304c0.284-0.089,0.575-0.14,0.859-0.208c0.57-0.123,1.13-0.244,1.679-0.363
					c0.554-0.121,1.087-0.222,1.562-0.261c2.001-0.222,3.642-0.362,4.999-0.646c0.672-0.166,1.308-0.243,1.869-0.393
					c0.559-0.16,1.055-0.279,1.477-0.352c0.843-0.147,1.389-0.115,1.53,0.138c0.141,0.253-0.139,0.706-0.79,1.319
					c-0.325,0.306-0.743,0.652-1.246,1.032c-0.508,0.372-1.177,0.69-1.898,1.071c-1.463,0.723-3.356,1.219-5.259,1.638
					c-0.507,0.098-0.961,0.234-1.411,0.375c-0.458,0.131-0.925,0.265-1.401,0.401c-0.237,0.07-0.482,0.12-0.718,0.205
					c-0.232,0.094-0.466,0.188-0.702,0.283c-0.473,0.183-0.954,0.367-1.439,0.554c-0.481,0.198-0.928,0.466-1.387,0.683
					c-0.453,0.235-0.916,0.421-1.341,0.706c-0.863,0.526-1.711,0.993-2.518,1.545c-0.826,0.526-1.61,1.027-2.346,1.496
					c-0.744,0.472-1.462,0.897-2.145,1.265c-1.333,0.758-2.508,1.239-3.361,1.486C1.298,38.102,0.766,38.118,0.616,37.869z"/>
			</g>
		</g>
	</g>
	<g>
		<g>
			<g>
				<path fill="#8AC441" d="M15.163,39.025c-0.277,0.038-0.611-0.268-0.867-0.965c-0.256-0.687-0.349-1.841,0.102-3.177
					c0.462-1.315,1.473-2.669,2.74-3.717c1.264-1.083,2.752-1.948,4.285-2.729c3.09-1.528,5.735-2.564,7.436-3.544
					c1.72-0.916,2.562-1.863,3.142-1.652c0.255,0.105,0.392,0.553,0.238,1.275c-0.143,0.724-0.628,1.698-1.459,2.639
					c-0.824,0.948-1.959,1.863-3.251,2.696c-1.291,0.829-2.743,1.588-4.205,2.328c-1.462,0.742-2.802,1.411-3.869,2.084
					c-1.091,0.665-1.854,1.33-2.412,1.97C15.963,37.509,15.782,38.957,15.163,39.025z"/>
			</g>
		</g>
	</g>
	<g>
		<g>
			<g>
				<path fill="#8AC441" d="M7.32,26.614c-0.21-0.521,0.814-1.546,2.827-2.606c1.997-1.049,5.125-2.034,8.718-2.054
					c0.888,0.015,1.713,0.062,2.562,0.156c0.856,0.083,1.632,0.249,2.345,0.405c1.411,0.345,2.461,0.599,3.363,0.73
					c1.73,0.259,3.009-0.13,3.376,0.388c0.163,0.238,0.023,0.633-0.466,1.18c-0.232,0.299-0.593,0.539-1.052,0.784
					c-0.455,0.287-1.007,0.453-1.643,0.609c-1.247,0.282-2.766,0.261-4.161,0.133c-0.697-0.047-1.398-0.116-2.09-0.129
					c-0.695-0.027-1.476-0.044-2.229-0.058c-2.997,0.02-5.734,0.406-7.825,0.686C8.963,27.119,7.543,27.167,7.32,26.614z"/>
			</g>
		</g>
	</g>
	<g>
		<g>
			<g>
				<path fill="#8AC441" d="M60.419,15.79c-0.281,0.601-2.161,0.025-5.076,0.504c-2.913,0.333-6.852,1.769-11.266,3.709
					c-2.214,0.959-4.357,1.914-6.416,2.674c-1.075,0.395-1.927,0.678-2.865,1.001c-0.911,0.307-1.82,0.586-2.694,0.76
					c-1.749,0.373-3.354,0.246-4.33-0.169c-0.968-0.456-1.338-0.923-1.227-1.169c0.118-0.28,0.684-0.357,1.473-0.446
					c0.811-0.134,1.86-0.42,3.187-1.044c0.666-0.307,1.395-0.695,2.229-1.133c0.802-0.43,1.822-0.924,2.713-1.357
					c1.867-0.908,3.961-1.969,6.264-2.967c2.304-0.997,4.611-1.825,6.819-2.333c2.199-0.522,4.32-0.679,6.092-0.492
					c0.88,0.042,1.683,0.296,2.357,0.452c0.672,0.263,1.235,0.487,1.662,0.745C60.182,15.097,60.54,15.527,60.419,15.79z"/>
			</g>
		</g>
	</g>
	<g>
		<g>
			<g>
				<path fill="#8AC441" d="M47.772,12.368c-0.105,0.616-1.324,0.869-2.825,1.679c-1.53,0.76-3.46,2.27-5.769,4.157
					c-2.293,1.884-4.661,3.615-6.708,4.433c-2.045,0.853-3.544,0.729-3.689,0.197c-0.173-0.582,0.757-1.393,2.102-2.705
					c1.376-1.292,3.223-3.187,5.656-5.188c1.234-0.985,2.497-1.884,3.812-2.55c1.317-0.652,2.626-1.115,3.818-1.208
					c0.295-0.028,0.569-0.057,0.833-0.061c0.271,0.019,0.524,0.043,0.758,0.073c0.233,0.03,0.447,0.065,0.641,0.104
					c0.194,0.054,0.37,0.135,0.523,0.203C47.541,11.788,47.815,12.082,47.772,12.368z"/>
			</g>
		</g>
	</g>
	<g>
		<g>
			<g>
				<path fill="#8AC441" d="M45.459,28.677c-0.269,0.108-0.635-0.011-1.041-0.27c-0.382-0.28-0.894-0.629-1.424-0.998
					c-0.575-0.323-1.159-0.64-1.919-0.823c-0.763-0.186-1.696-0.302-2.812-0.374c-2.228-0.112-4.66-0.234-6.364-0.828
					c-1.732-0.573-2.605-1.461-2.416-1.983c0.199-0.569,1.231-0.748,2.734-0.968c1.527-0.188,3.593-0.536,6.313-0.41
					c1.356,0.086,2.773,0.374,4.009,0.983c1.256,0.607,2.164,1.59,2.689,2.45c0.483,0.896,0.688,1.66,0.651,2.222
					C45.875,28.236,45.728,28.569,45.459,28.677z"/>
			</g>
		</g>
	</g>
	<g>
		<g>
			<g>
				<path fill="#8AC441" d="M22.257,0.925c0.138-0.369,0.687-0.622,1.641-0.456c0.958,0.135,2.271,0.947,3.274,2.335
					c0.996,1.382,1.626,3.185,1.998,5.064c0.369,1.88,0.488,3.875,0.561,5.821c0.069,1.931,0.111,3.701,0.325,4.845
					c0.101,0.571,0.211,0.961,0.282,1.146c0.064,0.197,0.188,0.398,0.499,0.604c0.663,0.395,1.732,0.471,2.438,0.663
					c0.739,0.142,1.255,0.396,1.396,0.785c0.141,0.39-0.116,0.887-0.772,1.468c-0.701,0.506-1.729,1.252-3.687,1.285
					c-0.975-0.017-2.242-0.333-3.309-1.198c-1.08-0.861-1.7-2.013-2.122-3.077c-0.82-2.172-0.955-4.248-1.052-6.295
					c-0.074-2.044-0.029-3.859-0.057-5.418c-0.029-1.552-0.118-2.826-0.297-3.792c-0.189-0.944-0.44-1.684-0.75-2.276
					C22.339,1.829,22.101,1.324,22.257,0.925z"/>
			</g>
		</g>
	</g>
	<g>
		<g>
			<g>
				<path fill="#8AC441" d="M36.66,10.889c0.329,0.472,0.062,1.285-0.399,2.3c-0.469,1.039-1.152,2.389-2.005,3.903
					c-1.662,3.046-3.474,5.539-4.532,5.144c-1.013-0.37-0.859-3.603,1.032-7.089c0.967-1.724,2.233-3.132,3.424-3.878
					c0.548-0.397,1.183-0.564,1.588-0.633C36.198,10.579,36.497,10.666,36.66,10.889z"/>
			</g>
		</g>
	</g>
	<g>
		<g>
			<g>
				<path fill="#8AC441" d="M16.824,17.644c0.127-0.559,1.024-0.888,2.306-0.765c1.279,0.112,2.902,0.661,4.493,1.665
					c1.581,1.02,2.83,2.323,3.418,3.597c0.621,1.272,0.432,2.343-0.109,2.508c-0.567,0.188-1.223-0.117-2.125-0.554
					c-0.889-0.463-2.109-1.151-3.443-2.013C18.669,20.343,16.582,18.751,16.824,17.644z"/>
			</g>
		</g>
	</g>
	<g>
		<g>
			<g>
				<path fill="#221F1F" d="M27.154,50.22c0.564-0.243,1.579,1.539,3.94,3.157c1.164,0.813,2.694,1.523,4.463,1.83
					c1.766,0.312,3.749,0.151,5.644-0.601c1.884-0.785,3.415-2.054,4.462-3.51c1.053-1.454,1.653-3.03,1.919-4.425
					c0.562-2.807,0.044-4.791,0.618-5.011c0.244-0.102,0.691,0.264,1.19,1.127c0.487,0.862,0.96,2.266,1.016,4.095
					c0.066,1.82-0.382,4.062-1.642,6.212c-0.642,1.058-1.447,2.111-2.481,3.006c-1.029,0.894-2.24,1.655-3.572,2.215
					c-1.346,0.53-2.745,0.829-4.105,0.908c-1.365,0.081-2.678-0.112-3.876-0.421c-1.203-0.315-2.266-0.838-3.201-1.39
					c-0.911-0.598-1.701-1.231-2.31-1.914c-1.237-1.349-1.878-2.684-2.131-3.642C26.843,50.891,26.907,50.317,27.154,50.22z"/>
			</g>
		</g>
	</g>
	<path fill="#221F1F" d="M24.725,52.232c0.86,2.127,0.776,4.168-0.185,4.559c-0.96,0.391-2.444-1.021-3.303-3.146
		c-0.865-2.13-0.781-4.168,0.184-4.558C22.383,48.698,23.861,50.105,24.725,52.232z"/>
	<path fill="#221F1F" d="M54.62,40.127c0.859,2.13,0.781,4.167-0.185,4.558c-0.962,0.389-2.44-1.019-3.3-3.146
		c-0.863-2.128-0.78-4.167,0.182-4.559C52.282,36.59,53.76,38,54.62,40.127z"/>
	
		<ellipse transform="matrix(0.927 -0.3751 0.3751 0.927 -16.1915 8.0708)" fill="#F28063" cx="12.635" cy="45.626" rx="1.159" ry="2.519"/>
	<path fill="#F28063" d="M16.593,42.297c0.526,1.292,0.466,2.531-0.125,2.772c-0.596,0.239-1.501-0.614-2.023-1.904
		c-0.523-1.286-0.462-2.527,0.129-2.767C15.166,40.157,16.071,41.007,16.593,42.297z"/>
	<path fill="#F28063" d="M17.794,48.886c0.527,1.292,0.467,2.532-0.129,2.772c-0.592,0.238-1.497-0.609-2.02-1.902
		c-0.522-1.291-0.462-2.529,0.13-2.77C16.371,46.744,17.272,47.597,17.794,48.886z"/>
	<path fill="#F28063" d="M14.958,51.677c0.517,1.291,0.462,2.529-0.13,2.77c-0.591,0.24-1.501-0.61-2.023-1.899
		s-0.462-2.531,0.134-2.771C13.525,49.535,14.435,50.387,14.958,51.677z"/>
	<path fill="#F28063" d="M19.324,54.998c0.518,1.292,0.462,2.535-0.129,2.773c-0.596,0.24-1.501-0.61-2.019-1.899
		C16.649,54.58,16.708,53.34,17.3,53.1C17.896,52.861,18.801,53.712,19.324,54.998z"/>
	<path fill="#F28063" d="M19.033,60.467c0.522,1.291,0.467,2.532-0.129,2.77c-0.596,0.243-1.497-0.609-2.02-1.898
		c-0.521-1.289-0.466-2.532,0.129-2.772C17.604,58.328,18.511,59.178,19.033,60.467z"/>
	<path fill="#F28063" d="M22.868,61.416c0.526,1.291,0.467,2.53-0.129,2.773c-0.591,0.24-1.497-0.613-2.02-1.902
		c-0.522-1.291-0.461-2.531,0.129-2.772C21.444,59.274,22.346,60.125,22.868,61.416z"/>
	<path fill="#F28063" d="M29.184,68.698c0.522,1.289,0.467,2.53-0.129,2.771s-1.498-0.612-2.024-1.902
		c-0.518-1.289-0.462-2.527,0.129-2.77C27.756,66.559,28.662,67.406,29.184,68.698z"/>
	<path fill="#F28063" d="M50.729,25.367c0.527,1.292,0.467,2.534-0.125,2.772c-0.596,0.24-1.496-0.61-2.023-1.899
		c-0.521-1.291-0.462-2.531,0.129-2.772C49.306,23.228,50.211,24.078,50.729,25.367z"/>
	<path fill="#F28063" d="M54.93,27.208c0.521,1.289,0.466,2.529-0.131,2.77c-0.596,0.241-1.496-0.61-2.023-1.899
		c-0.521-1.292-0.462-2.532,0.135-2.772C53.501,25.067,54.407,25.917,54.93,27.208z"/>
	<path fill="#F28063" d="M59.292,29.671c0.521,1.289,0.462,2.529-0.129,2.77c-0.597,0.24-1.498-0.61-2.024-1.899
		c-0.518-1.292-0.462-2.532,0.134-2.772C57.864,27.532,58.768,28.379,59.292,29.671z"/>
	<path fill="#F28063" d="M57.434,33.183c0.521,1.289,0.467,2.529-0.129,2.772c-0.592,0.24-1.502-0.612-2.02-1.901
		c-0.523-1.289-0.467-2.532,0.129-2.772C56.006,31.041,56.912,31.894,57.434,33.183z"/>
	<path fill="#F28063" d="M61.735,35.927c0.527,1.29,0.467,2.53-0.129,2.77c-0.592,0.243-1.497-0.61-2.02-1.899
		c-0.521-1.289-0.461-2.53,0.13-2.77C60.312,33.788,61.217,34.638,61.735,35.927z"/>
	<path fill="#F28063" d="M60.747,40.728c0.527,1.292,0.467,2.532-0.125,2.772c-0.596,0.24-1.502-0.61-2.027-1.902
		c-0.518-1.291-0.458-2.529,0.133-2.768C59.319,38.591,60.225,39.439,60.747,40.728z"/>
	<path fill="#F28063" d="M64.59,47.025c0.522,1.293,0.463,2.533-0.125,2.773c-0.596,0.239-1.501-0.613-2.023-1.901
		c-0.521-1.292-0.466-2.53,0.13-2.771C63.163,44.887,64.069,45.736,64.59,47.025z"/>
	<path fill="#F28063" d="M60.52,60.412c0.522,1.288,0.463,2.529-0.129,2.77c-0.597,0.24-1.502-0.612-2.02-1.898
		c-0.527-1.29-0.467-2.531,0.125-2.771C59.092,58.272,59.993,59.123,60.52,60.412z"/>
	<path fill="#F28063" d="M43.536,72.812c0.518,1.287,0.461,2.527-0.13,2.768c-0.597,0.24-1.497-0.609-2.024-1.898
		c-0.521-1.291-0.462-2.531,0.135-2.773C42.108,70.672,43.012,71.521,43.536,72.812z"/>
	<path fill="#F28063" d="M50.05,75.264c0.522,1.289,0.462,2.53-0.13,2.77c-0.596,0.24-1.497-0.609-2.019-1.898
		c-0.527-1.291-0.468-2.531,0.129-2.772C48.623,73.123,49.528,73.975,50.05,75.264z"/>
	<path fill="#F28063" d="M56.348,59.381c0.521,1.291,0.462,2.53-0.129,2.771c-0.597,0.239-1.498-0.61-2.02-1.897
		c-0.522-1.293-0.463-2.531,0.129-2.774C54.92,57.242,55.826,58.092,56.348,59.381z"/>
	<path fill="#F28063" d="M40.625,32.698c0.521,1.286,0.466,2.529-0.13,2.769c-0.592,0.241-1.496-0.612-2.02-1.899
		c-0.521-1.291-0.461-2.529,0.13-2.772C39.196,30.556,40.102,31.406,40.625,32.698z"/>
	
		<ellipse transform="matrix(0.9268 -0.3756 0.3756 0.9268 -12.342 17.4182)" fill="#F28063" cx="38.51" cy="40.369" rx="1.159" ry="2.521"/>
	<path fill="#F28063" d="M37.108,34.033c0.522,1.292,0.467,2.532-0.125,2.772c-0.596,0.238-1.501-0.612-2.024-1.901
		c-0.521-1.292-0.466-2.532,0.13-2.77C35.68,31.892,36.586,32.744,37.108,34.033z"/>
</g>
</svg>
