<?xml version="1.0" encoding="utf-8"?>
<!-- Generator: Adobe Illustrator 16.0.4, SVG Export Plug-In . SVG Version: 6.00 Build 0)  -->
<!DOCTYPE svg PUBLIC "-//W3C//DTD SVG 1.1//EN" "http://www.w3.org/Graphics/SVG/1.1/DTD/svg11.dtd">
<svg version="1.1" id="Layer_1" xmlns="http://www.w3.org/2000/svg" xmlns:xlink="http://www.w3.org/1999/xlink" x="0px" y="0px"
	 width="100.696px" height="97.613px" viewBox="-1.338 -3.342 100.696 97.613"
	 enable-background="new -1.338 -3.342 100.696 97.613" xml:space="preserve">
<g>
	<path fill="#009345" d="M2.004,54.958C0.598,40.753,4.24,29.287,7.544,22.167C5.611,27.27,5.161,32.871,6.479,38.589
		c2.188,9.479,8.873,17.956,18.816,23.887c9.744,5.801,21.525,8.492,33.176,7.572c2.938-0.242,5.83-0.703,8.588-1.385
		c18.275-4.518,29.665-18.083,28.727-33.281C98.057,47.331,94.2,55.699,94.2,55.699C78.482,89.754,55.398,90.332,44.236,91.578
		C33.087,92.832,4.424,79.402,2.004,54.958z"/>
	<path fill="#8CB93B" d="M67.059,68.664c20.18-4.988,31.971-21.007,28.025-38.084c-2.189-9.471-8.867-17.95-18.811-23.874
		c-9.748-5.803-21.526-8.493-33.176-7.568c-2.941,0.232-5.832,0.696-8.589,1.381C14.325,5.504,2.535,21.512,6.479,38.589
		c2.188,9.479,8.873,17.956,18.816,23.887c9.744,5.801,21.525,8.492,33.176,7.572C61.408,69.807,64.301,69.346,67.059,68.664z"/>
	<path fill="#EC1C24" d="M9.719,37.839c4.095,17.762,25.808,30.696,48.484,28.895c22.682-1.799,37.745-17.649,33.646-35.409
		C87.75,13.58,66.042,0.651,43.36,2.451C20.681,4.251,5.616,20.094,9.719,37.839z"/>
	<path fill="#231F20" d="M39.57,9.303c0.499,0.903,0.478,1.869-0.048,2.16c-0.525,0.291-1.354-0.205-1.852-1.101
		c-0.499-0.904-0.479-1.866,0.046-2.16C38.24,7.914,39.07,8.406,39.57,9.303z"/>
	<path fill="#231F20" d="M51.515,14.445c0.071,0.886-0.354,1.638-0.954,1.689c-0.599,0.044-1.139-0.63-1.212-1.513
		c-0.072-0.886,0.357-1.64,0.954-1.688C50.904,12.885,51.444,13.562,51.515,14.445z"/>
	<path fill="#231F20" d="M52.757,56.44c0.072,0.886-0.356,1.637-0.954,1.688c-0.601,0.046-1.141-0.63-1.213-1.514
		c-0.069-0.889,0.358-1.64,0.956-1.688C52.144,54.877,52.684,55.553,52.757,56.44z"/>
	<path fill="#231F20" d="M72.75,51.014c-0.693-0.562-0.942-1.389-0.564-1.855c0.377-0.467,1.242-0.392,1.932,0.167
		c0.688,0.562,0.939,1.389,0.562,1.858C74.301,51.651,73.438,51.573,72.75,51.014z"/>
	<path fill="#231F20" d="M76.71,34.978c-0.862,0.229-1.676-0.062-1.831-0.64c-0.152-0.582,0.418-1.232,1.275-1.46
		c0.86-0.226,1.676,0.061,1.834,0.643C78.138,34.098,77.568,34.753,76.71,34.978z"/>
	<path fill="#231F20" d="M32.742,21.724c-0.692-0.561-0.941-1.387-0.566-1.857c0.379-0.463,1.243-0.389,1.934,0.169
		c0.688,0.562,0.938,1.388,0.562,1.855C34.293,22.357,33.43,22.282,32.742,21.724z"/>
	
		<ellipse transform="matrix(0.8747 -0.4847 0.4847 0.8747 -20.6629 39.4668)" fill="#231F20" cx="65.983" cy="59.688" rx="1.086" ry="1.864"/>
	<path fill="#231F20" d="M84.438,27.229c-1.004,0.231-1.926-0.056-2.061-0.641s0.568-1.242,1.57-1.474
		c1.006-0.231,1.924,0.056,2.062,0.641C86.143,26.34,85.438,27,84.438,27.229z"/>
	
		<ellipse transform="matrix(0.2251 0.9743 -0.9743 0.2251 55.0683 16.0127)" fill="#231F20" cx="17.468" cy="42.626" rx="1.088" ry="1.864"/>
	<path fill="#231F20" d="M30.657,48.366c-0.933,0.439-1.894,0.357-2.15-0.187c-0.258-0.543,0.291-1.336,1.22-1.776
		c0.934-0.439,1.894-0.356,2.15,0.187C32.133,47.133,31.586,47.926,30.657,48.366z"/>
	<path fill="#231F20" d="M62.074,10.085c-0.236,1-0.902,1.7-1.486,1.564c-0.584-0.138-0.864-1.062-0.627-2.062
		c0.237-1.004,0.9-1.704,1.485-1.565C62.031,8.16,62.312,9.083,62.074,10.085z"/>
	<path fill="#231F20" d="M40.453,59.317c-0.237,1-0.902,1.699-1.487,1.564c-0.583-0.137-0.863-1.062-0.628-2.063
		c0.239-1.005,0.904-1.7,1.489-1.565C40.409,57.391,40.69,58.313,40.453,59.317z"/>
	<path fill="#231F20" d="M84.592,44.807c-0.899-0.509-1.387-1.34-1.093-1.866c0.294-0.522,1.261-0.536,2.157-0.03
		c0.896,0.505,1.385,1.336,1.09,1.862C86.452,45.295,85.486,45.309,84.592,44.807z"/>
	<path fill="#231F20" d="M19.251,21.832c-0.9-0.505-1.389-1.336-1.094-1.862c0.294-0.521,1.26-0.535,2.157-0.03
		c0.897,0.505,1.385,1.336,1.092,1.861C21.11,22.323,20.144,22.336,19.251,21.832z"/>
	<g>
		<path fill="#FFFFFF" d="M47.593,4.471c9.828,0,19.56,2.815,27.401,7.927c7.772,5.066,13.002,11.963,14.724,19.419
			c1.558,6.749,0.177,13.324-3.993,19.015C80.025,58.608,69.932,63.61,58.03,64.554c-1.342,0.106-2.707,0.16-4.058,0.16
			c-9.828,0-19.559-2.816-27.4-7.931c-7.773-5.07-13.002-11.973-14.723-19.437c-1.558-6.738-0.18-13.304,3.984-18.989
			C21.531,10.58,31.627,5.577,43.533,4.632C44.875,4.525,46.241,4.471,47.593,4.471 M47.593,2.284c-1.405,0-2.816,0.055-4.232,0.167
			C20.681,4.251,5.616,20.094,9.719,37.839c3.839,16.653,23.167,29.062,44.254,29.062c1.404,0,2.814-0.055,4.23-0.167
			c22.682-1.799,37.745-17.649,33.646-35.409C88.006,14.688,68.684,2.284,47.593,2.284L47.593,2.284z"/>
	</g>
	<g>
		<defs>
			<path id="SVGID_1_" d="M12.128,14.152c0,0-12.544,16.364-10.125,40.806c2.42,24.445,31.083,37.875,42.232,36.621
				c11.162-1.246,34.246-1.824,49.964-35.879c0,0,5.505-11.917-0.493-27.629L12.128,14.152z"/>
		</defs>
		<clipPath id="SVGID_2_">
			<use xlink:href="#SVGID_1_"  overflow="visible"/>
		</clipPath>
		<g clip-path="url(#SVGID_2_)">
			<defs>
				<path id="SVGID_3_" d="M2.004,54.958C0.598,40.753,4.24,29.287,7.544,22.167C5.611,27.27,5.161,32.871,6.479,38.589
					c2.188,9.479,8.873,17.956,18.816,23.887c9.744,5.801,21.525,8.492,33.176,7.572c2.938-0.242,5.83-0.703,8.588-1.385
					c18.275-4.518,29.665-18.083,28.727-33.281C98.057,47.331,94.2,55.699,94.2,55.699C78.482,89.754,55.398,90.332,44.236,91.578
					C33.087,92.832,4.424,79.402,2.004,54.958z"/>
			</defs>
			<clipPath id="SVGID_4_">
				<use xlink:href="#SVGID_3_"  overflow="visible"/>
			</clipPath>
			<path clip-path="url(#SVGID_4_)" fill="#8CB93B" d="M17.7,55l9.114,5.744c0,0,6.237,5.092,0.518,5.748
				c-5.721,0.664-9.309,2.002-4.736,4.645c4.575,2.641,10.885,6.816,3.39,7.006c-7.494,0.189-7.354,1.361-4.376,3.645
				c2.974,2.283,2.475,2.711,0.595,2.414c-1.881-0.287-7.348-1.045-8.873-2.936c-1.52-1.885,0.506-2.834,2.922-2.832
				c2.416,0.01,6.467-1.291,2.247-3.727c-4.217-2.42-9.209-9.18-3.522-9.381C20.657,65.129,22.692,60.551,17.7,55z"/>
			<path clip-path="url(#SVGID_4_)" fill="#8CB93B" d="M48.813,68.58c0,0,10.195-0.861,12.505-0.674
				c2.305,0.176,7.092,3.066,2.541,4.795c-4.549,1.734-9.565,5.84-3.957,5.959c5.611,0.117,11.752,1.771,5.922,3.812
				c-5.832,2.047-13.611,2.914-8.854,3.246c4.759,0.332,7.674-0.088,4.398,1.328c-3.267,1.406-8.633,2.889-5.97,2.68
				c2.663-0.205,0.422,1.105-4.553,1.73c-4.972,0.621-9.835-1.344-3.86-2.215c5.969-0.869,9.984-2.924,4.407-2.902
				c-5.573,0.025-13.138-1.277-5.319-3.213c7.819-1.924,13.216-1.453,5.695-4.416c0,0-4.892-2.715,0.582-4.371
				C57.821,72.684,53.676,69.945,48.813,68.58z"/>
		</g>
		<path clip-path="url(#SVGID_2_)" fill="#8CB93B" d="M36.357,92.021c0,0,5.539-1.367,1.925-3.191
			c-3.618-1.822-6.955-2.508-3.15-3.594c3.805-1.094,7.211-1.328,3.559-3.299c-3.652-1.959-7.916-2.721-4.075-3.666
			c3.839-0.953-8.695-1.51-3.026,3.016c3.32,2.643-0.54,3.295-1.891,3.328c-1.353,0.035-1.182,3.16,1.333,4.199
			C33.553,89.848,33.196,92.053,36.357,92.021z"/>
		<path clip-path="url(#SVGID_2_)" fill="#8CB93B" d="M82.064,65.186c0,0,5.222-0.84,3.189,1.932
			c-2.028,2.762-4.094,4.174-2.283,4.783c1.809,0.609,3.51,1.396-0.188,4.121c-3.7,2.727-8.219,4.592-6.009,1.332
			c2.211-3.26,2.992-3.154,0.118-3.799c-2.875-0.65-1.985-1.318,0.968-3.406C80.812,68.062,76.094,66.664,82.064,65.186z"/>
		<path clip-path="url(#SVGID_2_)" fill="#8CB93B" d="M1.228,40.815c0,0,1.987-0.487,3.826,2.683c1.838,3.159,8.5,9.961,4.132,8.175
			c-4.364-1.784-5.607-1.936-3.166,1.838c2.442,3.773,3.815,8.71,0.305,6.113c-3.507-2.603-3.227-1.466-2.025,1.559
			c1.196,3.02,3.704,7.678,0.692,5.254c-3.013-2.422-5.112-13.97-3.55-13.15c1.56,0.819,4.072,4.272,2.06-0.811
			c-2.01-5.081-3.099-8.883-1.22-7.391C4.155,46.58,2.286,42.668,1.228,40.815z"/>
	</g>
	<g>
		<g>
			<path fill="#231F20" d="M63.024,29.678c-0.713,0.432-1.139,1.225-1.551,2.063c-0.395,0.842-0.872,1.71-1.468,2.265
				c-0.296,0.284-0.616,0.497-0.914,0.678c-0.332,0.181-0.658,0.332-1.018,0.505c-0.379,0.155-0.809,0.315-1.299,0.489
				c-0.494,0.169-1.099,0.315-1.732,0.471c-0.644,0.125-1.314,0.211-1.983,0.29c-0.673,0.034-1.357,0.098-2.02,0.081
				c-1.336,0.013-2.59-0.115-3.743-0.232c-1.139-0.125-2.212-0.264-3.164-0.346c-0.953-0.071-1.853-0.056-2.565,0.366
				c-0.691,0.415-1.125,1.25-1.047,2.506c0.074,1.264,0.746,2.873,2.103,4.442c1.354,1.551,3.391,3.031,5.951,3.915
				c1.274,0.475,2.687,0.741,4.186,0.887c1.496,0.093,3.084,0.039,4.698-0.297c1.609-0.357,3.163-0.905,4.601-1.732
				c1.434-0.828,2.729-1.89,3.771-3.136c1.035-1.268,1.784-2.698,2.212-4.127c0.408-1.443,0.495-2.85,0.327-4.078
				c-0.081-0.608-0.247-1.173-0.407-1.676c-0.207-0.502-0.404-0.958-0.645-1.343c-0.255-0.388-0.515-0.728-0.764-1.014
				c-0.277-0.274-0.551-0.499-0.814-0.68c-0.51-0.377-1.065-0.526-1.509-0.57C63.772,29.371,63.378,29.475,63.024,29.678z"/>
		</g>
		<path fill="#EA2227" d="M53.49,44.018c0.816,1.467,3.601,2.041,6.125,1.308c2.529-0.741,3.85-2.516,3.029-3.984
			c-1.348-2.415-4.158-0.246-5.283,0.104C56.239,41.791,51.984,41.299,53.49,44.018z"/>
		<g>
			<g>
				<defs>
					<path id="SVGID_5_" d="M63.024,29.678c-0.713,0.432-1.139,1.225-1.551,2.063c-0.395,0.842-0.872,1.71-1.468,2.265
						c-0.296,0.284-0.616,0.497-0.914,0.678c-0.332,0.181-0.658,0.332-1.018,0.505c-0.379,0.155-0.809,0.315-1.299,0.489
						c-0.494,0.169-1.099,0.315-1.732,0.471c-0.644,0.125-1.314,0.211-1.983,0.29c-0.673,0.034-1.357,0.098-2.02,0.081
						c-1.336,0.013-2.59-0.115-3.743-0.232c-1.139-0.125-2.212-0.264-3.164-0.346c-0.953-0.071-1.853-0.056-2.565,0.366
						c-0.691,0.415-1.125,1.25-1.047,2.506c0.074,1.264,0.746,2.873,2.103,4.442c1.354,1.551,3.391,3.031,5.951,3.915
						c1.274,0.475,2.687,0.741,4.186,0.887c1.496,0.093,3.084,0.039,4.698-0.297c1.609-0.357,3.163-0.905,4.601-1.732
						c1.434-0.828,2.729-1.89,3.771-3.136c1.035-1.268,1.784-2.698,2.212-4.127c0.408-1.443,0.495-2.85,0.327-4.078
						c-0.081-0.608-0.247-1.173-0.407-1.676c-0.207-0.502-0.404-0.958-0.645-1.343c-0.255-0.388-0.515-0.728-0.764-1.014
						c-0.277-0.274-0.551-0.499-0.814-0.68c-0.51-0.377-1.065-0.526-1.509-0.57C63.772,29.371,63.378,29.475,63.024,29.678z"/>
				</defs>
				<clipPath id="SVGID_6_">
					<use xlink:href="#SVGID_5_"  overflow="visible"/>
				</clipPath>
				<path clip-path="url(#SVGID_6_)" fill="#FFFFFF" d="M60.846,30.666c0,0-5.268,8.208-16.708,4.877l0.646,2.143
					c0,0,0.381,1.039,0.987,1.091c0.614,0.052,11.216,2.22,16.48-4.923c0,0,0.718-0.747,0.334-1.398
					C62.203,31.795,60.846,30.666,60.846,30.666z"/>
			</g>
			<g>
				<g>
					<g>
						<path fill="#3F3B3C" d="M54.809,36.866c0.43-0.252,1.2,0.287,1.721,1.204c0.521,0.917,0.587,1.854,0.148,2.091
							c-0.438,0.237-1.207-0.303-1.719-1.205C54.446,38.054,54.379,37.118,54.809,36.866z"/>
					</g>
				</g>
			</g>
		</g>
		<g>
			<g>
				<g>
					<path fill="#3F3B3C" d="M58.511,43.6c-0.473,0.273-1.347-0.354-1.953-1.401c-0.63-0.972-0.783-2.026-0.346-2.354
						c0.437-0.327,1.354,0.274,2.044,1.345C58.868,42.248,58.982,43.326,58.511,43.6z"/>
				</g>
			</g>
		</g>
		<g>
			<g>
				<g>
					<path fill="#3F3B3C" d="M68.691,21.575c-0.149,0.093-0.699-0.25-0.92-1.274c-0.119-0.501-0.019-1.208,0.409-1.842
						c0.428-0.652,1.245-1.069,2.043-1.131c0.805-0.077,1.553,0.093,2.124,0.398c0.591,0.278,1.021,0.679,1.332,1.038
						c0.602,0.764,0.643,1.39,0.468,1.47c-0.212,0.11-0.591-0.252-1.217-0.641c-0.621-0.371-1.593-0.8-2.534-0.694
						c-0.973,0.068-1.389,0.706-1.509,1.364C68.779,20.921,68.908,21.467,68.691,21.575z"/>
				</g>
			</g>
		</g>
		<g>
			<g>
				<g>
					<path fill="#3F3B3C" d="M25.475,34.924c-0.149,0.094-0.7-0.249-0.921-1.273c-0.12-0.502-0.019-1.209,0.407-1.843
						c0.428-0.652,1.244-1.072,2.042-1.135c0.806-0.079,1.554,0.09,2.126,0.396c0.591,0.278,1.022,0.679,1.333,1.038
						c0.602,0.765,0.642,1.391,0.467,1.471c-0.212,0.11-0.59-0.253-1.217-0.643c-0.621-0.371-1.592-0.8-2.534-0.692
						c-0.973,0.069-1.389,0.709-1.508,1.368C25.562,34.27,25.691,34.815,25.475,34.924z"/>
				</g>
			</g>
		</g>
	</g>
	<g>
		<defs>
			<path id="SVGID_7_" d="M9.719,37.839c4.095,17.762,25.808,30.696,48.484,28.895c22.682-1.799,37.745-17.649,33.646-35.409
				C87.75,13.58,66.042,0.651,43.36,2.451C20.681,4.251,5.616,20.094,9.719,37.839z"/>
		</defs>
		<clipPath id="SVGID_8_">
			<use xlink:href="#SVGID_7_"  overflow="visible"/>
		</clipPath>
	</g>
	<path fill="#D0D2D3" d="M52.59,77.082c9.313-1.377,19.014-4.027,27.134-8.912c4.083-2.457,8.073-5.537,11.34-9.193
		c-8.319,16.324-19.45,26.025-33.944,29.609l0,0c-4.203,1.033-8.077,1.436-11.195,1.756c-0.653,0.07-1.276,0.129-1.866,0.193
		C39.93,91,31.962,89.139,23.691,84.059c2.153-2.201,4.149-4.449,5.987-6.748C37.261,78.402,44.897,78.232,52.59,77.082z"/>
	<g>
		<path fill="#8CB93B" d="M47.606,0.228c10.015,0,19.703,2.616,28.016,7.563c9.645,5.751,16.118,13.946,18.227,23.072
			c0.344,1.5,0.568,3.015,0.665,4.503l0.012,0.176l0.032,0.173c0.188,1.003,0.337,2.004,0.44,2.975l0.003,0.026l0.003,0.026
			l0.008,0.06c0.028,0.262,0.052,0.522,0.074,0.776l0.011,0.11l0.013,0.163c0.023,0.298,0.046,0.594,0.063,0.916l0.004,0.068
			c0.081,1.513,0.074,2.986-0.022,4.527c-0.013,0.248-0.034,0.495-0.057,0.766l-0.009,0.127c-0.106,1.187-0.272,2.379-0.492,3.537
			l-0.062,0.316l-0.066,0.34c-0.182,0.865-0.401,1.734-0.632,2.498l-0.132,0.426c0,0-0.072,0.224-0.118,0.366l-0.041,0.121
			c-0.098,0.292-0.19,0.545-0.271,0.752L93.21,54.78c-0.033,0.084-0.068,0.171-0.069,0.173h0.001
			c-0.043,0.097-0.08,0.181-0.112,0.259c-8.485,18.352-20.122,29.174-35.571,33.08l-0.246,0.061
			c-4.249,1.05-8.128,1.447-11.274,1.771c-0.373,0.042-0.737,0.079-1.09,0.115l-0.75,0.078c-0.421,0.047-0.883,0.071-1.374,0.071
			c-5.867,0-15.828-3.27-24.857-10.575c-6.013-4.861-13.426-13.141-14.6-24.989c-0.075-0.73-0.136-1.516-0.188-2.402l-0.002-0.039
			l-0.003-0.039c-0.007-0.078-0.008-0.152-0.01-0.226l-0.008-0.208l-0.013-0.267c-0.026-0.535-0.049-1.064-0.059-1.593l-0.008-0.544
			l-0.002-0.197v-0.144c-0.003-0.479-0.003-0.96,0.005-1.43c0.005-0.306,0.012-0.606,0.02-0.888c0.016-0.468,0.035-0.941,0.06-1.431
			l0.006-0.148l0.02-0.316c0.006-0.107,0.013-0.214,0.023-0.365c0.029-0.484,0.072-0.958,0.116-1.442c0,0,0.045-0.534,0.062-0.702
			c0.056-0.571,0.126-1.169,0.229-1.945l0.018-0.133c0.091-0.677,0.195-1.359,0.302-1.982l0.108-0.574
			c0.085-0.489,0.175-0.966,0.262-1.392l0.144-0.651l0.008-0.036l0.007-0.036c0.081-0.416,0.173-0.821,0.27-1.217l0.006-0.027
			l0.006-0.027c0.024-0.109,0.051-0.216,0.077-0.322l0.058-0.236c0.109-0.431,0.22-0.856,0.336-1.29l0.139-0.519
			c0.128-0.458,0.26-0.908,0.399-1.362l0.104-0.343c0.48-1.554,1.056-3.174,1.712-4.814l0.076-0.19l0.021-0.051
			c0.165-0.397,0.328-0.789,0.492-1.161L8.072,24.1l0.014-0.033l0.036-0.087c0.185-0.419,0.365-0.83,0.54-1.202l0.047-0.1
			l0.039-0.104C12.587,12.481,22.086,4.891,34.809,1.749c2.704-0.667,5.526-1.121,8.391-1.347
			C44.657,0.287,46.14,0.228,47.606,0.228 M47.606-2.701c-1.546,0-3.093,0.061-4.639,0.184c-3.033,0.239-6.015,0.72-8.861,1.423
			C20.434,2.282,10.194,10.535,6.011,21.534c-0.188,0.401-0.384,0.845-0.583,1.297l-0.049,0.118
			c-0.197,0.446-0.393,0.92-0.592,1.398c0,0.006-0.038,0.097-0.038,0.1c-0.656,1.641-1.264,3.329-1.792,5.037l-0.109,0.363
			c-0.142,0.461-0.28,0.936-0.415,1.417l-0.147,0.551c-0.119,0.442-0.233,0.882-0.346,1.326c-0.05,0.211-0.105,0.422-0.154,0.641
			c-0.107,0.439-0.209,0.889-0.299,1.35l-0.144,0.651c-0.102,0.501-0.197,1.006-0.287,1.522l-0.101,0.534
			c-0.121,0.702-0.23,1.411-0.327,2.135l-0.019,0.147c-0.093,0.707-0.173,1.362-0.239,2.034c-0.017,0.165-0.066,0.741-0.066,0.741
			c-0.045,0.497-0.09,1-0.121,1.515c-0.018,0.236-0.028,0.469-0.045,0.707L0.13,45.292c-0.024,0.485-0.044,0.974-0.061,1.457
			c-0.008,0.31-0.015,0.62-0.021,0.936c-0.009,0.491-0.009,0.996-0.005,1.5v0.124c0.003,0.27,0.005,0.528,0.011,0.799
			c0.01,0.554,0.035,1.112,0.062,1.677l0.014,0.272c0.007,0.177,0.009,0.35,0.024,0.534c0.052,0.902,0.116,1.73,0.198,2.531
			C1.625,67.961,9.575,76.875,16.025,82.09c9.356,7.569,20.058,11.227,26.699,11.227c0.602,0,1.17-0.03,1.702-0.09
			c0.582-0.062,1.198-0.121,1.84-0.193c3.22-0.33,7.225-0.744,11.65-1.838h0.003c16.502-4.084,28.861-15.463,37.791-34.801
			c0.002-0.01,0.125-0.288,0.125-0.288l-1.513-0.695l1.537,0.634c0,0,0.146-0.362,0.149-0.38c0.093-0.24,0.2-0.534,0.314-0.874
			c0.003-0.002,0.17-0.519,0.17-0.519c0.032-0.104,0.144-0.465,0.144-0.465c0.259-0.857,0.498-1.799,0.699-2.761
			c0.05-0.258,0.095-0.479,0.138-0.701c0.246-1.3,0.428-2.617,0.543-3.942c0-0.004,0-0.03,0-0.03
			c0.023-0.278,0.048-0.564,0.063-0.853c0.103-1.635,0.108-3.239,0.022-4.843l-0.007-0.104c-0.017-0.31-0.04-0.63-0.065-0.953
			l-0.014-0.169c-0.028-0.312-0.057-0.638-0.092-0.964l-0.014-0.109c-0.113-1.06-0.275-2.146-0.474-3.203
			c-0.108-1.654-0.356-3.324-0.733-4.967c-2.292-9.92-9.247-18.771-19.581-24.933C68.382,0.074,58.048-2.7,47.606-2.701
			L47.606-2.701z"/>
	</g>
</g>
</svg>
